ply
format ascii 1.0           
element vertex 210
property float x           
property float y           
property float z           
element face 0
property list uchar int vertex_index 
end_header                 
1.2300	 6.6600	 0.0000
1.2297	 6.6939	 0.0000
1.2289	 6.7266	 0.0000
1.2278	 6.7585	 0.0000
1.2266	 6.7895	 0.0000
1.2256	 6.8200	 0.0000
1.2250	 6.8501	 0.0000
1.2249	 6.8799	 0.0000
1.2255	 6.9098	 0.0000
1.2272	 6.9397	 0.0000
1.2300	 6.9700	 0.0000
1.2347	 7.0001	 0.0000
1.2413	 7.0297	 0.0000
1.2493	 7.0588	 0.0000
1.2582	 7.0878	 0.0000
1.2675	 7.1169	 0.0000
1.2766	 7.1462	 0.0000
1.2849	 7.1759	 0.0000
1.2919	 7.2063	 0.0000
1.2971	 7.2376	 0.0000
1.3000	 7.2700	 0.0000
1.3003	 7.3036	 0.0000
1.2984	 7.3383	 0.0000
1.2948	 7.3739	 0.0000
1.2900	 7.4102	 0.0000
1.2844	 7.4469	 0.0000
1.2784	 7.4838	 0.0000
1.2725	 7.5208	 0.0000
1.2672	 7.5577	 0.0000
1.2629	 7.5941	 0.0000
1.2600	 7.6300	 0.0000
1.2585	 7.6655	 0.0000
1.2579	 7.7011	 0.0000
1.2580	 7.7367	 0.0000
1.2586	 7.7722	 0.0000
1.2594	 7.8075	 0.0000
1.2602	 7.8426	 0.0000
1.2609	 7.8775	 0.0000
1.2613	 7.9121	 0.0000
1.2610	 7.9463	 0.0000
1.2600	 7.9800	 0.0000
1.2572	 8.0139	 0.0000
1.2522	 8.0485	 0.0000
1.2460	 8.0832	 0.0000
1.2391	 8.1178	 0.0000
1.2325	 8.1519	 0.0000
1.2269	 8.1850	 0.0000
1.2230	 8.2167	 0.0000
1.2218	 8.2467	 0.0000
1.2238	 8.2746	 0.0000
1.2300	 8.3000	 0.0000
1.2409	 8.3227	 0.0000
1.2559	 8.3429	 0.0000
1.2744	 8.3610	 0.0000
1.2954	 8.3774	 0.0000
1.3181	 8.3925	 0.0000
1.3418	 8.4066	 0.0000
1.3657	 8.4200	 0.0000
1.3889	 8.4331	 0.0000
1.4106	 8.4463	 0.0000
1.4300	 8.4600	 0.0000
1.4473	 8.4741	 0.0000
1.4633	 8.4882	 0.0000
1.4784	 8.5021	 0.0000
1.4930	 8.5157	 0.0000
1.5075	 8.5287	 0.0000
1.5222	 8.5411	 0.0000
1.5374	 8.5526	 0.0000
1.5535	 8.5630	 0.0000
1.5709	 8.5722	 0.0000
1.5900	 8.5800	 0.0000
1.6103	 8.5861	 0.0000
1.6311	 8.5907	 0.0000
1.6527	 8.5940	 0.0000
1.6750	 8.5962	 0.0000
1.6981	 8.5975	 0.0000
1.7222	 8.5982	 0.0000
1.7474	 8.5986	 0.0000
1.7737	 8.5989	 0.0000
1.8012	 8.5993	 0.0000
1.8300	 8.6000	 0.0000
1.8612	 8.6014	 0.0000
1.8952	 8.6034	 0.0000
1.9313	 8.6056	 0.0000
1.9688	 8.6077	 0.0000
2.0069	 8.6094	 0.0000
2.0448	 8.6103	 0.0000
2.0818	 8.6102	 0.0000
2.1172	 8.6086	 0.0000
2.1502	 8.6054	 0.0000
2.1800	 8.6000	 0.0000
2.2071	 8.5924	 0.0000
2.2326	 8.5830	 0.0000
2.2564	 8.5718	 0.0000
2.2789	 8.5593	 0.0000
2.3000	 8.5456	 0.0000
2.3199	 8.5311	 0.0000
2.3388	 8.5160	 0.0000
2.3566	 8.5006	 0.0000
2.3737	 8.4852	 0.0000
2.3900	 8.4700	 0.0000
2.4055	 8.4552	 0.0000
2.4198	 8.4408	 0.0000
2.4332	 8.4263	 0.0000
2.4455	 8.4116	 0.0000
2.4569	 8.3963	 0.0000
2.4673	 8.3800	 0.0000
2.4768	 8.3626	 0.0000
2.4854	 8.3436	 0.0000
2.4931	 8.3229	 0.0000
2.5000	 8.3000	 0.0000
2.5057	 8.2748	 0.0000
2.5101	 8.2476	 0.0000
2.5132	 8.2185	 0.0000
2.5154	 8.1880	 0.0000
2.5169	 8.1562	 0.0000
2.5178	 8.1236	 0.0000
2.5183	 8.0904	 0.0000
2.5187	 8.0568	 0.0000
2.5192	 8.0232	 0.0000
2.5200	 7.9900	 0.0000
2.5209	 7.9560	 0.0000
2.5216	 7.9205	 0.0000
2.5221	 7.8838	 0.0000
2.5224	 7.8466	 0.0000
2.5225	 7.8094	 0.0000
2.5224	 7.7726	 0.0000
2.5221	 7.7367	 0.0000
2.5216	 7.7023	 0.0000
2.5209	 7.6699	 0.0000
2.5200	 7.6400	 0.0000
2.5186	 7.6130	 0.0000
2.5165	 7.5885	 0.0000
2.5139	 7.5660	 0.0000
2.5110	 7.5450	 0.0000
2.5081	 7.5250	 0.0000
2.5054	 7.5054	 0.0000
2.5030	 7.4856	 0.0000
2.5011	 7.4651	 0.0000
2.5001	 7.4434	 0.0000
2.5000	 7.4200	 0.0000
2.5011	 7.3948	 0.0000
2.5031	 7.3686	 0.0000
2.5060	 7.3414	 0.0000
2.5094	 7.3137	 0.0000
2.5131	 7.2856	 0.0000
2.5170	 7.2575	 0.0000
2.5209	 7.2296	 0.0000
2.5245	 7.2022	 0.0000
2.5276	 7.1756	 0.0000
2.5300	 7.1500	 0.0000
2.5319	 7.1253	 0.0000
2.5336	 7.1011	 0.0000
2.5351	 7.0774	 0.0000
2.5364	 7.0542	 0.0000
2.5375	 7.0312	 0.0000
2.5384	 7.0086	 0.0000
2.5391	 6.9863	 0.0000
2.5396	 6.9641	 0.0000
2.5399	 6.9420	 0.0000
2.5400	 6.9200	 0.0000
2.5398	 6.8982	 0.0000
2.5391	 6.8769	 0.0000
2.5382	 6.8558	 0.0000
2.5370	 6.8350	 0.0000
2.5356	 6.8144	 0.0000
2.5342	 6.7938	 0.0000
2.5329	 6.7731	 0.0000
2.5317	 6.7523	 0.0000
2.5307	 6.7313	 0.0000
2.5300	 6.7100	 0.0000
2.5296	 6.6883	 0.0000
2.5294	 6.6662	 0.0000
2.5293	 6.6438	 0.0000
2.5293	 6.6213	 0.0000
2.5294	 6.5987	 0.0000
2.5295	 6.5763	 0.0000
2.5297	 6.5541	 0.0000
2.5298	 6.5322	 0.0000
2.5300	 6.5108	 0.0000
2.5300	 6.4900	 0.0000
2.5359	 6.4690	 0.0000
2.5508	 6.4474	 0.0000
2.5709	 6.4254	 0.0000
2.5924	 6.4037	 0.0000
2.6113	 6.3825	 0.0000
2.6236	 6.3623	 0.0000
2.6256	 6.3436	 0.0000
2.6132	 6.3266	 0.0000
2.5826	 6.3120	 0.0000
2.5300	 6.3000	 0.0000
2.4468	 6.2893	 0.0000
2.3324	 6.2787	 0.0000
2.1946	 6.2689	 0.0000
2.0412	 6.2606	 0.0000
1.8800	 6.2544	 0.0000
1.7188	 6.2510	 0.0000
1.5654	 6.2512	 0.0000
1.4276	 6.2557	 0.0000
1.3132	 6.2650	 0.0000
1.2300	 6.2800	 0.0000
1.1773	 6.3021	 0.0000
1.1468	 6.3315	 0.0000
1.1344	 6.3668	 0.0000
1.1364	 6.4066	 0.0000
1.1488	 6.4494	 0.0000
1.1676	 6.4938	 0.0000
1.1891	 6.5385	 0.0000
1.2092	 6.5821	 0.0000
1.2242	 6.6230	 0.0000