ply
format ascii 1.0
comment VCGLIB generated
element vertex 2455
property float x
property float y
property float z
property float nx
property float ny
property float nz
element face 0
property list uchar int vertex_indices
end_header
1040 570 41 0 0 0 
1040 571 41 0 0 0 
1040 572 41 0 0 0 
1040 573 41 0 0 0 
1040 574 41 0 0 0 
1040 575 41 0 0 0 
1040 576 41 0 0 0 
1040 577 41 0 0 0 
1040 578 41 0 0 0 
1040 579 41 0 0 0 
1040 563 42 0 0 0 
1040 564 42 0 0 0 
1040 565 42 0 0 0 
1040 566 42 0 0 0 
1040 567 42 0 0 0 
1040 568 42 0 0 0 
1040 569 42 0 0 0 
1040 570 42 0 0 0 
1040 571 42 0 0 0 
1040 572 42 0 0 0 
1040 573 42 0 0 0 
1040 574 42 0 0 0 
1040 575 42 0 0 0 
1040 576 42 0 0 0 
1040 577 42 0 0 0 
1040 578 42 0 0 0 
1040 579 42 0 0 0 
1040 580 42 0 0 0 
1040 581 42 0 0 0 
1040 582 42 0 0 0 
1040 583 42 0 0 0 
1040 553 43 0 0 0 
1040 554 43 0 0 0 
1040 555 43 0 0 0 
1040 556 43 0 0 0 
1040 557 43 0 0 0 
1040 558 43 0 0 0 
1040 559 43 0 0 0 
1040 560 43 0 0 0 
1040 561 43 0 0 0 
1040 562 43 0 0 0 
1040 563 43 0 0 0 
1040 564 43 0 0 0 
1040 565 43 0 0 0 
1040 566 43 0 0 0 
1040 567 43 0 0 0 
1040 568 43 0 0 0 
1040 569 43 0 0 0 
1040 570 43 0 0 0 
1040 571 43 0 0 0 
1040 572 43 0 0 0 
1040 573 43 0 0 0 
1040 574 43 0 0 0 
1040 575 43 0 0 0 
1040 576 43 0 0 0 
1040 577 43 0 0 0 
1040 578 43 0 0 0 
1040 579 43 0 0 0 
1040 580 43 0 0 0 
1040 581 43 0 0 0 
1040 582 43 0 0 0 
1040 583 43 0 0 0 
1040 584 43 0 0 0 
1040 585 43 0 0 0 
1040 547 44 0 0 0 
1040 548 44 0 0 0 
1040 549 44 0 0 0 
1040 550 44 0 0 0 
1040 551 44 0 0 0 
1040 552 44 0 0 0 
1040 553 44 0 0 0 
1040 554 44 0 0 0 
1040 555 44 0 0 0 
1040 556 44 0 0 0 
1040 557 44 0 0 0 
1040 558 44 0 0 0 
1040 559 44 0 0 0 
1040 560 44 0 0 0 
1040 561 44 0 0 0 
1040 562 44 0 0 0 
1040 563 44 0 0 0 
1040 564 44 0 0 0 
1040 565 44 0 0 0 
1040 566 44 0 0 0 
1040 567 44 0 0 0 
1040 568 44 0 0 0 
1040 569 44 0 0 0 
1040 570 44 0 0 0 
1040 571 44 0 0 0 
1040 572 44 0 0 0 
1040 578 44 0 0 0 
1040 579 44 0 0 0 
1040 580 44 0 0 0 
1040 581 44 0 0 0 
1040 582 44 0 0 0 
1040 583 44 0 0 0 
1040 584 44 0 0 0 
1040 585 44 0 0 0 
1040 586 44 0 0 0 
1040 544 45 0 0 0 
1040 545 45 0 0 0 
1040 546 45 0 0 0 
1040 547 45 0 0 0 
1040 548 45 0 0 0 
1040 549 45 0 0 0 
1040 550 45 0 0 0 
1040 551 45 0 0 0 
1040 552 45 0 0 0 
1040 553 45 0 0 0 
1040 554 45 0 0 0 
1040 555 45 0 0 0 
1040 581 45 0 0 0 
1040 582 45 0 0 0 
1040 583 45 0 0 0 
1040 584 45 0 0 0 
1040 585 45 0 0 0 
1040 586 45 0 0 0 
1040 587 45 0 0 0 
1040 539 46 0 0 0 
1040 540 46 0 0 0 
1040 541 46 0 0 0 
1040 542 46 0 0 0 
1040 543 46 0 0 0 
1040 544 46 0 0 0 
1040 545 46 0 0 0 
1040 546 46 0 0 0 
1040 547 46 0 0 0 
1040 548 46 0 0 0 
1040 549 46 0 0 0 
1040 550 46 0 0 0 
1040 584 46 0 0 0 
1040 585 46 0 0 0 
1040 586 46 0 0 0 
1040 587 46 0 0 0 
1040 588 46 0 0 0 
1040 525 47 0 0 0 
1040 526 47 0 0 0 
1040 527 47 0 0 0 
1040 528 47 0 0 0 
1040 529 47 0 0 0 
1040 530 47 0 0 0 
1040 531 47 0 0 0 
1040 532 47 0 0 0 
1040 533 47 0 0 0 
1040 534 47 0 0 0 
1040 535 47 0 0 0 
1040 536 47 0 0 0 
1040 537 47 0 0 0 
1040 538 47 0 0 0 
1040 539 47 0 0 0 
1040 540 47 0 0 0 
1040 541 47 0 0 0 
1040 542 47 0 0 0 
1040 543 47 0 0 0 
1040 544 47 0 0 0 
1040 545 47 0 0 0 
1040 546 47 0 0 0 
1040 547 47 0 0 0 
1040 548 47 0 0 0 
1040 585 47 0 0 0 
1040 586 47 0 0 0 
1040 587 47 0 0 0 
1040 588 47 0 0 0 
1040 589 47 0 0 0 
1040 525 48 0 0 0 
1040 526 48 0 0 0 
1040 527 48 0 0 0 
1040 528 48 0 0 0 
1040 529 48 0 0 0 
1040 530 48 0 0 0 
1040 531 48 0 0 0 
1040 532 48 0 0 0 
1040 533 48 0 0 0 
1040 534 48 0 0 0 
1040 535 48 0 0 0 
1040 536 48 0 0 0 
1040 537 48 0 0 0 
1040 538 48 0 0 0 
1040 539 48 0 0 0 
1040 540 48 0 0 0 
1040 541 48 0 0 0 
1040 586 48 0 0 0 
1040 587 48 0 0 0 
1040 588 48 0 0 0 
1040 589 48 0 0 0 
1040 590 48 0 0 0 
1040 525 49 0 0 0 
1040 526 49 0 0 0 
1040 527 49 0 0 0 
1040 528 49 0 0 0 
1040 529 49 0 0 0 
1040 530 49 0 0 0 
1040 531 49 0 0 0 
1040 532 49 0 0 0 
1040 533 49 0 0 0 
1040 534 49 0 0 0 
1040 535 49 0 0 0 
1040 536 49 0 0 0 
1040 537 49 0 0 0 
1040 538 49 0 0 0 
1040 587 49 0 0 0 
1040 588 49 0 0 0 
1040 589 49 0 0 0 
1040 590 49 0 0 0 
1040 591 49 0 0 0 
1040 588 50 0 0 0 
1040 589 50 0 0 0 
1040 590 50 0 0 0 
1040 591 50 0 0 0 
1040 592 50 0 0 0 
1040 589 51 0 0 0 
1040 590 51 0 0 0 
1040 591 51 0 0 0 
1040 592 51 0 0 0 
1040 593 51 0 0 0 
1040 590 52 0 0 0 
1040 591 52 0 0 0 
1040 592 52 0 0 0 
1040 593 52 0 0 0 
1040 594 52 0 0 0 
1040 591 53 0 0 0 
1040 592 53 0 0 0 
1040 593 53 0 0 0 
1040 594 53 0 0 0 
1040 595 53 0 0 0 
1040 592 54 0 0 0 
1040 593 54 0 0 0 
1040 594 54 0 0 0 
1040 595 54 0 0 0 
1040 596 54 0 0 0 
1040 597 54 0 0 0 
1040 593 55 0 0 0 
1040 594 55 0 0 0 
1040 595 55 0 0 0 
1040 596 55 0 0 0 
1040 597 55 0 0 0 
1040 598 55 0 0 0 
1040 595 56 0 0 0 
1040 596 56 0 0 0 
1040 597 56 0 0 0 
1040 598 56 0 0 0 
1040 599 56 0 0 0 
1040 596 57 0 0 0 
1040 597 57 0 0 0 
1040 598 57 0 0 0 
1040 599 57 0 0 0 
1040 600 57 0 0 0 
1040 601 57 0 0 0 
1040 598 58 0 0 0 
1040 599 58 0 0 0 
1040 600 58 0 0 0 
1040 601 58 0 0 0 
1040 602 58 0 0 0 
1040 599 59 0 0 0 
1040 600 59 0 0 0 
1040 601 59 0 0 0 
1040 602 59 0 0 0 
1040 603 59 0 0 0 
1040 1091 59 0 0 0 
1040 601 60 0 0 0 
1040 602 60 0 0 0 
1040 603 60 0 0 0 
1040 604 60 0 0 0 
1040 605 60 0 0 0 
1040 602 61 0 0 0 
1040 603 61 0 0 0 
1040 604 61 0 0 0 
1040 605 61 0 0 0 
1040 606 61 0 0 0 
1040 603 62 0 0 0 
1040 604 62 0 0 0 
1040 605 62 0 0 0 
1040 606 62 0 0 0 
1040 607 62 0 0 0 
1040 605 63 0 0 0 
1040 606 63 0 0 0 
1040 607 63 0 0 0 
1040 608 63 0 0 0 
1040 609 63 0 0 0 
1040 610 63 0 0 0 
1040 606 64 0 0 0 
1040 607 64 0 0 0 
1040 608 64 0 0 0 
1040 609 64 0 0 0 
1040 610 64 0 0 0 
1040 611 64 0 0 0 
1040 608 65 0 0 0 
1040 609 65 0 0 0 
1040 610 65 0 0 0 
1040 611 65 0 0 0 
1040 612 65 0 0 0 
1040 613 65 0 0 0 
1040 611 66 0 0 0 
1040 612 66 0 0 0 
1040 613 66 0 0 0 
1040 614 66 0 0 0 
1040 615 66 0 0 0 
1040 612 67 0 0 0 
1040 613 67 0 0 0 
1040 614 67 0 0 0 
1040 615 67 0 0 0 
1040 616 67 0 0 0 
1040 617 67 0 0 0 
1040 615 68 0 0 0 
1040 616 68 0 0 0 
1040 617 68 0 0 0 
1040 618 68 0 0 0 
1040 619 68 0 0 0 
1040 616 69 0 0 0 
1040 617 69 0 0 0 
1040 618 69 0 0 0 
1040 619 69 0 0 0 
1040 620 69 0 0 0 
1040 621 69 0 0 0 
1040 617 70 0 0 0 
1040 618 70 0 0 0 
1040 619 70 0 0 0 
1040 620 70 0 0 0 
1040 621 70 0 0 0 
1040 622 70 0 0 0 
1040 623 70 0 0 0 
1040 619 71 0 0 0 
1040 620 71 0 0 0 
1040 621 71 0 0 0 
1040 622 71 0 0 0 
1040 623 71 0 0 0 
1040 624 71 0 0 0 
1040 625 71 0 0 0 
1040 621 72 0 0 0 
1040 622 72 0 0 0 
1040 623 72 0 0 0 
1040 624 72 0 0 0 
1040 625 72 0 0 0 
1040 626 72 0 0 0 
1040 627 72 0 0 0 
1040 628 72 0 0 0 
1040 623 73 0 0 0 
1040 624 73 0 0 0 
1040 625 73 0 0 0 
1040 626 73 0 0 0 
1040 627 73 0 0 0 
1040 628 73 0 0 0 
1040 629 73 0 0 0 
1040 630 73 0 0 0 
1040 625 74 0 0 0 
1040 626 74 0 0 0 
1040 627 74 0 0 0 
1040 628 74 0 0 0 
1040 629 74 0 0 0 
1040 630 74 0 0 0 
1040 631 74 0 0 0 
1040 632 74 0 0 0 
1040 628 75 0 0 0 
1040 629 75 0 0 0 
1040 630 75 0 0 0 
1040 631 75 0 0 0 
1040 632 75 0 0 0 
1040 633 75 0 0 0 
1040 632 76 0 0 0 
1040 633 76 0 0 0 
1040 634 76 0 0 0 
1040 635 76 0 0 0 
1040 636 76 0 0 0 
1040 634 77 0 0 0 
1040 635 77 0 0 0 
1040 636 77 0 0 0 
1040 637 77 0 0 0 
1040 638 77 0 0 0 
1040 639 77 0 0 0 
1040 640 77 0 0 0 
1040 636 78 0 0 0 
1040 637 78 0 0 0 
1040 638 78 0 0 0 
1040 639 78 0 0 0 
1040 640 78 0 0 0 
1040 641 78 0 0 0 
1040 639 79 0 0 0 
1040 640 79 0 0 0 
1040 641 79 0 0 0 
1040 642 79 0 0 0 
1040 643 79 0 0 0 
1040 644 79 0 0 0 
1040 645 79 0 0 0 
1040 641 80 0 0 0 
1040 642 80 0 0 0 
1040 643 80 0 0 0 
1040 644 80 0 0 0 
1040 645 80 0 0 0 
1040 646 80 0 0 0 
1040 647 80 0 0 0 
1040 648 80 0 0 0 
1040 643 81 0 0 0 
1040 644 81 0 0 0 
1040 645 81 0 0 0 
1040 646 81 0 0 0 
1040 647 81 0 0 0 
1040 648 81 0 0 0 
1040 649 81 0 0 0 
1040 650 81 0 0 0 
1040 651 81 0 0 0 
1040 646 82 0 0 0 
1040 647 82 0 0 0 
1040 648 82 0 0 0 
1040 649 82 0 0 0 
1040 650 82 0 0 0 
1040 651 82 0 0 0 
1040 652 82 0 0 0 
1040 653 82 0 0 0 
1040 654 82 0 0 0 
1040 655 82 0 0 0 
1040 650 83 0 0 0 
1040 651 83 0 0 0 
1040 652 83 0 0 0 
1040 653 83 0 0 0 
1040 654 83 0 0 0 
1040 655 83 0 0 0 
1040 656 83 0 0 0 
1040 657 83 0 0 0 
1040 658 83 0 0 0 
1040 653 84 0 0 0 
1040 654 84 0 0 0 
1040 655 84 0 0 0 
1040 656 84 0 0 0 
1040 657 84 0 0 0 
1040 658 84 0 0 0 
1040 659 84 0 0 0 
1040 660 84 0 0 0 
1040 661 84 0 0 0 
1040 662 84 0 0 0 
1040 658 85 0 0 0 
1040 659 85 0 0 0 
1040 660 85 0 0 0 
1040 661 85 0 0 0 
1040 662 85 0 0 0 
1040 663 85 0 0 0 
1040 664 85 0 0 0 
1040 665 85 0 0 0 
1040 666 85 0 0 0 
1040 667 85 0 0 0 
1040 668 85 0 0 0 
1040 660 86 0 0 0 
1040 661 86 0 0 0 
1040 662 86 0 0 0 
1040 663 86 0 0 0 
1040 664 86 0 0 0 
1040 665 86 0 0 0 
1040 666 86 0 0 0 
1040 667 86 0 0 0 
1040 668 86 0 0 0 
1040 669 86 0 0 0 
1040 670 86 0 0 0 
1040 671 86 0 0 0 
1040 672 86 0 0 0 
1040 675 86 0 0 0 
1040 676 86 0 0 0 
1040 677 86 0 0 0 
1040 678 86 0 0 0 
1040 679 86 0 0 0 
1040 680 86 0 0 0 
1040 663 87 0 0 0 
1040 664 87 0 0 0 
1040 665 87 0 0 0 
1040 666 87 0 0 0 
1040 667 87 0 0 0 
1040 668 87 0 0 0 
1040 669 87 0 0 0 
1040 670 87 0 0 0 
1040 671 87 0 0 0 
1040 672 87 0 0 0 
1040 673 87 0 0 0 
1040 674 87 0 0 0 
1040 675 87 0 0 0 
1040 676 87 0 0 0 
1040 677 87 0 0 0 
1040 678 87 0 0 0 
1040 679 87 0 0 0 
1040 680 87 0 0 0 
1040 681 87 0 0 0 
1040 673 88 0 0 0 
1040 674 88 0 0 0 
1040 675 88 0 0 0 
1040 676 88 0 0 0 
1040 677 88 0 0 0 
1040 678 88 0 0 0 
1040 679 88 0 0 0 
1040 680 88 0 0 0 
1040 681 88 0 0 0 
1040 682 88 0 0 0 
1040 679 89 0 0 0 
1040 680 89 0 0 0 
1040 681 89 0 0 0 
1040 682 89 0 0 0 
1040 683 89 0 0 0 
1040 684 89 0 0 0 
1040 681 90 0 0 0 
1040 682 90 0 0 0 
1040 683 90 0 0 0 
1040 684 90 0 0 0 
1040 685 90 0 0 0 
1040 683 91 0 0 0 
1040 684 91 0 0 0 
1040 685 91 0 0 0 
1040 686 91 0 0 0 
1040 687 91 0 0 0 
1040 684 92 0 0 0 
1040 685 92 0 0 0 
1040 686 92 0 0 0 
1040 687 92 0 0 0 
1040 688 92 0 0 0 
1040 686 93 0 0 0 
1040 687 93 0 0 0 
1040 688 93 0 0 0 
1040 689 93 0 0 0 
1040 690 93 0 0 0 
1040 691 93 0 0 0 
1040 688 94 0 0 0 
1040 689 94 0 0 0 
1040 690 94 0 0 0 
1040 691 94 0 0 0 
1040 692 94 0 0 0 
1040 690 95 0 0 0 
1040 691 95 0 0 0 
1040 692 95 0 0 0 
1040 693 95 0 0 0 
1040 694 95 0 0 0 
1040 692 96 0 0 0 
1040 693 96 0 0 0 
1040 694 96 0 0 0 
1040 695 96 0 0 0 
1040 696 96 0 0 0 
1040 694 97 0 0 0 
1040 695 97 0 0 0 
1040 696 97 0 0 0 
1040 697 97 0 0 0 
1040 698 97 0 0 0 
1040 696 98 0 0 0 
1040 697 98 0 0 0 
1040 698 98 0 0 0 
1040 699 98 0 0 0 
1040 700 98 0 0 0 
1040 701 98 0 0 0 
1040 696 99 0 0 0 
1040 697 99 0 0 0 
1040 698 99 0 0 0 
1040 699 99 0 0 0 
1040 700 99 0 0 0 
1040 701 99 0 0 0 
1040 702 99 0 0 0 
1040 703 99 0 0 0 
1040 698 100 0 0 0 
1040 699 100 0 0 0 
1040 700 100 0 0 0 
1040 701 100 0 0 0 
1040 702 100 0 0 0 
1040 703 100 0 0 0 
1040 704 100 0 0 0 
1040 705 100 0 0 0 
1040 706 100 0 0 0 
1040 701 101 0 0 0 
1040 702 101 0 0 0 
1040 703 101 0 0 0 
1040 704 101 0 0 0 
1040 705 101 0 0 0 
1040 706 101 0 0 0 
1040 707 101 0 0 0 
1040 708 101 0 0 0 
1040 704 102 0 0 0 
1040 705 102 0 0 0 
1040 706 102 0 0 0 
1040 707 102 0 0 0 
1040 708 102 0 0 0 
1040 709 102 0 0 0 
1040 710 102 0 0 0 
1040 711 102 0 0 0 
1040 712 102 0 0 0 
1040 713 102 0 0 0 
1040 769 102 0 0 0 
1040 770 102 0 0 0 
1040 771 102 0 0 0 
1040 772 102 0 0 0 
1040 773 102 0 0 0 
1040 774 102 0 0 0 
1040 775 102 0 0 0 
1040 776 102 0 0 0 
1040 777 102 0 0 0 
1040 778 102 0 0 0 
1040 779 102 0 0 0 
1040 780 102 0 0 0 
1040 781 102 0 0 0 
1040 782 102 0 0 0 
1040 707 103 0 0 0 
1040 708 103 0 0 0 
1040 709 103 0 0 0 
1040 710 103 0 0 0 
1040 711 103 0 0 0 
1040 712 103 0 0 0 
1040 713 103 0 0 0 
1040 714 103 0 0 0 
1040 715 103 0 0 0 
1040 716 103 0 0 0 
1040 765 103 0 0 0 
1040 766 103 0 0 0 
1040 767 103 0 0 0 
1040 768 103 0 0 0 
1040 769 103 0 0 0 
1040 770 103 0 0 0 
1040 771 103 0 0 0 
1040 772 103 0 0 0 
1040 773 103 0 0 0 
1040 774 103 0 0 0 
1040 775 103 0 0 0 
1040 776 103 0 0 0 
1040 777 103 0 0 0 
1040 778 103 0 0 0 
1040 779 103 0 0 0 
1040 780 103 0 0 0 
1040 781 103 0 0 0 
1040 782 103 0 0 0 
1040 783 103 0 0 0 
1040 784 103 0 0 0 
1040 785 103 0 0 0 
1040 786 103 0 0 0 
1040 787 103 0 0 0 
1040 788 103 0 0 0 
1040 789 103 0 0 0 
1040 790 103 0 0 0 
1040 711 104 0 0 0 
1040 712 104 0 0 0 
1040 713 104 0 0 0 
1040 714 104 0 0 0 
1040 715 104 0 0 0 
1040 716 104 0 0 0 
1040 717 104 0 0 0 
1040 718 104 0 0 0 
1040 719 104 0 0 0 
1040 720 104 0 0 0 
1040 763 104 0 0 0 
1040 764 104 0 0 0 
1040 765 104 0 0 0 
1040 766 104 0 0 0 
1040 767 104 0 0 0 
1040 768 104 0 0 0 
1040 769 104 0 0 0 
1040 770 104 0 0 0 
1040 771 104 0 0 0 
1040 774 104 0 0 0 
1040 779 104 0 0 0 
1040 780 104 0 0 0 
1040 781 104 0 0 0 
1040 782 104 0 0 0 
1040 783 104 0 0 0 
1040 784 104 0 0 0 
1040 785 104 0 0 0 
1040 786 104 0 0 0 
1040 787 104 0 0 0 
1040 788 104 0 0 0 
1040 789 104 0 0 0 
1040 790 104 0 0 0 
1040 791 104 0 0 0 
1040 792 104 0 0 0 
1040 793 104 0 0 0 
1040 794 104 0 0 0 
1040 795 104 0 0 0 
1040 796 104 0 0 0 
1040 717 105 0 0 0 
1040 718 105 0 0 0 
1040 719 105 0 0 0 
1040 720 105 0 0 0 
1040 721 105 0 0 0 
1040 722 105 0 0 0 
1040 723 105 0 0 0 
1040 760 105 0 0 0 
1040 761 105 0 0 0 
1040 762 105 0 0 0 
1040 763 105 0 0 0 
1040 764 105 0 0 0 
1040 765 105 0 0 0 
1040 766 105 0 0 0 
1040 767 105 0 0 0 
1040 783 105 0 0 0 
1040 784 105 0 0 0 
1040 785 105 0 0 0 
1040 786 105 0 0 0 
1040 787 105 0 0 0 
1040 788 105 0 0 0 
1040 789 105 0 0 0 
1040 790 105 0 0 0 
1040 791 105 0 0 0 
1040 792 105 0 0 0 
1040 793 105 0 0 0 
1040 794 105 0 0 0 
1040 795 105 0 0 0 
1040 796 105 0 0 0 
1040 797 105 0 0 0 
1040 798 105 0 0 0 
1040 799 105 0 0 0 
1040 800 105 0 0 0 
1040 801 105 0 0 0 
1040 725 106 0 0 0 
1040 726 106 0 0 0 
1040 727 106 0 0 0 
1040 728 106 0 0 0 
1040 729 106 0 0 0 
1040 730 106 0 0 0 
1040 731 106 0 0 0 
1040 732 106 0 0 0 
1040 733 106 0 0 0 
1040 734 106 0 0 0 
1040 735 106 0 0 0 
1040 736 106 0 0 0 
1040 744 106 0 0 0 
1040 753 106 0 0 0 
1040 754 106 0 0 0 
1040 755 106 0 0 0 
1040 756 106 0 0 0 
1040 757 106 0 0 0 
1040 758 106 0 0 0 
1040 759 106 0 0 0 
1040 760 106 0 0 0 
1040 761 106 0 0 0 
1040 762 106 0 0 0 
1040 763 106 0 0 0 
1040 764 106 0 0 0 
1040 790 106 0 0 0 
1040 791 106 0 0 0 
1040 792 106 0 0 0 
1040 793 106 0 0 0 
1040 794 106 0 0 0 
1040 795 106 0 0 0 
1040 796 106 0 0 0 
1040 797 106 0 0 0 
1040 798 106 0 0 0 
1040 799 106 0 0 0 
1040 800 106 0 0 0 
1040 801 106 0 0 0 
1040 802 106 0 0 0 
1040 803 106 0 0 0 
1040 804 106 0 0 0 
1040 805 106 0 0 0 
1040 730 107 0 0 0 
1040 731 107 0 0 0 
1040 732 107 0 0 0 
1040 733 107 0 0 0 
1040 734 107 0 0 0 
1040 735 107 0 0 0 
1040 736 107 0 0 0 
1040 737 107 0 0 0 
1040 738 107 0 0 0 
1040 739 107 0 0 0 
1040 740 107 0 0 0 
1040 741 107 0 0 0 
1040 742 107 0 0 0 
1040 743 107 0 0 0 
1040 744 107 0 0 0 
1040 745 107 0 0 0 
1040 746 107 0 0 0 
1040 747 107 0 0 0 
1040 748 107 0 0 0 
1040 749 107 0 0 0 
1040 750 107 0 0 0 
1040 751 107 0 0 0 
1040 752 107 0 0 0 
1040 753 107 0 0 0 
1040 754 107 0 0 0 
1040 755 107 0 0 0 
1040 756 107 0 0 0 
1040 757 107 0 0 0 
1040 758 107 0 0 0 
1040 759 107 0 0 0 
1040 794 107 0 0 0 
1040 795 107 0 0 0 
1040 796 107 0 0 0 
1040 797 107 0 0 0 
1040 798 107 0 0 0 
1040 799 107 0 0 0 
1040 800 107 0 0 0 
1040 801 107 0 0 0 
1040 802 107 0 0 0 
1040 803 107 0 0 0 
1040 804 107 0 0 0 
1040 805 107 0 0 0 
1040 806 107 0 0 0 
1040 807 107 0 0 0 
1040 808 107 0 0 0 
1040 809 107 0 0 0 
1040 1164 107 0 0 0 
1040 736 108 0 0 0 
1040 737 108 0 0 0 
1040 738 108 0 0 0 
1040 739 108 0 0 0 
1040 740 108 0 0 0 
1040 741 108 0 0 0 
1040 742 108 0 0 0 
1040 743 108 0 0 0 
1040 744 108 0 0 0 
1040 745 108 0 0 0 
1040 746 108 0 0 0 
1040 747 108 0 0 0 
1040 748 108 0 0 0 
1040 749 108 0 0 0 
1040 750 108 0 0 0 
1040 751 108 0 0 0 
1040 752 108 0 0 0 
1040 753 108 0 0 0 
1040 754 108 0 0 0 
1040 755 108 0 0 0 
1040 756 108 0 0 0 
1040 798 108 0 0 0 
1040 799 108 0 0 0 
1040 800 108 0 0 0 
1040 801 108 0 0 0 
1040 802 108 0 0 0 
1040 803 108 0 0 0 
1040 804 108 0 0 0 
1040 805 108 0 0 0 
1040 806 108 0 0 0 
1040 807 108 0 0 0 
1040 808 108 0 0 0 
1040 809 108 0 0 0 
1040 810 108 0 0 0 
1040 811 108 0 0 0 
1040 812 108 0 0 0 
1040 813 108 0 0 0 
1040 814 108 0 0 0 
1040 1164 108 0 0 0 
1040 1165 108 0 0 0 
1040 1166 108 0 0 0 
1040 1167 108 0 0 0 
1040 747 109 0 0 0 
1040 748 109 0 0 0 
1040 749 109 0 0 0 
1040 750 109 0 0 0 
1040 804 109 0 0 0 
1040 805 109 0 0 0 
1040 806 109 0 0 0 
1040 807 109 0 0 0 
1040 808 109 0 0 0 
1040 809 109 0 0 0 
1040 810 109 0 0 0 
1040 811 109 0 0 0 
1040 812 109 0 0 0 
1040 813 109 0 0 0 
1040 814 109 0 0 0 
1040 815 109 0 0 0 
1040 816 109 0 0 0 
1040 817 109 0 0 0 
1040 818 109 0 0 0 
1040 819 109 0 0 0 
1040 1164 109 0 0 0 
1040 1165 109 0 0 0 
1040 1166 109 0 0 0 
1040 1167 109 0 0 0 
1040 1168 109 0 0 0 
1040 1169 109 0 0 0 
1040 1170 109 0 0 0 
1040 1171 109 0 0 0 
1040 809 110 0 0 0 
1040 810 110 0 0 0 
1040 811 110 0 0 0 
1040 812 110 0 0 0 
1040 813 110 0 0 0 
1040 814 110 0 0 0 
1040 815 110 0 0 0 
1040 816 110 0 0 0 
1040 817 110 0 0 0 
1040 818 110 0 0 0 
1040 819 110 0 0 0 
1040 820 110 0 0 0 
1040 821 110 0 0 0 
1040 822 110 0 0 0 
1040 823 110 0 0 0 
1040 1160 110 0 0 0 
1040 1161 110 0 0 0 
1040 1162 110 0 0 0 
1040 1163 110 0 0 0 
1040 1164 110 0 0 0 
1040 1165 110 0 0 0 
1040 1166 110 0 0 0 
1040 1167 110 0 0 0 
1040 1168 110 0 0 0 
1040 1169 110 0 0 0 
1040 1170 110 0 0 0 
1040 1171 110 0 0 0 
1040 1172 110 0 0 0 
1040 1173 110 0 0 0 
1040 1174 110 0 0 0 
1040 1175 110 0 0 0 
1040 1176 110 0 0 0 
1040 1177 110 0 0 0 
1040 1178 110 0 0 0 
1040 812 111 0 0 0 
1040 813 111 0 0 0 
1040 814 111 0 0 0 
1040 815 111 0 0 0 
1040 816 111 0 0 0 
1040 817 111 0 0 0 
1040 818 111 0 0 0 
1040 819 111 0 0 0 
1040 820 111 0 0 0 
1040 821 111 0 0 0 
1040 822 111 0 0 0 
1040 823 111 0 0 0 
1040 824 111 0 0 0 
1040 825 111 0 0 0 
1040 826 111 0 0 0 
1040 827 111 0 0 0 
1040 828 111 0 0 0 
1040 829 111 0 0 0 
1040 1160 111 0 0 0 
1040 1161 111 0 0 0 
1040 1162 111 0 0 0 
1040 1163 111 0 0 0 
1040 1164 111 0 0 0 
1040 1165 111 0 0 0 
1040 1166 111 0 0 0 
1040 1167 111 0 0 0 
1040 1168 111 0 0 0 
1040 1169 111 0 0 0 
1040 1170 111 0 0 0 
1040 1171 111 0 0 0 
1040 1172 111 0 0 0 
1040 1173 111 0 0 0 
1040 1174 111 0 0 0 
1040 1175 111 0 0 0 
1040 1176 111 0 0 0 
1040 1177 111 0 0 0 
1040 1178 111 0 0 0 
1040 1179 111 0 0 0 
1040 1180 111 0 0 0 
1040 1181 111 0 0 0 
1040 1182 111 0 0 0 
1040 1183 111 0 0 0 
1040 1184 111 0 0 0 
1040 1185 111 0 0 0 
1040 1186 111 0 0 0 
1040 818 112 0 0 0 
1040 819 112 0 0 0 
1040 820 112 0 0 0 
1040 821 112 0 0 0 
1040 822 112 0 0 0 
1040 823 112 0 0 0 
1040 824 112 0 0 0 
1040 825 112 0 0 0 
1040 826 112 0 0 0 
1040 827 112 0 0 0 
1040 828 112 0 0 0 
1040 829 112 0 0 0 
1040 830 112 0 0 0 
1040 831 112 0 0 0 
1040 832 112 0 0 0 
1040 833 112 0 0 0 
1040 834 112 0 0 0 
1040 835 112 0 0 0 
1040 1159 112 0 0 0 
1040 1160 112 0 0 0 
1040 1161 112 0 0 0 
1040 1162 112 0 0 0 
1040 1163 112 0 0 0 
1040 1164 112 0 0 0 
1040 1168 112 0 0 0 
1040 1169 112 0 0 0 
1040 1170 112 0 0 0 
1040 1171 112 0 0 0 
1040 1172 112 0 0 0 
1040 1173 112 0 0 0 
1040 1174 112 0 0 0 
1040 1175 112 0 0 0 
1040 1176 112 0 0 0 
1040 1177 112 0 0 0 
1040 1178 112 0 0 0 
1040 1179 112 0 0 0 
1040 1180 112 0 0 0 
1040 1181 112 0 0 0 
1040 1182 112 0 0 0 
1040 1183 112 0 0 0 
1040 1184 112 0 0 0 
1040 1185 112 0 0 0 
1040 1186 112 0 0 0 
1040 1187 112 0 0 0 
1040 1188 112 0 0 0 
1040 1189 112 0 0 0 
1040 1190 112 0 0 0 
1040 1191 112 0 0 0 
1040 1192 112 0 0 0 
1040 1193 112 0 0 0 
1040 1194 112 0 0 0 
1040 1195 112 0 0 0 
1040 821 113 0 0 0 
1040 822 113 0 0 0 
1040 823 113 0 0 0 
1040 824 113 0 0 0 
1040 825 113 0 0 0 
1040 826 113 0 0 0 
1040 827 113 0 0 0 
1040 828 113 0 0 0 
1040 829 113 0 0 0 
1040 830 113 0 0 0 
1040 831 113 0 0 0 
1040 832 113 0 0 0 
1040 833 113 0 0 0 
1040 834 113 0 0 0 
1040 835 113 0 0 0 
1040 836 113 0 0 0 
1040 837 113 0 0 0 
1040 838 113 0 0 0 
1040 839 113 0 0 0 
1040 840 113 0 0 0 
1040 1158 113 0 0 0 
1040 1159 113 0 0 0 
1040 1160 113 0 0 0 
1040 1161 113 0 0 0 
1040 1162 113 0 0 0 
1040 1163 113 0 0 0 
1040 1170 113 0 0 0 
1040 1171 113 0 0 0 
1040 1172 113 0 0 0 
1040 1173 113 0 0 0 
1040 1174 113 0 0 0 
1040 1175 113 0 0 0 
1040 1176 113 0 0 0 
1040 1177 113 0 0 0 
1040 1178 113 0 0 0 
1040 1179 113 0 0 0 
1040 1180 113 0 0 0 
1040 1181 113 0 0 0 
1040 1182 113 0 0 0 
1040 1183 113 0 0 0 
1040 1184 113 0 0 0 
1040 1185 113 0 0 0 
1040 1186 113 0 0 0 
1040 1187 113 0 0 0 
1040 1188 113 0 0 0 
1040 1189 113 0 0 0 
1040 1190 113 0 0 0 
1040 1191 113 0 0 0 
1040 1192 113 0 0 0 
1040 1193 113 0 0 0 
1040 1194 113 0 0 0 
1040 1195 113 0 0 0 
1040 1196 113 0 0 0 
1040 1197 113 0 0 0 
1040 1198 113 0 0 0 
1040 1199 113 0 0 0 
1040 1200 113 0 0 0 
1040 1201 113 0 0 0 
1040 1202 113 0 0 0 
1040 1203 113 0 0 0 
1040 1206 113 0 0 0 
1040 1207 113 0 0 0 
1040 1208 113 0 0 0 
1040 825 114 0 0 0 
1040 826 114 0 0 0 
1040 827 114 0 0 0 
1040 828 114 0 0 0 
1040 829 114 0 0 0 
1040 830 114 0 0 0 
1040 831 114 0 0 0 
1040 832 114 0 0 0 
1040 833 114 0 0 0 
1040 834 114 0 0 0 
1040 835 114 0 0 0 
1040 836 114 0 0 0 
1040 837 114 0 0 0 
1040 838 114 0 0 0 
1040 839 114 0 0 0 
1040 840 114 0 0 0 
1040 841 114 0 0 0 
1040 842 114 0 0 0 
1040 843 114 0 0 0 
1040 844 114 0 0 0 
1040 845 114 0 0 0 
1040 1157 114 0 0 0 
1040 1158 114 0 0 0 
1040 1159 114 0 0 0 
1040 1160 114 0 0 0 
1040 1161 114 0 0 0 
1040 1162 114 0 0 0 
1040 1163 114 0 0 0 
1040 1174 114 0 0 0 
1040 1175 114 0 0 0 
1040 1176 114 0 0 0 
1040 1177 114 0 0 0 
1040 1178 114 0 0 0 
1040 1179 114 0 0 0 
1040 1180 114 0 0 0 
1040 1181 114 0 0 0 
1040 1182 114 0 0 0 
1040 1183 114 0 0 0 
1040 1184 114 0 0 0 
1040 1185 114 0 0 0 
1040 1186 114 0 0 0 
1040 1187 114 0 0 0 
1040 1188 114 0 0 0 
1040 1189 114 0 0 0 
1040 1190 114 0 0 0 
1040 1191 114 0 0 0 
1040 1192 114 0 0 0 
1040 1193 114 0 0 0 
1040 1194 114 0 0 0 
1040 1195 114 0 0 0 
1040 1196 114 0 0 0 
1040 1197 114 0 0 0 
1040 1198 114 0 0 0 
1040 1199 114 0 0 0 
1040 1200 114 0 0 0 
1040 1201 114 0 0 0 
1040 1202 114 0 0 0 
1040 1203 114 0 0 0 
1040 1204 114 0 0 0 
1040 1205 114 0 0 0 
1040 1206 114 0 0 0 
1040 1207 114 0 0 0 
1040 1208 114 0 0 0 
1040 1209 114 0 0 0 
1040 1210 114 0 0 0 
1040 1211 114 0 0 0 
1040 1212 114 0 0 0 
1040 1213 114 0 0 0 
1040 1214 114 0 0 0 
1040 1215 114 0 0 0 
1040 1216 114 0 0 0 
1040 1217 114 0 0 0 
1040 1218 114 0 0 0 
1040 1219 114 0 0 0 
1040 1220 114 0 0 0 
1040 1221 114 0 0 0 
1040 1222 114 0 0 0 
1040 829 115 0 0 0 
1040 830 115 0 0 0 
1040 831 115 0 0 0 
1040 832 115 0 0 0 
1040 833 115 0 0 0 
1040 834 115 0 0 0 
1040 835 115 0 0 0 
1040 836 115 0 0 0 
1040 837 115 0 0 0 
1040 838 115 0 0 0 
1040 839 115 0 0 0 
1040 840 115 0 0 0 
1040 841 115 0 0 0 
1040 842 115 0 0 0 
1040 843 115 0 0 0 
1040 844 115 0 0 0 
1040 845 115 0 0 0 
1040 846 115 0 0 0 
1040 847 115 0 0 0 
1040 848 115 0 0 0 
1040 849 115 0 0 0 
1040 850 115 0 0 0 
1040 851 115 0 0 0 
1040 1152 115 0 0 0 
1040 1153 115 0 0 0 
1040 1154 115 0 0 0 
1040 1155 115 0 0 0 
1040 1156 115 0 0 0 
1040 1157 115 0 0 0 
1040 1158 115 0 0 0 
1040 1159 115 0 0 0 
1040 1160 115 0 0 0 
1040 1161 115 0 0 0 
1040 1162 115 0 0 0 
1040 1181 115 0 0 0 
1040 1182 115 0 0 0 
1040 1183 115 0 0 0 
1040 1184 115 0 0 0 
1040 1185 115 0 0 0 
1040 1186 115 0 0 0 
1040 1187 115 0 0 0 
1040 1188 115 0 0 0 
1040 1189 115 0 0 0 
1040 1190 115 0 0 0 
1040 1191 115 0 0 0 
1040 1192 115 0 0 0 
1040 1193 115 0 0 0 
1040 1194 115 0 0 0 
1040 1195 115 0 0 0 
1040 1196 115 0 0 0 
1040 1197 115 0 0 0 
1040 1198 115 0 0 0 
1040 1199 115 0 0 0 
1040 1200 115 0 0 0 
1040 1201 115 0 0 0 
1040 1202 115 0 0 0 
1040 1203 115 0 0 0 
1040 1204 115 0 0 0 
1040 1205 115 0 0 0 
1040 1206 115 0 0 0 
1040 1207 115 0 0 0 
1040 1208 115 0 0 0 
1040 1209 115 0 0 0 
1040 1210 115 0 0 0 
1040 1211 115 0 0 0 
1040 1212 115 0 0 0 
1040 1213 115 0 0 0 
1040 1214 115 0 0 0 
1040 1215 115 0 0 0 
1040 1216 115 0 0 0 
1040 1217 115 0 0 0 
1040 1218 115 0 0 0 
1040 1219 115 0 0 0 
1040 1220 115 0 0 0 
1040 1221 115 0 0 0 
1040 1222 115 0 0 0 
1040 837 116 0 0 0 
1040 838 116 0 0 0 
1040 839 116 0 0 0 
1040 840 116 0 0 0 
1040 841 116 0 0 0 
1040 842 116 0 0 0 
1040 843 116 0 0 0 
1040 844 116 0 0 0 
1040 845 116 0 0 0 
1040 846 116 0 0 0 
1040 847 116 0 0 0 
1040 848 116 0 0 0 
1040 849 116 0 0 0 
1040 850 116 0 0 0 
1040 851 116 0 0 0 
1040 852 116 0 0 0 
1040 853 116 0 0 0 
1040 854 116 0 0 0 
1040 855 116 0 0 0 
1040 856 116 0 0 0 
1040 857 116 0 0 0 
1040 858 116 0 0 0 
1040 859 116 0 0 0 
1040 860 116 0 0 0 
1040 1150 116 0 0 0 
1040 1151 116 0 0 0 
1040 1152 116 0 0 0 
1040 1153 116 0 0 0 
1040 1154 116 0 0 0 
1040 1155 116 0 0 0 
1040 1156 116 0 0 0 
1040 1157 116 0 0 0 
1040 1158 116 0 0 0 
1040 1159 116 0 0 0 
1040 1160 116 0 0 0 
1040 1192 116 0 0 0 
1040 1199 116 0 0 0 
1040 1200 116 0 0 0 
1040 1201 116 0 0 0 
1040 1202 116 0 0 0 
1040 1203 116 0 0 0 
1040 1205 116 0 0 0 
1040 1206 116 0 0 0 
1040 1207 116 0 0 0 
1040 1208 116 0 0 0 
1040 1209 116 0 0 0 
1040 1210 116 0 0 0 
1040 1211 116 0 0 0 
1040 1212 116 0 0 0 
1040 1213 116 0 0 0 
1040 1214 116 0 0 0 
1040 1215 116 0 0 0 
1040 1216 116 0 0 0 
1040 1217 116 0 0 0 
1040 1218 116 0 0 0 
1040 1219 116 0 0 0 
1040 1220 116 0 0 0 
1040 1221 116 0 0 0 
1040 1222 116 0 0 0 
1040 840 117 0 0 0 
1040 841 117 0 0 0 
1040 842 117 0 0 0 
1040 843 117 0 0 0 
1040 844 117 0 0 0 
1040 845 117 0 0 0 
1040 846 117 0 0 0 
1040 847 117 0 0 0 
1040 848 117 0 0 0 
1040 849 117 0 0 0 
1040 850 117 0 0 0 
1040 851 117 0 0 0 
1040 852 117 0 0 0 
1040 853 117 0 0 0 
1040 854 117 0 0 0 
1040 855 117 0 0 0 
1040 856 117 0 0 0 
1040 857 117 0 0 0 
1040 858 117 0 0 0 
1040 859 117 0 0 0 
1040 860 117 0 0 0 
1040 861 117 0 0 0 
1040 862 117 0 0 0 
1040 863 117 0 0 0 
1040 864 117 0 0 0 
1040 865 117 0 0 0 
1040 866 117 0 0 0 
1040 867 117 0 0 0 
1040 868 117 0 0 0 
1040 869 117 0 0 0 
1040 870 117 0 0 0 
1040 1149 117 0 0 0 
1040 1150 117 0 0 0 
1040 1151 117 0 0 0 
1040 1152 117 0 0 0 
1040 1153 117 0 0 0 
1040 1154 117 0 0 0 
1040 1155 117 0 0 0 
1040 1156 117 0 0 0 
1040 1157 117 0 0 0 
1040 1213 117 0 0 0 
1040 1214 117 0 0 0 
1040 1215 117 0 0 0 
1040 1216 117 0 0 0 
1040 1217 117 0 0 0 
1040 844 118 0 0 0 
1040 845 118 0 0 0 
1040 846 118 0 0 0 
1040 847 118 0 0 0 
1040 848 118 0 0 0 
1040 849 118 0 0 0 
1040 850 118 0 0 0 
1040 851 118 0 0 0 
1040 852 118 0 0 0 
1040 853 118 0 0 0 
1040 854 118 0 0 0 
1040 855 118 0 0 0 
1040 856 118 0 0 0 
1040 857 118 0 0 0 
1040 858 118 0 0 0 
1040 859 118 0 0 0 
1040 860 118 0 0 0 
1040 861 118 0 0 0 
1040 862 118 0 0 0 
1040 863 118 0 0 0 
1040 864 118 0 0 0 
1040 865 118 0 0 0 
1040 866 118 0 0 0 
1040 867 118 0 0 0 
1040 868 118 0 0 0 
1040 869 118 0 0 0 
1040 870 118 0 0 0 
1040 871 118 0 0 0 
1040 872 118 0 0 0 
1040 873 118 0 0 0 
1040 874 118 0 0 0 
1040 875 118 0 0 0 
1040 876 118 0 0 0 
1040 877 118 0 0 0 
1040 878 118 0 0 0 
1040 879 118 0 0 0 
1040 880 118 0 0 0 
1040 1144 118 0 0 0 
1040 1145 118 0 0 0 
1040 1146 118 0 0 0 
1040 1147 118 0 0 0 
1040 1148 118 0 0 0 
1040 1149 118 0 0 0 
1040 1150 118 0 0 0 
1040 1151 118 0 0 0 
1040 1152 118 0 0 0 
1040 1153 118 0 0 0 
1040 1154 118 0 0 0 
1040 854 119 0 0 0 
1040 859 119 0 0 0 
1040 860 119 0 0 0 
1040 861 119 0 0 0 
1040 862 119 0 0 0 
1040 863 119 0 0 0 
1040 864 119 0 0 0 
1040 865 119 0 0 0 
1040 866 119 0 0 0 
1040 867 119 0 0 0 
1040 868 119 0 0 0 
1040 869 119 0 0 0 
1040 870 119 0 0 0 
1040 871 119 0 0 0 
1040 872 119 0 0 0 
1040 873 119 0 0 0 
1040 874 119 0 0 0 
1040 875 119 0 0 0 
1040 876 119 0 0 0 
1040 877 119 0 0 0 
1040 878 119 0 0 0 
1040 879 119 0 0 0 
1040 880 119 0 0 0 
1040 881 119 0 0 0 
1040 882 119 0 0 0 
1040 883 119 0 0 0 
1040 884 119 0 0 0 
1040 885 119 0 0 0 
1040 886 119 0 0 0 
1040 887 119 0 0 0 
1040 888 119 0 0 0 
1040 889 119 0 0 0 
1040 1143 119 0 0 0 
1040 1144 119 0 0 0 
1040 1145 119 0 0 0 
1040 1146 119 0 0 0 
1040 1147 119 0 0 0 
1040 1148 119 0 0 0 
1040 1149 119 0 0 0 
1040 1150 119 0 0 0 
1040 867 120 0 0 0 
1040 868 120 0 0 0 
1040 871 120 0 0 0 
1040 872 120 0 0 0 
1040 873 120 0 0 0 
1040 874 120 0 0 0 
1040 875 120 0 0 0 
1040 876 120 0 0 0 
1040 877 120 0 0 0 
1040 878 120 0 0 0 
1040 879 120 0 0 0 
1040 880 120 0 0 0 
1040 881 120 0 0 0 
1040 882 120 0 0 0 
1040 883 120 0 0 0 
1040 884 120 0 0 0 
1040 885 120 0 0 0 
1040 886 120 0 0 0 
1040 887 120 0 0 0 
1040 888 120 0 0 0 
1040 889 120 0 0 0 
1040 890 120 0 0 0 
1040 891 120 0 0 0 
1040 892 120 0 0 0 
1040 893 120 0 0 0 
1040 894 120 0 0 0 
1040 895 120 0 0 0 
1040 896 120 0 0 0 
1040 897 120 0 0 0 
1040 898 120 0 0 0 
1040 899 120 0 0 0 
1040 900 120 0 0 0 
1040 901 120 0 0 0 
1040 902 120 0 0 0 
1040 903 120 0 0 0 
1040 904 120 0 0 0 
1040 1141 120 0 0 0 
1040 1142 120 0 0 0 
1040 1143 120 0 0 0 
1040 1144 120 0 0 0 
1040 1145 120 0 0 0 
1040 1146 120 0 0 0 
1040 1147 120 0 0 0 
1040 1148 120 0 0 0 
1040 1149 120 0 0 0 
1040 877 121 0 0 0 
1040 878 121 0 0 0 
1040 879 121 0 0 0 
1040 880 121 0 0 0 
1040 881 121 0 0 0 
1040 882 121 0 0 0 
1040 883 121 0 0 0 
1040 884 121 0 0 0 
1040 885 121 0 0 0 
1040 886 121 0 0 0 
1040 887 121 0 0 0 
1040 888 121 0 0 0 
1040 889 121 0 0 0 
1040 890 121 0 0 0 
1040 891 121 0 0 0 
1040 892 121 0 0 0 
1040 893 121 0 0 0 
1040 894 121 0 0 0 
1040 895 121 0 0 0 
1040 896 121 0 0 0 
1040 897 121 0 0 0 
1040 898 121 0 0 0 
1040 899 121 0 0 0 
1040 900 121 0 0 0 
1040 901 121 0 0 0 
1040 902 121 0 0 0 
1040 903 121 0 0 0 
1040 904 121 0 0 0 
1040 905 121 0 0 0 
1040 906 121 0 0 0 
1040 907 121 0 0 0 
1040 908 121 0 0 0 
1040 1138 121 0 0 0 
1040 1139 121 0 0 0 
1040 1140 121 0 0 0 
1040 1141 121 0 0 0 
1040 1142 121 0 0 0 
1040 1143 121 0 0 0 
1040 1144 121 0 0 0 
1040 1145 121 0 0 0 
1040 1146 121 0 0 0 
1040 881 122 0 0 0 
1040 882 122 0 0 0 
1040 883 122 0 0 0 
1040 884 122 0 0 0 
1040 885 122 0 0 0 
1040 886 122 0 0 0 
1040 887 122 0 0 0 
1040 888 122 0 0 0 
1040 889 122 0 0 0 
1040 890 122 0 0 0 
1040 891 122 0 0 0 
1040 892 122 0 0 0 
1040 893 122 0 0 0 
1040 894 122 0 0 0 
1040 895 122 0 0 0 
1040 896 122 0 0 0 
1040 897 122 0 0 0 
1040 898 122 0 0 0 
1040 899 122 0 0 0 
1040 900 122 0 0 0 
1040 901 122 0 0 0 
1040 902 122 0 0 0 
1040 903 122 0 0 0 
1040 904 122 0 0 0 
1040 905 122 0 0 0 
1040 906 122 0 0 0 
1040 907 122 0 0 0 
1040 908 122 0 0 0 
1040 909 122 0 0 0 
1040 910 122 0 0 0 
1040 911 122 0 0 0 
1040 912 122 0 0 0 
1040 1134 122 0 0 0 
1040 1135 122 0 0 0 
1040 1136 122 0 0 0 
1040 1137 122 0 0 0 
1040 1138 122 0 0 0 
1040 1139 122 0 0 0 
1040 1140 122 0 0 0 
1040 1141 122 0 0 0 
1040 1142 122 0 0 0 
1040 1143 122 0 0 0 
1040 893 123 0 0 0 
1040 894 123 0 0 0 
1040 895 123 0 0 0 
1040 896 123 0 0 0 
1040 897 123 0 0 0 
1040 898 123 0 0 0 
1040 899 123 0 0 0 
1040 900 123 0 0 0 
1040 901 123 0 0 0 
1040 902 123 0 0 0 
1040 903 123 0 0 0 
1040 904 123 0 0 0 
1040 905 123 0 0 0 
1040 906 123 0 0 0 
1040 907 123 0 0 0 
1040 908 123 0 0 0 
1040 909 123 0 0 0 
1040 910 123 0 0 0 
1040 911 123 0 0 0 
1040 912 123 0 0 0 
1040 913 123 0 0 0 
1040 914 123 0 0 0 
1040 915 123 0 0 0 
1040 916 123 0 0 0 
1040 917 123 0 0 0 
1040 918 123 0 0 0 
1040 919 123 0 0 0 
1040 920 123 0 0 0 
1040 1128 123 0 0 0 
1040 1129 123 0 0 0 
1040 1130 123 0 0 0 
1040 1131 123 0 0 0 
1040 1132 123 0 0 0 
1040 1133 123 0 0 0 
1040 1134 123 0 0 0 
1040 1135 123 0 0 0 
1040 1136 123 0 0 0 
1040 1137 123 0 0 0 
1040 1138 123 0 0 0 
1040 1139 123 0 0 0 
1040 1140 123 0 0 0 
1040 1141 123 0 0 0 
1040 901 124 0 0 0 
1040 902 124 0 0 0 
1040 903 124 0 0 0 
1040 904 124 0 0 0 
1040 905 124 0 0 0 
1040 906 124 0 0 0 
1040 907 124 0 0 0 
1040 908 124 0 0 0 
1040 909 124 0 0 0 
1040 910 124 0 0 0 
1040 911 124 0 0 0 
1040 912 124 0 0 0 
1040 913 124 0 0 0 
1040 914 124 0 0 0 
1040 915 124 0 0 0 
1040 916 124 0 0 0 
1040 917 124 0 0 0 
1040 918 124 0 0 0 
1040 919 124 0 0 0 
1040 920 124 0 0 0 
1040 921 124 0 0 0 
1040 1121 124 0 0 0 
1040 1122 124 0 0 0 
1040 1123 124 0 0 0 
1040 1124 124 0 0 0 
1040 1125 124 0 0 0 
1040 1126 124 0 0 0 
1040 1127 124 0 0 0 
1040 1128 124 0 0 0 
1040 1129 124 0 0 0 
1040 1130 124 0 0 0 
1040 1131 124 0 0 0 
1040 1132 124 0 0 0 
1040 1133 124 0 0 0 
1040 1134 124 0 0 0 
1040 1135 124 0 0 0 
1040 1136 124 0 0 0 
1040 1137 124 0 0 0 
1040 911 125 0 0 0 
1040 912 125 0 0 0 
1040 913 125 0 0 0 
1040 914 125 0 0 0 
1040 915 125 0 0 0 
1040 916 125 0 0 0 
1040 917 125 0 0 0 
1040 918 125 0 0 0 
1040 919 125 0 0 0 
1040 920 125 0 0 0 
1040 921 125 0 0 0 
1040 922 125 0 0 0 
1040 923 125 0 0 0 
1040 924 125 0 0 0 
1040 1114 125 0 0 0 
1040 1115 125 0 0 0 
1040 1116 125 0 0 0 
1040 1117 125 0 0 0 
1040 1118 125 0 0 0 
1040 1119 125 0 0 0 
1040 1120 125 0 0 0 
1040 1121 125 0 0 0 
1040 1122 125 0 0 0 
1040 1123 125 0 0 0 
1040 1124 125 0 0 0 
1040 1125 125 0 0 0 
1040 1126 125 0 0 0 
1040 1127 125 0 0 0 
1040 1128 125 0 0 0 
1040 1129 125 0 0 0 
1040 1130 125 0 0 0 
1040 1131 125 0 0 0 
1040 1132 125 0 0 0 
1040 1133 125 0 0 0 
1040 1134 125 0 0 0 
1040 914 126 0 0 0 
1040 915 126 0 0 0 
1040 916 126 0 0 0 
1040 917 126 0 0 0 
1040 918 126 0 0 0 
1040 919 126 0 0 0 
1040 920 126 0 0 0 
1040 921 126 0 0 0 
1040 922 126 0 0 0 
1040 923 126 0 0 0 
1040 924 126 0 0 0 
1040 925 126 0 0 0 
1040 926 126 0 0 0 
1040 1111 126 0 0 0 
1040 1112 126 0 0 0 
1040 1113 126 0 0 0 
1040 1114 126 0 0 0 
1040 1115 126 0 0 0 
1040 1116 126 0 0 0 
1040 1117 126 0 0 0 
1040 1118 126 0 0 0 
1040 1119 126 0 0 0 
1040 1120 126 0 0 0 
1040 1121 126 0 0 0 
1040 1122 126 0 0 0 
1040 1123 126 0 0 0 
1040 1124 126 0 0 0 
1040 1125 126 0 0 0 
1040 1126 126 0 0 0 
1040 1127 126 0 0 0 
1040 1128 126 0 0 0 
1040 1129 126 0 0 0 
1040 1130 126 0 0 0 
1040 1131 126 0 0 0 
1040 1132 126 0 0 0 
1040 917 127 0 0 0 
1040 918 127 0 0 0 
1040 919 127 0 0 0 
1040 920 127 0 0 0 
1040 921 127 0 0 0 
1040 922 127 0 0 0 
1040 923 127 0 0 0 
1040 924 127 0 0 0 
1040 925 127 0 0 0 
1040 926 127 0 0 0 
1040 927 127 0 0 0 
1040 928 127 0 0 0 
1040 1108 127 0 0 0 
1040 1109 127 0 0 0 
1040 1110 127 0 0 0 
1040 1111 127 0 0 0 
1040 1112 127 0 0 0 
1040 1113 127 0 0 0 
1040 1114 127 0 0 0 
1040 1115 127 0 0 0 
1040 1116 127 0 0 0 
1040 1117 127 0 0 0 
1040 1118 127 0 0 0 
1040 1119 127 0 0 0 
1040 1120 127 0 0 0 
1040 1121 127 0 0 0 
1040 920 128 0 0 0 
1040 921 128 0 0 0 
1040 922 128 0 0 0 
1040 923 128 0 0 0 
1040 924 128 0 0 0 
1040 925 128 0 0 0 
1040 926 128 0 0 0 
1040 927 128 0 0 0 
1040 928 128 0 0 0 
1040 929 128 0 0 0 
1040 930 128 0 0 0 
1040 1106 128 0 0 0 
1040 1107 128 0 0 0 
1040 1108 128 0 0 0 
1040 1109 128 0 0 0 
1040 1110 128 0 0 0 
1040 1111 128 0 0 0 
1040 1112 128 0 0 0 
1040 1113 128 0 0 0 
1040 1114 128 0 0 0 
1040 1115 128 0 0 0 
1040 1116 128 0 0 0 
1040 1117 128 0 0 0 
1040 922 129 0 0 0 
1040 923 129 0 0 0 
1040 924 129 0 0 0 
1040 925 129 0 0 0 
1040 926 129 0 0 0 
1040 927 129 0 0 0 
1040 928 129 0 0 0 
1040 929 129 0 0 0 
1040 930 129 0 0 0 
1040 931 129 0 0 0 
1040 932 129 0 0 0 
1040 933 129 0 0 0 
1040 1104 129 0 0 0 
1040 1105 129 0 0 0 
1040 1106 129 0 0 0 
1040 1107 129 0 0 0 
1040 1108 129 0 0 0 
1040 1109 129 0 0 0 
1040 1110 129 0 0 0 
1040 1111 129 0 0 0 
1040 926 130 0 0 0 
1040 927 130 0 0 0 
1040 928 130 0 0 0 
1040 929 130 0 0 0 
1040 930 130 0 0 0 
1040 931 130 0 0 0 
1040 932 130 0 0 0 
1040 933 130 0 0 0 
1040 934 130 0 0 0 
1040 935 130 0 0 0 
1040 936 130 0 0 0 
1040 1103 130 0 0 0 
1040 1104 130 0 0 0 
1040 1105 130 0 0 0 
1040 1106 130 0 0 0 
1040 1107 130 0 0 0 
1040 1108 130 0 0 0 
1040 1109 130 0 0 0 
1040 930 131 0 0 0 
1040 931 131 0 0 0 
1040 932 131 0 0 0 
1040 933 131 0 0 0 
1040 934 131 0 0 0 
1040 935 131 0 0 0 
1040 936 131 0 0 0 
1040 937 131 0 0 0 
1040 938 131 0 0 0 
1040 1101 131 0 0 0 
1040 1102 131 0 0 0 
1040 1103 131 0 0 0 
1040 1104 131 0 0 0 
1040 1105 131 0 0 0 
1040 1106 131 0 0 0 
1040 1107 131 0 0 0 
1040 931 132 0 0 0 
1040 932 132 0 0 0 
1040 933 132 0 0 0 
1040 934 132 0 0 0 
1040 935 132 0 0 0 
1040 936 132 0 0 0 
1040 937 132 0 0 0 
1040 938 132 0 0 0 
1040 939 132 0 0 0 
1040 940 132 0 0 0 
1040 1099 132 0 0 0 
1040 1100 132 0 0 0 
1040 1101 132 0 0 0 
1040 1102 132 0 0 0 
1040 1103 132 0 0 0 
1040 1104 132 0 0 0 
1040 1105 132 0 0 0 
1040 933 133 0 0 0 
1040 934 133 0 0 0 
1040 935 133 0 0 0 
1040 936 133 0 0 0 
1040 937 133 0 0 0 
1040 938 133 0 0 0 
1040 939 133 0 0 0 
1040 940 133 0 0 0 
1040 941 133 0 0 0 
1040 942 133 0 0 0 
1040 943 133 0 0 0 
1040 944 133 0 0 0 
1040 945 133 0 0 0 
1040 1098 133 0 0 0 
1040 1099 133 0 0 0 
1040 1100 133 0 0 0 
1040 1101 133 0 0 0 
1040 1102 133 0 0 0 
1040 1103 133 0 0 0 
1040 1104 133 0 0 0 
1040 938 134 0 0 0 
1040 939 134 0 0 0 
1040 940 134 0 0 0 
1040 941 134 0 0 0 
1040 942 134 0 0 0 
1040 943 134 0 0 0 
1040 944 134 0 0 0 
1040 945 134 0 0 0 
1040 946 134 0 0 0 
1040 947 134 0 0 0 
1040 948 134 0 0 0 
1040 949 134 0 0 0 
1040 1096 134 0 0 0 
1040 1097 134 0 0 0 
1040 1098 134 0 0 0 
1040 1099 134 0 0 0 
1040 1100 134 0 0 0 
1040 1101 134 0 0 0 
1040 1102 134 0 0 0 
1040 940 135 0 0 0 
1040 941 135 0 0 0 
1040 942 135 0 0 0 
1040 943 135 0 0 0 
1040 944 135 0 0 0 
1040 945 135 0 0 0 
1040 946 135 0 0 0 
1040 947 135 0 0 0 
1040 948 135 0 0 0 
1040 949 135 0 0 0 
1040 950 135 0 0 0 
1040 951 135 0 0 0 
1040 952 135 0 0 0 
1040 953 135 0 0 0 
1040 1094 135 0 0 0 
1040 1095 135 0 0 0 
1040 1096 135 0 0 0 
1040 1097 135 0 0 0 
1040 1098 135 0 0 0 
1040 1099 135 0 0 0 
1040 1100 135 0 0 0 
1040 942 136 0 0 0 
1040 943 136 0 0 0 
1040 944 136 0 0 0 
1040 945 136 0 0 0 
1040 946 136 0 0 0 
1040 947 136 0 0 0 
1040 948 136 0 0 0 
1040 949 136 0 0 0 
1040 950 136 0 0 0 
1040 951 136 0 0 0 
1040 952 136 0 0 0 
1040 953 136 0 0 0 
1040 954 136 0 0 0 
1040 955 136 0 0 0 
1040 956 136 0 0 0 
1040 957 136 0 0 0 
1040 958 136 0 0 0 
1040 1093 136 0 0 0 
1040 1094 136 0 0 0 
1040 1095 136 0 0 0 
1040 1096 136 0 0 0 
1040 1097 136 0 0 0 
1040 1098 136 0 0 0 
1040 1099 136 0 0 0 
1040 943 137 0 0 0 
1040 944 137 0 0 0 
1040 945 137 0 0 0 
1040 947 137 0 0 0 
1040 948 137 0 0 0 
1040 949 137 0 0 0 
1040 950 137 0 0 0 
1040 951 137 0 0 0 
1040 952 137 0 0 0 
1040 953 137 0 0 0 
1040 954 137 0 0 0 
1040 955 137 0 0 0 
1040 956 137 0 0 0 
1040 957 137 0 0 0 
1040 958 137 0 0 0 
1040 959 137 0 0 0 
1040 960 137 0 0 0 
1040 1092 137 0 0 0 
1040 1093 137 0 0 0 
1040 1094 137 0 0 0 
1040 1095 137 0 0 0 
1040 1096 137 0 0 0 
1040 1097 137 0 0 0 
1040 1098 137 0 0 0 
1040 949 138 0 0 0 
1040 950 138 0 0 0 
1040 951 138 0 0 0 
1040 952 138 0 0 0 
1040 953 138 0 0 0 
1040 954 138 0 0 0 
1040 955 138 0 0 0 
1040 956 138 0 0 0 
1040 957 138 0 0 0 
1040 958 138 0 0 0 
1040 959 138 0 0 0 
1040 960 138 0 0 0 
1040 961 138 0 0 0 
1040 962 138 0 0 0 
1040 1091 138 0 0 0 
1040 1092 138 0 0 0 
1040 1093 138 0 0 0 
1040 1094 138 0 0 0 
1040 1095 138 0 0 0 
1040 1096 138 0 0 0 
1040 957 139 0 0 0 
1040 958 139 0 0 0 
1040 959 139 0 0 0 
1040 960 139 0 0 0 
1040 961 139 0 0 0 
1040 962 139 0 0 0 
1040 963 139 0 0 0 
1040 1089 139 0 0 0 
1040 1090 139 0 0 0 
1040 1091 139 0 0 0 
1040 1092 139 0 0 0 
1040 1093 139 0 0 0 
1040 1094 139 0 0 0 
1040 959 140 0 0 0 
1040 960 140 0 0 0 
1040 961 140 0 0 0 
1040 962 140 0 0 0 
1040 963 140 0 0 0 
1040 964 140 0 0 0 
1040 965 140 0 0 0 
1040 966 140 0 0 0 
1040 1086 140 0 0 0 
1040 1087 140 0 0 0 
1040 1088 140 0 0 0 
1040 1089 140 0 0 0 
1040 1090 140 0 0 0 
1040 1091 140 0 0 0 
1040 1092 140 0 0 0 
1040 1093 140 0 0 0 
1040 1094 140 0 0 0 
1040 961 141 0 0 0 
1040 962 141 0 0 0 
1040 963 141 0 0 0 
1040 964 141 0 0 0 
1040 965 141 0 0 0 
1040 966 141 0 0 0 
1040 967 141 0 0 0 
1040 968 141 0 0 0 
1040 1084 141 0 0 0 
1040 1085 141 0 0 0 
1040 1086 141 0 0 0 
1040 1087 141 0 0 0 
1040 1088 141 0 0 0 
1040 1089 141 0 0 0 
1040 1090 141 0 0 0 
1040 1091 141 0 0 0 
1040 1092 141 0 0 0 
1040 962 142 0 0 0 
1040 963 142 0 0 0 
1040 964 142 0 0 0 
1040 965 142 0 0 0 
1040 966 142 0 0 0 
1040 967 142 0 0 0 
1040 968 142 0 0 0 
1040 969 142 0 0 0 
1040 970 142 0 0 0 
1040 1082 142 0 0 0 
1040 1083 142 0 0 0 
1040 1084 142 0 0 0 
1040 1085 142 0 0 0 
1040 1086 142 0 0 0 
1040 1087 142 0 0 0 
1040 1088 142 0 0 0 
1040 1089 142 0 0 0 
1040 1090 142 0 0 0 
1040 964 143 0 0 0 
1040 965 143 0 0 0 
1040 966 143 0 0 0 
1040 967 143 0 0 0 
1040 968 143 0 0 0 
1040 969 143 0 0 0 
1040 970 143 0 0 0 
1040 971 143 0 0 0 
1040 972 143 0 0 0 
1040 973 143 0 0 0 
1040 1080 143 0 0 0 
1040 1081 143 0 0 0 
1040 1082 143 0 0 0 
1040 1083 143 0 0 0 
1040 1084 143 0 0 0 
1040 1085 143 0 0 0 
1040 1086 143 0 0 0 
1040 1087 143 0 0 0 
1040 1088 143 0 0 0 
1040 965 144 0 0 0 
1040 966 144 0 0 0 
1040 967 144 0 0 0 
1040 968 144 0 0 0 
1040 969 144 0 0 0 
1040 970 144 0 0 0 
1040 971 144 0 0 0 
1040 972 144 0 0 0 
1040 973 144 0 0 0 
1040 974 144 0 0 0 
1040 975 144 0 0 0 
1040 1078 144 0 0 0 
1040 1079 144 0 0 0 
1040 1080 144 0 0 0 
1040 1081 144 0 0 0 
1040 1082 144 0 0 0 
1040 1083 144 0 0 0 
1040 1084 144 0 0 0 
1040 1085 144 0 0 0 
1040 1086 144 0 0 0 
1040 968 145 0 0 0 
1040 969 145 0 0 0 
1040 970 145 0 0 0 
1040 971 145 0 0 0 
1040 972 145 0 0 0 
1040 973 145 0 0 0 
1040 974 145 0 0 0 
1040 975 145 0 0 0 
1040 976 145 0 0 0 
1040 977 145 0 0 0 
1040 1076 145 0 0 0 
1040 1077 145 0 0 0 
1040 1078 145 0 0 0 
1040 1079 145 0 0 0 
1040 1080 145 0 0 0 
1040 1081 145 0 0 0 
1040 1082 145 0 0 0 
1040 1083 145 0 0 0 
1040 1084 145 0 0 0 
1040 970 146 0 0 0 
1040 971 146 0 0 0 
1040 972 146 0 0 0 
1040 973 146 0 0 0 
1040 974 146 0 0 0 
1040 975 146 0 0 0 
1040 976 146 0 0 0 
1040 977 146 0 0 0 
1040 978 146 0 0 0 
1040 1074 146 0 0 0 
1040 1075 146 0 0 0 
1040 1076 146 0 0 0 
1040 1077 146 0 0 0 
1040 1078 146 0 0 0 
1040 1079 146 0 0 0 
1040 1080 146 0 0 0 
1040 1081 146 0 0 0 
1040 1082 146 0 0 0 
1040 973 147 0 0 0 
1040 974 147 0 0 0 
1040 975 147 0 0 0 
1040 976 147 0 0 0 
1040 977 147 0 0 0 
1040 978 147 0 0 0 
1040 979 147 0 0 0 
1040 980 147 0 0 0 
1040 1071 147 0 0 0 
1040 1072 147 0 0 0 
1040 1073 147 0 0 0 
1040 1074 147 0 0 0 
1040 1075 147 0 0 0 
1040 1076 147 0 0 0 
1040 1077 147 0 0 0 
1040 1078 147 0 0 0 
1040 1079 147 0 0 0 
1040 1080 147 0 0 0 
1040 1081 147 0 0 0 
1040 976 148 0 0 0 
1040 977 148 0 0 0 
1040 978 148 0 0 0 
1040 979 148 0 0 0 
1040 980 148 0 0 0 
1040 981 148 0 0 0 
1040 982 148 0 0 0 
1040 983 148 0 0 0 
1040 1069 148 0 0 0 
1040 1070 148 0 0 0 
1040 1071 148 0 0 0 
1040 1072 148 0 0 0 
1040 1073 148 0 0 0 
1040 1074 148 0 0 0 
1040 1075 148 0 0 0 
1040 1076 148 0 0 0 
1040 1077 148 0 0 0 
1040 1078 148 0 0 0 
1040 978 149 0 0 0 
1040 979 149 0 0 0 
1040 980 149 0 0 0 
1040 981 149 0 0 0 
1040 982 149 0 0 0 
1040 983 149 0 0 0 
1040 984 149 0 0 0 
1040 985 149 0 0 0 
1040 986 149 0 0 0 
1040 987 149 0 0 0 
1040 1066 149 0 0 0 
1040 1067 149 0 0 0 
1040 1068 149 0 0 0 
1040 1069 149 0 0 0 
1040 1070 149 0 0 0 
1040 1071 149 0 0 0 
1040 1072 149 0 0 0 
1040 1073 149 0 0 0 
1040 1074 149 0 0 0 
1040 1075 149 0 0 0 
1040 1076 149 0 0 0 
1040 980 150 0 0 0 
1040 981 150 0 0 0 
1040 982 150 0 0 0 
1040 983 150 0 0 0 
1040 984 150 0 0 0 
1040 985 150 0 0 0 
1040 986 150 0 0 0 
1040 987 150 0 0 0 
1040 988 150 0 0 0 
1040 989 150 0 0 0 
1040 990 150 0 0 0 
1040 1064 150 0 0 0 
1040 1065 150 0 0 0 
1040 1066 150 0 0 0 
1040 1067 150 0 0 0 
1040 1068 150 0 0 0 
1040 1069 150 0 0 0 
1040 1070 150 0 0 0 
1040 1071 150 0 0 0 
1040 1072 150 0 0 0 
1040 1073 150 0 0 0 
1040 1074 150 0 0 0 
1040 982 151 0 0 0 
1040 983 151 0 0 0 
1040 984 151 0 0 0 
1040 985 151 0 0 0 
1040 986 151 0 0 0 
1040 987 151 0 0 0 
1040 988 151 0 0 0 
1040 989 151 0 0 0 
1040 990 151 0 0 0 
1040 991 151 0 0 0 
1040 992 151 0 0 0 
1040 993 151 0 0 0 
1040 994 151 0 0 0 
1040 995 151 0 0 0 
1040 996 151 0 0 0 
1040 997 151 0 0 0 
1040 998 151 0 0 0 
1040 1059 151 0 0 0 
1040 1060 151 0 0 0 
1040 1061 151 0 0 0 
1040 1062 151 0 0 0 
1040 1063 151 0 0 0 
1040 1064 151 0 0 0 
1040 1065 151 0 0 0 
1040 1066 151 0 0 0 
1040 1067 151 0 0 0 
1040 1068 151 0 0 0 
1040 1069 151 0 0 0 
1040 1070 151 0 0 0 
1040 1071 151 0 0 0 
1040 984 152 0 0 0 
1040 985 152 0 0 0 
1040 986 152 0 0 0 
1040 987 152 0 0 0 
1040 988 152 0 0 0 
1040 989 152 0 0 0 
1040 990 152 0 0 0 
1040 991 152 0 0 0 
1040 992 152 0 0 0 
1040 993 152 0 0 0 
1040 994 152 0 0 0 
1040 995 152 0 0 0 
1040 996 152 0 0 0 
1040 997 152 0 0 0 
1040 998 152 0 0 0 
1040 999 152 0 0 0 
1040 1000 152 0 0 0 
1040 1001 152 0 0 0 
1040 1002 152 0 0 0 
1040 1003 152 0 0 0 
1040 1004 152 0 0 0 
1040 1005 152 0 0 0 
1040 1006 152 0 0 0 
1040 1057 152 0 0 0 
1040 1058 152 0 0 0 
1040 1059 152 0 0 0 
1040 1060 152 0 0 0 
1040 1061 152 0 0 0 
1040 1062 152 0 0 0 
1040 1063 152 0 0 0 
1040 1064 152 0 0 0 
1040 1065 152 0 0 0 
1040 1066 152 0 0 0 
1040 1067 152 0 0 0 
1040 1068 152 0 0 0 
1040 986 153 0 0 0 
1040 987 153 0 0 0 
1040 988 153 0 0 0 
1040 989 153 0 0 0 
1040 990 153 0 0 0 
1040 991 153 0 0 0 
1040 992 153 0 0 0 
1040 993 153 0 0 0 
1040 994 153 0 0 0 
1040 995 153 0 0 0 
1040 996 153 0 0 0 
1040 997 153 0 0 0 
1040 998 153 0 0 0 
1040 999 153 0 0 0 
1040 1000 153 0 0 0 
1040 1001 153 0 0 0 
1040 1002 153 0 0 0 
1040 1003 153 0 0 0 
1040 1004 153 0 0 0 
1040 1005 153 0 0 0 
1040 1006 153 0 0 0 
1040 1007 153 0 0 0 
1040 1008 153 0 0 0 
1040 1009 153 0 0 0 
1040 1010 153 0 0 0 
1040 1011 153 0 0 0 
1040 1012 153 0 0 0 
1040 1013 153 0 0 0 
1040 1014 153 0 0 0 
1040 1015 153 0 0 0 
1040 1021 153 0 0 0 
1040 1022 153 0 0 0 
1040 1023 153 0 0 0 
1040 1024 153 0 0 0 
1040 1025 153 0 0 0 
1040 1031 153 0 0 0 
1040 1032 153 0 0 0 
1040 1044 153 0 0 0 
1040 1045 153 0 0 0 
1040 1049 153 0 0 0 
1040 1050 153 0 0 0 
1040 1051 153 0 0 0 
1040 1052 153 0 0 0 
1040 1053 153 0 0 0 
1040 1054 153 0 0 0 
1040 1055 153 0 0 0 
1040 1056 153 0 0 0 
1040 1057 153 0 0 0 
1040 1058 153 0 0 0 
1040 1059 153 0 0 0 
1040 1060 153 0 0 0 
1040 1061 153 0 0 0 
1040 1062 153 0 0 0 
1040 1063 153 0 0 0 
1040 990 154 0 0 0 
1040 991 154 0 0 0 
1040 992 154 0 0 0 
1040 993 154 0 0 0 
1040 994 154 0 0 0 
1040 995 154 0 0 0 
1040 996 154 0 0 0 
1040 997 154 0 0 0 
1040 998 154 0 0 0 
1040 999 154 0 0 0 
1040 1000 154 0 0 0 
1040 1001 154 0 0 0 
1040 1002 154 0 0 0 
1040 1003 154 0 0 0 
1040 1004 154 0 0 0 
1040 1005 154 0 0 0 
1040 1006 154 0 0 0 
1040 1007 154 0 0 0 
1040 1008 154 0 0 0 
1040 1009 154 0 0 0 
1040 1010 154 0 0 0 
1040 1011 154 0 0 0 
1040 1012 154 0 0 0 
1040 1013 154 0 0 0 
1040 1014 154 0 0 0 
1040 1015 154 0 0 0 
1040 1016 154 0 0 0 
1040 1017 154 0 0 0 
1040 1018 154 0 0 0 
1040 1019 154 0 0 0 
1040 1020 154 0 0 0 
1040 1021 154 0 0 0 
1040 1022 154 0 0 0 
1040 1023 154 0 0 0 
1040 1024 154 0 0 0 
1040 1025 154 0 0 0 
1040 1026 154 0 0 0 
1040 1027 154 0 0 0 
1040 1028 154 0 0 0 
1040 1029 154 0 0 0 
1040 1030 154 0 0 0 
1040 1031 154 0 0 0 
1040 1032 154 0 0 0 
1040 1033 154 0 0 0 
1040 1034 154 0 0 0 
1040 1035 154 0 0 0 
1040 1036 154 0 0 0 
1040 1037 154 0 0 0 
1040 1038 154 0 0 0 
1040 1039 154 0 0 0 
1040 1040 154 0 0 0 
1040 1041 154 0 0 0 
1040 1042 154 0 0 0 
1040 1043 154 0 0 0 
1040 1044 154 0 0 0 
1040 1045 154 0 0 0 
1040 1046 154 0 0 0 
1040 1047 154 0 0 0 
1040 1048 154 0 0 0 
1040 1049 154 0 0 0 
1040 1050 154 0 0 0 
1040 1051 154 0 0 0 
1040 1052 154 0 0 0 
1040 1053 154 0 0 0 
1040 1054 154 0 0 0 
1040 1055 154 0 0 0 
1040 1056 154 0 0 0 
1040 1057 154 0 0 0 
1040 1058 154 0 0 0 
1040 1059 154 0 0 0 
1040 1060 154 0 0 0 
1040 999 155 0 0 0 
1040 1000 155 0 0 0 
1040 1001 155 0 0 0 
1040 1002 155 0 0 0 
1040 1003 155 0 0 0 
1040 1004 155 0 0 0 
1040 1005 155 0 0 0 
1040 1006 155 0 0 0 
1040 1007 155 0 0 0 
1040 1008 155 0 0 0 
1040 1009 155 0 0 0 
1040 1010 155 0 0 0 
1040 1011 155 0 0 0 
1040 1012 155 0 0 0 
1040 1013 155 0 0 0 
1040 1014 155 0 0 0 
1040 1015 155 0 0 0 
1040 1016 155 0 0 0 
1040 1017 155 0 0 0 
1040 1018 155 0 0 0 
1040 1019 155 0 0 0 
1040 1020 155 0 0 0 
1040 1021 155 0 0 0 
1040 1022 155 0 0 0 
1040 1023 155 0 0 0 
1040 1024 155 0 0 0 
1040 1025 155 0 0 0 
1040 1026 155 0 0 0 
1040 1027 155 0 0 0 
1040 1028 155 0 0 0 
1040 1029 155 0 0 0 
1040 1030 155 0 0 0 
1040 1031 155 0 0 0 
1040 1032 155 0 0 0 
1040 1033 155 0 0 0 
1040 1034 155 0 0 0 
1040 1035 155 0 0 0 
1040 1036 155 0 0 0 
1040 1037 155 0 0 0 
1040 1038 155 0 0 0 
1040 1039 155 0 0 0 
1040 1040 155 0 0 0 
1040 1041 155 0 0 0 
1040 1042 155 0 0 0 
1040 1043 155 0 0 0 
1040 1044 155 0 0 0 
1040 1045 155 0 0 0 
1040 1046 155 0 0 0 
1040 1047 155 0 0 0 
1040 1048 155 0 0 0 
1040 1049 155 0 0 0 
1040 1050 155 0 0 0 
1040 1051 155 0 0 0 
1040 1052 155 0 0 0 
1040 1053 155 0 0 0 
1040 1054 155 0 0 0 
1040 1055 155 0 0 0 
1040 1005 156 0 0 0 
1040 1006 156 0 0 0 
1040 1007 156 0 0 0 
1040 1008 156 0 0 0 
1040 1009 156 0 0 0 
1040 1010 156 0 0 0 
1040 1011 156 0 0 0 
1040 1012 156 0 0 0 
1040 1013 156 0 0 0 
1040 1014 156 0 0 0 
1040 1015 156 0 0 0 
1040 1016 156 0 0 0 
1040 1017 156 0 0 0 
1040 1018 156 0 0 0 
1040 1019 156 0 0 0 
1040 1020 156 0 0 0 
1040 1021 156 0 0 0 
1040 1022 156 0 0 0 
1040 1023 156 0 0 0 
1040 1024 156 0 0 0 
1040 1025 156 0 0 0 
1040 1026 156 0 0 0 
1040 1027 156 0 0 0 
1040 1028 156 0 0 0 
1040 1029 156 0 0 0 
1040 1030 156 0 0 0 
1040 1031 156 0 0 0 
1040 1032 156 0 0 0 
1040 1033 156 0 0 0 
1040 1034 156 0 0 0 
1040 1035 156 0 0 0 
1040 1036 156 0 0 0 
1040 1037 156 0 0 0 
1040 1038 156 0 0 0 
1040 1039 156 0 0 0 
1040 1040 156 0 0 0 
1040 1041 156 0 0 0 
1040 1042 156 0 0 0 
1040 1043 156 0 0 0 
1040 1044 156 0 0 0 
1040 1045 156 0 0 0 
1040 1046 156 0 0 0 
1040 1047 156 0 0 0 
1040 1048 156 0 0 0 
1040 1049 156 0 0 0 
1040 1050 156 0 0 0 
1040 1051 156 0 0 0 
1040 1025 157 0 0 0 
1040 1026 157 0 0 0 
1040 1027 157 0 0 0 
1040 1028 157 0 0 0 
1040 1029 157 0 0 0 
1040 1030 157 0 0 0 
1040 1031 157 0 0 0 
1040 1032 157 0 0 0 
1040 1033 157 0 0 0 
1040 1034 157 0 0 0 
1040 1035 157 0 0 0 
1040 1036 157 0 0 0 
1040 1037 157 0 0 0 
1040 1038 157 0 0 0 
1040 1039 157 0 0 0 
1040 1042 157 0 0 0 
1040 1043 157 0 0 0 
1040 1044 157 0 0 0 
1040 1045 157 0 0 0 
