ply
format ascii 1.0
element vertex 1125
property float x
property float y
property float z
element face 0
property list uchar int vertex_index
end_header
819	1138	0
820	1136	0
820	1137	0
820	1138	0
821	1135	0
821	1136	0
821	1137	0
821	1138	0
822	1132	0
822	1133	0
822	1134	0
822	1135	0
822	1136	0
822	1137	0
823	1130	0
823	1131	0
823	1132	0
823	1133	0
823	1134	0
824	1128	0
824	1129	0
824	1130	0
824	1131	0
824	1132	0
825	1126	0
825	1127	0
825	1128	0
825	1129	0
825	1130	0
825	1131	0
826	1123	0
826	1124	0
826	1125	0
826	1126	0
826	1127	0
826	1128	0
827	1121	0
827	1122	0
827	1123	0
827	1124	0
827	1125	0
827	1126	0
828	1118	0
828	1119	0
828	1120	0
828	1121	0
828	1122	0
828	1123	0
828	1124	0
829	1115	0
829	1116	0
829	1117	0
829	1118	0
829	1119	0
829	1120	0
829	1121	0
830	1113	0
830	1114	0
830	1115	0
830	1116	0
830	1117	0
830	1118	0
830	1119	0
831	1110	0
831	1111	0
831	1112	0
831	1113	0
831	1114	0
831	1115	0
831	1116	0
832	1108	0
832	1109	0
832	1110	0
832	1111	0
832	1112	0
832	1113	0
833	1105	0
833	1106	0
833	1107	0
833	1108	0
833	1109	0
833	1110	0
833	1111	0
834	1101	0
834	1102	0
834	1103	0
834	1104	0
834	1105	0
834	1106	0
834	1107	0
834	1108	0
835	1100	0
835	1101	0
835	1102	0
835	1103	0
835	1104	0
835	1105	0
835	1106	0
836	1097	0
836	1098	0
836	1099	0
836	1100	0
836	1101	0
836	1102	0
836	1103	0
837	1094	0
837	1095	0
837	1096	0
837	1097	0
837	1098	0
837	1099	0
837	1100	0
838	1090	0
838	1091	0
838	1092	0
838	1093	0
838	1094	0
838	1095	0
838	1096	0
838	1097	0
839	1089	0
839	1090	0
839	1091	0
839	1092	0
839	1093	0
839	1094	0
840	1084	0
840	1085	0
840	1086	0
840	1087	0
840	1088	0
840	1089	0
840	1090	0
840	1091	0
840	1092	0
841	1083	0
841	1084	0
841	1085	0
841	1086	0
841	1087	0
841	1088	0
841	1089	0
841	1090	0
842	1081	0
842	1082	0
842	1083	0
842	1084	0
842	1085	0
842	1086	0
842	1087	0
843	1079	0
843	1080	0
843	1081	0
843	1082	0
843	1083	0
843	1084	0
843	1085	0
844	1077	0
844	1078	0
844	1079	0
844	1080	0
844	1081	0
844	1082	0
844	1083	0
845	1076	0
845	1077	0
845	1078	0
845	1079	0
845	1080	0
845	1081	0
846	1074	0
846	1075	0
846	1076	0
846	1077	0
846	1078	0
846	1079	0
847	1072	0
847	1073	0
847	1074	0
847	1075	0
847	1076	0
847	1077	0
848	1070	0
848	1071	0
848	1072	0
848	1073	0
848	1074	0
848	1075	0
849	1069	0
849	1070	0
849	1071	0
849	1072	0
849	1073	0
850	1068	0
850	1069	0
850	1070	0
850	1071	0
851	1066	0
851	1067	0
851	1068	0
851	1069	0
852	1065	0
852	1066	0
852	1067	0
852	1068	0
853	1062	0
853	1063	0
853	1065	0
853	1066	0
854	1061	0
854	1062	0
854	1063	0
855	1057	0
855	1058	0
855	1059	0
855	1060	0
855	1061	0
855	1062	0
856	1055	0
856	1056	0
856	1057	0
856	1058	0
856	1059	0
856	1060	0
857	1054	0
857	1055	0
857	1056	0
857	1057	0
858	1052	0
858	1053	0
858	1054	0
858	1055	0
858	1056	0
859	1050	0
859	1051	0
859	1052	0
859	1053	0
859	1054	0
859	1055	0
860	1048	0
860	1049	0
860	1050	0
860	1051	0
860	1052	0
861	1046	0
861	1047	0
861	1048	0
861	1049	0
861	1050	0
862	1043	0
862	1044	0
862	1045	0
862	1046	0
862	1047	0
862	1048	0
863	1041	0
863	1042	0
863	1043	0
863	1044	0
863	1045	0
864	1038	0
864	1039	0
864	1040	0
864	1041	0
864	1042	0
864	1043	0
865	1035	0
865	1036	0
865	1037	0
865	1038	0
865	1039	0
865	1040	0
865	1041	0
866	1034	0
866	1035	0
866	1036	0
866	1037	0
866	1038	0
867	1030	0
867	1031	0
867	1032	0
867	1033	0
867	1034	0
867	1035	0
867	1036	0
868	1029	0
868	1030	0
868	1031	0
868	1032	0
868	1033	0
869	1029	0
869	1030	0
869	1031	0
870	1024	0
870	1025	0
870	1026	0
870	1027	0
871	1022	0
871	1023	0
871	1024	0
871	1025	0
871	1026	0
872	1019	0
872	1020	0
872	1021	0
872	1022	0
872	1023	0
872	1024	0
873	1017	0
873	1018	0
873	1019	0
873	1020	0
873	1021	0
873	1022	0
874	1015	0
874	1016	0
874	1017	0
874	1018	0
874	1019	0
875	1013	0
875	1014	0
875	1015	0
875	1016	0
875	1017	0
876	1012	0
876	1013	0
876	1014	0
876	1015	0
877	1007	0
877	1008	0
877	1009	0
877	1010	0
877	1011	0
878	1006	0
878	1007	0
878	1008	0
878	1009	0
878	1010	0
879	1004	0
879	1005	0
879	1006	0
879	1007	0
879	1008	0
879	1009	0
879	1012	0
879	1013	0
880	1000	0
880	1001	0
880	1002	0
880	1003	0
880	1004	0
880	1005	0
880	1006	0
880	1007	0
880	1008	0
880	1009	0
881	997	0
881	998	0
881	999	0
881	1000	0
881	1001	0
881	1002	0
881	1003	0
881	1004	0
881	1005	0
881	1006	0
881	1007	0
881	1008	0
881	1009	0
882	994	0
882	995	0
882	996	0
882	997	0
882	998	0
882	999	0
882	1000	0
882	1001	0
882	1002	0
882	1003	0
882	1004	0
882	1005	0
882	1006	0
883	992	0
883	993	0
883	994	0
883	995	0
883	996	0
883	997	0
883	998	0
883	999	0
883	1000	0
884	990	0
884	991	0
884	992	0
884	993	0
884	994	0
884	995	0
884	996	0
884	997	0
884	998	0
884	999	0
885	985	0
885	986	0
885	987	0
885	988	0
885	989	0
885	990	0
885	991	0
885	992	0
885	993	0
885	994	0
885	995	0
885	996	0
886	982	0
886	983	0
886	984	0
886	985	0
886	986	0
886	987	0
886	988	0
886	989	0
886	990	0
886	991	0
886	992	0
886	993	0
887	976	0
887	977	0
887	978	0
887	979	0
887	980	0
887	981	0
887	982	0
887	983	0
887	984	0
887	985	0
887	986	0
887	987	0
887	988	0
887	989	0
887	990	0
888	974	0
888	975	0
888	976	0
888	977	0
888	978	0
888	979	0
888	980	0
888	981	0
888	982	0
888	983	0
888	984	0
888	985	0
889	970	0
889	971	0
889	972	0
889	973	0
889	974	0
889	975	0
889	976	0
889	977	0
889	978	0
889	979	0
889	980	0
889	981	0
890	967	0
890	968	0
890	969	0
890	970	0
890	971	0
890	972	0
890	973	0
890	974	0
890	975	0
890	976	0
890	977	0
890	978	0
891	961	0
891	962	0
891	963	0
891	964	0
891	965	0
891	966	0
891	967	0
891	968	0
891	969	0
891	970	0
891	971	0
891	972	0
891	973	0
891	974	0
891	975	0
891	976	0
892	955	0
892	956	0
892	957	0
892	958	0
892	959	0
892	960	0
892	961	0
892	962	0
892	963	0
892	964	0
892	965	0
892	969	0
892	970	0
893	951	0
893	952	0
893	953	0
893	954	0
893	955	0
893	956	0
893	957	0
893	958	0
893	959	0
893	960	0
893	961	0
893	962	0
893	963	0
893	964	0
893	965	0
893	966	0
893	967	0
893	968	0
893	969	0
893	970	0
894	948	0
894	949	0
894	950	0
894	951	0
894	952	0
894	953	0
894	954	0
894	955	0
894	956	0
894	957	0
894	958	0
894	959	0
894	960	0
894	961	0
894	962	0
894	963	0
894	965	0
894	966	0
894	967	0
894	968	0
894	969	0
895	941	0
895	942	0
895	943	0
895	944	0
895	945	0
895	947	0
895	948	0
895	949	0
895	950	0
895	951	0
895	952	0
895	953	0
895	954	0
895	955	0
895	956	0
895	957	0
896	928	0
896	929	0
896	930	0
896	931	0
896	932	0
896	933	0
896	934	0
896	935	0
896	936	0
896	937	0
896	938	0
896	939	0
896	940	0
896	941	0
896	942	0
896	943	0
896	944	0
896	945	0
896	946	0
896	947	0
896	948	0
896	949	0
896	950	0
896	951	0
896	952	0
897	914	0
897	915	0
897	916	0
897	917	0
897	918	0
897	919	0
897	920	0
897	921	0
897	922	0
897	923	0
897	924	0
897	925	0
897	926	0
897	927	0
897	928	0
897	929	0
897	930	0
897	931	0
897	932	0
897	933	0
897	934	0
897	935	0
897	936	0
897	937	0
897	938	0
897	939	0
897	940	0
897	941	0
897	942	0
897	943	0
897	944	0
898	909	0
898	910	0
898	911	0
898	912	0
898	913	0
898	914	0
898	915	0
898	916	0
898	917	0
898	918	0
898	919	0
898	920	0
898	921	0
898	922	0
898	923	0
898	924	0
898	925	0
898	926	0
898	927	0
898	928	0
898	929	0
898	930	0
898	931	0
898	932	0
898	933	0
898	934	0
898	935	0
898	936	0
898	937	0
898	938	0
899	904	0
899	905	0
899	906	0
899	907	0
899	908	0
899	909	0
899	910	0
899	911	0
899	912	0
899	913	0
899	914	0
899	915	0
899	916	0
899	917	0
899	918	0
899	919	0
899	920	0
899	921	0
899	922	0
899	923	0
899	924	0
899	925	0
899	926	0
899	927	0
899	928	0
899	929	0
900	901	0
900	902	0
900	903	0
900	904	0
900	905	0
900	906	0
900	907	0
900	908	0
900	909	0
900	910	0
901	897	0
901	898	0
901	899	0
901	900	0
901	901	0
901	902	0
901	903	0
901	904	0
901	905	0
902	895	0
902	896	0
902	897	0
902	898	0
902	899	0
902	900	0
902	901	0
902	902	0
902	903	0
903	893	0
903	894	0
903	895	0
903	896	0
903	897	0
903	898	0
903	899	0
903	900	0
904	890	0
904	891	0
904	892	0
904	893	0
904	894	0
904	895	0
904	896	0
904	897	0
905	884	0
905	885	0
905	886	0
905	887	0
905	888	0
905	889	0
905	890	0
905	891	0
905	892	0
905	893	0
906	882	0
906	883	0
906	884	0
906	885	0
906	886	0
906	887	0
906	888	0
906	889	0
907	876	0
907	877	0
907	878	0
907	879	0
907	880	0
907	881	0
907	882	0
907	883	0
907	884	0
907	885	0
907	886	0
908	871	0
908	872	0
908	873	0
908	874	0
908	875	0
908	876	0
908	877	0
908	878	0
908	879	0
908	880	0
908	881	0
908	882	0
909	866	0
909	867	0
909	868	0
909	869	0
909	870	0
909	871	0
909	872	0
909	873	0
909	874	0
909	875	0
909	876	0
909	877	0
910	863	0
910	864	0
910	865	0
910	866	0
910	867	0
910	868	0
910	869	0
910	870	0
910	871	0
911	858	0
911	861	0
911	862	0
911	863	0
911	864	0
911	865	0
911	866	0
911	867	0
912	853	0
912	854	0
912	855	0
912	857	0
912	858	0
912	859	0
912	860	0
912	861	0
912	862	0
912	863	0
913	845	0
913	846	0
913	847	0
913	848	0
913	849	0
913	850	0
913	851	0
913	852	0
913	853	0
913	854	0
913	855	0
913	856	0
914	843	0
914	844	0
914	845	0
914	846	0
914	847	0
914	848	0
915	837	0
915	838	0
915	839	0
915	840	0
915	841	0
915	842	0
915	843	0
915	844	0
916	830	0
916	831	0
916	832	0
916	833	0
916	834	0
916	835	0
916	836	0
916	837	0
916	838	0
916	839	0
916	840	0
916	841	0
916	842	0
917	824	0
917	825	0
917	826	0
917	827	0
917	828	0
917	829	0
917	830	0
917	831	0
917	832	0
917	833	0
917	834	0
917	835	0
917	836	0
917	837	0
917	838	0
917	839	0
917	840	0
918	820	0
918	821	0
918	822	0
918	823	0
918	824	0
918	825	0
918	826	0
918	827	0
918	828	0
918	829	0
918	830	0
918	831	0
918	832	0
918	833	0
918	834	0
918	835	0
918	836	0
918	837	0
918	838	0
919	815	0
919	816	0
919	817	0
919	818	0
919	819	0
919	820	0
919	821	0
919	822	0
919	823	0
919	824	0
919	825	0
919	826	0
919	827	0
919	828	0
919	829	0
919	830	0
919	831	0
919	832	0
919	833	0
919	834	0
919	835	0
920	808	0
920	809	0
920	810	0
920	811	0
920	812	0
920	813	0
920	814	0
920	815	0
920	816	0
920	817	0
920	818	0
920	819	0
920	820	0
920	821	0
920	822	0
920	823	0
920	824	0
920	825	0
920	826	0
920	827	0
920	828	0
920	829	0
921	801	0
921	802	0
921	803	0
921	804	0
921	805	0
921	806	0
921	807	0
921	808	0
921	809	0
921	810	0
921	811	0
921	812	0
921	813	0
921	814	0
921	815	0
921	816	0
921	817	0
921	818	0
922	796	0
922	797	0
922	798	0
922	799	0
922	800	0
922	801	0
922	802	0
922	803	0
922	804	0
922	805	0
922	806	0
922	807	0
922	808	0
922	809	0
922	810	0
922	811	0
922	812	0
923	721	0
923	722	0
923	723	0
923	724	0
923	725	0
923	726	0
923	727	0
923	728	0
923	729	0
923	730	0
923	731	0
923	732	0
923	733	0
923	793	0
923	794	0
923	795	0
923	796	0
923	797	0
923	798	0
923	799	0
923	800	0
923	801	0
923	802	0
923	803	0
923	804	0
923	805	0
924	714	0
924	715	0
924	716	0
924	717	0
924	718	0
924	719	0
924	720	0
924	721	0
924	722	0
924	723	0
924	724	0
924	725	0
924	726	0
924	727	0
924	728	0
924	729	0
924	730	0
924	731	0
924	732	0
924	733	0
924	734	0
924	735	0
924	736	0
924	737	0
924	738	0
924	739	0
924	784	0
924	785	0
924	786	0
924	787	0
924	788	0
924	789	0
924	790	0
924	791	0
924	792	0
924	793	0
924	794	0
924	795	0
924	796	0
924	797	0
924	798	0
924	799	0
924	800	0
925	711	0
925	712	0
925	713	0
925	714	0
925	715	0
925	716	0
925	717	0
925	718	0
925	719	0
925	720	0
925	721	0
925	722	0
925	735	0
925	736	0
925	737	0
925	738	0
925	739	0
925	740	0
925	741	0
925	742	0
925	743	0
925	779	0
925	780	0
925	781	0
925	782	0
925	783	0
925	784	0
925	785	0
925	786	0
925	787	0
925	788	0
926	709	0
926	710	0
926	711	0
926	712	0
926	713	0
926	743	0
926	744	0
926	745	0
926	746	0
926	747	0
926	748	0
926	749	0
926	770	0
926	771	0
926	772	0
926	773	0
926	774	0
926	775	0
926	776	0
926	777	0
926	778	0
926	779	0
926	780	0
926	781	0
927	702	0
927	703	0
927	704	0
927	705	0
927	706	0
927	707	0
927	708	0
927	709	0
927	745	0
927	746	0
927	747	0
927	748	0
927	749	0
927	750	0
927	751	0
927	763	0
927	764	0
927	765	0
927	766	0
927	767	0
927	768	0
927	769	0
927	770	0
927	771	0
927	772	0
927	773	0
928	702	0
928	703	0
928	704	0
928	705	0
928	706	0
928	749	0
928	750	0
928	751	0
928	752	0
928	753	0
928	754	0
928	755	0
928	757	0
928	758	0
928	759	0
928	760	0
928	761	0
928	762	0
928	763	0
928	764	0
928	765	0
928	766	0
928	767	0
928	768	0
