ply
format ascii 1.0
element vertex 2325
property float x
property float y
property float z
element face 0
property list uchar int vertex_index
end_header
1034	1565	0
1034	1566	0
1034	1567	0
1034	1568	0
1034	1569	0
1035	1554	0
1035	1555	0
1035	1556	0
1035	1557	0
1035	1558	0
1035	1559	0
1035	1560	0
1035	1561	0
1035	1562	0
1035	1563	0
1035	1564	0
1035	1565	0
1035	1566	0
1035	1567	0
1035	1568	0
1035	1569	0
1035	1570	0
1035	1571	0
1035	1572	0
1035	1573	0
1035	1574	0
1036	1548	0
1036	1549	0
1036	1550	0
1036	1551	0
1036	1552	0
1036	1553	0
1036	1554	0
1036	1555	0
1036	1556	0
1036	1557	0
1036	1558	0
1036	1559	0
1036	1560	0
1036	1561	0
1036	1562	0
1036	1563	0
1036	1564	0
1036	1565	0
1036	1566	0
1036	1567	0
1036	1568	0
1036	1569	0
1036	1570	0
1036	1571	0
1036	1572	0
1036	1573	0
1036	1574	0
1036	1575	0
1036	1576	0
1036	1577	0
1036	1578	0
1036	1579	0
1036	1580	0
1036	1581	0
1036	1582	0
1037	1539	0
1037	1540	0
1037	1541	0
1037	1542	0
1037	1543	0
1037	1544	0
1037	1545	0
1037	1546	0
1037	1547	0
1037	1548	0
1037	1549	0
1037	1550	0
1037	1551	0
1037	1552	0
1037	1553	0
1037	1554	0
1037	1555	0
1037	1556	0
1037	1557	0
1037	1558	0
1037	1559	0
1037	1560	0
1037	1561	0
1037	1562	0
1037	1563	0
1037	1564	0
1037	1565	0
1037	1566	0
1037	1567	0
1037	1568	0
1037	1569	0
1037	1570	0
1037	1571	0
1037	1572	0
1037	1573	0
1037	1574	0
1037	1575	0
1037	1576	0
1037	1577	0
1037	1578	0
1037	1579	0
1037	1580	0
1037	1581	0
1037	1582	0
1037	1583	0
1037	1584	0
1037	1585	0
1037	1586	0
1037	1587	0
1037	1588	0
1038	1535	0
1038	1536	0
1038	1537	0
1038	1538	0
1038	1539	0
1038	1540	0
1038	1541	0
1038	1542	0
1038	1543	0
1038	1544	0
1038	1545	0
1038	1546	0
1038	1547	0
1038	1548	0
1038	1549	0
1038	1550	0
1038	1551	0
1038	1552	0
1038	1571	0
1038	1572	0
1038	1573	0
1038	1574	0
1038	1575	0
1038	1576	0
1038	1577	0
1038	1578	0
1038	1579	0
1038	1580	0
1038	1581	0
1038	1582	0
1038	1583	0
1038	1584	0
1038	1585	0
1038	1586	0
1038	1587	0
1038	1588	0
1038	1589	0
1038	1590	0
1038	1591	0
1038	1592	0
1038	1593	0
1039	1214	0
1039	1215	0
1039	1216	0
1039	1217	0
1039	1219	0
1039	1220	0
1039	1221	0
1039	1222	0
1039	1223	0
1039	1224	0
1039	1528	0
1039	1529	0
1039	1530	0
1039	1531	0
1039	1532	0
1039	1533	0
1039	1534	0
1039	1535	0
1039	1536	0
1039	1537	0
1039	1538	0
1039	1539	0
1039	1540	0
1039	1541	0
1039	1542	0
1039	1543	0
1039	1544	0
1039	1545	0
1039	1546	0
1039	1547	0
1039	1548	0
1039	1577	0
1039	1578	0
1039	1579	0
1039	1580	0
1039	1581	0
1039	1582	0
1039	1583	0
1039	1584	0
1039	1585	0
1039	1586	0
1039	1587	0
1039	1588	0
1039	1589	0
1039	1590	0
1039	1591	0
1039	1592	0
1039	1593	0
1039	1594	0
1039	1595	0
1039	1596	0
1039	1597	0
1039	1598	0
1040	1212	0
1040	1213	0
1040	1214	0
1040	1215	0
1040	1216	0
1040	1217	0
1040	1218	0
1040	1219	0
1040	1220	0
1040	1221	0
1040	1222	0
1040	1223	0
1040	1224	0
1040	1225	0
1040	1226	0
1040	1227	0
1040	1228	0
1040	1229	0
1040	1230	0
1040	1231	0
1040	1232	0
1040	1233	0
1040	1234	0
1040	1523	0
1040	1524	0
1040	1525	0
1040	1526	0
1040	1527	0
1040	1528	0
1040	1529	0
1040	1530	0
1040	1531	0
1040	1532	0
1040	1533	0
1040	1534	0
1040	1535	0
1040	1536	0
1040	1537	0
1040	1538	0
1040	1539	0
1040	1540	0
1040	1541	0
1040	1542	0
1040	1586	0
1040	1587	0
1040	1588	0
1040	1589	0
1040	1590	0
1040	1591	0
1040	1592	0
1040	1593	0
1040	1594	0
1040	1595	0
1040	1596	0
1040	1597	0
1040	1598	0
1040	1599	0
1040	1600	0
1040	1601	0
1040	1602	0
1041	1200	0
1041	1201	0
1041	1206	0
1041	1207	0
1041	1208	0
1041	1209	0
1041	1210	0
1041	1211	0
1041	1212	0
1041	1213	0
1041	1214	0
1041	1215	0
1041	1216	0
1041	1217	0
1041	1218	0
1041	1219	0
1041	1220	0
1041	1221	0
1041	1222	0
1041	1223	0
1041	1224	0
1041	1225	0
1041	1226	0
1041	1227	0
1041	1228	0
1041	1229	0
1041	1230	0
1041	1231	0
1041	1232	0
1041	1233	0
1041	1234	0
1041	1235	0
1041	1236	0
1041	1237	0
1041	1238	0
1041	1239	0
1041	1514	0
1041	1515	0
1041	1516	0
1041	1517	0
1041	1518	0
1041	1519	0
1041	1520	0
1041	1521	0
1041	1522	0
1041	1523	0
1041	1524	0
1041	1525	0
1041	1526	0
1041	1527	0
1041	1528	0
1041	1529	0
1041	1530	0
1041	1531	0
1041	1532	0
1041	1533	0
1041	1534	0
1041	1535	0
1041	1536	0
1041	1537	0
1041	1590	0
1041	1591	0
1041	1592	0
1041	1593	0
1041	1594	0
1041	1595	0
1041	1596	0
1041	1597	0
1041	1598	0
1041	1599	0
1041	1600	0
1041	1601	0
1041	1602	0
1041	1603	0
1041	1604	0
1041	1605	0
1041	1606	0
1041	1607	0
1041	1608	0
1041	1609	0
1041	1610	0
1042	1200	0
1042	1201	0
1042	1202	0
1042	1203	0
1042	1204	0
1042	1205	0
1042	1206	0
1042	1207	0
1042	1208	0
1042	1209	0
1042	1210	0
1042	1211	0
1042	1212	0
1042	1213	0
1042	1214	0
1042	1215	0
1042	1223	0
1042	1224	0
1042	1225	0
1042	1227	0
1042	1228	0
1042	1231	0
1042	1232	0
1042	1233	0
1042	1234	0
1042	1235	0
1042	1236	0
1042	1237	0
1042	1238	0
1042	1239	0
1042	1240	0
1042	1241	0
1042	1242	0
1042	1243	0
1042	1244	0
1042	1245	0
1042	1246	0
1042	1247	0
1042	1503	0
1042	1504	0
1042	1505	0
1042	1506	0
1042	1507	0
1042	1508	0
1042	1509	0
1042	1510	0
1042	1511	0
1042	1512	0
1042	1513	0
1042	1514	0
1042	1515	0
1042	1516	0
1042	1517	0
1042	1518	0
1042	1519	0
1042	1520	0
1042	1521	0
1042	1522	0
1042	1523	0
1042	1524	0
1042	1525	0
1042	1526	0
1042	1527	0
1042	1528	0
1042	1529	0
1042	1530	0
1042	1531	0
1042	1532	0
1042	1533	0
1042	1534	0
1042	1597	0
1042	1598	0
1042	1599	0
1042	1600	0
1042	1601	0
1042	1602	0
1042	1603	0
1042	1604	0
1042	1605	0
1042	1606	0
1042	1607	0
1042	1608	0
1042	1609	0
1042	1610	0
1042	1611	0
1042	1612	0
1042	1613	0
1042	1614	0
1042	1615	0
1042	1616	0
1043	1200	0
1043	1201	0
1043	1202	0
1043	1203	0
1043	1204	0
1043	1205	0
1043	1206	0
1043	1207	0
1043	1208	0
1043	1209	0
1043	1233	0
1043	1234	0
1043	1235	0
1043	1236	0
1043	1237	0
1043	1238	0
1043	1239	0
1043	1240	0
1043	1241	0
1043	1242	0
1043	1243	0
1043	1244	0
1043	1245	0
1043	1246	0
1043	1247	0
1043	1248	0
1043	1249	0
1043	1250	0
1043	1251	0
1043	1252	0
1043	1253	0
1043	1254	0
1043	1310	0
1043	1311	0
1043	1312	0
1043	1313	0
1043	1314	0
1043	1315	0
1043	1316	0
1043	1317	0
1043	1318	0
1043	1319	0
1043	1320	0
1043	1321	0
1043	1322	0
1043	1323	0
1043	1324	0
1043	1325	0
1043	1326	0
1043	1327	0
1043	1328	0
1043	1329	0
1043	1330	0
1043	1331	0
1043	1332	0
1043	1333	0
1043	1334	0
1043	1335	0
1043	1336	0
1043	1337	0
1043	1338	0
1043	1339	0
1043	1340	0
1043	1341	0
1043	1342	0
1043	1343	0
1043	1344	0
1043	1345	0
1043	1346	0
1043	1347	0
1043	1348	0
1043	1349	0
1043	1350	0
1043	1351	0
1043	1352	0
1043	1353	0
1043	1354	0
1043	1355	0
1043	1356	0
1043	1357	0
1043	1358	0
1043	1359	0
1043	1360	0
1043	1361	0
1043	1362	0
1043	1363	0
1043	1364	0
1043	1365	0
1043	1366	0
1043	1367	0
1043	1368	0
1043	1369	0
1043	1370	0
1043	1371	0
1043	1372	0
1043	1373	0
1043	1374	0
1043	1375	0
1043	1376	0
1043	1377	0
1043	1378	0
1043	1379	0
1043	1380	0
1043	1381	0
1043	1382	0
1043	1383	0
1043	1384	0
1043	1385	0
1043	1386	0
1043	1387	0
1043	1388	0
1043	1389	0
1043	1390	0
1043	1391	0
1043	1392	0
1043	1393	0
1043	1394	0
1043	1395	0
1043	1396	0
1043	1397	0
1043	1398	0
1043	1399	0
1043	1400	0
1043	1401	0
1043	1402	0
1043	1403	0
1043	1404	0
1043	1405	0
1043	1406	0
1043	1407	0
1043	1408	0
1043	1409	0
1043	1410	0
1043	1411	0
1043	1412	0
1043	1413	0
1043	1414	0
1043	1415	0
1043	1416	0
1043	1417	0
1043	1418	0
1043	1419	0
1043	1420	0
1043	1421	0
1043	1422	0
1043	1423	0
1043	1424	0
1043	1425	0
1043	1426	0
1043	1432	0
1043	1433	0
1043	1434	0
1043	1435	0
1043	1436	0
1043	1487	0
1043	1488	0
1043	1489	0
1043	1490	0
1043	1491	0
1043	1492	0
1043	1493	0
1043	1494	0
1043	1495	0
1043	1496	0
1043	1497	0
1043	1498	0
1043	1499	0
1043	1500	0
1043	1501	0
1043	1502	0
1043	1503	0
1043	1504	0
1043	1505	0
1043	1506	0
1043	1507	0
1043	1508	0
1043	1509	0
1043	1510	0
1043	1511	0
1043	1512	0
1043	1513	0
1043	1514	0
1043	1515	0
1043	1516	0
1043	1517	0
1043	1518	0
1043	1519	0
1043	1520	0
1043	1521	0
1043	1522	0
1043	1602	0
1043	1603	0
1043	1604	0
1043	1605	0
1043	1606	0
1043	1607	0
1043	1608	0
1043	1609	0
1043	1610	0
1043	1611	0
1043	1612	0
1043	1613	0
1043	1614	0
1043	1615	0
1043	1616	0
1043	1617	0
1043	1618	0
1043	1619	0
1043	1620	0
1043	1621	0
1043	1622	0
1043	1623	0
1043	1624	0
1044	1202	0
1044	1203	0
1044	1204	0
1044	1205	0
1044	1206	0
1044	1207	0
1044	1237	0
1044	1238	0
1044	1239	0
1044	1244	0
1044	1245	0
1044	1246	0
1044	1247	0
1044	1248	0
1044	1249	0
1044	1250	0
1044	1251	0
1044	1252	0
1044	1253	0
1044	1254	0
1044	1255	0
1044	1256	0
1044	1257	0
1044	1258	0
1044	1259	0
1044	1260	0
1044	1261	0
1044	1262	0
1044	1263	0
1044	1264	0
1044	1265	0
1044	1266	0
1044	1267	0
1044	1268	0
1044	1269	0
1044	1270	0
1044	1271	0
1044	1272	0
1044	1273	0
1044	1274	0
1044	1275	0
1044	1276	0
1044	1277	0
1044	1278	0
1044	1279	0
1044	1280	0
1044	1286	0
1044	1287	0
1044	1288	0
1044	1289	0
1044	1290	0
1044	1291	0
1044	1292	0
1044	1293	0
1044	1294	0
1044	1295	0
1044	1296	0
1044	1297	0
1044	1298	0
1044	1299	0
1044	1300	0
1044	1301	0
1044	1302	0
1044	1303	0
1044	1304	0
1044	1305	0
1044	1306	0
1044	1307	0
1044	1308	0
1044	1309	0
1044	1310	0
1044	1311	0
1044	1312	0
1044	1313	0
1044	1314	0
1044	1315	0
1044	1316	0
1044	1317	0
1044	1318	0
1044	1319	0
1044	1320	0
1044	1321	0
1044	1322	0
1044	1323	0
1044	1324	0
1044	1325	0
1044	1326	0
1044	1327	0
1044	1328	0
1044	1329	0
1044	1330	0
1044	1331	0
1044	1332	0
1044	1333	0
1044	1334	0
1044	1335	0
1044	1336	0
1044	1337	0
1044	1338	0
1044	1339	0
1044	1340	0
1044	1341	0
1044	1342	0
1044	1343	0
1044	1344	0
1044	1345	0
1044	1346	0
1044	1347	0
1044	1348	0
1044	1349	0
1044	1350	0
1044	1351	0
1044	1352	0
1044	1353	0
1044	1354	0
1044	1355	0
1044	1356	0
1044	1357	0
1044	1358	0
1044	1359	0
1044	1360	0
1044	1361	0
1044	1362	0
1044	1363	0
1044	1364	0
1044	1365	0
1044	1366	0
1044	1367	0
1044	1368	0
1044	1369	0
1044	1370	0
1044	1371	0
1044	1372	0
1044	1373	0
1044	1374	0
1044	1375	0
1044	1376	0
1044	1377	0
1044	1378	0
1044	1379	0
1044	1380	0
1044	1381	0
1044	1382	0
1044	1383	0
1044	1384	0
1044	1385	0
1044	1386	0
1044	1387	0
1044	1388	0
1044	1389	0
1044	1390	0
1044	1391	0
1044	1392	0
1044	1393	0
1044	1394	0
1044	1395	0
1044	1396	0
1044	1397	0
1044	1398	0
1044	1399	0
1044	1400	0
1044	1401	0
1044	1402	0
1044	1403	0
1044	1404	0
1044	1405	0
1044	1406	0
1044	1407	0
1044	1408	0
1044	1409	0
1044	1410	0
1044	1411	0
1044	1412	0
1044	1413	0
1044	1414	0
1044	1415	0
1044	1416	0
1044	1417	0
1044	1418	0
1044	1419	0
1044	1420	0
1044	1421	0
1044	1422	0
1044	1423	0
1044	1424	0
1044	1425	0
1044	1426	0
1044	1427	0
1044	1428	0
1044	1429	0
1044	1430	0
1044	1431	0
1044	1432	0
1044	1433	0
1044	1434	0
1044	1435	0
1044	1436	0
1044	1437	0
1044	1438	0
1044	1439	0
1044	1440	0
1044	1441	0
1044	1442	0
1044	1443	0
1044	1444	0
1044	1445	0
1044	1446	0
1044	1447	0
1044	1448	0
1044	1449	0
1044	1450	0
1044	1451	0
1044	1452	0
1044	1453	0
1044	1454	0
1044	1455	0
1044	1457	0
1044	1458	0
1044	1459	0
1044	1460	0
1044	1461	0
1044	1462	0
1044	1463	0
1044	1464	0
1044	1465	0
1044	1466	0
1044	1467	0
1044	1468	0
1044	1469	0
1044	1470	0
1044	1471	0
1044	1472	0
1044	1473	0
1044	1474	0
1044	1475	0
1044	1476	0
1044	1477	0
1044	1478	0
1044	1479	0
1044	1480	0
1044	1481	0
1044	1482	0
1044	1483	0
1044	1484	0
1044	1485	0
1044	1486	0
1044	1487	0
1044	1488	0
1044	1489	0
1044	1490	0
1044	1491	0
1044	1492	0
1044	1493	0
1044	1494	0
1044	1495	0
1044	1496	0
1044	1497	0
1044	1498	0
1044	1499	0
1044	1500	0
1044	1501	0
1044	1502	0
1044	1503	0
1044	1504	0
1044	1505	0
1044	1506	0
1044	1507	0
1044	1508	0
1044	1509	0
1044	1510	0
1044	1511	0
1044	1512	0
1044	1513	0
1044	1514	0
1044	1515	0
1044	1516	0
1044	1609	0
1044	1610	0
1044	1611	0
1044	1612	0
1044	1613	0
1044	1614	0
1044	1615	0
1044	1616	0
1044	1617	0
1044	1618	0
1044	1619	0
1044	1620	0
1044	1621	0
1044	1622	0
1044	1623	0
1044	1624	0
1044	1625	0
1044	1626	0
1044	1627	0
1044	1628	0
1044	1629	0
1044	1630	0
1044	1631	0
1044	1632	0
1044	1860	0
1044	1861	0
1045	1246	0
1045	1247	0
1045	1248	0
1045	1249	0
1045	1250	0
1045	1251	0
1045	1252	0
1045	1253	0
1045	1254	0
1045	1255	0
1045	1256	0
1045	1257	0
1045	1258	0
1045	1259	0
1045	1260	0
1045	1261	0
1045	1262	0
1045	1263	0
1045	1264	0
1045	1265	0
1045	1266	0
1045	1267	0
1045	1268	0
1045	1269	0
1045	1270	0
1045	1271	0
1045	1272	0
1045	1273	0
1045	1274	0
1045	1275	0
1045	1276	0
1045	1277	0
1045	1278	0
1045	1279	0
1045	1280	0
1045	1281	0
1045	1282	0
1045	1283	0
1045	1284	0
1045	1285	0
1045	1286	0
1045	1287	0
1045	1288	0
1045	1289	0
1045	1290	0
1045	1291	0
1045	1292	0
1045	1293	0
1045	1294	0
1045	1295	0
1045	1296	0
1045	1297	0
1045	1298	0
1045	1299	0
1045	1300	0
1045	1301	0
1045	1302	0
1045	1303	0
1045	1304	0
1045	1305	0
1045	1306	0
1045	1307	0
1045	1308	0
1045	1309	0
1045	1310	0
1045	1311	0
1045	1312	0
1045	1313	0
1045	1314	0
1045	1315	0
1045	1316	0
1045	1317	0
1045	1318	0
1045	1319	0
1045	1320	0
1045	1321	0
1045	1322	0
1045	1323	0
1045	1324	0
1045	1325	0
1045	1326	0
1045	1327	0
1045	1328	0
1045	1329	0
1045	1330	0
1045	1331	0
1045	1332	0
1045	1333	0
1045	1334	0
1045	1335	0
1045	1336	0
1045	1337	0
1045	1338	0
1045	1339	0
1045	1340	0
1045	1341	0
1045	1342	0
1045	1343	0
1045	1344	0
1045	1345	0
1045	1346	0
1045	1347	0
1045	1348	0
1045	1349	0
1045	1350	0
1045	1351	0
1045	1352	0
1045	1353	0
1045	1354	0
1045	1355	0
1045	1356	0
1045	1357	0
1045	1358	0
1045	1359	0
1045	1360	0
1045	1361	0
1045	1362	0
1045	1363	0
1045	1364	0
1045	1365	0
1045	1366	0
1045	1367	0
1045	1368	0
1045	1369	0
1045	1370	0
1045	1371	0
1045	1372	0
1045	1373	0
1045	1374	0
1045	1375	0
1045	1376	0
1045	1377	0
1045	1378	0
1045	1379	0
1045	1380	0
1045	1381	0
1045	1382	0
1045	1383	0
1045	1384	0
1045	1385	0
1045	1386	0
1045	1387	0
1045	1388	0
1045	1389	0
1045	1390	0
1045	1391	0
1045	1392	0
1045	1393	0
1045	1394	0
1045	1395	0
1045	1396	0
1045	1397	0
1045	1398	0
1045	1399	0
1045	1400	0
1045	1401	0
1045	1402	0
1045	1403	0
1045	1404	0
1045	1405	0
1045	1406	0
1045	1407	0
1045	1408	0
1045	1409	0
1045	1410	0
1045	1411	0
1045	1412	0
1045	1413	0
1045	1414	0
1045	1415	0
1045	1416	0
1045	1417	0
1045	1418	0
1045	1419	0
1045	1420	0
1045	1421	0
1045	1422	0
1045	1423	0
1045	1424	0
1045	1425	0
1045	1426	0
1045	1427	0
1045	1428	0
1045	1429	0
1045	1430	0
1045	1431	0
1045	1432	0
1045	1433	0
1045	1434	0
1045	1435	0
1045	1436	0
1045	1437	0
1045	1438	0
1045	1439	0
1045	1440	0
1045	1441	0
1045	1442	0
1045	1443	0
1045	1444	0
1045	1445	0
1045	1446	0
1045	1447	0
1045	1448	0
1045	1449	0
1045	1450	0
1045	1451	0
1045	1452	0
1045	1453	0
1045	1454	0
1045	1455	0
1045	1456	0
1045	1457	0
1045	1458	0
1045	1459	0
1045	1460	0
1045	1461	0
1045	1462	0
1045	1463	0
1045	1464	0
1045	1465	0
1045	1466	0
1045	1467	0
1045	1468	0
1045	1469	0
1045	1470	0
1045	1471	0
1045	1472	0
1045	1473	0
1045	1474	0
1045	1475	0
1045	1476	0
1045	1477	0
1045	1478	0
1045	1479	0
1045	1480	0
1045	1481	0
1045	1482	0
1045	1483	0
1045	1484	0
1045	1485	0
1045	1486	0
1045	1487	0
1045	1488	0
1045	1489	0
1045	1490	0
1045	1491	0
1045	1492	0
1045	1493	0
1045	1494	0
1045	1495	0
1045	1496	0
1045	1497	0
1045	1498	0
1045	1499	0
1045	1500	0
1045	1501	0
1045	1502	0
1045	1503	0
1045	1615	0
1045	1616	0
1045	1617	0
1045	1618	0
1045	1619	0
1045	1620	0
1045	1621	0
1045	1622	0
1045	1623	0
1045	1624	0
1045	1625	0
1045	1626	0
1045	1627	0
1045	1628	0
1045	1629	0
1045	1630	0
1045	1631	0
1045	1632	0
1045	1633	0
1045	1634	0
1045	1635	0
1045	1636	0
1045	1637	0
1045	1638	0
1045	1738	0
1045	1739	0
1045	1740	0
1045	1741	0
1045	1742	0
1045	1743	0
1045	1744	0
1045	1745	0
1045	1746	0
1045	1747	0
1045	1748	0
1045	1749	0
1045	1750	0
1045	1751	0
1045	1752	0
1045	1753	0
1045	1754	0
1045	1755	0
1045	1756	0
1045	1757	0
1045	1758	0
1045	1759	0
1045	1760	0
1045	1761	0
1045	1762	0
1045	1763	0
1045	1764	0
1045	1765	0
1045	1766	0
1045	1767	0
1045	1768	0
1045	1769	0
1045	1770	0
1045	1771	0
1045	1772	0
1045	1773	0
1045	1774	0
1045	1775	0
1045	1776	0
1045	1777	0
1045	1778	0
1045	1779	0
1045	1780	0
1045	1781	0
1045	1782	0
1045	1783	0
1045	1784	0
1045	1785	0
1045	1786	0
1045	1787	0
1045	1788	0
1045	1789	0
1045	1790	0
1045	1791	0
1045	1792	0
1045	1793	0
1045	1794	0
1045	1795	0
1045	1796	0
1045	1797	0
1045	1798	0
1045	1799	0
1045	1800	0
1045	1803	0
1045	1804	0
1045	1805	0
1045	1829	0
1045	1830	0
1045	1831	0
1045	1832	0
1045	1833	0
1045	1834	0
1045	1835	0
1045	1836	0
1045	1837	0
1045	1838	0
1045	1839	0
1045	1840	0
1045	1841	0
1045	1842	0
1045	1843	0
1045	1844	0
1045	1845	0
1045	1846	0
1045	1847	0
1045	1848	0
1045	1849	0
1045	1850	0
1045	1851	0
1045	1852	0
1045	1853	0
1045	1854	0
1045	1855	0
1045	1856	0
1045	1857	0
1045	1858	0
1045	1859	0
1045	1860	0
1045	1861	0
1045	1862	0
1045	1863	0
1045	1864	0
1045	1865	0
1045	1866	0
1045	1867	0
1045	1868	0
1045	1869	0
1045	1870	0
1045	1871	0
1045	1872	0
1045	1873	0
1045	1874	0
1045	1875	0
1045	1876	0
1045	1877	0
1045	1878	0
1045	1879	0
1045	1880	0
1045	1881	0
1045	1882	0
1045	1883	0
1045	1884	0
1045	1885	0
1045	1886	0
1045	1887	0
1045	1888	0
1045	1889	0
1045	1890	0
1045	1891	0
1045	1892	0
1045	1893	0
1045	1894	0
1045	1895	0
1045	1896	0
1045	1897	0
1045	1898	0
1045	1899	0
1045	1900	0
1046	1251	0
1046	1252	0
1046	1253	0
1046	1254	0
1046	1255	0
1046	1256	0
1046	1257	0
1046	1258	0
1046	1259	0
1046	1260	0
1046	1261	0
1046	1262	0
1046	1263	0
1046	1264	0
1046	1265	0
1046	1266	0
1046	1267	0
1046	1268	0
1046	1269	0
1046	1270	0
1046	1271	0
1046	1272	0
1046	1273	0
1046	1274	0
1046	1275	0
1046	1276	0
1046	1277	0
1046	1278	0
1046	1279	0
1046	1280	0
1046	1281	0
1046	1282	0
1046	1283	0
1046	1284	0
1046	1285	0
1046	1286	0
1046	1287	0
1046	1288	0
1046	1289	0
1046	1290	0
1046	1291	0
1046	1292	0
1046	1293	0
1046	1294	0
1046	1295	0
1046	1296	0
1046	1297	0
1046	1298	0
1046	1299	0
1046	1300	0
1046	1301	0
1046	1302	0
1046	1303	0
1046	1304	0
1046	1305	0
1046	1306	0
1046	1307	0
1046	1308	0
1046	1309	0
1046	1310	0
1046	1311	0
1046	1312	0
1046	1313	0
1046	1314	0
1046	1315	0
1046	1316	0
1046	1317	0
1046	1318	0
1046	1319	0
1046	1363	0
1046	1364	0
1046	1365	0
1046	1366	0
1046	1367	0
1046	1368	0
1046	1369	0
1046	1370	0
1046	1371	0
1046	1372	0
1046	1390	0
1046	1397	0
1046	1398	0
1046	1399	0
1046	1400	0
1046	1401	0
1046	1402	0
1046	1403	0
1046	1405	0
1046	1406	0
1046	1407	0
1046	1408	0
1046	1409	0
1046	1410	0
1046	1411	0
1046	1412	0
1046	1413	0
1046	1414	0
1046	1415	0
1046	1416	0
1046	1417	0
1046	1418	0
1046	1419	0
1046	1420	0
1046	1421	0
1046	1422	0
1046	1423	0
1046	1424	0
1046	1425	0
1046	1426	0
1046	1427	0
1046	1428	0
1046	1429	0
1046	1430	0
1046	1431	0
1046	1432	0
1046	1433	0
1046	1434	0
1046	1435	0
1046	1436	0
1046	1437	0
1046	1438	0
1046	1439	0
1046	1440	0
1046	1441	0
1046	1442	0
1046	1443	0
1046	1444	0
1046	1445	0
1046	1446	0
1046	1447	0
1046	1448	0
1046	1449	0
1046	1450	0
1046	1451	0
1046	1452	0
1046	1453	0
1046	1454	0
1046	1455	0
1046	1456	0
1046	1457	0
1046	1458	0
1046	1459	0
1046	1460	0
1046	1461	0
1046	1462	0
1046	1463	0
1046	1464	0
1046	1465	0
1046	1466	0
1046	1467	0
1046	1468	0
1046	1469	0
1046	1470	0
1046	1471	0
1046	1472	0
1046	1473	0
1046	1474	0
1046	1475	0
1046	1476	0
1046	1477	0
1046	1478	0
1046	1479	0
1046	1480	0
1046	1481	0
1046	1482	0
1046	1483	0
1046	1484	0
1046	1485	0
1046	1486	0
1046	1487	0
1046	1488	0
1046	1489	0
1046	1490	0
1046	1491	0
1046	1492	0
1046	1493	0
1046	1494	0
1046	1624	0
1046	1625	0
1046	1626	0
1046	1627	0
1046	1628	0
1046	1629	0
1046	1630	0
1046	1631	0
1046	1632	0
1046	1633	0
1046	1634	0
1046	1635	0
1046	1636	0
1046	1637	0
1046	1638	0
1046	1639	0
1046	1640	0
1046	1641	0
1046	1642	0
1046	1643	0
1046	1644	0
1046	1645	0
1046	1646	0
1046	1647	0
1046	1648	0
1046	1649	0
1046	1734	0
1046	1735	0
1046	1736	0
1046	1737	0
1046	1738	0
1046	1739	0
1046	1740	0
1046	1741	0
1046	1742	0
1046	1743	0
1046	1744	0
1046	1745	0
1046	1746	0
1046	1747	0
1046	1748	0
1046	1749	0
1046	1750	0
1046	1751	0
1046	1752	0
1046	1753	0
1046	1754	0
1046	1755	0
1046	1756	0
1046	1757	0
1046	1758	0
1046	1759	0
1046	1760	0
1046	1761	0
1046	1762	0
1046	1763	0
1046	1764	0
1046	1765	0
1046	1766	0
1046	1767	0
1046	1768	0
1046	1769	0
1046	1770	0
1046	1771	0
1046	1772	0
1046	1773	0
1046	1774	0
1046	1775	0
1046	1776	0
1046	1777	0
1046	1778	0
1046	1779	0
1046	1780	0
1046	1781	0
1046	1782	0
1046	1783	0
1046	1784	0
1046	1785	0
1046	1786	0
1046	1787	0
1046	1788	0
1046	1789	0
1046	1790	0
1046	1791	0
1046	1792	0
1046	1793	0
1046	1794	0
1046	1795	0
1046	1796	0
1046	1797	0
1046	1798	0
1046	1799	0
1046	1800	0
1046	1801	0
1046	1802	0
1046	1803	0
1046	1804	0
1046	1805	0
1046	1806	0
1046	1807	0
1046	1808	0
1046	1809	0
1046	1810	0
1046	1811	0
1046	1812	0
1046	1813	0
1046	1814	0
1046	1815	0
1046	1816	0
1046	1817	0
1046	1818	0
1046	1819	0
1046	1820	0
1046	1821	0
1046	1822	0
1046	1823	0
1046	1824	0
1046	1825	0
1046	1826	0
1046	1827	0
1046	1828	0
1046	1829	0
1046	1830	0
1046	1831	0
1046	1832	0
1046	1833	0
1046	1834	0
1046	1835	0
1046	1836	0
1046	1837	0
1046	1838	0
1046	1839	0
1046	1840	0
1046	1841	0
1046	1842	0
1046	1843	0
1046	1844	0
1046	1845	0
1046	1846	0
1046	1847	0
1046	1848	0
1046	1849	0
1046	1850	0
1046	1851	0
1046	1852	0
1046	1853	0
1046	1854	0
1046	1855	0
1046	1856	0
1046	1857	0
1046	1858	0
1046	1859	0
1046	1860	0
1046	1861	0
1046	1862	0
1046	1863	0
1046	1864	0
1046	1865	0
1046	1866	0
1046	1867	0
1046	1868	0
1046	1874	0
1046	1875	0
1046	1876	0
1046	1877	0
1046	1878	0
1046	1879	0
1046	1880	0
1046	1881	0
1046	1882	0
1046	1883	0
1046	1884	0
1046	1885	0
1046	1886	0
1046	1887	0
1046	1888	0
1046	1889	0
1046	1890	0
1046	1891	0
1046	1892	0
1046	1893	0
1046	1894	0
1046	1895	0
1046	1896	0
1046	1897	0
1046	1898	0
1046	1899	0
1046	1900	0
1046	1901	0
1046	1902	0
1046	1903	0
1046	1904	0
1046	1905	0
1046	1906	0
1046	1907	0
1046	1908	0
1046	1909	0
1047	1268	0
1047	1269	0
1047	1270	0
1047	1271	0
1047	1272	0
1047	1273	0
1047	1274	0
1047	1275	0
1047	1276	0
1047	1277	0
1047	1278	0
1047	1279	0
1047	1280	0
1047	1281	0
1047	1282	0
1047	1283	0
1047	1284	0
1047	1285	0
1047	1286	0
1047	1287	0
1047	1288	0
1047	1289	0
1047	1290	0
1047	1291	0
1047	1292	0
1047	1293	0
1047	1294	0
1047	1295	0
1047	1296	0
1047	1440	0
1047	1441	0
1047	1448	0
1047	1449	0
1047	1450	0
1047	1453	0
1047	1454	0
1047	1455	0
1047	1456	0
1047	1457	0
1047	1458	0
1047	1459	0
1047	1460	0
1047	1461	0
1047	1462	0
1047	1463	0
1047	1464	0
1047	1465	0
1047	1466	0
1047	1632	0
1047	1633	0
1047	1634	0
1047	1635	0
1047	1636	0
1047	1637	0
1047	1638	0
1047	1639	0
1047	1640	0
1047	1641	0
1047	1642	0
1047	1643	0
1047	1644	0
1047	1645	0
1047	1646	0
1047	1647	0
1047	1648	0
1047	1649	0
1047	1650	0
1047	1651	0
1047	1652	0
1047	1653	0
1047	1654	0
1047	1655	0
1047	1656	0
1047	1657	0
1047	1658	0
1047	1732	0
1047	1733	0
1047	1734	0
1047	1735	0
1047	1736	0
1047	1737	0
1047	1738	0
1047	1739	0
1047	1740	0
1047	1741	0
1047	1742	0
1047	1743	0
1047	1744	0
1047	1745	0
1047	1746	0
1047	1747	0
1047	1748	0
1047	1749	0
1047	1750	0
1047	1751	0
1047	1752	0
1047	1753	0
1047	1754	0
1047	1755	0
1047	1756	0
1047	1757	0
1047	1758	0
1047	1759	0
1047	1760	0
1047	1761	0
1047	1762	0
1047	1763	0
1047	1764	0
1047	1765	0
1047	1766	0
1047	1767	0
1047	1768	0
1047	1769	0
1047	1770	0
1047	1771	0
1047	1772	0
1047	1773	0
1047	1774	0
1047	1775	0
1047	1776	0
1047	1777	0
1047	1778	0
1047	1779	0
1047	1780	0
1047	1781	0
1047	1782	0
1047	1783	0
1047	1784	0
1047	1785	0
1047	1786	0
1047	1787	0
1047	1788	0
1047	1789	0
1047	1790	0
1047	1791	0
1047	1792	0
1047	1793	0
1047	1794	0
1047	1795	0
1047	1796	0
1047	1797	0
1047	1798	0
1047	1799	0
1047	1800	0
1047	1801	0
1047	1802	0
1047	1803	0
1047	1804	0
1047	1805	0
1047	1806	0
1047	1807	0
1047	1808	0
1047	1809	0
1047	1810	0
1047	1811	0
1047	1812	0
1047	1813	0
1047	1814	0
1047	1815	0
1047	1816	0
1047	1817	0
1047	1818	0
1047	1819	0
1047	1820	0
1047	1821	0
1047	1822	0
1047	1823	0
1047	1824	0
1047	1825	0
1047	1826	0
1047	1827	0
1047	1828	0
1047	1829	0
1047	1830	0
1047	1831	0
1047	1832	0
1047	1833	0
1047	1834	0
1047	1835	0
1047	1836	0
1047	1837	0
1047	1838	0
1047	1839	0
1047	1840	0
1047	1841	0
1047	1842	0
1047	1843	0
1047	1844	0
1047	1845	0
1047	1846	0
1047	1847	0
1047	1848	0
1047	1849	0
1047	1850	0
1047	1857	0
1047	1858	0
1047	1859	0
1047	1860	0
1047	1892	0
1047	1896	0
1047	1897	0
1047	1898	0
1047	1903	0
1047	1904	0
1047	1905	0
1047	1906	0
1047	1907	0
1047	1908	0
1047	1909	0
1047	1910	0
1047	1911	0
1047	1912	0
1047	1913	0
1047	1914	0
1047	1915	0
1048	1637	0
1048	1638	0
1048	1639	0
1048	1640	0
1048	1641	0
1048	1642	0
1048	1643	0
1048	1644	0
1048	1645	0
1048	1646	0
1048	1647	0
1048	1648	0
1048	1649	0
1048	1650	0
1048	1651	0
1048	1652	0
1048	1653	0
1048	1654	0
1048	1655	0
1048	1656	0
1048	1657	0
1048	1658	0
1048	1659	0
1048	1660	0
1048	1661	0
1048	1662	0
1048	1663	0
1048	1664	0
1048	1665	0
1048	1727	0
1048	1728	0
1048	1729	0
1048	1730	0
1048	1731	0
1048	1732	0
1048	1733	0
1048	1734	0
1048	1735	0
1048	1736	0
1048	1737	0
1048	1738	0
1048	1739	0
1048	1740	0
1048	1741	0
1048	1742	0
1048	1743	0
1048	1744	0
1048	1745	0
1048	1746	0
1048	1747	0
1048	1748	0
1048	1749	0
1048	1754	0
1048	1811	0
1048	1812	0
1048	1813	0
1048	1818	0
1048	1829	0
1048	1830	0
1048	1831	0
1048	1908	0
1048	1909	0
1048	1910	0
1048	1911	0
1048	1912	0
1048	1913	0
1048	1914	0
1048	1915	0
1048	1916	0
1048	1917	0
1048	1918	0
1048	1919	0
1048	1920	0
1048	1921	0
1049	1647	0
1049	1648	0
1049	1649	0
1049	1650	0
1049	1651	0
1049	1652	0
1049	1653	0
1049	1654	0
1049	1655	0
1049	1656	0
1049	1657	0
1049	1658	0
1049	1659	0
1049	1660	0
1049	1661	0
1049	1662	0
1049	1663	0
1049	1664	0
1049	1665	0
1049	1666	0
1049	1667	0
1049	1668	0
1049	1669	0
1049	1670	0
1049	1671	0
1049	1672	0
1049	1673	0
1049	1674	0
1049	1675	0
1049	1676	0
1049	1677	0
1049	1678	0
1049	1719	0
1049	1720	0
1049	1721	0
1049	1722	0
1049	1723	0
1049	1724	0
1049	1725	0
1049	1726	0
1049	1727	0
1049	1728	0
1049	1729	0
1049	1730	0
1049	1731	0
1049	1732	0
1049	1733	0
1049	1734	0
1049	1735	0
1049	1736	0
1049	1914	0
1049	1915	0
1049	1916	0
1049	1919	0
1049	1920	0
1049	1921	0
1050	1653	0
1050	1654	0
1050	1655	0
1050	1656	0
1050	1657	0
1050	1658	0
1050	1659	0
1050	1660	0
1050	1661	0
1050	1662	0
1050	1663	0
1050	1664	0
1050	1665	0
1050	1666	0
1050	1667	0
1050	1668	0
1050	1669	0
1050	1670	0
1050	1671	0
1050	1672	0
1050	1673	0
1050	1674	0
1050	1675	0
1050	1676	0
1050	1677	0
1050	1678	0
1050	1679	0
1050	1680	0
1050	1681	0
1050	1682	0
1050	1683	0
1050	1684	0
1050	1685	0
1050	1686	0
1050	1687	0
1050	1688	0
1050	1689	0
1050	1690	0
1050	1691	0
1050	1692	0
1050	1693	0
1050	1694	0
1050	1695	0
1050	1696	0
1050	1697	0
1050	1698	0
1050	1699	0
1050	1700	0
1050	1701	0
1050	1702	0
1050	1703	0
1050	1704	0
1050	1705	0
1050	1706	0
1050	1707	0
1050	1708	0
1050	1709	0
1050	1710	0
1050	1711	0
1050	1712	0
1050	1713	0
1050	1714	0
1050	1715	0
1050	1716	0
1050	1717	0
1050	1718	0
1050	1719	0
1050	1720	0
1050	1721	0
1050	1722	0
1050	1723	0
1050	1724	0
1050	1725	0
1050	1726	0
1050	1727	0
1050	1728	0
1050	1729	0
1050	1730	0
1050	1731	0
1050	1732	0
1050	1733	0
1051	1663	0
1051	1664	0
1051	1665	0
1051	1666	0
1051	1667	0
1051	1668	0
1051	1669	0
1051	1670	0
1051	1671	0
1051	1672	0
1051	1673	0
1051	1674	0
1051	1675	0
1051	1676	0
1051	1677	0
1051	1678	0
1051	1679	0
1051	1680	0
1051	1681	0
1051	1682	0
1051	1683	0
1051	1684	0
1051	1685	0
1051	1686	0
1051	1687	0
1051	1688	0
1051	1689	0
1051	1690	0
1051	1691	0
1051	1692	0
1051	1693	0
1051	1694	0
1051	1695	0
1051	1696	0
1051	1697	0
1051	1698	0
1051	1699	0
1051	1700	0
1051	1701	0
1051	1702	0
1051	1703	0
1051	1704	0
1051	1705	0
1051	1706	0
1051	1707	0
1051	1708	0
1051	1709	0
1051	1710	0
1051	1711	0
1051	1712	0
1051	1713	0
1051	1714	0
1051	1715	0
1051	1716	0
1051	1717	0
1051	1718	0
1051	1719	0
1051	1720	0
1051	1721	0
1051	1722	0
1051	1723	0
1051	1724	0
1051	1725	0
1051	1726	0
1051	1727	0
1051	1728	0
1051	1729	0
1051	1730	0
1052	1672	0
1052	1673	0
1052	1674	0
1052	1675	0
1052	1676	0
1052	1677	0
1052	1678	0
1052	1679	0
1052	1680	0
1052	1681	0
1052	1682	0
1052	1683	0
1052	1684	0
1052	1685	0
1052	1686	0
1052	1687	0
1052	1688	0
1052	1689	0
1052	1690	0
1052	1691	0
1052	1692	0
1052	1693	0
1052	1694	0
1052	1695	0
1052	1696	0
1052	1697	0
1052	1698	0
1052	1699	0
1052	1700	0
1052	1701	0
1052	1702	0
1052	1703	0
1052	1704	0
1052	1705	0
1052	1706	0
1052	1707	0
1052	1708	0
1052	1709	0
1052	1710	0
1052	1711	0
1052	1712	0
1052	1713	0
1052	1714	0
1052	1715	0
1052	1716	0
1052	1717	0
1052	1718	0
1052	1719	0
1052	1720	0
1052	1721	0
1052	1722	0
1052	1723	0
1052	1724	0
1052	1725	0
1053	1685	0
1053	1686	0
1053	1687	0
1053	1688	0
1053	1689	0
1053	1690	0
1053	1691	0
1053	1692	0
1053	1693	0
1053	1694	0
1053	1696	0
1053	1697	0
1053	1698	0
1053	1699	0
1053	1700	0
1053	1701	0
1053	1702	0
1053	1703	0
1053	1704	0
1053	1705	0
1053	1706	0
1053	1707	0
1053	1708	0
1053	1709	0
1053	1710	0
1053	1711	0
1053	1712	0
1053	1713	0
1053	1714	0
1053	1715	0
1053	1716	0
1053	1717	0
