ply
format ascii 1.0
comment VCGLIB generated
element vertex 629
property float x
property float y
property float z
property float nx
property float ny
property float nz
element face 0
property list uchar int vertex_indices
end_header
0 -5.75 0 0 0 0 
0 -5.74995 -0.0135 0 0 0 
0 -5.7498 -0.026998 0 0 0 
0 -5.74955 -0.040494 0 0 0 
0 -5.7492 -0.053986 0 0 0 
0 -5.74875 -0.067472 0 0 0 
0 -5.748201 -0.080951 0 0 0 
0 -5.747551 -0.094423 0 0 0 
0 -5.746802 -0.107885 0 0 0 
0 -5.745953 -0.121336 0 0 0 
0 -5.745004 -0.134775 0 0 0 
0 -5.743956 -0.148201 0 0 0 
0 -5.742809 -0.161611 0 0 0 
0 -5.741562 -0.175006 0 0 0 
0 -5.740216 -0.188383 0 0 0 
0 -5.738771 -0.201741 0 0 0 
0 -5.737227 -0.21508 0 0 0 
0 -5.735585 -0.228396 0 0 0 
0 -5.733844 -0.24169 0 0 0 
0 -5.732004 -0.25496 0 0 0 
0 -5.730067 -0.268204 0 0 0 
0 -5.728031 -0.281421 0 0 0 
0 -5.725897 -0.29461 0 0 0 
0 -5.723666 -0.30777 0 0 0 
0 -5.721338 -0.320899 0 0 0 
0 -5.718912 -0.333995 0 0 0 
0 -5.71639 -0.347059 0 0 0 
0 -5.713771 -0.360087 0 0 0 
0 -5.711055 -0.37308 0 0 0 
0 -5.708244 -0.386036 0 0 0 
0 -5.705337 -0.398952 0 0 0 
0 -5.702334 -0.411829 0 0 0 
0 -5.699235 -0.424665 0 0 0 
0 -5.696042 -0.437458 0 0 0 
0 -5.692755 -0.450208 0 0 0 
0 -5.689373 -0.462912 0 0 0 
0 -5.685897 -0.47557 0 0 0 
0 -5.682327 -0.488181 0 0 0 
0 -5.678665 -0.500743 0 0 0 
0 -5.674909 -0.513254 0 0 0 
0 -5.671061 -0.525715 0 0 0 
0 -5.667121 -0.538122 0 0 0 
0 -5.663089 -0.550476 0 0 0 
0 -5.658966 -0.562775 0 0 0 
0 -5.654752 -0.575018 0 0 0 
0 -5.650447 -0.587203 0 0 0 
0 -5.646053 -0.59933 0 0 0 
0 -5.641568 -0.611396 0 0 0 
0 -5.636995 -0.623402 0 0 0 
0 -5.632333 -0.635345 0 0 0 
0 -5.627583 -0.647224 0 0 0 
0 -5.622745 -0.659039 0 0 0 
0 -5.617819 -0.670788 0 0 0 
0 -5.612807 -0.68247 0 0 0 
0 -5.607709 -0.694083 0 0 0 
0 -5.602525 -0.705627 0 0 0 
0 -5.597255 -0.717101 0 0 0 
0 -5.591901 -0.728503 0 0 0 
0 -5.586463 -0.739832 0 0 0 
0 -5.580941 -0.751087 0 0 0 
0 -5.575336 -0.762267 0 0 0 
0 -5.569648 -0.773371 0 0 0 
0 -5.563879 -0.784397 0 0 0 
0 -5.558028 -0.795345 0 0 0 
0 -5.552096 -0.806214 0 0 0 
0 -5.546084 -0.817001 0 0 0 
0 -5.539992 -0.827707 0 0 0 
0 -5.533822 -0.838331 0 0 0 
0 -5.527573 -0.84887 0 0 0 
0 -5.521246 -0.859325 0 0 0 
0 -5.514842 -0.869694 0 0 0 
0 -5.508362 -0.879975 0 0 0 
0 -5.501806 -0.890169 0 0 0 
0 -5.495175 -0.900274 0 0 0 
0 -5.488469 -0.910288 0 0 0 
0 -5.481689 -0.920212 0 0 0 
0 -5.474836 -0.930044 0 0 0 
0 -5.467911 -0.939782 0 0 0 
0 -5.460914 -0.949427 0 0 0 
0 -5.453846 -0.958976 0 0 0 
0 -5.446707 -0.96843 0 0 0 
0 -5.439499 -0.977787 0 0 0 
0 -5.432222 -0.987046 0 0 0 
0 -5.424876 -0.996207 0 0 0 
0 -5.417463 -1.005268 0 0 0 
0 -5.409984 -1.014228 0 0 0 
0 -5.402438 -1.023087 0 0 0 
0 -5.394827 -1.031844 0 0 0 
0 -5.387152 -1.040497 0 0 0 
0 -5.379412 -1.049046 0 0 0 
0 -5.37161 -1.057491 0 0 0 
0 -5.363746 -1.06583 0 0 0 
0 -5.355821 -1.074062 0 0 0 
0 -5.347834 -1.082186 0 0 0 
0 -5.339788 -1.090203 0 0 0 
0 -5.331684 -1.09811 0 0 0 
0 -5.32352 -1.105908 0 0 0 
0 -5.3153 -1.113595 0 0 0 
0 -5.307023 -1.121171 0 0 0 
0 -5.29869 -1.128635 0 0 0 
0 -5.290303 -1.135985 0 0 0 
0 -5.281861 -1.143223 0 0 0 
0 -5.273366 -1.150345 0 0 0 
0 -5.264819 -1.157353 0 0 0 
0 -5.256221 -1.164245 0 0 0 
0 -5.247572 -1.171021 0 0 0 
0 -5.238873 -1.177679 0 0 0 
0 -5.230125 -1.18422 0 0 0 
0 -5.221329 -1.190643 0 0 0 
0 -5.212486 -1.196946 0 0 0 
0 -5.203597 -1.20313 0 0 0 
0 -5.194662 -1.209193 0 0 0 
0 -5.185683 -1.215135 0 0 0 
0 -5.17666 -1.220956 0 0 0 
0 -5.167595 -1.226655 0 0 0 
0 -5.158488 -1.232231 0 0 0 
0 -5.14934 -1.237684 0 0 0 
0 -5.140152 -1.243013 0 0 0 
0 -5.130926 -1.248218 0 0 0 
0 -5.121661 -1.253298 0 0 0 
0 -5.112358 -1.258252 0 0 0 
0 -5.10302 -1.263081 0 0 0 
0 -5.093646 -1.267784 0 0 0 
0 -5.084238 -1.27236 0 0 0 
0 -5.074797 -1.276808 0 0 0 
0 -5.065323 -1.281129 0 0 0 
0 -5.055818 -1.285322 0 0 0 
0 -5.046282 -1.289386 0 0 0 
0 -5.036716 -1.293321 0 0 0 
0 -5.027122 -1.297127 0 0 0 
0 -5.0175 -1.300803 0 0 0 
0 -5.007851 -1.304349 0 0 0 
0 -4.998176 -1.307765 0 0 0 
0 -4.988477 -1.31105 0 0 0 
0 -4.978754 -1.314204 0 0 0 
0 -4.969008 -1.317226 0 0 0 
0 -4.95924 -1.320117 0 0 0 
0 -4.949451 -1.322876 0 0 0 
0 -4.939642 -1.325502 0 0 0 
0 -4.929814 -1.327996 0 0 0 
0 -4.919968 -1.330357 0 0 0 
0 -4.910105 -1.332585 0 0 0 
0 -4.900226 -1.33468 0 0 0 
0 -4.890333 -1.336641 0 0 0 
0 -4.880425 -1.338469 0 0 0 
0 -4.870504 -1.340162 0 0 0 
0 -4.860571 -1.341722 0 0 0 
0 -4.850627 -1.343148 0 0 0 
0 -4.840673 -1.344439 0 0 0 
0 -4.83071 -1.345596 0 0 0 
0 -4.820738 -1.346618 0 0 0 
0 -4.81076 -1.347506 0 0 0 
0 -4.800776 -1.348259 0 0 0 
0 -4.790786 -1.348877 0 0 0 
0 -4.780793 -1.34936 0 0 0 
0 -4.770796 -1.349708 0 0 0 
0 -4.760797 -1.349921 0 0 0 
0 -4.750797 -1.35 0 0 0 
0 -4.740798 -1.349943 0 0 0 
0 -4.730799 -1.349751 0 0 0 
0 -4.720802 -1.349424 0 0 0 
0 -4.710808 -1.348963 0 0 0 
0 -4.700817 -1.348366 0 0 0 
0 -4.690832 -1.347635 0 0 0 
0 -4.680853 -1.346769 0 0 0 
0 -4.67088 -1.345768 0 0 0 
0 -4.660916 -1.344632 0 0 0 
0 -4.65096 -1.343363 0 0 0 
0 -4.641014 -1.341959 0 0 0 
0 -4.63108 -1.34042 0 0 0 
0 -4.621157 -1.338748 0 0 0 
0 -4.611247 -1.336941 0 0 0 
0 -4.601351 -1.335001 0 0 0 
0 -4.591469 -1.332928 0 0 0 
0 -4.581604 -1.330721 0 0 0 
0 -4.571755 -1.328381 0 0 0 
0 -4.561924 -1.325909 0 0 0 
0 -4.552112 -1.323303 0 0 0 
0 -4.54232 -1.320566 0 0 0 
0 -4.532549 -1.317696 0 0 0 
0 -4.522799 -1.314695 0 0 0 
0 -4.513072 -1.311562 0 0 0 
0 -4.503369 -1.308298 0 0 0 
0 -4.49369 -1.304903 0 0 0 
0 -4.484037 -1.301378 0 0 0 
0 -4.474411 -1.297722 0 0 0 
0 -4.464812 -1.293937 0 0 0 
0 -4.455242 -1.290022 0 0 0 
0 -4.445701 -1.285978 0 0 0 
0 -4.436191 -1.281806 0 0 0 
0 -4.426712 -1.277506 0 0 0 
0 -4.417265 -1.273078 0 0 0 
0 -4.407852 -1.268522 0 0 0 
0 -4.398473 -1.26384 0 0 0 
0 -4.389129 -1.259031 0 0 0 
0 -4.379821 -1.254096 0 0 0 
0 -4.37055 -1.249036 0 0 0 
0 -4.361317 -1.243851 0 0 0 
0 -4.352123 -1.238542 0 0 0 
0 -4.342968 -1.233109 0 0 0 
0 -4.333855 -1.227552 0 0 0 
0 -4.324782 -1.221873 0 0 0 
0 -4.315753 -1.216072 0 0 0 
0 -4.306767 -1.210149 0 0 0 
0 -4.297825 -1.204105 0 0 0 
0 -4.288929 -1.19794 0 0 0 
0 -4.280078 -1.191656 0 0 0 
0 -4.271275 -1.185252 0 0 0 
0 -4.262519 -1.178731 0 0 0 
0 -4.253812 -1.172091 0 0 0 
0 -4.245155 -1.165334 0 0 0 
0 -4.236548 -1.15846 0 0 0 
0 -4.227993 -1.151471 0 0 0 
0 -4.21949 -1.144366 0 0 0 
0 -4.21104 -1.137147 0 0 0 
0 -4.202644 -1.129815 0 0 0 
0 -4.194302 -1.122369 0 0 0 
0 -4.186016 -1.114811 0 0 0 
0 -4.177787 -1.107142 0 0 0 
0 -4.169614 -1.099361 0 0 0 
0 -4.1615 -1.091471 0 0 0 
0 -4.153445 -1.083472 0 0 0 
0 -4.145449 -1.075365 0 0 0 
0 -4.137514 -1.06715 0 0 0 
0 -4.12964 -1.058828 0 0 0 
0 -4.121828 -1.0504 0 0 0 
0 -4.114078 -1.041868 0 0 0 
0 -4.106393 -1.033231 0 0 0 
0 -4.098772 -1.02449 0 0 0 
0 -4.091215 -1.015648 0 0 0 
0 -4.083725 -1.006704 0 0 0 
0 -4.076302 -0.997659 0 0 0 
0 -4.068945 -0.988514 0 0 0 
0 -4.061657 -0.979271 0 0 0 
0 -4.054438 -0.969929 0 0 0 
0 -4.047288 -0.960491 0 0 0 
0 -4.040209 -0.950956 0 0 0 
0 -4.0332 -0.941327 0 0 0 
0 -4.026263 -0.931603 0 0 0 
0 -4.019399 -0.921786 0 0 0 
0 -4.012608 -0.911877 0 0 0 
0 -4.00589 -0.901877 0 0 0 
0 -3.999247 -0.891787 0 0 0 
0 -3.992678 -0.881607 0 0 0 
0 -3.986186 -0.871339 0 0 0 
0 -3.97977 -0.860984 0 0 0 
0 -3.973431 -0.850543 0 0 0 
0 -3.96717 -0.840017 0 0 0 
0 -3.960986 -0.829407 0 0 0 
0 -3.954882 -0.818714 0 0 0 
0 -3.948858 -0.807939 0 0 0 
0 -3.942913 -0.797084 0 0 0 
0 -3.937049 -0.786148 0 0 0 
0 -3.931266 -0.775135 0 0 0 
0 -3.925566 -0.764043 0 0 0 
0 -3.919948 -0.752875 0 0 0 
0 -3.914412 -0.741632 0 0 0 
0 -3.908961 -0.730315 0 0 0 
0 -3.903593 -0.718924 0 0 0 
0 -3.89831 -0.707462 0 0 0 
0 -3.893112 -0.695929 0 0 0 
0 -3.888 -0.684327 0 0 0 
0 -3.882974 -0.672656 0 0 0 
0 -3.878035 -0.660917 0 0 0 
0 -3.873183 -0.649113 0 0 0 
0 -3.868419 -0.637244 0 0 0 
0 -3.863743 -0.625311 0 0 0 
0 -3.859155 -0.613315 0 0 0 
0 -3.854657 -0.601258 0 0 0 
0 -3.850248 -0.589141 0 0 0 
0 -3.845929 -0.576965 0 0 0 
0 -3.8417 -0.564732 0 0 0 
0 -3.837563 -0.552442 0 0 0 
0 -3.833516 -0.540096 0 0 0 
0 -3.829561 -0.527697 0 0 0 
0 -3.825698 -0.515245 0 0 0 
0 -3.821928 -0.502741 0 0 0 
0 -3.818251 -0.490188 0 0 0 
0 -3.814666 -0.477585 0 0 0 
0 -3.811175 -0.464934 0 0 0 
0 -3.807778 -0.452237 0 0 0 
0 -3.804476 -0.439494 0 0 0 
0 -3.801268 -0.426708 0 0 0 
0 -3.798154 -0.413879 0 0 0 
0 -3.795136 -0.401009 0 0 0 
0 -3.792213 -0.388098 0 0 0 
0 -3.789387 -0.375149 0 0 0 
0 -3.786656 -0.362162 0 0 0 
0 -3.784021 -0.349139 0 0 0 
0 -3.781483 -0.336081 0 0 0 
0 -3.779042 -0.32299 0 0 0 
0 -3.776698 -0.309866 0 0 0 
0 -3.774452 -0.296711 0 0 0 
0 -3.772303 -0.283526 0 0 0 
0 -3.770252 -0.270314 0 0 0 
0 -3.768298 -0.257074 0 0 0 
0 -3.766443 -0.243808 0 0 0 
0 -3.764686 -0.230518 0 0 0 
0 -3.763028 -0.217205 0 0 0 
0 -3.761469 -0.20387 0 0 0 
0 -3.760008 -0.190515 0 0 0 
0 -3.758646 -0.177141 0 0 0 
0 -3.757384 -0.163749 0 0 0 
0 -3.75622 -0.150341 0 0 0 
0 -3.755156 -0.136918 0 0 0 
0 -3.754192 -0.123481 0 0 0 
0 -3.753327 -0.110031 0 0 0 
0 -3.752562 -0.096571 0 0 0 
0 -3.751896 -0.083101 0 0 0 
0 -3.751331 -0.069623 0 0 0 
0 -3.750865 -0.056137 0 0 0 
0 -3.750499 -0.042646 0 0 0 
0 -3.750233 -0.029151 0 0 0 
0 -3.750067 -0.015653 0 0 0 
0 -3.750001 -0.002153 0 0 0 
0 -3.750035 0.011346 0 0 0 
0 -3.750169 0.024845 0 0 0 
0 -3.750403 0.038341 0 0 0 
0 -3.750737 0.051834 0 0 0 
0 -3.751171 0.065321 0 0 0 
0 -3.751705 0.078802 0 0 0 
0 -3.752339 0.092274 0 0 0 
0 -3.753072 0.105738 0 0 0 
0 -3.753905 0.119191 0 0 0 
0 -3.754838 0.132632 0 0 0 
0 -3.75587 0.14606 0 0 0 
0 -3.757002 0.159473 0 0 0 
0 -3.758233 0.17287 0 0 0 
0 -3.759563 0.18625 0 0 0 
0 -3.760992 0.199612 0 0 0 
0 -3.76252 0.212953 0 0 0 
0 -3.764147 0.226273 0 0 0 
0 -3.765872 0.239571 0 0 0 
0 -3.767696 0.252844 0 0 0 
0 -3.769618 0.266092 0 0 0 
0 -3.771638 0.279314 0 0 0 
0 -3.773756 0.292508 0 0 0 
0 -3.775971 0.305672 0 0 0 
0 -3.778284 0.318806 0 0 0 
0 -3.780694 0.331908 0 0 0 
0 -3.783201 0.344977 0 0 0 
0 -3.785805 0.358011 0 0 0 
0 -3.788505 0.37101 0 0 0 
0 -3.791301 0.383971 0 0 0 
0 -3.794193 0.396894 0 0 0 
0 -3.797181 0.409777 0 0 0 
0 -3.800264 0.42262 0 0 0 
0 -3.803442 0.43542 0 0 0 
0 -3.806714 0.448176 0 0 0 
0 -3.810081 0.460888 0 0 0 
0 -3.813542 0.473554 0 0 0 
0 -3.817097 0.486172 0 0 0 
0 -3.820745 0.498742 0 0 0 
0 -3.824486 0.511261 0 0 0 
0 -3.828319 0.52373 0 0 0 
0 -3.832244 0.536146 0 0 0 
0 -3.836262 0.548509 0 0 0 
0 -3.84037 0.560817 0 0 0 
0 -3.84457 0.573069 0 0 0 
0 -3.84886 0.585263 0 0 0 
0 -3.85324 0.597399 0 0 0 
0 -3.85771 0.609475 0 0 0 
0 -3.862269 0.62149 0 0 0 
0 -3.866917 0.633444 0 0 0 
0 -3.871654 0.645333 0 0 0 
0 -3.876478 0.657158 0 0 0 
0 -3.881389 0.668918 0 0 0 
0 -3.886387 0.680611 0 0 0 
0 -3.891472 0.692235 0 0 0 
0 -3.896643 0.70379 0 0 0 
0 -3.901898 0.715275 0 0 0 
0 -3.907239 0.726689 0 0 0 
0 -3.912664 0.738029 0 0 0 
0 -3.918173 0.749296 0 0 0 
0 -3.923764 0.760488 0 0 0 
0 -3.929439 0.771604 0 0 0 
0 -3.935195 0.782643 0 0 0 
0 -3.941033 0.793604 0 0 0 
0 -3.946952 0.804485 0 0 0 
0 -3.952951 0.815286 0 0 0 
0 -3.95903 0.826005 0 0 0 
0 -3.965188 0.836641 0 0 0 
0 -3.971425 0.847194 0 0 0 
0 -3.977739 0.857663 0 0 0 
0 -3.984131 0.868045 0 0 0 
0 -3.990599 0.878341 0 0 0 
0 -3.997143 0.888548 0 0 0 
0 -4.003762 0.898667 0 0 0 
0 -4.010456 0.908697 0 0 0 
0 -4.017224 0.918635 0 0 0 
0 -4.024065 0.928481 0 0 0 
0 -4.030979 0.938235 0 0 0 
0 -4.037965 0.947894 0 0 0 
0 -4.045022 0.957459 0 0 0 
0 -4.052149 0.966928 0 0 0 
0 -4.059346 0.976301 0 0 0 
0 -4.066613 0.985576 0 0 0 
0 -4.073947 0.994752 0 0 0 
0 -4.08135 1.003829 0 0 0 
0 -4.088819 1.012805 0 0 0 
0 -4.096354 1.02168 0 0 0 
0 -4.103955 1.030454 0 0 0 
0 -4.11162 1.039124 0 0 0 
0 -4.119349 1.04769 0 0 0 
0 -4.127141 1.056151 0 0 0 
0 -4.134996 1.064507 0 0 0 
0 -4.142912 1.072757 0 0 0 
0 -4.150889 1.080899 0 0 0 
0 -4.158925 1.088933 0 0 0 
0 -4.167021 1.096858 0 0 0 
0 -4.175175 1.104673 0 0 0 
0 -4.183387 1.112378 0 0 0 
0 -4.191655 1.119972 0 0 0 
0 -4.199979 1.127454 0 0 0 
0 -4.208358 1.134823 0 0 0 
0 -4.216791 1.142078 0 0 0 
0 -4.225278 1.149219 0 0 0 
0 -4.233817 1.156246 0 0 0 
0 -4.242408 1.163156 0 0 0 
0 -4.251049 1.169951 0 0 0 
0 -4.25974 1.176628 0 0 0 
0 -4.268481 1.183188 0 0 0 
0 -4.277269 1.189629 0 0 0 
0 -4.286105 1.195952 0 0 0 
0 -4.294987 1.202154 0 0 0 
0 -4.303915 1.208237 0 0 0 
0 -4.312887 1.214199 0 0 0 
0 -4.321903 1.220039 0 0 0 
0 -4.330962 1.225758 0 0 0 
0 -4.340062 1.231353 0 0 0 
0 -4.349204 1.236826 0 0 0 
0 -4.358386 1.242175 0 0 0 
0 -4.367607 1.2474 0 0 0 
0 -4.376866 1.2525 0 0 0 
0 -4.386162 1.257474 0 0 0 
0 -4.395495 1.262323 0 0 0 
0 -4.404864 1.267046 0 0 0 
0 -4.414266 1.271642 0 0 0 
0 -4.423703 1.276111 0 0 0 
0 -4.433172 1.280452 0 0 0 
0 -4.442673 1.284665 0 0 0 
0 -4.452204 1.28875 0 0 0 
0 -4.461765 1.292706 0 0 0 
0 -4.471355 1.296532 0 0 0 
0 -4.480973 1.300229 0 0 0 
0 -4.490618 1.303796 0 0 0 
0 -4.500289 1.307233 0 0 0 
0 -4.509985 1.310538 0 0 0 
0 -4.519705 1.313713 0 0 0 
0 -4.529447 1.316756 0 0 0 
0 -4.539212 1.319668 0 0 0 
0 -4.548998 1.322448 0 0 0 
0 -4.558804 1.325095 0 0 0 
0 -4.568629 1.32761 0 0 0 
0 -4.578472 1.329992 0 0 0 
0 -4.588333 1.332241 0 0 0 
0 -4.59821 1.334357 0 0 0 
0 -4.608101 1.33634 0 0 0 
0 -4.618007 1.338188 0 0 0 
0 -4.627926 1.339903 0 0 0 
0 -4.637858 1.341484 0 0 0 
0 -4.6478 1.342931 0 0 0 
0 -4.657753 1.344244 0 0 0 
0 -4.667715 1.345422 0 0 0 
0 -4.677686 1.346466 0 0 0 
0 -4.687663 1.347374 0 0 0 
0 -4.697647 1.348149 0 0 0 
0 -4.707636 1.348788 0 0 0 
0 -4.717629 1.349292 0 0 0 
0 -4.727625 1.349662 0 0 0 
0 -4.737624 1.349897 0 0 0 
0 -4.747624 1.349996 0 0 0 
0 -4.757624 1.349961 0 0 0 
0 -4.767623 1.34979 0 0 0 
0 -4.777621 1.349485 0 0 0 
0 -4.787616 1.349045 0 0 0 
0 -4.797607 1.348469 0 0 0 
0 -4.807593 1.347759 0 0 0 
0 -4.817574 1.346914 0 0 0 
0 -4.827548 1.345935 0 0 0 
0 -4.837514 1.34482 0 0 0 
0 -4.847471 1.343572 0 0 0 
0 -4.857419 1.342189 0 0 0 
0 -4.867356 1.340671 0 0 0 
0 -4.877281 1.33902 0 0 0 
0 -4.887193 1.337235 0 0 0 
0 -4.897092 1.335316 0 0 0 
0 -4.906976 1.333263 0 0 0 
0 -4.916844 1.331077 0 0 0 
0 -4.926695 1.328759 0 0 0 
0 -4.936529 1.326307 0 0 0 
0 -4.946345 1.323722 0 0 0 
0 -4.95614 1.321005 0 0 0 
0 -4.965915 1.318156 0 0 0 
0 -4.975669 1.315176 0 0 0 
0 -4.985399 1.312063 0 0 0 
0 -4.995107 1.30882 0 0 0 
0 -5.004789 1.305445 0 0 0 
0 -5.014447 1.30194 0 0 0 
0 -5.024078 1.298305 0 0 0 
0 -5.033681 1.29454 0 0 0 
0 -5.043256 1.290646 0 0 0 
0 -5.052802 1.286622 0 0 0 
0 -5.062317 1.28247 0 0 0 
0 -5.071801 1.27819 0 0 0 
0 -5.081253 1.273781 0 0 0 
0 -5.090672 1.269246 0 0 0 
0 -5.100057 1.264583 0 0 0 
0 -5.109407 1.259794 0 0 0 
0 -5.118721 1.254879 0 0 0 
0 -5.127998 1.249839 0 0 0 
0 -5.137237 1.244673 0 0 0 
0 -5.146438 1.239383 0 0 0 
0 -5.155599 1.233969 0 0 0 
0 -5.164719 1.228432 0 0 0 
0 -5.173798 1.222772 0 0 0 
0 -5.182834 1.216989 0 0 0 
0 -5.191827 1.211085 0 0 0 
0 -5.200776 1.20506 0 0 0 
0 -5.20968 1.198914 0 0 0 
0 -5.218538 1.192649 0 0 0 
0 -5.227349 1.186264 0 0 0 
0 -5.236112 1.17976 0 0 0 
0 -5.244827 1.173138 0 0 0 
0 -5.253492 1.1664 0 0 0 
0 -5.262107 1.159544 0 0 0 
0 -5.270671 1.152573 0 0 0 
0 -5.279182 1.145486 0 0 0 
0 -5.287641 1.138285 0 0 0 
0 -5.296046 1.13097 0 0 0 
0 -5.304396 1.123541 0 0 0 
0 -5.312691 1.116001 0 0 0 
0 -5.32093 1.108349 0 0 0 
0 -5.329111 1.100585 0 0 0 
0 -5.337235 1.092712 0 0 0 
0 -5.3453 1.08473 0 0 0 
0 -5.353305 1.076639 0 0 0 
0 -5.36125 1.068441 0 0 0 
0 -5.369134 1.060135 0 0 0 
0 -5.376956 1.051724 0 0 0 
0 -5.384715 1.043207 0 0 0 
0 -5.392411 1.034587 0 0 0 
0 -5.400042 1.025862 0 0 0 
0 -5.407609 1.017035 0 0 0 
0 -5.41511 1.008107 0 0 0 
0 -5.422544 0.999077 0 0 0 
0 -5.429911 0.989948 0 0 0 
0 -5.43721 0.98072 0 0 0 
0 -5.44444 0.971393 0 0 0 
0 -5.451601 0.96197 0 0 0 
0 -5.458692 0.95245 0 0 0 
0 -5.465711 0.942835 0 0 0 
0 -5.47266 0.933125 0 0 0 
0 -5.479536 0.923323 0 0 0 
0 -5.486339 0.913428 0 0 0 
0 -5.493068 0.903442 0 0 0 
0 -5.499723 0.893365 0 0 0 
0 -5.506303 0.883199 0 0 0 
0 -5.512807 0.872945 0 0 0 
0 -5.519236 0.862603 0 0 0 
0 -5.525587 0.852175 0 0 0 
0 -5.531861 0.841662 0 0 0 
0 -5.538056 0.831065 0 0 0 
0 -5.544173 0.820384 0 0 0 
0 -5.55021 0.809622 0 0 0 
0 -5.556167 0.798779 0 0 0 
0 -5.562044 0.787855 0 0 0 
0 -5.567839 0.776853 0 0 0 
0 -5.573553 0.765774 0 0 0 
0 -5.579184 0.754617 0 0 0 
0 -5.584732 0.743385 0 0 0 
0 -5.590197 0.732079 0 0 0 
0 -5.595578 0.7207 0 0 0 
0 -5.600874 0.709249 0 0 0 
0 -5.606086 0.697726 0 0 0 
0 -5.611211 0.686134 0 0 0 
0 -5.616251 0.674473 0 0 0 
0 -5.621203 0.662745 0 0 0 
0 -5.626069 0.650951 0 0 0 
0 -5.630847 0.639091 0 0 0 
0 -5.635537 0.627168 0 0 0 
0 -5.640139 0.615181 0 0 0 
0 -5.644651 0.603134 0 0 0 
0 -5.649074 0.591026 0 0 0 
0 -5.653407 0.578859 0 0 0 
0 -5.65765 0.566634 0 0 0 
0 -5.661802 0.554352 0 0 0 
0 -5.665862 0.542015 0 0 0 
0 -5.669831 0.529624 0 0 0 
0 -5.673709 0.517179 0 0 0 
0 -5.677493 0.504683 0 0 0 
0 -5.681185 0.492137 0 0 0 
0 -5.684784 0.479541 0 0 0 
0 -5.68829 0.466897 0 0 0 
0 -5.691701 0.454207 0 0 0 
0 -5.695019 0.441471 0 0 0 
0 -5.698242 0.428691 0 0 0 
0 -5.70137 0.415869 0 0 0 
0 -5.704403 0.403004 0 0 0 
0 -5.70734 0.3901 0 0 0 
0 -5.710182 0.377156 0 0 0 
0 -5.712928 0.364175 0 0 0 
0 -5.715577 0.351157 0 0 0 
0 -5.71813 0.338104 0 0 0 
0 -5.720586 0.325017 0 0 0 
0 -5.722945 0.311898 0 0 0 
0 -5.725207 0.298747 0 0 0 
0 -5.727371 0.285567 0 0 0 
0 -5.729438 0.272358 0 0 0 
0 -5.731406 0.259122 0 0 0 
0 -5.733277 0.24586 0 0 0 
0 -5.735049 0.232573 0 0 0 
0 -5.736722 0.219264 0 0 0 
0 -5.738297 0.205932 0 0 0 
0 -5.739773 0.192579 0 0 0 
0 -5.74115 0.179208 0 0 0 
0 -5.742428 0.165818 0 0 0 
0 -5.743607 0.152412 0 0 0 
0 -5.744686 0.138991 0 0 0 
0 -5.745666 0.125555 0 0 0 
0 -5.746546 0.112107 0 0 0 
0 -5.747327 0.098648 0 0 0 
0 -5.748007 0.085179 0 0 0 
0 -5.748589 0.071702 0 0 0 
0 -5.74907 0.058217 0 0 0 
0 -5.749451 0.044727 0 0 0 
0 -5.749732 0.031232 0 0 0 
0 -5.749914 0.017734 0 0 0 
0 -5.749995 0.004234 0 0 0 
