ply
format ascii 1.0
element vertex 1491
property float x
property float y
property float z
element face 0
property list uchar int vertex_index
end_header
91	368	0
91	369	0
91	371	0
91	372	0
91	373	0
91	374	0
91	375	0
91	376	0
91	377	0
91	378	0
91	379	0
91	381	0
91	382	0
91	383	0
91	384	0
91	385	0
91	386	0
91	387	0
91	388	0
91	389	0
91	390	0
91	391	0
91	392	0
90	365	0
90	366	0
90	367	0
90	368	0
90	369	0
90	370	0
90	371	0
90	372	0
90	373	0
90	374	0
90	375	0
90	376	0
90	377	0
90	378	0
90	379	0
90	380	0
90	381	0
90	382	0
90	383	0
90	384	0
90	385	0
90	386	0
90	387	0
90	388	0
90	389	0
90	390	0
90	391	0
90	392	0
90	393	0
90	394	0
90	395	0
90	396	0
90	397	0
89	362	0
89	363	0
89	364	0
89	365	0
89	366	0
89	367	0
89	368	0
89	369	0
89	370	0
89	371	0
89	372	0
89	373	0
89	374	0
89	375	0
89	376	0
89	377	0
89	378	0
89	379	0
89	380	0
89	381	0
89	382	0
89	383	0
89	384	0
89	385	0
89	386	0
89	387	0
89	388	0
89	389	0
89	390	0
89	391	0
89	392	0
89	393	0
89	394	0
89	395	0
89	396	0
89	397	0
89	398	0
89	399	0
88	359	0
88	360	0
88	361	0
88	362	0
88	363	0
88	364	0
88	365	0
88	366	0
88	367	0
88	368	0
88	394	0
88	395	0
88	396	0
88	397	0
88	398	0
88	399	0
88	400	0
88	401	0
88	402	0
88	403	0
87	355	0
87	356	0
87	357	0
87	358	0
87	359	0
87	360	0
87	361	0
87	362	0
87	363	0
87	364	0
87	397	0
87	398	0
87	399	0
87	400	0
87	401	0
87	402	0
87	403	0
87	404	0
87	405	0
87	406	0
87	407	0
86	351	0
86	352	0
86	353	0
86	354	0
86	355	0
86	356	0
86	357	0
86	358	0
86	359	0
86	402	0
86	403	0
86	404	0
86	405	0
86	406	0
86	407	0
86	408	0
86	409	0
85	350	0
85	351	0
85	352	0
85	353	0
85	354	0
85	355	0
85	356	0
85	405	0
85	406	0
85	407	0
85	408	0
85	409	0
85	410	0
84	348	0
84	349	0
84	350	0
84	351	0
84	352	0
84	353	0
84	354	0
84	407	0
84	408	0
84	409	0
84	410	0
84	411	0
84	412	0
84	413	0
84	414	0
84	415	0
84	416	0
83	346	0
83	347	0
83	348	0
83	349	0
83	350	0
83	351	0
83	411	0
83	412	0
83	413	0
83	414	0
83	415	0
83	416	0
83	417	0
83	418	0
82	344	0
82	345	0
82	346	0
82	347	0
82	348	0
82	349	0
82	412	0
82	413	0
82	414	0
82	415	0
82	416	0
82	417	0
82	418	0
82	419	0
82	420	0
82	421	0
82	430	0
82	431	0
82	432	0
82	433	0
81	343	0
81	344	0
81	345	0
81	346	0
81	347	0
81	415	0
81	416	0
81	417	0
81	418	0
81	419	0
81	420	0
81	421	0
81	422	0
81	423	0
81	424	0
81	425	0
81	426	0
81	427	0
81	428	0
81	429	0
81	430	0
81	431	0
81	432	0
81	433	0
81	434	0
81	435	0
81	436	0
81	437	0
81	438	0
80	341	0
80	342	0
80	343	0
80	344	0
80	345	0
80	432	0
80	433	0
80	434	0
80	435	0
80	436	0
80	437	0
80	438	0
80	439	0
80	440	0
80	441	0
80	442	0
79	340	0
79	341	0
79	342	0
79	343	0
79	344	0
79	441	0
79	442	0
79	443	0
79	444	0
78	339	0
78	340	0
78	341	0
78	342	0
78	442	0
78	443	0
78	444	0
78	445	0
78	446	0
78	447	0
77	338	0
77	339	0
77	340	0
77	444	0
77	445	0
77	446	0
77	447	0
77	448	0
77	449	0
77	450	0
77	451	0
77	452	0
77	453	0
76	336	0
76	337	0
76	338	0
76	339	0
76	449	0
76	450	0
76	451	0
76	452	0
76	453	0
76	454	0
76	455	0
76	456	0
75	335	0
75	336	0
75	337	0
75	452	0
75	453	0
75	454	0
75	455	0
75	456	0
75	457	0
75	458	0
74	333	0
74	334	0
74	335	0
74	336	0
74	454	0
74	455	0
74	456	0
74	457	0
74	458	0
74	459	0
74	460	0
74	461	0
74	462	0
73	332	0
73	333	0
73	334	0
73	335	0
73	458	0
73	459	0
73	460	0
73	461	0
73	462	0
73	463	0
73	464	0
72	331	0
72	332	0
72	333	0
72	334	0
72	460	0
72	461	0
72	462	0
72	463	0
72	464	0
72	465	0
72	466	0
72	467	0
71	330	0
71	331	0
71	332	0
71	465	0
71	466	0
71	467	0
71	468	0
71	469	0
71	470	0
71	471	0
70	329	0
70	330	0
70	331	0
70	468	0
70	469	0
70	470	0
70	471	0
70	472	0
70	473	0
69	328	0
69	329	0
69	330	0
69	470	0
69	471	0
69	472	0
69	473	0
69	474	0
69	475	0
69	476	0
68	327	0
68	328	0
68	474	0
68	475	0
68	476	0
68	477	0
68	478	0
67	326	0
67	327	0
67	328	0
67	475	0
67	476	0
67	477	0
67	478	0
67	479	0
67	480	0
67	481	0
66	325	0
66	326	0
66	327	0
66	477	0
66	478	0
66	479	0
66	480	0
66	481	0
66	482	0
66	483	0
65	325	0
65	326	0
65	479	0
65	480	0
65	481	0
65	482	0
65	483	0
65	484	0
65	485	0
65	486	0
64	324	0
64	325	0
64	326	0
64	482	0
64	483	0
64	484	0
64	485	0
64	486	0
64	487	0
63	323	0
63	324	0
63	325	0
63	484	0
63	485	0
63	486	0
63	487	0
63	488	0
63	489	0
63	490	0
62	322	0
62	323	0
62	324	0
62	325	0
62	487	0
62	488	0
62	489	0
62	490	0
62	491	0
62	492	0
61	321	0
61	322	0
61	323	0
61	324	0
61	489	0
61	490	0
61	491	0
61	492	0
61	493	0
61	494	0
61	495	0
60	321	0
60	322	0
60	323	0
60	324	0
60	491	0
60	492	0
60	493	0
60	494	0
60	495	0
60	496	0
60	497	0
59	320	0
59	321	0
59	322	0
59	323	0
59	492	0
59	493	0
59	494	0
59	495	0
59	496	0
59	497	0
59	498	0
59	499	0
58	320	0
58	321	0
58	322	0
58	495	0
58	496	0
58	497	0
58	498	0
58	499	0
58	500	0
58	501	0
57	319	0
57	320	0
57	321	0
57	497	0
57	498	0
57	499	0
57	500	0
57	501	0
57	502	0
56	319	0
56	320	0
56	498	0
56	499	0
56	500	0
56	501	0
56	502	0
56	503	0
56	504	0
55	318	0
55	319	0
55	320	0
55	499	0
55	500	0
55	501	0
55	502	0
55	503	0
55	504	0
55	505	0
55	506	0
55	533	0
55	534	0
54	317	0
54	318	0
54	319	0
54	320	0
54	500	0
54	501	0
54	502	0
54	503	0
54	504	0
54	505	0
54	506	0
54	507	0
54	508	0
54	509	0
54	527	0
54	528	0
54	529	0
54	530	0
54	531	0
54	532	0
54	533	0
54	534	0
53	317	0
53	318	0
53	319	0
53	501	0
53	502	0
53	503	0
53	504	0
53	505	0
53	506	0
53	507	0
53	508	0
53	509	0
53	510	0
53	511	0
53	512	0
53	513	0
53	518	0
53	519	0
53	520	0
53	521	0
53	522	0
53	523	0
53	524	0
53	525	0
53	526	0
53	527	0
53	528	0
53	529	0
53	530	0
53	531	0
53	532	0
53	533	0
53	534	0
52	316	0
52	317	0
52	318	0
52	319	0
52	504	0
52	505	0
52	506	0
52	507	0
52	508	0
52	509	0
52	511	0
52	512	0
52	513	0
52	514	0
52	515	0
52	516	0
52	517	0
52	518	0
52	519	0
52	520	0
52	521	0
52	522	0
52	523	0
52	524	0
52	525	0
52	526	0
52	527	0
52	528	0
52	529	0
52	530	0
51	316	0
51	317	0
51	318	0
51	505	0
51	506	0
50	316	0
50	317	0
50	318	0
49	316	0
49	317	0
48	315	0
48	316	0
48	317	0
47	315	0
47	316	0
46	314	0
46	315	0
45	314	0
45	315	0
44	313	0
44	314	0
44	315	0
43	313	0
43	314	0
43	315	0
42	313	0
42	314	0
41	312	0
41	313	0
41	314	0
40	312	0
40	313	0
40	314	0
39	311	0
39	312	0
39	313	0
38	311	0
38	312	0
38	313	0
37	311	0
37	312	0
36	310	0
36	311	0
36	312	0
35	310	0
35	311	0
35	312	0
34	310	0
34	311	0
33	310	0
33	311	0
32	310	0
32	311	0
31	310	0
31	311	0
30	310	0
30	311	0
29	309	0
29	310	0
29	311	0
28	309	0
28	310	0
27	309	0
27	310	0
26	309	0
26	310	0
26	311	0
25	309	0
25	310	0
25	311	0
24	308	0
24	309	0
24	310	0
23	308	0
23	309	0
23	310	0
22	308	0
22	309	0
22	310	0
21	308	0
21	309	0
21	310	0
20	308	0
20	309	0
20	310	0
19	308	0
19	309	0
18	308	0
18	309	0
17	308	0
17	309	0
16	307	0
16	308	0
16	309	0
15	307	0
15	308	0
15	309	0
14	307	0
14	308	0
14	309	0
13	307	0
13	308	0
13	309	0
12	307	0
12	308	0
12	309	0
11	307	0
11	308	0
11	309	0
10	307	0
10	308	0
10	309	0
9	307	0
9	308	0
8	307	0
8	308	0
7	307	0
7	308	0
6	307	0
6	308	0
5	307	0
5	308	0
4	307	0
4	308	0
3	307	0
3	308	0
2	307	0
2	308	0
1	307	0
1	308	0
1	309	0
0	307	0
0	308	0
0	309	0
-1	307	0
-1	308	0
-1	309	0
-2	307	0
-2	308	0
-2	309	0
-3	307	0
-3	308	0
-3	309	0
-4	307	0
-4	308	0
-4	309	0
-5	307	0
-5	308	0
-5	309	0
-6	307	0
-6	308	0
-7	307	0
-7	308	0
-8	307	0
-8	308	0
-9	307	0
-9	308	0
-9	309	0
-10	306	0
-10	307	0
-10	308	0
-10	309	0
-11	306	0
-11	307	0
-11	308	0
-11	309	0
-12	307	0
-12	308	0
-13	307	0
-13	308	0
-13	309	0
-14	307	0
-14	308	0
-15	307	0
-15	308	0
-16	308	0
-17	307	0
-17	308	0
-18	307	0
-18	308	0
-18	309	0
-19	307	0
-19	308	0
-19	309	0
-20	307	0
-20	308	0
-20	309	0
-21	308	0
-21	309	0
-22	308	0
-22	309	0
-23	308	0
-23	309	0
-23	310	0
-24	308	0
-24	309	0
-24	310	0
-25	308	0
-25	309	0
-25	310	0
-26	309	0
-26	310	0
-27	309	0
-27	310	0
-28	309	0
-28	310	0
-28	311	0
-29	309	0
-29	310	0
-29	311	0
-30	309	0
-30	310	0
-30	311	0
-31	309	0
-31	310	0
-31	311	0
-32	310	0
-32	311	0
-32	312	0
-33	310	0
-33	311	0
-33	312	0
-34	310	0
-34	311	0
-34	312	0
-35	311	0
-35	312	0
-35	313	0
-36	311	0
-36	312	0
-36	313	0
-37	312	0
-37	313	0
-37	314	0
-38	312	0
-38	313	0
-38	314	0
-39	312	0
-39	313	0
-39	314	0
-39	315	0
-40	313	0
-40	314	0
-40	315	0
-41	313	0
-41	314	0
-41	315	0
-42	313	0
-42	314	0
-42	315	0
-42	316	0
-43	313	0
-43	314	0
-43	315	0
-43	316	0
-44	314	0
-44	315	0
-44	316	0
-45	315	0
-45	316	0
-45	317	0
-46	316	0
-46	317	0
-47	316	0
-47	317	0
-47	318	0
-47	513	0
-47	514	0
-47	515	0
-47	522	0
-48	317	0
-48	318	0
-48	319	0
-48	512	0
-48	513	0
-48	514	0
-48	515	0
-48	516	0
-48	517	0
-48	518	0
-48	519	0
-48	520	0
-48	521	0
-48	522	0
-48	523	0
-48	524	0
-48	525	0
-48	526	0
-48	527	0
-48	528	0
-48	529	0
-48	530	0
-49	317	0
-49	318	0
-49	319	0
-49	511	0
-49	512	0
-49	513	0
-49	514	0
-49	515	0
-49	516	0
-49	517	0
-49	518	0
-49	519	0
-49	520	0
-49	521	0
-49	522	0
-49	523	0
-49	524	0
-49	525	0
-49	526	0
-49	527	0
-49	528	0
-49	529	0
-49	530	0
-49	531	0
-49	532	0
-49	533	0
-49	534	0
-50	318	0
-50	319	0
-50	320	0
-50	509	0
-50	510	0
-50	511	0
-50	512	0
-50	513	0
-50	514	0
-50	515	0
-50	516	0
-50	517	0
-50	518	0
-50	519	0
-50	520	0
-50	521	0
-50	522	0
-50	523	0
-50	524	0
-50	525	0
-50	526	0
-50	527	0
-50	528	0
-50	529	0
-50	530	0
-50	531	0
-50	532	0
-50	533	0
-50	534	0
-51	318	0
-51	319	0
-51	320	0
-51	508	0
-51	509	0
-51	510	0
-51	511	0
-51	512	0
-51	513	0
-51	514	0
-52	319	0
-52	320	0
-52	507	0
-52	508	0
-52	509	0
-52	510	0
-53	320	0
-53	321	0
-53	505	0
-53	506	0
-53	507	0
-53	508	0
-53	509	0
-54	321	0
-54	322	0
-54	504	0
-54	505	0
-54	506	0
-54	507	0
-55	321	0
-55	322	0
-55	502	0
-55	503	0
-55	504	0
-55	505	0
-55	506	0
-56	321	0
-56	322	0
-56	323	0
-56	500	0
-56	501	0
-56	502	0
-56	503	0
-56	504	0
-57	322	0
-57	323	0
-57	499	0
-57	500	0
-57	501	0
-57	502	0
-57	503	0
-58	497	0
-58	498	0
-58	499	0
-58	500	0
-58	501	0
-59	496	0
-59	497	0
-59	498	0
-59	499	0
-59	500	0
-60	495	0
-60	496	0
-60	497	0
-60	498	0
-61	326	0
-61	492	0
-61	493	0
-61	494	0
-61	495	0
-61	496	0
-62	326	0
-62	327	0
-62	490	0
-62	491	0
-62	492	0
-62	493	0
-62	494	0
-62	495	0
-63	327	0
-63	328	0
-63	488	0
-63	489	0
-63	490	0
-63	491	0
-63	492	0
-63	493	0
-63	494	0
-64	327	0
-64	328	0
-64	329	0
-64	486	0
-64	487	0
-64	488	0
-64	489	0
-64	490	0
-64	491	0
-64	492	0
-65	328	0
-65	329	0
-65	484	0
-65	485	0
-65	486	0
-65	487	0
-65	488	0
-65	489	0
-65	490	0
-66	330	0
-66	331	0
-66	482	0
-66	483	0
-66	484	0
-66	485	0
-66	486	0
-66	487	0
-66	488	0
-67	331	0
-67	332	0
-67	479	0
-67	480	0
-67	481	0
-67	482	0
-67	483	0
-67	484	0
-67	485	0
-67	486	0
-68	332	0
-68	333	0
-68	334	0
-68	477	0
-68	478	0
-68	479	0
-68	480	0
-68	481	0
-68	482	0
-68	483	0
-68	484	0
-69	332	0
-69	333	0
-69	334	0
-69	474	0
-69	475	0
-69	476	0
-69	477	0
-69	478	0
-69	479	0
-69	480	0
-69	481	0
-70	334	0
-70	335	0
-70	336	0
-70	472	0
-70	473	0
-70	474	0
-70	475	0
-70	476	0
-70	477	0
-70	478	0
-71	335	0
-71	336	0
-71	337	0
-71	338	0
-71	469	0
-71	470	0
-71	471	0
-71	472	0
-71	473	0
-71	474	0
-72	335	0
-72	336	0
-72	337	0
-72	338	0
-72	467	0
-72	468	0
-72	469	0
-72	470	0
-72	471	0
-72	472	0
-73	336	0
-73	337	0
-73	338	0
-73	339	0
-73	340	0
-73	464	0
-73	465	0
-73	466	0
-73	467	0
-73	468	0
-73	469	0
-74	338	0
-74	339	0
-74	340	0
-74	341	0
-74	460	0
-74	461	0
-74	462	0
-74	463	0
-74	464	0
-74	465	0
-74	466	0
-74	467	0
-74	468	0
-75	339	0
-75	340	0
-75	341	0
-75	342	0
-75	457	0
-75	458	0
-75	459	0
-75	460	0
-75	461	0
-75	462	0
-75	463	0
-76	340	0
-76	341	0
-76	342	0
-76	343	0
-76	455	0
-76	456	0
-76	457	0
-76	458	0
-76	459	0
-76	460	0
-76	461	0
-76	462	0
-77	341	0
-77	342	0
-77	343	0
-77	344	0
-77	345	0
-77	448	0
-77	449	0
-77	450	0
-77	451	0
-77	452	0
-77	453	0
-77	454	0
-77	455	0
-77	456	0
-77	457	0
-78	343	0
-78	344	0
-78	345	0
-78	346	0
-78	445	0
-78	446	0
-78	447	0
-78	448	0
-78	449	0
-78	450	0
-78	451	0
-78	452	0
-78	453	0
-78	454	0
-78	455	0
-78	456	0
-78	459	0
-79	344	0
-79	345	0
-79	346	0
-79	347	0
-79	439	0
-79	440	0
-79	441	0
-79	442	0
-79	443	0
-79	444	0
-79	445	0
-79	446	0
-79	447	0
-79	448	0
-79	449	0
-79	450	0
-79	451	0
-79	452	0
-79	453	0
-79	454	0
-80	345	0
-80	346	0
-80	347	0
-80	348	0
-80	416	0
-80	417	0
-80	418	0
-80	419	0
-80	420	0
-80	421	0
-80	422	0
-80	423	0
-80	424	0
-80	425	0
-80	426	0
-80	427	0
-80	428	0
-80	429	0
-80	430	0
-80	431	0
-80	432	0
-80	433	0
-80	434	0
-80	435	0
-80	436	0
-80	437	0
-80	438	0
-80	439	0
-80	440	0
-80	441	0
-80	442	0
-80	443	0
-80	444	0
-80	445	0
-80	446	0
-80	447	0
-80	448	0
-80	449	0
-80	450	0
-80	451	0
-80	452	0
-80	453	0
-81	347	0
-81	348	0
-81	349	0
-81	416	0
-81	417	0
-81	418	0
-81	419	0
-81	420	0
-81	421	0
-81	422	0
-81	423	0
-81	424	0
-81	425	0
-81	426	0
-81	427	0
-81	428	0
-81	429	0
-81	430	0
-81	431	0
-81	432	0
-81	433	0
-81	434	0
-81	435	0
-81	436	0
-81	437	0
-81	438	0
-81	439	0
-81	440	0
-81	441	0
-81	442	0
-81	443	0
-81	444	0
-81	447	0
-82	349	0
-82	350	0
-82	351	0
-82	415	0
-82	416	0
-82	417	0
-82	418	0
-82	419	0
-82	428	0
-82	432	0
-82	433	0
-82	434	0
-82	435	0
-83	349	0
-83	350	0
-83	351	0
-83	352	0
-83	353	0
-83	354	0
-83	414	0
-83	415	0
-83	416	0
-83	417	0
-83	418	0
-84	350	0
-84	351	0
-84	352	0
-84	353	0
-84	354	0
-84	355	0
-84	356	0
-84	357	0
-84	412	0
-84	413	0
-84	414	0
-84	415	0
-84	416	0
-84	417	0
-85	350	0
-85	351	0
-85	352	0
-85	353	0
-85	354	0
-85	355	0
-85	356	0
-85	357	0
-85	358	0
-85	359	0
-85	409	0
-85	410	0
-85	411	0
-85	412	0
-85	413	0
-85	414	0
-85	415	0
-86	351	0
-86	352	0
-86	353	0
-86	354	0
-86	355	0
-86	356	0
-86	357	0
-86	358	0
-86	359	0
-86	360	0
-86	361	0
-86	404	0
-86	405	0
-86	406	0
-86	407	0
-86	408	0
-86	409	0
-86	410	0
-86	411	0
-86	412	0
-87	358	0
-87	359	0
-87	360	0
-87	361	0
-87	362	0
-87	363	0
-87	398	0
-87	399	0
-87	400	0
-87	401	0
-87	402	0
-87	403	0
-87	404	0
-87	405	0
-87	406	0
-87	407	0
-88	361	0
-88	362	0
-88	363	0
-88	364	0
-88	365	0
-88	366	0
-88	367	0
-88	368	0
-88	369	0
-88	395	0
-88	396	0
-88	397	0
-88	398	0
-88	399	0
-88	400	0
-88	401	0
-88	402	0
-88	403	0
-88	404	0
-88	405	0
-89	365	0
-89	366	0
-89	367	0
-89	368	0
-89	369	0
-89	370	0
-89	371	0
-89	372	0
-89	373	0
-89	374	0
-89	375	0
-89	376	0
-89	377	0
-89	378	0
-89	379	0
-89	380	0
-89	381	0
-89	382	0
-89	383	0
-89	384	0
-89	385	0
-89	386	0
-89	387	0
-89	388	0
-89	389	0
-89	390	0
-89	391	0
-89	392	0
-89	393	0
-89	394	0
-89	395	0
-89	396	0
-89	397	0
-89	398	0
-89	399	0
-89	400	0
-90	369	0
-90	370	0
-90	371	0
-90	372	0
-90	373	0
-90	374	0
-90	375	0
-90	376	0
-90	377	0
-90	378	0
-90	379	0
-90	380	0
-90	381	0
-90	382	0
-90	383	0
-90	384	0
-90	385	0
-90	386	0
-90	387	0
-90	388	0
-90	389	0
-90	390	0
-90	391	0
-90	392	0
-90	393	0
-90	394	0
-90	395	0
-90	396	0
-91	376	0
-91	377	0
-91	378	0
-91	379	0
-91	380	0
-91	381	0
-91	382	0
-91	383	0
-91	384	0
-91	385	0