ply
format ascii 1.0
element vertex 1941
property float x
property float y
property float z
element face 0
property list uchar int vertex_index
end_header
0	374	170
0	375	170
0	376	170
0	377	170
0	378	170
0	379	170
0	380	170
0	381	170
0	382	170
0	383	170
0	384	170
0	385	170
0	386	170
0	387	170
0	388	170
0	389	170
0	390	170
0	391	170
0	392	170
0	393	170
0	394	170
0	395	170
0	396	170
0	397	170
0	398	170
0	368	171
0	369	171
0	370	171
0	371	171
0	372	171
0	373	171
0	374	171
0	375	171
0	376	171
0	377	171
0	378	171
0	379	171
0	380	171
0	381	171
0	382	171
0	383	171
0	384	171
0	385	171
0	386	171
0	387	171
0	388	171
0	389	171
0	390	171
0	391	171
0	392	171
0	393	171
0	394	171
0	395	171
0	396	171
0	397	171
0	398	171
0	399	171
0	400	171
0	401	171
0	402	171
0	403	171
0	365	172
0	366	172
0	367	172
0	368	172
0	369	172
0	370	172
0	371	172
0	372	172
0	373	172
0	374	172
0	375	172
0	376	172
0	377	172
0	378	172
0	379	172
0	380	172
0	381	172
0	382	172
0	383	172
0	384	172
0	385	172
0	386	172
0	387	172
0	388	172
0	389	172
0	390	172
0	391	172
0	392	172
0	393	172
0	394	172
0	395	172
0	396	172
0	397	172
0	398	172
0	399	172
0	400	172
0	401	172
0	402	172
0	403	172
0	404	172
0	405	172
0	406	172
0	407	172
0	408	172
0	409	172
0	410	172
0	411	172
0	412	172
0	361	173
0	362	173
0	363	173
0	364	173
0	365	173
0	366	173
0	367	173
0	368	173
0	369	173
0	370	173
0	371	173
0	372	173
0	373	173
0	374	173
0	375	173
0	376	173
0	377	173
0	378	173
0	379	173
0	380	173
0	381	173
0	399	173
0	400	173
0	401	173
0	402	173
0	403	173
0	404	173
0	405	173
0	406	173
0	407	173
0	408	173
0	409	173
0	410	173
0	411	173
0	412	173
0	413	173
0	414	173
0	415	173
0	416	173
0	359	174
0	360	174
0	361	174
0	362	174
0	363	174
0	364	174
0	365	174
0	366	174
0	367	174
0	368	174
0	369	174
0	370	174
0	371	174
0	401	174
0	402	174
0	403	174
0	404	174
0	405	174
0	406	174
0	407	174
0	408	174
0	409	174
0	410	174
0	411	174
0	412	174
0	413	174
0	414	174
0	415	174
0	416	174
0	417	174
0	418	174
0	356	175
0	357	175
0	358	175
0	359	175
0	360	175
0	361	175
0	362	175
0	363	175
0	364	175
0	365	175
0	366	175
0	367	175
0	405	175
0	406	175
0	407	175
0	408	175
0	409	175
0	410	175
0	411	175
0	412	175
0	413	175
0	414	175
0	415	175
0	416	175
0	417	175
0	418	175
0	419	175
0	420	175
0	355	176
0	356	176
0	357	176
0	358	176
0	359	176
0	360	176
0	361	176
0	362	176
0	410	176
0	411	176
0	412	176
0	413	176
0	414	176
0	415	176
0	416	176
0	417	176
0	418	176
0	419	176
0	420	176
0	421	176
0	422	176
0	353	177
0	354	177
0	355	177
0	356	177
0	357	177
0	358	177
0	359	177
0	415	177
0	416	177
0	417	177
0	418	177
0	419	177
0	420	177
0	421	177
0	422	177
0	423	177
0	424	177
0	425	177
0	351	178
0	352	178
0	353	178
0	354	178
0	355	178
0	356	178
0	419	178
0	420	178
0	421	178
0	422	178
0	423	178
0	424	178
0	425	178
0	426	178
0	427	178
0	348	179
0	349	179
0	350	179
0	351	179
0	352	179
0	353	179
0	354	179
0	422	179
0	423	179
0	424	179
0	425	179
0	426	179
0	427	179
0	428	179
0	429	179
0	347	180
0	348	180
0	349	180
0	350	180
0	351	180
0	425	180
0	426	180
0	427	180
0	428	180
0	429	180
0	430	180
0	431	180
0	346	181
0	347	181
0	348	181
0	349	181
0	427	181
0	428	181
0	429	181
0	430	181
0	431	181
0	432	181
0	345	182
0	346	182
0	347	182
0	348	182
0	429	182
0	430	182
0	431	182
0	432	182
0	433	182
0	434	182
0	344	183
0	345	183
0	346	183
0	432	183
0	433	183
0	434	183
0	435	183
0	436	183
0	437	183
0	343	184
0	344	184
0	345	184
0	434	184
0	435	184
0	436	184
0	437	184
0	438	184
0	439	184
0	342	185
0	343	185
0	435	185
0	436	185
0	437	185
0	438	185
0	439	185
0	440	185
0	341	186
0	342	186
0	437	186
0	438	186
0	439	186
0	440	186
0	441	186
0	442	186
0	340	187
0	341	187
0	438	187
0	439	187
0	440	187
0	441	187
0	442	187
0	443	187
0	339	188
0	340	188
0	439	188
0	440	188
0	441	188
0	442	188
0	443	188
0	444	188
0	338	189
0	440	189
0	441	189
0	442	189
0	443	189
0	444	189
0	445	189
0	446	189
0	337	190
0	338	190
0	442	190
0	443	190
0	444	190
0	445	190
0	446	190
0	447	190
0	337	191
0	443	191
0	444	191
0	445	191
0	446	191
0	447	191
0	448	191
0	335	192
0	444	192
0	445	192
0	446	192
0	447	192
0	448	192
0	449	192
0	446	193
0	447	193
0	448	193
0	449	193
0	450	193
0	447	194
0	448	194
0	449	194
0	450	194
0	451	194
0	452	194
0	449	195
0	450	195
0	451	195
0	452	195
0	453	195
0	332	196
0	450	196
0	451	196
0	452	196
0	453	196
0	454	196
0	329	197
0	330	197
0	450	197
0	451	197
0	452	197
0	453	197
0	454	197
0	455	197
0	328	198
0	329	198
0	330	198
0	451	198
0	452	198
0	453	198
0	454	198
0	455	198
0	456	198
0	328	199
0	329	199
0	330	199
0	452	199
0	453	199
0	454	199
0	455	199
0	456	199
0	457	199
0	328	200
0	329	200
0	453	200
0	454	200
0	455	200
0	456	200
0	457	200
0	458	200
0	327	201
0	328	201
0	329	201
0	454	201
0	455	201
0	456	201
0	457	201
0	458	201
0	459	201
0	326	202
0	327	202
0	328	202
0	455	202
0	456	202
0	457	202
0	458	202
0	459	202
0	460	202
0	325	203
0	326	203
0	327	203
0	328	203
0	456	203
0	457	203
0	458	203
0	459	203
0	460	203
0	461	203
0	324	204
0	325	204
0	326	204
0	327	204
0	457	204
0	458	204
0	459	204
0	460	204
0	461	204
0	324	205
0	325	205
0	326	205
0	458	205
0	459	205
0	460	205
0	461	205
0	462	205
0	323	206
0	324	206
0	325	206
0	458	206
0	459	206
0	460	206
0	461	206
0	462	206
0	322	207
0	323	207
0	324	207
0	459	207
0	460	207
0	461	207
0	462	207
0	463	207
0	322	208
0	323	208
0	324	208
0	460	208
0	461	208
0	462	208
0	463	208
0	464	208
0	322	209
0	323	209
0	461	209
0	462	209
0	463	209
0	464	209
0	465	209
0	321	210
0	322	210
0	323	210
0	462	210
0	463	210
0	464	210
0	465	210
0	466	210
0	534	210
0	320	211
0	321	211
0	322	211
0	463	211
0	464	211
0	465	211
0	466	211
0	531	211
0	532	211
0	533	211
0	534	211
0	320	212
0	321	212
0	322	212
0	464	212
0	465	212
0	466	212
0	467	212
0	529	212
0	530	212
0	531	212
0	532	212
0	533	212
0	534	212
0	319	213
0	320	213
0	321	213
0	464	213
0	465	213
0	466	213
0	467	213
0	468	213
0	469	213
0	527	213
0	528	213
0	529	213
0	530	213
0	531	213
0	532	213
0	533	213
0	534	213
0	319	214
0	320	214
0	321	214
0	465	214
0	466	214
0	467	214
0	468	214
0	469	214
0	470	214
0	471	214
0	525	214
0	526	214
0	527	214
0	528	214
0	529	214
0	530	214
0	531	214
0	318	215
0	319	215
0	320	215
0	466	215
0	467	215
0	468	215
0	469	215
0	470	215
0	471	215
0	472	215
0	473	215
0	474	215
0	475	215
0	523	215
0	524	215
0	525	215
0	526	215
0	527	215
0	528	215
0	529	215
0	530	215
0	317	216
0	318	216
0	319	216
0	467	216
0	468	216
0	469	216
0	470	216
0	471	216
0	472	216
0	473	216
0	474	216
0	475	216
0	476	216
0	477	216
0	478	216
0	520	216
0	521	216
0	522	216
0	523	216
0	524	216
0	525	216
0	526	216
0	527	216
0	528	216
0	317	217
0	318	217
0	319	217
0	472	217
0	473	217
0	474	217
0	475	217
0	476	217
0	477	217
0	478	217
0	479	217
0	518	217
0	519	217
0	520	217
0	521	217
0	522	217
0	523	217
0	524	217
0	525	217
0	317	218
0	318	218
0	474	218
0	475	218
0	476	218
0	477	218
0	478	218
0	479	218
0	480	218
0	481	218
0	515	218
0	516	218
0	517	218
0	518	218
0	519	218
0	520	218
0	521	218
0	522	218
0	523	218
0	316	219
0	317	219
0	318	219
0	476	219
0	477	219
0	478	219
0	479	219
0	480	219
0	481	219
0	482	219
0	483	219
0	484	219
0	513	219
0	514	219
0	515	219
0	516	219
0	517	219
0	518	219
0	519	219
0	520	219
0	521	219
0	315	220
0	316	220
0	317	220
0	318	220
0	479	220
0	480	220
0	481	220
0	482	220
0	483	220
0	484	220
0	485	220
0	486	220
0	487	220
0	488	220
0	489	220
0	490	220
0	491	220
0	492	220
0	493	220
0	494	220
0	495	220
0	496	220
0	497	220
0	498	220
0	499	220
0	500	220
0	501	220
0	502	220
0	503	220
0	504	220
0	507	220
0	508	220
0	509	220
0	510	220
0	511	220
0	512	220
0	513	220
0	514	220
0	515	220
0	516	220
0	517	220
0	518	220
0	519	220
0	315	221
0	316	221
0	317	221
0	481	221
0	482	221
0	483	221
0	484	221
0	485	221
0	486	221
0	487	221
0	488	221
0	489	221
0	490	221
0	491	221
0	492	221
0	493	221
0	494	221
0	495	221
0	496	221
0	497	221
0	498	221
0	499	221
0	500	221
0	501	221
0	502	221
0	503	221
0	504	221
0	505	221
0	506	221
0	507	221
0	508	221
0	509	221
0	510	221
0	511	221
0	512	221
0	513	221
0	514	221
0	515	221
0	516	221
0	314	222
0	315	222
0	316	222
0	317	222
0	483	222
0	487	222
0	488	222
0	489	222
0	490	222
0	491	222
0	492	222
0	493	222
0	494	222
0	495	222
0	496	222
0	497	222
0	498	222
0	499	222
0	500	222
0	501	222
0	502	222
0	503	222
0	504	222
0	505	222
0	506	222
0	507	222
0	508	222
0	509	222
0	510	222
0	511	222
0	512	222
0	314	223
0	315	223
0	316	223
0	508	223
0	313	224
0	314	224
0	315	224
0	313	225
0	314	225
0	315	225
0	312	226
0	313	226
0	314	226
0	315	226
0	312	227
0	313	227
0	314	227
0	311	228
0	312	228
0	313	228
0	314	228
0	311	229
0	312	229
0	313	229
0	314	229
0	310	230
0	311	230
0	312	230
0	313	230
0	310	231
0	311	231
0	312	231
0	313	231
0	310	232
0	311	232
0	312	232
0	310	233
0	311	233
0	312	233
0	309	234
0	310	234
0	311	234
0	312	234
0	309	235
0	310	235
0	311	235
0	309	236
0	310	236
0	311	236
0	309	237
0	310	237
0	311	237
0	309	238
0	310	238
0	311	238
0	308	239
0	309	239
0	310	239
0	311	239
0	308	240
0	309	240
0	310	240
0	308	241
0	309	241
0	310	241
0	308	242
0	309	242
0	310	242
0	308	243
0	309	243
0	310	243
0	308	244
0	309	244
0	310	244
0	308	245
0	309	245
0	308	246
0	309	246
0	307	247
0	308	247
0	309	247
0	307	248
0	308	248
0	309	248
0	307	249
0	308	249
0	309	249
0	307	250
0	308	250
0	309	250
0	306	251
0	307	251
0	308	251
0	309	251
0	306	252
0	307	252
0	308	252
0	306	253
0	307	253
0	308	253
0	306	254
0	307	254
0	308	254
0	306	255
0	307	255
0	308	255
0	306	256
0	307	256
0	308	256
0	305	257
0	306	257
0	307	257
0	308	257
0	305	258
0	306	258
0	307	258
0	305	259
0	306	259
0	307	259
0	305	260
0	306	260
0	307	260
0	304	261
0	305	261
0	306	261
0	307	261
0	304	262
0	305	262
0	306	262
0	307	262
0	304	263
0	305	263
0	306	263
0	307	263
0	304	264
0	305	264
0	306	264
0	304	265
0	305	265
0	306	265
0	304	266
0	305	266
0	306	266
0	304	267
0	305	267
0	306	267
0	304	268
0	305	268
0	306	268
0	304	269
0	305	269
0	306	269
0	304	270
0	305	270
0	306	270
0	303	271
0	304	271
0	305	271
0	306	271
0	303	272
0	304	272
0	305	272
0	306	272
0	303	273
0	304	273
0	305	273
0	306	273
0	303	274
0	304	274
0	305	274
0	306	274
0	303	275
0	304	275
0	305	275
0	306	275
0	303	276
0	304	276
0	305	276
0	306	276
0	303	277
0	304	277
0	305	277
0	306	277
0	303	278
0	304	278
0	305	278
0	306	278
0	303	279
0	304	279
0	305	279
0	306	279
0	303	280
0	304	280
0	305	280
0	306	280
0	303	281
0	304	281
0	305	281
0	306	281
0	303	282
0	304	282
0	305	282
0	306	282
0	303	283
0	304	283
0	305	283
0	306	283
0	303	284
0	304	284
0	305	284
0	306	284
0	303	285
0	304	285
0	305	285
0	306	285
0	303	286
0	304	286
0	305	286
0	306	286
0	303	287
0	304	287
0	305	287
0	306	287
0	304	288
0	305	288
0	306	288
0	304	289
0	305	289
0	306	289
0	304	290
0	305	290
0	306	290
0	304	291
0	305	291
0	306	291
0	304	292
0	305	292
0	306	292
0	304	293
0	305	293
0	306	293
0	307	293
0	304	294
0	305	294
0	306	294
0	307	294
0	304	295
0	305	295
0	306	295
0	307	295
0	305	296
0	306	296
0	307	296
0	305	297
0	306	297
0	307	297
0	305	298
0	306	298
0	307	298
0	308	298
0	305	299
0	306	299
0	307	299
0	308	299
0	305	300
0	306	300
0	307	300
0	308	300
0	305	301
0	306	301
0	307	301
0	308	301
0	305	302
0	306	302
0	307	302
0	308	302
0	306	303
0	307	303
0	308	303
0	306	304
0	307	304
0	308	304
0	306	305
0	307	305
0	308	305
0	309	305
0	306	306
0	307	306
0	308	306
0	309	306
0	306	307
0	307	307
0	308	307
0	309	307
0	307	308
0	308	308
0	309	308
0	307	309
0	308	309
0	309	309
0	310	309
0	308	310
0	309	310
0	310	310
0	308	311
0	309	311
0	310	311
0	308	312
0	309	312
0	310	312
0	308	313
0	309	313
0	310	313
0	311	313
0	309	314
0	310	314
0	311	314
0	312	314
0	309	315
0	310	315
0	311	315
0	312	315
0	310	316
0	311	316
0	312	316
0	522	316
0	523	316
0	310	317
0	311	317
0	312	317
0	520	317
0	521	317
0	522	317
0	523	317
0	524	317
0	525	317
0	526	317
0	527	317
0	528	317
0	529	317
0	530	317
0	531	317
0	532	317
0	533	317
0	534	317
0	310	318
0	311	318
0	312	318
0	313	318
0	519	318
0	520	318
0	521	318
0	522	318
0	523	318
0	524	318
0	525	318
0	526	318
0	527	318
0	528	318
0	529	318
0	530	318
0	531	318
0	532	318
0	533	318
0	534	318
0	311	319
0	312	319
0	313	319
0	518	319
0	519	319
0	520	319
0	521	319
0	522	319
0	523	319
0	524	319
0	525	319
0	526	319
0	527	319
0	528	319
0	529	319
0	530	319
0	531	319
0	532	319
0	533	319
0	534	319
0	312	320
0	313	320
0	517	320
0	518	320
0	519	320
0	520	320
0	521	320
0	312	321
0	313	321
0	314	321
0	516	321
0	517	321
0	518	321
0	519	321
0	312	322
0	313	322
0	314	322
0	515	322
0	516	322
0	517	322
0	518	322
0	313	323
0	314	323
0	315	323
0	516	323
0	517	323
0	518	323
0	313	324
0	314	324
0	315	324
0	316	324
0	516	324
0	517	324
0	518	324
0	519	324
0	314	325
0	315	325
0	316	325
0	516	325
0	517	325
0	518	325
0	519	325
0	314	326
0	315	326
0	316	326
0	516	326
0	517	326
0	518	326
0	519	326
0	314	327
0	315	327
0	316	327
0	517	327
0	518	327
0	519	327
0	314	328
0	315	328
0	316	328
0	317	328
0	517	328
0	518	328
0	519	328
0	315	329
0	316	329
0	317	329
0	318	329
0	517	329
0	518	329
0	519	329
0	316	330
0	317	330
0	318	330
0	517	330
0	518	330
0	519	330
0	317	331
0	318	331
0	319	331
0	517	331
0	518	331
0	519	331
0	318	332
0	319	332
0	320	332
0	517	332
0	518	332
0	519	332
0	319	333
0	320	333
0	517	333
0	518	333
0	519	333
0	319	334
0	320	334
0	321	334
0	517	334
0	518	334
0	519	334
0	320	335
0	321	335
0	322	335
0	518	335
0	519	335
0	520	335
0	321	336
0	322	336
0	323	336
0	518	336
0	519	336
0	520	336
0	322	337
0	323	337
0	324	337
0	518	337
0	519	337
0	520	337
0	322	338
0	323	338
0	324	338
0	518	338
0	519	338
0	520	338
0	323	339
0	324	339
0	325	339
0	518	339
0	519	339
0	520	339
0	324	340
0	325	340
0	326	340
0	517	340
0	518	340
0	519	340
0	520	340
0	325	341
0	326	341
0	327	341
0	517	341
0	518	341
0	519	341
0	520	341
0	326	342
0	327	342
0	517	342
0	518	342
0	519	342
0	520	342
0	327	343
0	328	343
0	517	343
0	518	343
0	519	343
0	328	344
0	329	344
0	330	344
0	516	344
0	517	344
0	518	344
0	519	344
0	329	345
0	330	345
0	331	345
0	516	345
0	517	345
0	518	345
0	519	345
0	330	346
0	331	346
0	332	346
0	516	346
0	517	346
0	518	346
0	331	347
0	332	347
0	333	347
0	515	347
0	516	347
0	517	347
0	518	347
0	332	348
0	333	348
0	334	348
0	514	348
0	515	348
0	516	348
0	517	348
0	332	349
0	333	349
0	334	349
0	335	349
0	336	349
0	514	349
0	515	349
0	516	349
0	517	349
0	334	350
0	335	350
0	336	350
0	337	350
0	513	350
0	514	350
0	515	350
0	516	350
0	335	351
0	336	351
0	337	351
0	338	351
0	513	351
0	514	351
0	515	351
0	516	351
0	336	352
0	337	352
0	338	352
0	339	352
0	514	352
0	515	352
0	516	352
0	338	353
0	339	353
0	340	353
0	341	353
0	514	353
0	515	353
0	516	353
0	517	353
0	340	354
0	341	354
0	342	354
0	514	354
0	515	354
0	516	354
0	517	354
0	341	355
0	342	355
0	343	355
0	344	355
0	346	355
0	347	355
0	348	355
0	514	355
0	515	355
0	516	355
0	517	355
0	344	356
0	345	356
0	346	356
0	347	356
0	348	356
0	514	356
0	515	356
0	516	356
0	517	356
0	347	357
0	348	357
0	514	357
0	515	357
0	516	357
0	517	357
0	347	358
0	348	358
0	350	358
0	514	358
0	515	358
0	516	358
0	517	358
0	347	359
0	348	359
0	349	359
0	350	359
0	351	359
0	513	359
0	514	359
0	515	359
0	516	359
0	349	360
0	350	360
0	351	360
0	352	360
0	353	360
0	513	360
0	514	360
0	515	360
0	516	360
0	350	361
0	351	361
0	352	361
0	353	361
0	354	361
0	485	361
0	486	361
0	512	361
0	513	361
0	514	361
0	515	361
0	352	362
0	353	362
0	354	362
0	355	362
0	356	362
0	357	362
0	484	362
0	485	362
0	486	362
0	487	362
0	488	362
0	511	362
0	512	362
0	513	362
0	514	362
0	353	363
0	354	363
0	355	363
0	356	363
0	357	363
0	358	363
0	484	363
0	485	363
0	486	363
0	487	363
0	488	363
0	510	363
0	511	363
0	512	363
0	513	363
0	355	364
0	356	364
0	357	364
0	358	364
0	359	364
0	360	364
0	484	364
0	485	364
0	486	364
0	487	364
0	488	364
0	489	364
0	508	364
0	509	364
0	510	364
0	511	364
0	512	364
0	357	365
0	358	365
0	359	365
0	360	365
0	361	365
0	362	365
0	363	365
0	364	365
0	483	365
0	484	365
0	487	365
0	488	365
0	489	365
0	490	365
0	506	365
0	507	365
0	508	365
0	509	365
0	510	365
0	360	366
0	361	366
0	362	366
0	363	366
0	364	366
0	365	366
0	482	366
0	483	366
0	488	366
0	489	366
0	490	366
0	491	366
0	492	366
0	504	366
0	505	366
0	506	366
0	507	366
0	508	366
0	509	366
0	363	367
0	364	367
0	365	367
0	366	367
0	367	367
0	368	367
0	369	367
0	479	367
0	481	367
0	482	367
0	490	367
0	491	367
0	492	367
0	493	367
0	494	367
0	495	367
0	496	367
0	497	367
0	498	367
0	499	367
0	500	367
0	501	367
0	502	367
0	503	367
0	504	367
0	505	367
0	506	367
0	507	367
0	508	367
0	365	368
0	366	368
0	367	368
0	368	368
0	369	368
0	370	368
0	478	368
0	479	368
0	480	368
0	481	368
0	482	368
0	492	368
0	493	368
0	494	368
0	495	368
0	496	368
0	497	368
0	498	368
0	499	368
0	500	368
0	501	368
0	502	368
0	503	368
0	504	368
0	505	368
0	506	368
0	367	369
0	368	369
0	369	369
0	370	369
0	371	369
0	372	369
0	373	369
0	374	369
0	464	369
0	465	369
0	466	369
0	476	369
0	477	369
0	478	369
0	479	369
0	480	369
0	481	369
0	496	369
0	497	369
0	498	369
0	373	370
0	374	370
0	375	370
0	376	370
0	377	370
0	378	370
0	379	370
0	463	370
0	464	370
0	465	370
0	476	370
0	477	370
0	478	370
0	376	371
0	377	371
0	378	371
0	379	371
0	380	371
0	381	371
0	382	371
0	383	371
0	384	371
0	385	371
0	406	371
0	407	371
0	408	371
0	462	371
0	469	371
0	470	371
0	475	371
0	476	371
0	477	371
0	478	371
0	380	372
0	381	372
0	382	372
0	383	372
0	384	372
0	385	372
0	386	372
0	387	372
0	388	372
0	389	372
0	390	372
0	391	372
0	392	372
0	393	372
0	394	372
0	395	372
0	396	372
0	397	372
0	398	372
0	399	372
0	400	372
0	401	372
0	402	372
0	403	372
0	404	372
0	405	372
0	406	372
0	407	372
0	408	372
0	409	372
0	410	372
0	461	372
0	462	372
0	465	372
0	466	372
0	467	372
0	468	372
0	469	372
0	470	372
0	471	372
0	474	372
0	475	372
0	476	372
0	477	372
0	386	373
0	387	373
0	388	373
0	389	373
0	390	373
0	391	373
0	392	373
0	393	373
0	394	373
0	395	373
0	396	373
0	397	373
0	398	373
0	399	373
0	400	373
0	401	373
0	402	373
0	403	373
0	406	373
0	407	373
0	408	373
0	409	373
0	410	373
0	411	373
0	412	373
0	413	373
0	414	373
0	461	373
0	462	373
0	463	373
0	464	373
0	465	373
0	466	373
0	467	373
0	468	373
0	469	373
0	470	373
0	471	373
0	472	373
0	473	373
0	474	373
0	475	373
0	476	373
0	390	374
0	391	374
0	392	374
0	393	374
0	394	374
0	395	374
0	396	374
0	397	374
0	398	374
0	399	374
0	410	374
0	411	374
0	412	374
0	413	374
0	414	374
0	415	374
0	416	374
0	417	374
0	418	374
0	419	374
0	420	374
0	460	374
0	461	374
0	462	374
0	463	374
0	464	374
0	469	374
0	470	374
0	471	374
0	472	374
0	473	374
0	474	374
0	475	374
0	414	375
0	415	375
0	416	375
0	417	375
0	418	375
0	419	375
0	420	375
0	421	375
0	422	375
0	423	375
0	424	375
0	425	375
0	426	375
0	427	375
0	428	375
0	429	375
0	460	375
0	461	375
0	462	375
0	472	375
0	473	375
0	474	375
0	416	376
0	417	376
0	418	376
0	419	376
0	420	376
0	421	376
0	422	376
0	423	376
0	424	376
0	425	376
0	426	376
0	427	376
0	428	376
0	429	376
0	430	376
0	431	376
0	432	376
0	433	376
0	459	376
0	460	376
0	461	376
0	424	377
0	425	377
0	426	377
0	427	377
0	428	377
0	429	377
0	430	377
0	431	377
0	432	377
0	433	377
0	434	377
0	435	377
0	436	377
0	437	377
0	438	377
0	459	377
0	460	377
0	461	377
0	428	378
0	429	378
0	430	378
0	431	378
0	432	378
0	433	378
0	434	378
0	435	378
0	436	378
0	437	378
0	438	378
0	439	378
0	440	378
0	441	378
0	442	378
0	443	378
0	444	378
0	459	378
0	460	378
0	461	378
0	437	379
0	438	379
0	439	379
0	440	379
0	441	379
0	442	379
0	443	379
0	444	379
0	445	379
0	446	379
0	459	379
0	460	379
0	461	379
0	440	380
0	441	380
0	442	380
0	443	380
0	444	380
0	445	380
0	446	380
0	447	380
0	448	380
0	449	380
0	459	380
0	460	380
0	445	381
0	446	381
0	447	381
0	448	381
0	449	381
0	450	381
0	451	381
0	452	381
0	453	381
0	454	381
0	457	381
0	458	381
0	459	381
0	460	381
0	447	382
0	448	382
0	449	382
0	450	382
0	451	382
0	452	382
0	453	382
0	454	382
0	455	382
0	456	382
0	457	382
0	458	382
0	459	382
0	460	382
0	450	383
0	451	383
0	452	383
0	453	383
0	454	383
0	455	383
0	456	383
0	457	383
0	458	383
