ply
format ascii 1.0
element vertex 1491
property float x
property float y
property float z
element face 0
property list uchar int vertex_index
end_header
953	368	0
953	369	0
953	371	0
953	372	0
953	373	0
953	374	0
953	375	0
953	376	0
953	377	0
953	378	0
953	379	0
953	381	0
953	382	0
953	383	0
953	384	0
953	385	0
953	386	0
953	387	0
953	388	0
953	389	0
953	390	0
953	391	0
953	392	0
954	365	0
954	366	0
954	367	0
954	368	0
954	369	0
954	370	0
954	371	0
954	372	0
954	373	0
954	374	0
954	375	0
954	376	0
954	377	0
954	378	0
954	379	0
954	380	0
954	381	0
954	382	0
954	383	0
954	384	0
954	385	0
954	386	0
954	387	0
954	388	0
954	389	0
954	390	0
954	391	0
954	392	0
954	393	0
954	394	0
954	395	0
954	396	0
954	397	0
955	362	0
955	363	0
955	364	0
955	365	0
955	366	0
955	367	0
955	368	0
955	369	0
955	370	0
955	371	0
955	372	0
955	373	0
955	374	0
955	375	0
955	376	0
955	377	0
955	378	0
955	379	0
955	380	0
955	381	0
955	382	0
955	383	0
955	384	0
955	385	0
955	386	0
955	387	0
955	388	0
955	389	0
955	390	0
955	391	0
955	392	0
955	393	0
955	394	0
955	395	0
955	396	0
955	397	0
955	398	0
955	399	0
956	359	0
956	360	0
956	361	0
956	362	0
956	363	0
956	364	0
956	365	0
956	366	0
956	367	0
956	368	0
956	394	0
956	395	0
956	396	0
956	397	0
956	398	0
956	399	0
956	400	0
956	401	0
956	402	0
956	403	0
957	355	0
957	356	0
957	357	0
957	358	0
957	359	0
957	360	0
957	361	0
957	362	0
957	363	0
957	364	0
957	397	0
957	398	0
957	399	0
957	400	0
957	401	0
957	402	0
957	403	0
957	404	0
957	405	0
957	406	0
957	407	0
958	351	0
958	352	0
958	353	0
958	354	0
958	355	0
958	356	0
958	357	0
958	358	0
958	359	0
958	402	0
958	403	0
958	404	0
958	405	0
958	406	0
958	407	0
958	408	0
958	409	0
959	350	0
959	351	0
959	352	0
959	353	0
959	354	0
959	355	0
959	356	0
959	405	0
959	406	0
959	407	0
959	408	0
959	409	0
959	410	0
960	348	0
960	349	0
960	350	0
960	351	0
960	352	0
960	353	0
960	354	0
960	407	0
960	408	0
960	409	0
960	410	0
960	411	0
960	412	0
960	413	0
960	414	0
960	415	0
960	416	0
961	346	0
961	347	0
961	348	0
961	349	0
961	350	0
961	351	0
961	411	0
961	412	0
961	413	0
961	414	0
961	415	0
961	416	0
961	417	0
961	418	0
962	344	0
962	345	0
962	346	0
962	347	0
962	348	0
962	349	0
962	412	0
962	413	0
962	414	0
962	415	0
962	416	0
962	417	0
962	418	0
962	419	0
962	420	0
962	421	0
962	430	0
962	431	0
962	432	0
962	433	0
963	343	0
963	344	0
963	345	0
963	346	0
963	347	0
963	415	0
963	416	0
963	417	0
963	418	0
963	419	0
963	420	0
963	421	0
963	422	0
963	423	0
963	424	0
963	425	0
963	426	0
963	427	0
963	428	0
963	429	0
963	430	0
963	431	0
963	432	0
963	433	0
963	434	0
963	435	0
963	436	0
963	437	0
963	438	0
964	341	0
964	342	0
964	343	0
964	344	0
964	345	0
964	432	0
964	433	0
964	434	0
964	435	0
964	436	0
964	437	0
964	438	0
964	439	0
964	440	0
964	441	0
964	442	0
965	340	0
965	341	0
965	342	0
965	343	0
965	344	0
965	441	0
965	442	0
965	443	0
965	444	0
966	339	0
966	340	0
966	341	0
966	342	0
966	442	0
966	443	0
966	444	0
966	445	0
966	446	0
966	447	0
967	338	0
967	339	0
967	340	0
967	444	0
967	445	0
967	446	0
967	447	0
967	448	0
967	449	0
967	450	0
967	451	0
967	452	0
967	453	0
968	336	0
968	337	0
968	338	0
968	339	0
968	449	0
968	450	0
968	451	0
968	452	0
968	453	0
968	454	0
968	455	0
968	456	0
969	335	0
969	336	0
969	337	0
969	452	0
969	453	0
969	454	0
969	455	0
969	456	0
969	457	0
969	458	0
970	333	0
970	334	0
970	335	0
970	336	0
970	454	0
970	455	0
970	456	0
970	457	0
970	458	0
970	459	0
970	460	0
970	461	0
970	462	0
971	332	0
971	333	0
971	334	0
971	335	0
971	458	0
971	459	0
971	460	0
971	461	0
971	462	0
971	463	0
971	464	0
972	331	0
972	332	0
972	333	0
972	334	0
972	460	0
972	461	0
972	462	0
972	463	0
972	464	0
972	465	0
972	466	0
972	467	0
973	330	0
973	331	0
973	332	0
973	465	0
973	466	0
973	467	0
973	468	0
973	469	0
973	470	0
973	471	0
974	329	0
974	330	0
974	331	0
974	468	0
974	469	0
974	470	0
974	471	0
974	472	0
974	473	0
975	328	0
975	329	0
975	330	0
975	470	0
975	471	0
975	472	0
975	473	0
975	474	0
975	475	0
975	476	0
976	327	0
976	328	0
976	474	0
976	475	0
976	476	0
976	477	0
976	478	0
977	326	0
977	327	0
977	328	0
977	475	0
977	476	0
977	477	0
977	478	0
977	479	0
977	480	0
977	481	0
978	325	0
978	326	0
978	327	0
978	477	0
978	478	0
978	479	0
978	480	0
978	481	0
978	482	0
978	483	0
979	325	0
979	326	0
979	479	0
979	480	0
979	481	0
979	482	0
979	483	0
979	484	0
979	485	0
979	486	0
980	324	0
980	325	0
980	326	0
980	482	0
980	483	0
980	484	0
980	485	0
980	486	0
980	487	0
981	323	0
981	324	0
981	325	0
981	484	0
981	485	0
981	486	0
981	487	0
981	488	0
981	489	0
981	490	0
982	322	0
982	323	0
982	324	0
982	325	0
982	487	0
982	488	0
982	489	0
982	490	0
982	491	0
982	492	0
983	321	0
983	322	0
983	323	0
983	324	0
983	489	0
983	490	0
983	491	0
983	492	0
983	493	0
983	494	0
983	495	0
984	321	0
984	322	0
984	323	0
984	324	0
984	491	0
984	492	0
984	493	0
984	494	0
984	495	0
984	496	0
984	497	0
985	320	0
985	321	0
985	322	0
985	323	0
985	492	0
985	493	0
985	494	0
985	495	0
985	496	0
985	497	0
985	498	0
985	499	0
986	320	0
986	321	0
986	322	0
986	495	0
986	496	0
986	497	0
986	498	0
986	499	0
986	500	0
986	501	0
987	319	0
987	320	0
987	321	0
987	497	0
987	498	0
987	499	0
987	500	0
987	501	0
987	502	0
988	319	0
988	320	0
988	498	0
988	499	0
988	500	0
988	501	0
988	502	0
988	503	0
988	504	0
989	318	0
989	319	0
989	320	0
989	499	0
989	500	0
989	501	0
989	502	0
989	503	0
989	504	0
989	505	0
989	506	0
989	533	0
989	534	0
990	317	0
990	318	0
990	319	0
990	320	0
990	500	0
990	501	0
990	502	0
990	503	0
990	504	0
990	505	0
990	506	0
990	507	0
990	508	0
990	509	0
990	527	0
990	528	0
990	529	0
990	530	0
990	531	0
990	532	0
990	533	0
990	534	0
991	317	0
991	318	0
991	319	0
991	501	0
991	502	0
991	503	0
991	504	0
991	505	0
991	506	0
991	507	0
991	508	0
991	509	0
991	510	0
991	511	0
991	512	0
991	513	0
991	518	0
991	519	0
991	520	0
991	521	0
991	522	0
991	523	0
991	524	0
991	525	0
991	526	0
991	527	0
991	528	0
991	529	0
991	530	0
991	531	0
991	532	0
991	533	0
991	534	0
992	316	0
992	317	0
992	318	0
992	319	0
992	504	0
992	505	0
992	506	0
992	507	0
992	508	0
992	509	0
992	511	0
992	512	0
992	513	0
992	514	0
992	515	0
992	516	0
992	517	0
992	518	0
992	519	0
992	520	0
992	521	0
992	522	0
992	523	0
992	524	0
992	525	0
992	526	0
992	527	0
992	528	0
992	529	0
992	530	0
993	316	0
993	317	0
993	318	0
993	505	0
993	506	0
994	316	0
994	317	0
994	318	0
995	316	0
995	317	0
996	315	0
996	316	0
996	317	0
997	315	0
997	316	0
998	314	0
998	315	0
999	314	0
999	315	0
1000	313	0
1000	314	0
1000	315	0
1001	313	0
1001	314	0
1001	315	0
1002	313	0
1002	314	0
1003	312	0
1003	313	0
1003	314	0
1004	312	0
1004	313	0
1004	314	0
1005	311	0
1005	312	0
1005	313	0
1006	311	0
1006	312	0
1006	313	0
1007	311	0
1007	312	0
1008	310	0
1008	311	0
1008	312	0
1009	310	0
1009	311	0
1009	312	0
1010	310	0
1010	311	0
1011	310	0
1011	311	0
1012	310	0
1012	311	0
1013	310	0
1013	311	0
1014	310	0
1014	311	0
1015	309	0
1015	310	0
1015	311	0
1016	309	0
1016	310	0
1017	309	0
1017	310	0
1018	309	0
1018	310	0
1018	311	0
1019	309	0
1019	310	0
1019	311	0
1020	308	0
1020	309	0
1020	310	0
1021	308	0
1021	309	0
1021	310	0
1022	308	0
1022	309	0
1022	310	0
1023	308	0
1023	309	0
1023	310	0
1024	308	0
1024	309	0
1024	310	0
1025	308	0
1025	309	0
1026	308	0
1026	309	0
1027	308	0
1027	309	0
1028	307	0
1028	308	0
1028	309	0
1029	307	0
1029	308	0
1029	309	0
1030	307	0
1030	308	0
1030	309	0
1031	307	0
1031	308	0
1031	309	0
1032	307	0
1032	308	0
1032	309	0
1033	307	0
1033	308	0
1033	309	0
1034	307	0
1034	308	0
1034	309	0
1035	307	0
1035	308	0
1036	307	0
1036	308	0
1037	307	0
1037	308	0
1038	307	0
1038	308	0
1039	307	0
1039	308	0
1040	307	0
1040	308	0
1041	307	0
1041	308	0
1042	307	0
1042	308	0
1043	307	0
1043	308	0
1043	309	0
1044	307	0
1044	308	0
1044	309	0
1045	307	0
1045	308	0
1045	309	0
1046	307	0
1046	308	0
1046	309	0
1047	307	0
1047	308	0
1047	309	0
1048	307	0
1048	308	0
1048	309	0
1049	307	0
1049	308	0
1049	309	0
1050	307	0
1050	308	0
1051	307	0
1051	308	0
1052	307	0
1052	308	0
1053	307	0
1053	308	0
1053	309	0
1054	306	0
1054	307	0
1054	308	0
1054	309	0
1055	306	0
1055	307	0
1055	308	0
1055	309	0
1056	307	0
1056	308	0
1057	307	0
1057	308	0
1057	309	0
1058	307	0
1058	308	0
1059	307	0
1059	308	0
1060	308	0
1061	307	0
1061	308	0
1062	307	0
1062	308	0
1062	309	0
1063	307	0
1063	308	0
1063	309	0
1064	307	0
1064	308	0
1064	309	0
1065	308	0
1065	309	0
1066	308	0
1066	309	0
1067	308	0
1067	309	0
1067	310	0
1068	308	0
1068	309	0
1068	310	0
1069	308	0
1069	309	0
1069	310	0
1070	309	0
1070	310	0
1071	309	0
1071	310	0
1072	309	0
1072	310	0
1072	311	0
1073	309	0
1073	310	0
1073	311	0
1074	309	0
1074	310	0
1074	311	0
1075	309	0
1075	310	0
1075	311	0
1076	310	0
1076	311	0
1076	312	0
1077	310	0
1077	311	0
1077	312	0
1078	310	0
1078	311	0
1078	312	0
1079	311	0
1079	312	0
1079	313	0
1080	311	0
1080	312	0
1080	313	0
1081	312	0
1081	313	0
1081	314	0
1082	312	0
1082	313	0
1082	314	0
1083	312	0
1083	313	0
1083	314	0
1083	315	0
1084	313	0
1084	314	0
1084	315	0
1085	313	0
1085	314	0
1085	315	0
1086	313	0
1086	314	0
1086	315	0
1086	316	0
1087	313	0
1087	314	0
1087	315	0
1087	316	0
1088	314	0
1088	315	0
1088	316	0
1089	315	0
1089	316	0
1089	317	0
1090	316	0
1090	317	0
1091	316	0
1091	317	0
1091	318	0
1091	513	0
1091	514	0
1091	515	0
1091	522	0
1092	317	0
1092	318	0
1092	319	0
1092	512	0
1092	513	0
1092	514	0
1092	515	0
1092	516	0
1092	517	0
1092	518	0
1092	519	0
1092	520	0
1092	521	0
1092	522	0
1092	523	0
1092	524	0
1092	525	0
1092	526	0
1092	527	0
1092	528	0
1092	529	0
1092	530	0
1093	317	0
1093	318	0
1093	319	0
1093	511	0
1093	512	0
1093	513	0
1093	514	0
1093	515	0
1093	516	0
1093	517	0
1093	518	0
1093	519	0
1093	520	0
1093	521	0
1093	522	0
1093	523	0
1093	524	0
1093	525	0
1093	526	0
1093	527	0
1093	528	0
1093	529	0
1093	530	0
1093	531	0
1093	532	0
1093	533	0
1093	534	0
1094	318	0
1094	319	0
1094	320	0
1094	509	0
1094	510	0
1094	511	0
1094	512	0
1094	513	0
1094	514	0
1094	515	0
1094	516	0
1094	517	0
1094	518	0
1094	519	0
1094	520	0
1094	521	0
1094	522	0
1094	523	0
1094	524	0
1094	525	0
1094	526	0
1094	527	0
1094	528	0
1094	529	0
1094	530	0
1094	531	0
1094	532	0
1094	533	0
1094	534	0
1095	318	0
1095	319	0
1095	320	0
1095	508	0
1095	509	0
1095	510	0
1095	511	0
1095	512	0
1095	513	0
1095	514	0
1096	319	0
1096	320	0
1096	507	0
1096	508	0
1096	509	0
1096	510	0
1097	320	0
1097	321	0
1097	505	0
1097	506	0
1097	507	0
1097	508	0
1097	509	0
1098	321	0
1098	322	0
1098	504	0
1098	505	0
1098	506	0
1098	507	0
1099	321	0
1099	322	0
1099	502	0
1099	503	0
1099	504	0
1099	505	0
1099	506	0
1100	321	0
1100	322	0
1100	323	0
1100	500	0
1100	501	0
1100	502	0
1100	503	0
1100	504	0
1101	322	0
1101	323	0
1101	499	0
1101	500	0
1101	501	0
1101	502	0
1101	503	0
1102	497	0
1102	498	0
1102	499	0
1102	500	0
1102	501	0
1103	496	0
1103	497	0
1103	498	0
1103	499	0
1103	500	0
1104	495	0
1104	496	0
1104	497	0
1104	498	0
1105	326	0
1105	492	0
1105	493	0
1105	494	0
1105	495	0
1105	496	0
1106	326	0
1106	327	0
1106	490	0
1106	491	0
1106	492	0
1106	493	0
1106	494	0
1106	495	0
1107	327	0
1107	328	0
1107	488	0
1107	489	0
1107	490	0
1107	491	0
1107	492	0
1107	493	0
1107	494	0
1108	327	0
1108	328	0
1108	329	0
1108	486	0
1108	487	0
1108	488	0
1108	489	0
1108	490	0
1108	491	0
1108	492	0
1109	328	0
1109	329	0
1109	484	0
1109	485	0
1109	486	0
1109	487	0
1109	488	0
1109	489	0
1109	490	0
1110	330	0
1110	331	0
1110	482	0
1110	483	0
1110	484	0
1110	485	0
1110	486	0
1110	487	0
1110	488	0
1111	331	0
1111	332	0
1111	479	0
1111	480	0
1111	481	0
1111	482	0
1111	483	0
1111	484	0
1111	485	0
1111	486	0
1112	332	0
1112	333	0
1112	334	0
1112	477	0
1112	478	0
1112	479	0
1112	480	0
1112	481	0
1112	482	0
1112	483	0
1112	484	0
1113	332	0
1113	333	0
1113	334	0
1113	474	0
1113	475	0
1113	476	0
1113	477	0
1113	478	0
1113	479	0
1113	480	0
1113	481	0
1114	334	0
1114	335	0
1114	336	0
1114	472	0
1114	473	0
1114	474	0
1114	475	0
1114	476	0
1114	477	0
1114	478	0
1115	335	0
1115	336	0
1115	337	0
1115	338	0
1115	469	0
1115	470	0
1115	471	0
1115	472	0
1115	473	0
1115	474	0
1116	335	0
1116	336	0
1116	337	0
1116	338	0
1116	467	0
1116	468	0
1116	469	0
1116	470	0
1116	471	0
1116	472	0
1117	336	0
1117	337	0
1117	338	0
1117	339	0
1117	340	0
1117	464	0
1117	465	0
1117	466	0
1117	467	0
1117	468	0
1117	469	0
1118	338	0
1118	339	0
1118	340	0
1118	341	0
1118	460	0
1118	461	0
1118	462	0
1118	463	0
1118	464	0
1118	465	0
1118	466	0
1118	467	0
1118	468	0
1119	339	0
1119	340	0
1119	341	0
1119	342	0
1119	457	0
1119	458	0
1119	459	0
1119	460	0
1119	461	0
1119	462	0
1119	463	0
1120	340	0
1120	341	0
1120	342	0
1120	343	0
1120	455	0
1120	456	0
1120	457	0
1120	458	0
1120	459	0
1120	460	0
1120	461	0
1120	462	0
1121	341	0
1121	342	0
1121	343	0
1121	344	0
1121	345	0
1121	448	0
1121	449	0
1121	450	0
1121	451	0
1121	452	0
1121	453	0
1121	454	0
1121	455	0
1121	456	0
1121	457	0
1122	343	0
1122	344	0
1122	345	0
1122	346	0
1122	445	0
1122	446	0
1122	447	0
1122	448	0
1122	449	0
1122	450	0
1122	451	0
1122	452	0
1122	453	0
1122	454	0
1122	455	0
1122	456	0
1122	459	0
1123	344	0
1123	345	0
1123	346	0
1123	347	0
1123	439	0
1123	440	0
1123	441	0
1123	442	0
1123	443	0
1123	444	0
1123	445	0
1123	446	0
1123	447	0
1123	448	0
1123	449	0
1123	450	0
1123	451	0
1123	452	0
1123	453	0
1123	454	0
1124	345	0
1124	346	0
1124	347	0
1124	348	0
1124	416	0
1124	417	0
1124	418	0
1124	419	0
1124	420	0
1124	421	0
1124	422	0
1124	423	0
1124	424	0
1124	425	0
1124	426	0
1124	427	0
1124	428	0
1124	429	0
1124	430	0
1124	431	0
1124	432	0
1124	433	0
1124	434	0
1124	435	0
1124	436	0
1124	437	0
1124	438	0
1124	439	0
1124	440	0
1124	441	0
1124	442	0
1124	443	0
1124	444	0
1124	445	0
1124	446	0
1124	447	0
1124	448	0
1124	449	0
1124	450	0
1124	451	0
1124	452	0
1124	453	0
1125	347	0
1125	348	0
1125	349	0
1125	416	0
1125	417	0
1125	418	0
1125	419	0
1125	420	0
1125	421	0
1125	422	0
1125	423	0
1125	424	0
1125	425	0
1125	426	0
1125	427	0
1125	428	0
1125	429	0
1125	430	0
1125	431	0
1125	432	0
1125	433	0
1125	434	0
1125	435	0
1125	436	0
1125	437	0
1125	438	0
1125	439	0
1125	440	0
1125	441	0
1125	442	0
1125	443	0
1125	444	0
1125	447	0
1126	349	0
1126	350	0
1126	351	0
1126	415	0
1126	416	0
1126	417	0
1126	418	0
1126	419	0
1126	428	0
1126	432	0
1126	433	0
1126	434	0
1126	435	0
1127	349	0
1127	350	0
1127	351	0
1127	352	0
1127	353	0
1127	354	0
1127	414	0
1127	415	0
1127	416	0
1127	417	0
1127	418	0
1128	350	0
1128	351	0
1128	352	0
1128	353	0
1128	354	0
1128	355	0
1128	356	0
1128	357	0
1128	412	0
1128	413	0
1128	414	0
1128	415	0
1128	416	0
1128	417	0
1129	350	0
1129	351	0
1129	352	0
1129	353	0
1129	354	0
1129	355	0
1129	356	0
1129	357	0
1129	358	0
1129	359	0
1129	409	0
1129	410	0
1129	411	0
1129	412	0
1129	413	0
1129	414	0
1129	415	0
1130	351	0
1130	352	0
1130	353	0
1130	354	0
1130	355	0
1130	356	0
1130	357	0
1130	358	0
1130	359	0
1130	360	0
1130	361	0
1130	404	0
1130	405	0
1130	406	0
1130	407	0
1130	408	0
1130	409	0
1130	410	0
1130	411	0
1130	412	0
1131	358	0
1131	359	0
1131	360	0
1131	361	0
1131	362	0
1131	363	0
1131	398	0
1131	399	0
1131	400	0
1131	401	0
1131	402	0
1131	403	0
1131	404	0
1131	405	0
1131	406	0
1131	407	0
1132	361	0
1132	362	0
1132	363	0
1132	364	0
1132	365	0
1132	366	0
1132	367	0
1132	368	0
1132	369	0
1132	395	0
1132	396	0
1132	397	0
1132	398	0
1132	399	0
1132	400	0
1132	401	0
1132	402	0
1132	403	0
1132	404	0
1132	405	0
1133	365	0
1133	366	0
1133	367	0
1133	368	0
1133	369	0
1133	370	0
1133	371	0
1133	372	0
1133	373	0
1133	374	0
1133	375	0
1133	376	0
1133	377	0
1133	378	0
1133	379	0
1133	380	0
1133	381	0
1133	382	0
1133	383	0
1133	384	0
1133	385	0
1133	386	0
1133	387	0
1133	388	0
1133	389	0
1133	390	0
1133	391	0
1133	392	0
1133	393	0
1133	394	0
1133	395	0
1133	396	0
1133	397	0
1133	398	0
1133	399	0
1133	400	0
1134	369	0
1134	370	0
1134	371	0
1134	372	0
1134	373	0
1134	374	0
1134	375	0
1134	376	0
1134	377	0
1134	378	0
1134	379	0
1134	380	0
1134	381	0
1134	382	0
1134	383	0
1134	384	0
1134	385	0
1134	386	0
1134	387	0
1134	388	0
1134	389	0
1134	390	0
1134	391	0
1134	392	0
1134	393	0
1134	394	0
1134	395	0
1134	396	0
1135	376	0
1135	377	0
1135	378	0
1135	379	0
1135	380	0
1135	381	0
1135	382	0
1135	383	0
1135	384	0
1135	385	0
