ply
format ascii 1.0
comment VCGLIB generated
element vertex 28
property float x
property float y
property float z
property float nx
property float ny
property float nz
element face 0
property list uchar int vertex_indices
end_header
389 465 48 0 0 0 
389 475 47 0 0 0 
389 485 48 0 0 0 
389 495 46 0 0 0 
389 504 44 0 0 0 
389 512 42 0 0 0 
389 523 39 0 0 0 
389 531 37 0 0 0 
389 543 34 0 0 0 
389 554 29 0 0 0 
389 562 28 0 0 0 
389 573 25 0 0 0 
389 579 22 0 0 0 
389 588 20 0 0 0 
389 594 19 0 0 0 
389 603 19 0 0 0 
389 614 19 0 0 0 
389 624 18 0 0 0 
389 632 18 0 0 0 
389 643 17 0 0 0 
389 653 16 0 0 0 
389 666 14 0 0 0 
389 678 13 0 0 0 
389 686 13 0 0 0 
389 695 12 0 0 0 
389 705 10 0 0 0 
389 718 13 0 0 0 
389 729 17 0 0 0 
