ply
format ascii 1.0
element vertex 64
property float x
property float y
property float z
element face 64
property list uchar int vertex_indices
end_header
5.000000 0.000000 0.000000
4.975021 0.199667 0.000000
4.900333 0.397339 0.000000
4.776682 0.591040 0.000000
4.605305 0.778837 0.000000
4.387913 0.958851 0.000000
4.126678 1.129285 0.000000
3.824211 1.288435 0.000000
3.483533 1.434712 0.000000
3.108049 1.566654 0.000000
2.701511 1.682942 0.000000
2.267980 1.782415 0.000000
1.811788 1.864078 0.000000
1.337493 1.927117 0.000000
0.849835 1.970900 0.000000
0.353685 1.994990 0.000000
-0.145999 1.999147 0.000000
-0.644224 1.983330 0.000000
-1.136012 1.947695 0.000000
-1.616449 1.892600 0.000000
-2.080735 1.818595 0.000000
-2.524231 1.726419 0.000000
-2.942506 1.616993 0.000000
-3.331380 1.491410 0.000000
-3.686968 1.350927 0.000000
-4.005717 1.196945 0.000000
-4.284443 1.031003 0.000000
-4.520360 0.854761 0.000000
-4.711111 0.669977 0.000000
-4.854790 0.478500 0.000000
-4.949962 0.282241 0.000000
-4.995676 0.083163 0.000000
-4.991474 -0.116746 0.000000
-4.937400 -0.315489 0.000000
-4.833992 -0.511080 0.000000
-4.682285 -0.701564 0.000000
-4.483795 -0.885039 0.000000
-4.240504 -1.059670 0.000000
-3.954843 -1.223713 0.000000
-3.629667 -1.375530 0.000000
-3.268224 -1.513603 0.000000
-2.874126 -1.636552 0.000000
-2.451311 -1.743150 0.000000
-2.004004 -1.832330 0.000000
-1.536673 -1.903203 0.000000
-1.053988 -1.955059 0.000000
-0.560773 -1.987382 0.000000
-0.061954 -1.999846 0.000000
0.437484 -1.992330 0.000000
0.932551 -1.964906 0.000000
1.418300 -1.917850 0.000000
1.889877 -1.851631 0.000000
2.342572 -1.766912 0.000000
2.771861 -1.664538 0.000000
3.173454 -1.545532 0.000000
3.543339 -1.411085 0.000000
3.877820 -1.262538 0.000000
4.173555 -1.101376 0.000000
4.427590 -0.929210 0.000000
4.637386 -0.747759 0.000000
4.800847 -0.558837 0.000000
4.916339 -0.364332 0.000000
4.982709 -0.166186 0.000000
4.999293 0.033621 0.000000
3 0 1 2
3 1 2 0
3 2 3 0
3 3 4 0
3 4 5 0
3 5 6 0
3 6 7 0
3 7 8 0
3 8 9 0
3 9 10 0
3 10 11 0
3 11 12 0
3 12 13 0
3 13 14 0
3 14 15 0
3 15 16 0
3 16 17 0
3 17 18 0
3 18 19 0
3 19 20 0
3 20 21 0
3 21 22 0
3 22 23 0
3 23 24 0
3 24 25 0
3 25 26 0
3 26 27 0
3 27 28 0
3 28 29 0
3 29 30 0
3 30 31 0
3 31 32 0
3 32 33 0
3 33 34 0
3 34 35 0
3 35 36 0
3 36 37 0
3 37 38 0
3 38 39 0
3 39 40 0
3 40 41 0
3 41 42 0
3 42 43 0
3 43 44 0
3 44 45 0
3 45 46 0
3 46 47 0
3 47 48 0
3 48 49 0
3 49 50 0
3 50 51 0
3 51 52 0
3 52 53 0
3 53 54 0
3 54 55 0
3 55 56 0
3 56 57 0
3 57 58 0
3 58 59 0
3 59 60 0
3 60 61 0
3 61 62 0
3 62 63 0
3 63 0 1