ply
format ascii 1.0
element vertex 126
property float x
property float y
property float z
element face 124
property list uchar int vertex_indices
end_header
1.000000 0.000000 0.000000
0.995004 0.099833 0.000000
0.995004 0.099833 0.000000
0.980067 0.198669 0.000000
0.980067 0.198669 0.000000
0.955336 0.295520 0.000000
0.955336 0.295520 0.000000
0.921061 0.389418 0.000000
0.921061 0.389418 0.000000
0.877583 0.479426 0.000000
0.877583 0.479426 0.000000
0.825336 0.564642 0.000000
0.825336 0.564642 0.000000
0.764842 0.644218 0.000000
0.764842 0.644218 0.000000
0.696707 0.717356 0.000000
0.696707 0.717356 0.000000
0.621610 0.783327 0.000000
0.621610 0.783327 0.000000
0.540302 0.841471 0.000000
0.540302 0.841471 0.000000
0.453596 0.891207 0.000000
0.453596 0.891207 0.000000
0.362358 0.932039 0.000000
0.362358 0.932039 0.000000
0.267499 0.963558 0.000000
0.267499 0.963558 0.000000
0.169967 0.985450 0.000000
0.169967 0.985450 0.000000
0.070737 0.997495 0.000000
0.070737 0.997495 0.000000
-0.029200 0.999574 0.000000
-0.029200 0.999574 0.000000
-0.128844 0.991665 0.000000
-0.128844 0.991665 0.000000
-0.227202 0.973848 0.000000
-0.227202 0.973848 0.000000
-0.323290 0.946300 0.000000
-0.323290 0.946300 0.000000
-0.416147 0.909297 0.000000
-0.416147 0.909297 0.000000
-0.504846 0.863209 0.000000
-0.504846 0.863209 0.000000
-0.588501 0.808496 0.000000
-0.588501 0.808496 0.000000
-0.666276 0.745705 0.000000
-0.666276 0.745705 0.000000
-0.737394 0.675463 0.000000
-0.737394 0.675463 0.000000
-0.801144 0.598472 0.000000
-0.801144 0.598472 0.000000
-0.856889 0.515501 0.000000
-0.856889 0.515501 0.000000
-0.904072 0.427380 0.000000
-0.904072 0.427380 0.000000
-0.942222 0.334988 0.000000
-0.942222 0.334988 0.000000
-0.970958 0.239249 0.000000
-0.970958 0.239249 0.000000
-0.989992 0.141120 0.000000
-0.989992 0.141120 0.000000
-0.999135 0.041581 0.000000
-0.999135 0.041581 0.000000
-0.998295 -0.058374 0.000000
-0.998295 -0.058374 0.000000
-0.987480 -0.157746 0.000000
-0.987480 -0.157746 0.000000
-0.966798 -0.255541 0.000000
-0.966798 -0.255541 0.000000
-0.936457 -0.350783 0.000000
-0.936457 -0.350783 0.000000
-0.896758 -0.442520 0.000000
-0.896758 -0.442520 0.000000
-0.848100 -0.529836 0.000000
-0.848100 -0.529836 0.000000
-0.790968 -0.611858 0.000000
-0.790968 -0.611858 0.000000
-0.725932 -0.687766 0.000000
-0.725932 -0.687766 0.000000
-0.653644 -0.756802 0.000000
-0.653644 -0.756802 0.000000
-0.574824 -0.818277 0.000000
-0.574824 -0.818277 0.000000
-0.490261 -0.871576 0.000000
-0.490261 -0.871576 0.000000
-0.400799 -0.916166 0.000000
-0.400799 -0.916166 0.000000
-0.307333 -0.951602 0.000000
-0.307333 -0.951602 0.000000
-0.210796 -0.977530 0.000000
-0.210796 -0.977530 0.000000
-0.112153 -0.993691 0.000000
-0.112153 -0.993691 0.000000
-0.012389 -0.999923 0.000000
-0.012389 -0.999923 0.000000
0.087499 -0.996165 0.000000
0.087499 -0.996165 0.000000
0.186512 -0.982453 0.000000
0.186512 -0.982453 0.000000
0.283662 -0.958924 0.000000
0.283662 -0.958924 0.000000
0.377978 -0.925815 0.000000
0.377978 -0.925815 0.000000
0.468517 -0.883455 0.000000
0.468517 -0.883455 0.000000
0.554374 -0.832267 0.000000
0.554374 -0.832267 0.000000
0.634693 -0.772764 0.000000
0.634693 -0.772764 0.000000
0.708670 -0.705540 0.000000
0.708670 -0.705540 0.000000
0.775566 -0.631267 0.000000
0.775566 -0.631267 0.000000
0.834713 -0.550686 0.000000
0.834713 -0.550686 0.000000
0.885520 -0.464602 0.000000
0.885520 -0.464602 0.000000
0.927478 -0.373877 0.000000
0.927478 -0.373877 0.000000
0.960170 -0.279415 0.000000
0.960170 -0.279415 0.000000
0.983268 -0.182163 0.000000
0.983268 -0.182163 0.000000
0.996542 -0.083089 0.000000
0.996542 -0.083089 0.000000
0.999859 0.016814 0.000000
3 2 3 4
3 4 5 6
3 6 7 8
3 8 9 10
3 10 11 12
3 12 13 14
3 14 15 16
3 16 17 18
3 18 19 20
3 20 21 22
3 22 23 24
3 24 25 26
3 26 27 28
3 28 29 30
3 30 31 32
3 32 33 34
3 34 35 36
3 36 37 38
3 38 39 40
3 40 41 42
3 42 43 44
3 44 45 46
3 46 47 48
3 48 49 50
3 50 51 52
3 52 53 54
3 54 55 56
3 56 57 58
3 58 59 60
3 60 61 62
3 62 63 64
3 64 65 66
3 66 67 68
3 68 69 70
3 70 71 72
3 72 73 74
3 74 75 76
3 76 77 78
3 78 79 80
3 80 81 82
3 82 83 84
3 84 85 86
3 86 87 88
3 88 89 90
3 90 91 92
3 92 93 94
3 94 95 96
3 96 97 98
3 98 99 100
3 100 101 102
3 102 103 104
3 104 105 106
3 106 107 108
3 108 109 110
3 110 111 112
3 112 113 114
3 114 115 116
3 116 117 118
3 118 119 120
3 120 121 122
3 122 123 124
3 124 125 126
3 126 127 128
3 128 129 130
3 130 131 132
3 132 133 134
3 134 135 136
3 136 137 138
3 138 139 140
3 140 141 142
3 142 143 144
3 144 145 146
3 146 147 148
3 148 149 150
3 150 151 152
3 152 153 154
3 154 155 156
3 156 157 158
3 158 159 160
3 160 161 162
3 162 163 164
3 164 165 166
3 166 167 168
3 168 169 170
3 170 171 172
3 172 173 174
3 174 175 176
3 176 177 178
3 178 179 180
3 180 181 182
3 182 183 184
3 184 185 186
3 186 187 188
3 188 189 190
3 190 191 192
3 192 193 194
3 194 195 196
3 196 197 198
3 198 199 200
3 200 201 202
3 202 203 204
3 204 205 206
3 206 207 208
3 208 209 210
3 210 211 212
3 212 213 214
3 214 215 216
3 216 217 218
3 218 219 220
3 220 221 222
3 222 223 224
3 224 225 226
3 226 227 228
3 228 229 230
3 230 231 232
3 232 233 234
3 234 235 236
3 236 237 238
3 238 239 240
3 240 241 242
3 242 243 244
3 244 245 246
3 246 247 248
3 248 249 250
