ply
format ascii 1.0
element vertex 65
property float x
property float y
property float z
element face 31
property list uchar int vertex_indices
end_header
6.4 0.0 0.0
6.368026657779366 0.6389338665397002 0.0
6.272426098183947 1.271483717088392 0.0
6.114153530403879 1.8913293226325736 0.0
5.894790361618465 2.4922773907753637 0.0
5.616528396098386 3.0683234470668994 0.0
5.282147935421942 3.6137118297282265 0.0
4.894989998620726 4.122993198321223 0.0
4.45892293982186 4.5910789817569455 0.0
3.978303796932253 5.0132922216158935 0.0
3.4579347575560946 5.3854143027705375 0.0
2.903015177123696 5.703727104393186 0.0
2.3190896286507114 5.965050150190248 0.0
1.711992503197359 6.1667723866700355 0.0
1.0877897145615412 6.306878271926146 0.0
0.4527180906732972 6.3839679142659485 0.0
-0.18687694272824984 6.397271059465633 0.0
-0.8246047634913606 6.346654786895799 0.0
-1.4540934060357602 6.232624837620449 0.0
-2.0690532279264255 6.056320561199452 0.0
-2.663339753901714 5.8195035316843615 0.0
-3.2310150694390907 5.524539946552791 0.0
-3.7664071504342163 5.1743769844453755 0.0
-4.264166536190878 4.772513357931007 0.0
-4.719319779463976 4.322964355527362 0.0
-5.127319139500379 3.830221722265317 0.0
-5.484088021561266 3.299208779657366 0.0
-5.786061708909195 2.7352312334965054 0.0
-6.030222980279415 2.1439241609977846 0.0
-6.214132256957381 1.5311957069694793 0.0
-6.335951978242853 0.9031680515831418 0.0
-6.394464961748989 0.26611623957305064 0.0
-6.389086565086419 -0.3735945179365211 0.0
-6.319870527416734 -1.0095724425167998 0.0
-6.187508432508547 -1.635463052971731 0.0
-5.993322798661093 -2.245012657213578 0.0
-5.7392538645385365 -2.832130837087066 0.0
-5.427840202946606 -3.390951301814367 0.0
-5.062193356252259 -3.9158905020334127 0.0
-4.645966746880887 -4.401703418777442 0.0
-4.183319173527108 -4.843535969970748 0.0
-3.6788732578129135 -5.236973510812233 0.0
-3.1376692565804714 -5.578084943446967 0.0
-2.565114701311838 -5.863461995196514 0.0
-1.966930367861884 -6.0902532728929035 0.0
-1.3490931163569901 -6.256192753056621 0.0
-0.7177761723843512 -6.359622423254173 0.0
-0.07928744616250527 -6.399508848410246 0.0
0.5599934940124512 -6.375453496549381 0.0
1.1936791643044737 -6.28769672079573 0.0
1.8154379869646373 -6.13711535784409 0.0
2.419057553363063 -5.925213966897492 0.0
2.9985066963223987 -5.654109796608989 0.0
3.547995751546615 -5.326511630232978 0.0
4.062034406032844 -4.945692720358332 0.0
4.535486555464049 -4.5154580836505245 0.0
4.963621622465583 -4.0401064823828765 0.0
5.342161822970607 -3.524387472624905 0.0
5.667324908424428 -2.9734539482480726 0.0
5.935861956761817 -2.3928106549135424 0.0
6.1450898345623335 -1.7882591884731582 0.0
6.292918006032536 -1.1658400273414473 0.0
6.377869420948588 -0.5317721780320167 0.0
6.399095272853858 0.10760896309979838 0.0
6.356383480052439 0.7459149110431142 0.0
4 0 32 33 1
4 1 33 34 2
4 2 34 35 3
4 3 35 36 4
4 4 36 37 5
4 5 37 38 6
4 6 38 39 7
4 7 39 40 8
4 8 40 41 9
4 9 41 42 10
4 10 42 43 11
4 11 43 44 12
4 12 44 45 13
4 13 45 46 14
4 14 46 47 15
4 15 47 48 16
4 16 48 49 17
4 17 49 50 18
4 18 50 51 19
4 19 51 52 20
4 20 52 53 21
4 21 53 54 22
4 22 54 55 23
4 23 55 56 24
4 24 56 57 25
4 25 57 58 26
4 26 58 59 27
4 27 59 60 28
4 28 60 61 29
4 29 61 62 30
4 30 62 63 31
