ply
format ascii 1.0
element vertex 1941
property float x
property float y
property float z
element face 0
property list uchar int vertex_index
end_header
0	374	-106
0	375	-106
0	376	-106
0	377	-106
0	378	-106
0	379	-106
0	380	-106
0	381	-106
0	382	-106
0	383	-106
0	384	-106
0	385	-106
0	386	-106
0	387	-106
0	388	-106
0	389	-106
0	390	-106
0	391	-106
0	392	-106
0	393	-106
0	394	-106
0	395	-106
0	396	-106
0	397	-106
0	398	-106
0	368	-105
0	369	-105
0	370	-105
0	371	-105
0	372	-105
0	373	-105
0	374	-105
0	375	-105
0	376	-105
0	377	-105
0	378	-105
0	379	-105
0	380	-105
0	381	-105
0	382	-105
0	383	-105
0	384	-105
0	385	-105
0	386	-105
0	387	-105
0	388	-105
0	389	-105
0	390	-105
0	391	-105
0	392	-105
0	393	-105
0	394	-105
0	395	-105
0	396	-105
0	397	-105
0	398	-105
0	399	-105
0	400	-105
0	401	-105
0	402	-105
0	403	-105
0	365	-104
0	366	-104
0	367	-104
0	368	-104
0	369	-104
0	370	-104
0	371	-104
0	372	-104
0	373	-104
0	374	-104
0	375	-104
0	376	-104
0	377	-104
0	378	-104
0	379	-104
0	380	-104
0	381	-104
0	382	-104
0	383	-104
0	384	-104
0	385	-104
0	386	-104
0	387	-104
0	388	-104
0	389	-104
0	390	-104
0	391	-104
0	392	-104
0	393	-104
0	394	-104
0	395	-104
0	396	-104
0	397	-104
0	398	-104
0	399	-104
0	400	-104
0	401	-104
0	402	-104
0	403	-104
0	404	-104
0	405	-104
0	406	-104
0	407	-104
0	408	-104
0	409	-104
0	410	-104
0	411	-104
0	412	-104
0	361	-103
0	362	-103
0	363	-103
0	364	-103
0	365	-103
0	366	-103
0	367	-103
0	368	-103
0	369	-103
0	370	-103
0	371	-103
0	372	-103
0	373	-103
0	374	-103
0	375	-103
0	376	-103
0	377	-103
0	378	-103
0	379	-103
0	380	-103
0	381	-103
0	399	-103
0	400	-103
0	401	-103
0	402	-103
0	403	-103
0	404	-103
0	405	-103
0	406	-103
0	407	-103
0	408	-103
0	409	-103
0	410	-103
0	411	-103
0	412	-103
0	413	-103
0	414	-103
0	415	-103
0	416	-103
0	359	-102
0	360	-102
0	361	-102
0	362	-102
0	363	-102
0	364	-102
0	365	-102
0	366	-102
0	367	-102
0	368	-102
0	369	-102
0	370	-102
0	371	-102
0	401	-102
0	402	-102
0	403	-102
0	404	-102
0	405	-102
0	406	-102
0	407	-102
0	408	-102
0	409	-102
0	410	-102
0	411	-102
0	412	-102
0	413	-102
0	414	-102
0	415	-102
0	416	-102
0	417	-102
0	418	-102
0	356	-101
0	357	-101
0	358	-101
0	359	-101
0	360	-101
0	361	-101
0	362	-101
0	363	-101
0	364	-101
0	365	-101
0	366	-101
0	367	-101
0	405	-101
0	406	-101
0	407	-101
0	408	-101
0	409	-101
0	410	-101
0	411	-101
0	412	-101
0	413	-101
0	414	-101
0	415	-101
0	416	-101
0	417	-101
0	418	-101
0	419	-101
0	420	-101
0	355	-100
0	356	-100
0	357	-100
0	358	-100
0	359	-100
0	360	-100
0	361	-100
0	362	-100
0	410	-100
0	411	-100
0	412	-100
0	413	-100
0	414	-100
0	415	-100
0	416	-100
0	417	-100
0	418	-100
0	419	-100
0	420	-100
0	421	-100
0	422	-100
0	353	-99
0	354	-99
0	355	-99
0	356	-99
0	357	-99
0	358	-99
0	359	-99
0	415	-99
0	416	-99
0	417	-99
0	418	-99
0	419	-99
0	420	-99
0	421	-99
0	422	-99
0	423	-99
0	424	-99
0	425	-99
0	351	-98
0	352	-98
0	353	-98
0	354	-98
0	355	-98
0	356	-98
0	419	-98
0	420	-98
0	421	-98
0	422	-98
0	423	-98
0	424	-98
0	425	-98
0	426	-98
0	427	-98
0	348	-97
0	349	-97
0	350	-97
0	351	-97
0	352	-97
0	353	-97
0	354	-97
0	422	-97
0	423	-97
0	424	-97
0	425	-97
0	426	-97
0	427	-97
0	428	-97
0	429	-97
0	347	-96
0	348	-96
0	349	-96
0	350	-96
0	351	-96
0	425	-96
0	426	-96
0	427	-96
0	428	-96
0	429	-96
0	430	-96
0	431	-96
0	346	-95
0	347	-95
0	348	-95
0	349	-95
0	427	-95
0	428	-95
0	429	-95
0	430	-95
0	431	-95
0	432	-95
0	345	-94
0	346	-94
0	347	-94
0	348	-94
0	429	-94
0	430	-94
0	431	-94
0	432	-94
0	433	-94
0	434	-94
0	344	-93
0	345	-93
0	346	-93
0	432	-93
0	433	-93
0	434	-93
0	435	-93
0	436	-93
0	437	-93
0	343	-92
0	344	-92
0	345	-92
0	434	-92
0	435	-92
0	436	-92
0	437	-92
0	438	-92
0	439	-92
0	342	-91
0	343	-91
0	435	-91
0	436	-91
0	437	-91
0	438	-91
0	439	-91
0	440	-91
0	341	-90
0	342	-90
0	437	-90
0	438	-90
0	439	-90
0	440	-90
0	441	-90
0	442	-90
0	340	-89
0	341	-89
0	438	-89
0	439	-89
0	440	-89
0	441	-89
0	442	-89
0	443	-89
0	339	-88
0	340	-88
0	439	-88
0	440	-88
0	441	-88
0	442	-88
0	443	-88
0	444	-88
0	338	-87
0	440	-87
0	441	-87
0	442	-87
0	443	-87
0	444	-87
0	445	-87
0	446	-87
0	337	-86
0	338	-86
0	442	-86
0	443	-86
0	444	-86
0	445	-86
0	446	-86
0	447	-86
0	337	-85
0	443	-85
0	444	-85
0	445	-85
0	446	-85
0	447	-85
0	448	-85
0	335	-84
0	444	-84
0	445	-84
0	446	-84
0	447	-84
0	448	-84
0	449	-84
0	446	-83
0	447	-83
0	448	-83
0	449	-83
0	450	-83
0	447	-82
0	448	-82
0	449	-82
0	450	-82
0	451	-82
0	452	-82
0	449	-81
0	450	-81
0	451	-81
0	452	-81
0	453	-81
0	332	-80
0	450	-80
0	451	-80
0	452	-80
0	453	-80
0	454	-80
0	329	-79
0	330	-79
0	450	-79
0	451	-79
0	452	-79
0	453	-79
0	454	-79
0	455	-79
0	328	-78
0	329	-78
0	330	-78
0	451	-78
0	452	-78
0	453	-78
0	454	-78
0	455	-78
0	456	-78
0	328	-77
0	329	-77
0	330	-77
0	452	-77
0	453	-77
0	454	-77
0	455	-77
0	456	-77
0	457	-77
0	328	-76
0	329	-76
0	453	-76
0	454	-76
0	455	-76
0	456	-76
0	457	-76
0	458	-76
0	327	-75
0	328	-75
0	329	-75
0	454	-75
0	455	-75
0	456	-75
0	457	-75
0	458	-75
0	459	-75
0	326	-74
0	327	-74
0	328	-74
0	455	-74
0	456	-74
0	457	-74
0	458	-74
0	459	-74
0	460	-74
0	325	-73
0	326	-73
0	327	-73
0	328	-73
0	456	-73
0	457	-73
0	458	-73
0	459	-73
0	460	-73
0	461	-73
0	324	-72
0	325	-72
0	326	-72
0	327	-72
0	457	-72
0	458	-72
0	459	-72
0	460	-72
0	461	-72
0	324	-71
0	325	-71
0	326	-71
0	458	-71
0	459	-71
0	460	-71
0	461	-71
0	462	-71
0	323	-70
0	324	-70
0	325	-70
0	458	-70
0	459	-70
0	460	-70
0	461	-70
0	462	-70
0	322	-69
0	323	-69
0	324	-69
0	459	-69
0	460	-69
0	461	-69
0	462	-69
0	463	-69
0	322	-68
0	323	-68
0	324	-68
0	460	-68
0	461	-68
0	462	-68
0	463	-68
0	464	-68
0	322	-67
0	323	-67
0	461	-67
0	462	-67
0	463	-67
0	464	-67
0	465	-67
0	321	-66
0	322	-66
0	323	-66
0	462	-66
0	463	-66
0	464	-66
0	465	-66
0	466	-66
0	534	-66
0	320	-65
0	321	-65
0	322	-65
0	463	-65
0	464	-65
0	465	-65
0	466	-65
0	531	-65
0	532	-65
0	533	-65
0	534	-65
0	320	-64
0	321	-64
0	322	-64
0	464	-64
0	465	-64
0	466	-64
0	467	-64
0	529	-64
0	530	-64
0	531	-64
0	532	-64
0	533	-64
0	534	-64
0	319	-63
0	320	-63
0	321	-63
0	464	-63
0	465	-63
0	466	-63
0	467	-63
0	468	-63
0	469	-63
0	527	-63
0	528	-63
0	529	-63
0	530	-63
0	531	-63
0	532	-63
0	533	-63
0	534	-63
0	319	-62
0	320	-62
0	321	-62
0	465	-62
0	466	-62
0	467	-62
0	468	-62
0	469	-62
0	470	-62
0	471	-62
0	525	-62
0	526	-62
0	527	-62
0	528	-62
0	529	-62
0	530	-62
0	531	-62
0	318	-61
0	319	-61
0	320	-61
0	466	-61
0	467	-61
0	468	-61
0	469	-61
0	470	-61
0	471	-61
0	472	-61
0	473	-61
0	474	-61
0	475	-61
0	523	-61
0	524	-61
0	525	-61
0	526	-61
0	527	-61
0	528	-61
0	529	-61
0	530	-61
0	317	-60
0	318	-60
0	319	-60
0	467	-60
0	468	-60
0	469	-60
0	470	-60
0	471	-60
0	472	-60
0	473	-60
0	474	-60
0	475	-60
0	476	-60
0	477	-60
0	478	-60
0	520	-60
0	521	-60
0	522	-60
0	523	-60
0	524	-60
0	525	-60
0	526	-60
0	527	-60
0	528	-60
0	317	-59
0	318	-59
0	319	-59
0	472	-59
0	473	-59
0	474	-59
0	475	-59
0	476	-59
0	477	-59
0	478	-59
0	479	-59
0	518	-59
0	519	-59
0	520	-59
0	521	-59
0	522	-59
0	523	-59
0	524	-59
0	525	-59
0	317	-58
0	318	-58
0	474	-58
0	475	-58
0	476	-58
0	477	-58
0	478	-58
0	479	-58
0	480	-58
0	481	-58
0	515	-58
0	516	-58
0	517	-58
0	518	-58
0	519	-58
0	520	-58
0	521	-58
0	522	-58
0	523	-58
0	316	-57
0	317	-57
0	318	-57
0	476	-57
0	477	-57
0	478	-57
0	479	-57
0	480	-57
0	481	-57
0	482	-57
0	483	-57
0	484	-57
0	513	-57
0	514	-57
0	515	-57
0	516	-57
0	517	-57
0	518	-57
0	519	-57
0	520	-57
0	521	-57
0	315	-56
0	316	-56
0	317	-56
0	318	-56
0	479	-56
0	480	-56
0	481	-56
0	482	-56
0	483	-56
0	484	-56
0	485	-56
0	486	-56
0	487	-56
0	488	-56
0	489	-56
0	490	-56
0	491	-56
0	492	-56
0	493	-56
0	494	-56
0	495	-56
0	496	-56
0	497	-56
0	498	-56
0	499	-56
0	500	-56
0	501	-56
0	502	-56
0	503	-56
0	504	-56
0	507	-56
0	508	-56
0	509	-56
0	510	-56
0	511	-56
0	512	-56
0	513	-56
0	514	-56
0	515	-56
0	516	-56
0	517	-56
0	518	-56
0	519	-56
0	315	-55
0	316	-55
0	317	-55
0	481	-55
0	482	-55
0	483	-55
0	484	-55
0	485	-55
0	486	-55
0	487	-55
0	488	-55
0	489	-55
0	490	-55
0	491	-55
0	492	-55
0	493	-55
0	494	-55
0	495	-55
0	496	-55
0	497	-55
0	498	-55
0	499	-55
0	500	-55
0	501	-55
0	502	-55
0	503	-55
0	504	-55
0	505	-55
0	506	-55
0	507	-55
0	508	-55
0	509	-55
0	510	-55
0	511	-55
0	512	-55
0	513	-55
0	514	-55
0	515	-55
0	516	-55
0	314	-54
0	315	-54
0	316	-54
0	317	-54
0	483	-54
0	487	-54
0	488	-54
0	489	-54
0	490	-54
0	491	-54
0	492	-54
0	493	-54
0	494	-54
0	495	-54
0	496	-54
0	497	-54
0	498	-54
0	499	-54
0	500	-54
0	501	-54
0	502	-54
0	503	-54
0	504	-54
0	505	-54
0	506	-54
0	507	-54
0	508	-54
0	509	-54
0	510	-54
0	511	-54
0	512	-54
0	314	-53
0	315	-53
0	316	-53
0	508	-53
0	313	-52
0	314	-52
0	315	-52
0	313	-51
0	314	-51
0	315	-51
0	312	-50
0	313	-50
0	314	-50
0	315	-50
0	312	-49
0	313	-49
0	314	-49
0	311	-48
0	312	-48
0	313	-48
0	314	-48
0	311	-47
0	312	-47
0	313	-47
0	314	-47
0	310	-46
0	311	-46
0	312	-46
0	313	-46
0	310	-45
0	311	-45
0	312	-45
0	313	-45
0	310	-44
0	311	-44
0	312	-44
0	310	-43
0	311	-43
0	312	-43
0	309	-42
0	310	-42
0	311	-42
0	312	-42
0	309	-41
0	310	-41
0	311	-41
0	309	-40
0	310	-40
0	311	-40
0	309	-39
0	310	-39
0	311	-39
0	309	-38
0	310	-38
0	311	-38
0	308	-37
0	309	-37
0	310	-37
0	311	-37
0	308	-36
0	309	-36
0	310	-36
0	308	-35
0	309	-35
0	310	-35
0	308	-34
0	309	-34
0	310	-34
0	308	-33
0	309	-33
0	310	-33
0	308	-32
0	309	-32
0	310	-32
0	308	-31
0	309	-31
0	308	-30
0	309	-30
0	307	-29
0	308	-29
0	309	-29
0	307	-28
0	308	-28
0	309	-28
0	307	-27
0	308	-27
0	309	-27
0	307	-26
0	308	-26
0	309	-26
0	306	-25
0	307	-25
0	308	-25
0	309	-25
0	306	-24
0	307	-24
0	308	-24
0	306	-23
0	307	-23
0	308	-23
0	306	-22
0	307	-22
0	308	-22
0	306	-21
0	307	-21
0	308	-21
0	306	-20
0	307	-20
0	308	-20
0	305	-19
0	306	-19
0	307	-19
0	308	-19
0	305	-18
0	306	-18
0	307	-18
0	305	-17
0	306	-17
0	307	-17
0	305	-16
0	306	-16
0	307	-16
0	304	-15
0	305	-15
0	306	-15
0	307	-15
0	304	-14
0	305	-14
0	306	-14
0	307	-14
0	304	-13
0	305	-13
0	306	-13
0	307	-13
0	304	-12
0	305	-12
0	306	-12
0	304	-11
0	305	-11
0	306	-11
0	304	-10
0	305	-10
0	306	-10
0	304	-9
0	305	-9
0	306	-9
0	304	-8
0	305	-8
0	306	-8
0	304	-7
0	305	-7
0	306	-7
0	304	-6
0	305	-6
0	306	-6
0	303	-5
0	304	-5
0	305	-5
0	306	-5
0	303	-4
0	304	-4
0	305	-4
0	306	-4
0	303	-3
0	304	-3
0	305	-3
0	306	-3
0	303	-2
0	304	-2
0	305	-2
0	306	-2
0	303	-1
0	304	-1
0	305	-1
0	306	-1
0	303	0
0	304	0
0	305	0
0	306	0
0	303	1
0	304	1
0	305	1
0	306	1
0	303	2
0	304	2
0	305	2
0	306	2
0	303	3
0	304	3
0	305	3
0	306	3
0	303	4
0	304	4
0	305	4
0	306	4
0	303	5
0	304	5
0	305	5
0	306	5
0	303	6
0	304	6
0	305	6
0	306	6
0	303	7
0	304	7
0	305	7
0	306	7
0	303	8
0	304	8
0	305	8
0	306	8
0	303	9
0	304	9
0	305	9
0	306	9
0	303	10
0	304	10
0	305	10
0	306	10
0	303	11
0	304	11
0	305	11
0	306	11
0	304	12
0	305	12
0	306	12
0	304	13
0	305	13
0	306	13
0	304	14
0	305	14
0	306	14
0	304	15
0	305	15
0	306	15
0	304	16
0	305	16
0	306	16
0	304	17
0	305	17
0	306	17
0	307	17
0	304	18
0	305	18
0	306	18
0	307	18
0	304	19
0	305	19
0	306	19
0	307	19
0	305	20
0	306	20
0	307	20
0	305	21
0	306	21
0	307	21
0	305	22
0	306	22
0	307	22
0	308	22
0	305	23
0	306	23
0	307	23
0	308	23
0	305	24
0	306	24
0	307	24
0	308	24
0	305	25
0	306	25
0	307	25
0	308	25
0	305	26
0	306	26
0	307	26
0	308	26
0	306	27
0	307	27
0	308	27
0	306	28
0	307	28
0	308	28
0	306	29
0	307	29
0	308	29
0	309	29
0	306	30
0	307	30
0	308	30
0	309	30
0	306	31
0	307	31
0	308	31
0	309	31
0	307	32
0	308	32
0	309	32
0	307	33
0	308	33
0	309	33
0	310	33
0	308	34
0	309	34
0	310	34
0	308	35
0	309	35
0	310	35
0	308	36
0	309	36
0	310	36
0	308	37
0	309	37
0	310	37
0	311	37
0	309	38
0	310	38
0	311	38
0	312	38
0	309	39
0	310	39
0	311	39
0	312	39
0	310	40
0	311	40
0	312	40
0	522	40
0	523	40
0	310	41
0	311	41
0	312	41
0	520	41
0	521	41
0	522	41
0	523	41
0	524	41
0	525	41
0	526	41
0	527	41
0	528	41
0	529	41
0	530	41
0	531	41
0	532	41
0	533	41
0	534	41
0	310	42
0	311	42
0	312	42
0	313	42
0	519	42
0	520	42
0	521	42
0	522	42
0	523	42
0	524	42
0	525	42
0	526	42
0	527	42
0	528	42
0	529	42
0	530	42
0	531	42
0	532	42
0	533	42
0	534	42
0	311	43
0	312	43
0	313	43
0	518	43
0	519	43
0	520	43
0	521	43
0	522	43
0	523	43
0	524	43
0	525	43
0	526	43
0	527	43
0	528	43
0	529	43
0	530	43
0	531	43
0	532	43
0	533	43
0	534	43
0	312	44
0	313	44
0	517	44
0	518	44
0	519	44
0	520	44
0	521	44
0	312	45
0	313	45
0	314	45
0	516	45
0	517	45
0	518	45
0	519	45
0	312	46
0	313	46
0	314	46
0	515	46
0	516	46
0	517	46
0	518	46
0	313	47
0	314	47
0	315	47
0	516	47
0	517	47
0	518	47
0	313	48
0	314	48
0	315	48
0	316	48
0	516	48
0	517	48
0	518	48
0	519	48
0	314	49
0	315	49
0	316	49
0	516	49
0	517	49
0	518	49
0	519	49
0	314	50
0	315	50
0	316	50
0	516	50
0	517	50
0	518	50
0	519	50
0	314	51
0	315	51
0	316	51
0	517	51
0	518	51
0	519	51
0	314	52
0	315	52
0	316	52
0	317	52
0	517	52
0	518	52
0	519	52
0	315	53
0	316	53
0	317	53
0	318	53
0	517	53
0	518	53
0	519	53
0	316	54
0	317	54
0	318	54
0	517	54
0	518	54
0	519	54
0	317	55
0	318	55
0	319	55
0	517	55
0	518	55
0	519	55
0	318	56
0	319	56
0	320	56
0	517	56
0	518	56
0	519	56
0	319	57
0	320	57
0	517	57
0	518	57
0	519	57
0	319	58
0	320	58
0	321	58
0	517	58
0	518	58
0	519	58
0	320	59
0	321	59
0	322	59
0	518	59
0	519	59
0	520	59
0	321	60
0	322	60
0	323	60
0	518	60
0	519	60
0	520	60
0	322	61
0	323	61
0	324	61
0	518	61
0	519	61
0	520	61
0	322	62
0	323	62
0	324	62
0	518	62
0	519	62
0	520	62
0	323	63
0	324	63
0	325	63
0	518	63
0	519	63
0	520	63
0	324	64
0	325	64
0	326	64
0	517	64
0	518	64
0	519	64
0	520	64
0	325	65
0	326	65
0	327	65
0	517	65
0	518	65
0	519	65
0	520	65
0	326	66
0	327	66
0	517	66
0	518	66
0	519	66
0	520	66
0	327	67
0	328	67
0	517	67
0	518	67
0	519	67
0	328	68
0	329	68
0	330	68
0	516	68
0	517	68
0	518	68
0	519	68
0	329	69
0	330	69
0	331	69
0	516	69
0	517	69
0	518	69
0	519	69
0	330	70
0	331	70
0	332	70
0	516	70
0	517	70
0	518	70
0	331	71
0	332	71
0	333	71
0	515	71
0	516	71
0	517	71
0	518	71
0	332	72
0	333	72
0	334	72
0	514	72
0	515	72
0	516	72
0	517	72
0	332	73
0	333	73
0	334	73
0	335	73
0	336	73
0	514	73
0	515	73
0	516	73
0	517	73
0	334	74
0	335	74
0	336	74
0	337	74
0	513	74
0	514	74
0	515	74
0	516	74
0	335	75
0	336	75
0	337	75
0	338	75
0	513	75
0	514	75
0	515	75
0	516	75
0	336	76
0	337	76
0	338	76
0	339	76
0	514	76
0	515	76
0	516	76
0	338	77
0	339	77
0	340	77
0	341	77
0	514	77
0	515	77
0	516	77
0	517	77
0	340	78
0	341	78
0	342	78
0	514	78
0	515	78
0	516	78
0	517	78
0	341	79
0	342	79
0	343	79
0	344	79
0	346	79
0	347	79
0	348	79
0	514	79
0	515	79
0	516	79
0	517	79
0	344	80
0	345	80
0	346	80
0	347	80
0	348	80
0	514	80
0	515	80
0	516	80
0	517	80
0	347	81
0	348	81
0	514	81
0	515	81
0	516	81
0	517	81
0	347	82
0	348	82
0	350	82
0	514	82
0	515	82
0	516	82
0	517	82
0	347	83
0	348	83
0	349	83
0	350	83
0	351	83
0	513	83
0	514	83
0	515	83
0	516	83
0	349	84
0	350	84
0	351	84
0	352	84
0	353	84
0	513	84
0	514	84
0	515	84
0	516	84
0	350	85
0	351	85
0	352	85
0	353	85
0	354	85
0	485	85
0	486	85
0	512	85
0	513	85
0	514	85
0	515	85
0	352	86
0	353	86
0	354	86
0	355	86
0	356	86
0	357	86
0	484	86
0	485	86
0	486	86
0	487	86
0	488	86
0	511	86
0	512	86
0	513	86
0	514	86
0	353	87
0	354	87
0	355	87
0	356	87
0	357	87
0	358	87
0	484	87
0	485	87
0	486	87
0	487	87
0	488	87
0	510	87
0	511	87
0	512	87
0	513	87
0	355	88
0	356	88
0	357	88
0	358	88
0	359	88
0	360	88
0	484	88
0	485	88
0	486	88
0	487	88
0	488	88
0	489	88
0	508	88
0	509	88
0	510	88
0	511	88
0	512	88
0	357	89
0	358	89
0	359	89
0	360	89
0	361	89
0	362	89
0	363	89
0	364	89
0	483	89
0	484	89
0	487	89
0	488	89
0	489	89
0	490	89
0	506	89
0	507	89
0	508	89
0	509	89
0	510	89
0	360	90
0	361	90
0	362	90
0	363	90
0	364	90
0	365	90
0	482	90
0	483	90
0	488	90
0	489	90
0	490	90
0	491	90
0	492	90
0	504	90
0	505	90
0	506	90
0	507	90
0	508	90
0	509	90
0	363	91
0	364	91
0	365	91
0	366	91
0	367	91
0	368	91
0	369	91
0	479	91
0	481	91
0	482	91
0	490	91
0	491	91
0	492	91
0	493	91
0	494	91
0	495	91
0	496	91
0	497	91
0	498	91
0	499	91
0	500	91
0	501	91
0	502	91
0	503	91
0	504	91
0	505	91
0	506	91
0	507	91
0	508	91
0	365	92
0	366	92
0	367	92
0	368	92
0	369	92
0	370	92
0	478	92
0	479	92
0	480	92
0	481	92
0	482	92
0	492	92
0	493	92
0	494	92
0	495	92
0	496	92
0	497	92
0	498	92
0	499	92
0	500	92
0	501	92
0	502	92
0	503	92
0	504	92
0	505	92
0	506	92
0	367	93
0	368	93
0	369	93
0	370	93
0	371	93
0	372	93
0	373	93
0	374	93
0	464	93
0	465	93
0	466	93
0	476	93
0	477	93
0	478	93
0	479	93
0	480	93
0	481	93
0	496	93
0	497	93
0	498	93
0	373	94
0	374	94
0	375	94
0	376	94
0	377	94
0	378	94
0	379	94
0	463	94
0	464	94
0	465	94
0	476	94
0	477	94
0	478	94
0	376	95
0	377	95
0	378	95
0	379	95
0	380	95
0	381	95
0	382	95
0	383	95
0	384	95
0	385	95
0	406	95
0	407	95
0	408	95
0	462	95
0	469	95
0	470	95
0	475	95
0	476	95
0	477	95
0	478	95
0	380	96
0	381	96
0	382	96
0	383	96
0	384	96
0	385	96
0	386	96
0	387	96
0	388	96
0	389	96
0	390	96
0	391	96
0	392	96
0	393	96
0	394	96
0	395	96
0	396	96
0	397	96
0	398	96
0	399	96
0	400	96
0	401	96
0	402	96
0	403	96
0	404	96
0	405	96
0	406	96
0	407	96
0	408	96
0	409	96
0	410	96
0	461	96
0	462	96
0	465	96
0	466	96
0	467	96
0	468	96
0	469	96
0	470	96
0	471	96
0	474	96
0	475	96
0	476	96
0	477	96
0	386	97
0	387	97
0	388	97
0	389	97
0	390	97
0	391	97
0	392	97
0	393	97
0	394	97
0	395	97
0	396	97
0	397	97
0	398	97
0	399	97
0	400	97
0	401	97
0	402	97
0	403	97
0	406	97
0	407	97
0	408	97
0	409	97
0	410	97
0	411	97
0	412	97
0	413	97
0	414	97
0	461	97
0	462	97
0	463	97
0	464	97
0	465	97
0	466	97
0	467	97
0	468	97
0	469	97
0	470	97
0	471	97
0	472	97
0	473	97
0	474	97
0	475	97
0	476	97
0	390	98
0	391	98
0	392	98
0	393	98
0	394	98
0	395	98
0	396	98
0	397	98
0	398	98
0	399	98
0	410	98
0	411	98
0	412	98
0	413	98
0	414	98
0	415	98
0	416	98
0	417	98
0	418	98
0	419	98
0	420	98
0	460	98
0	461	98
0	462	98
0	463	98
0	464	98
0	469	98
0	470	98
0	471	98
0	472	98
0	473	98
0	474	98
0	475	98
0	414	99
0	415	99
0	416	99
0	417	99
0	418	99
0	419	99
0	420	99
0	421	99
0	422	99
0	423	99
0	424	99
0	425	99
0	426	99
0	427	99
0	428	99
0	429	99
0	460	99
0	461	99
0	462	99
0	472	99
0	473	99
0	474	99
0	416	100
0	417	100
0	418	100
0	419	100
0	420	100
0	421	100
0	422	100
0	423	100
0	424	100
0	425	100
0	426	100
0	427	100
0	428	100
0	429	100
0	430	100
0	431	100
0	432	100
0	433	100
0	459	100
0	460	100
0	461	100
0	424	101
0	425	101
0	426	101
0	427	101
0	428	101
0	429	101
0	430	101
0	431	101
0	432	101
0	433	101
0	434	101
0	435	101
0	436	101
0	437	101
0	438	101
0	459	101
0	460	101
0	461	101
0	428	102
0	429	102
0	430	102
0	431	102
0	432	102
0	433	102
0	434	102
0	435	102
0	436	102
0	437	102
0	438	102
0	439	102
0	440	102
0	441	102
0	442	102
0	443	102
0	444	102
0	459	102
0	460	102
0	461	102
0	437	103
0	438	103
0	439	103
0	440	103
0	441	103
0	442	103
0	443	103
0	444	103
0	445	103
0	446	103
0	459	103
0	460	103
0	461	103
0	440	104
0	441	104
0	442	104
0	443	104
0	444	104
0	445	104
0	446	104
0	447	104
0	448	104
0	449	104
0	459	104
0	460	104
0	445	105
0	446	105
0	447	105
0	448	105
0	449	105
0	450	105
0	451	105
0	452	105
0	453	105
0	454	105
0	457	105
0	458	105
0	459	105
0	460	105
0	447	106
0	448	106
0	449	106
0	450	106
0	451	106
0	452	106
0	453	106
0	454	106
0	455	106
0	456	106
0	457	106
0	458	106
0	459	106
0	460	106
0	450	107
0	451	107
0	452	107
0	453	107
0	454	107
0	455	107
0	456	107
0	457	107
0	458	107