ply
format ascii 1.0
element vertex 194
property float x
property float y
property float z
element face 0
property list uchar int vertex_index
end_header
0	303	-5
0	303	0
0	303	10
0	303	5
0	304	16
0	305	-12
0	305	-3
0	305	2
0	305	7
0	306	-9
0	306	12
0	306	24
0	307	-15
0	307	-18
0	307	-24
0	307	18
0	307	21
0	308	-21
0	308	-27
0	308	-34
0	308	-37
0	308	26
0	308	32
0	309	-31
0	309	29
0	309	35
0	310	-46
0	310	38
0	310	42
0	311	-41
0	311	43
0	312	-44
0	312	44
0	313	-49
0	314	-52
0	315	51
0	316	48
0	317	54
0	318	-60
0	320	-61
0	320	-65
0	322	59
0	322	61
0	323	-70
0	324	-69
0	326	64
0	329	-78
0	329	69
0	330	-77
0	332	72
0	335	73
0	339	77
0	345	-92
0	345	-93
0	346	-94
0	347	-95
0	347	82
0	348	79
0	350	-96
0	350	83
0	353	84
0	354	-98
0	354	-99
0	356	-101
0	356	86
0	357	-100
0	359	88
0	360	-102
0	361	-103
0	364	89
0	365	92
0	366	-101
0	370	-102
0	371	-103
0	371	93
0	372	-105
0	373	-104
0	377	94
0	377	95
0	381	-103
0	381	96
0	382	-105
0	383	-104
0	383	-106
0	391	96
0	392	-105
0	393	-104
0	393	-106
0	393	97
0	394	98
0	401	96
0	402	-105
0	403	-104
0	403	97
0	407	95
0	408	-103
0	409	-102
0	413	-101
0	414	-100
0	414	98
0	415	99
0	419	-99
0	423	-97
0	425	100
0	425	99
0	426	-98
0	428	102
0	432	101
0	436	-91
0	437	103
0	438	102
0	440	-87
0	440	-90
0	443	-86
0	443	-89
0	447	-83
0	447	-85
0	447	104
0	448	106
0	449	-81
0	450	105
0	454	-76
0	454	-80
0	456	-75
0	457	107
0	458	-74
0	458	106
0	459	-73
0	459	103
0	460	-72
0	460	100
0	461	-68
0	461	96
0	461	97
0	463	98
0	465	-67
0	467	-63
0	471	-62
0	471	97
0	474	99
0	475	-60
0	475	-61
0	475	96
0	476	-59
0	479	93
0	480	-58
0	482	-57
0	482	91
0	482	92
0	483	-55
0	483	-56
0	485	85
0	487	87
0	488	-54
0	488	90
0	493	-55
0	493	-56
0	498	-54
0	499	91
0	501	92
0	503	-55
0	503	-56
0	508	-54
0	509	89
0	509	90
0	510	88
0	513	-55
0	513	74
0	514	78
0	514	80
0	514	86
0	515	-56
0	515	75
0	516	45
0	516	70
0	517	67
0	518	46
0	518	49
0	518	52
0	518	57
0	519	55
0	519	62
0	519	65
0	520	-57
0	522	40
0	523	-58
0	524	-59
0	525	41
0	525	42
0	525	43
0	526	-60
0	531	-64
0	534	-63
0	534	-65