ply
format ascii 1.0
comment VCGLIB generated
element vertex 100
property float x
property float y
property float z
element face 200
property list uchar int vertex_indices
end_header
245 0 134 
245 1.253332 133.929 
245 2.486899 133.7173 
245 3.681246 133.368 
245 4.817537 132.8868 
245 5.877852 132.2812 
245 6.845471 131.5607 
245 7.705132 130.7368 
245 8.443279 129.8224 
245 9.04827 128.832 
245 9.510565 127.7812 
245 9.822872 126.6864 
245 9.980268 125.5651 
245 9.980268 124.4349 
245 9.822872 123.3136 
245 9.510565 122.2188 
245 9.04827 121.168 
245 8.443279 120.1776 
245 7.705132 119.2632 
245 6.845471 118.4393 
245 5.877852 117.7188 
245 4.817537 117.1132 
245 3.681246 116.632 
245 2.486899 116.2828 
245 1.253332 116.071 
245 1.224647e-15 116 
245 -1.253332 116.071 
245 -2.486899 116.2828 
245 -3.681246 116.632 
245 -4.817537 117.1132 
245 -5.877852 117.7188 
245 -6.845471 118.4393 
245 -7.705132 119.2632 
245 -8.443279 120.1776 
245 -9.04827 121.168 
245 -9.510565 122.2188 
245 -9.822872 123.3136 
245 -9.980268 124.4349 
245 -9.980268 125.5651 
245 -9.822872 126.6864 
245 -9.510565 127.7812 
245 -9.04827 128.832 
245 -8.443279 129.8224 
245 -7.705132 130.7368 
245 -6.845471 131.5607 
245 -5.877852 132.2812 
245 -4.817537 132.8868 
245 -3.681246 133.368 
245 -2.486899 133.7173 
245 -1.253332 133.929 
155 0 134 
155 1.253332 133.929 
155 2.486899 133.7173 
155 3.681246 133.368 
155 4.817537 132.8868 
155 5.877852 132.2812 
155 6.845471 131.5607 
155 7.705132 130.7368 
155 8.443279 129.8224 
155 9.04827 128.832 
155 9.510565 127.7812 
155 9.822872 126.6864 
155 9.980268 125.5651 
155 9.980268 124.4349 
155 9.822872 123.3136 
155 9.510565 122.2188 
155 9.04827 121.168 
155 8.443279 120.1776 
155 7.705132 119.2632 
155 6.845471 118.4393 
155 5.877852 117.7188 
155 4.817537 117.1132 
155 3.681246 116.632 
155 2.486899 116.2827 
155 1.253332 116.071 
155 1.224647e-15 116 
155 -1.253332 116.071 
155 -2.486899 116.2827 
155 -3.681246 116.632 
155 -4.817537 117.1132 
155 -5.877852 117.7188 
155 -6.845471 118.4393 
155 -7.705132 119.2632 
155 -8.443279 120.1776 
155 -9.04827 121.168 
155 -9.510565 122.2188 
155 -9.822872 123.3136 
155 -9.980268 124.4349 
155 -9.980268 125.5651 
155 -9.822872 126.6864 
155 -9.510565 127.7812 
155 -9.04827 128.832 
155 -8.443279 129.8224 
155 -7.705132 130.7368 
155 -6.845471 131.5607 
155 -5.877852 132.2812 
155 -4.817537 132.8868 
155 -3.681246 133.368 
155 -2.486899 133.7173 
155 -1.253332 133.929 
3 0 1 50 
3 1 51 50 
3 1 2 51 
3 2 52 51 
3 2 3 52 
3 3 53 52 
3 3 4 53 
3 4 54 53 
3 4 5 54 
3 5 55 54 
3 5 6 55 
3 6 56 55 
3 6 7 56 
3 7 57 56 
3 7 8 57 
3 8 58 57 
3 8 9 58 
3 9 59 58 
3 9 10 59 
3 10 60 59 
3 10 11 60 
3 11 61 60 
3 11 12 61 
3 12 62 61 
3 12 13 62 
3 13 63 62 
3 13 14 63 
3 14 64 63 
3 14 15 64 
3 15 65 64 
3 15 16 65 
3 16 66 65 
3 16 17 66 
3 17 67 66 
3 17 18 67 
3 18 68 67 
3 18 19 68 
3 19 69 68 
3 19 20 69 
3 20 70 69 
3 20 21 70 
3 21 71 70 
3 21 22 71 
3 22 72 71 
3 22 23 72 
3 23 73 72 
3 23 24 73 
3 24 74 73 
3 24 25 74 
3 25 75 74 
3 25 26 75 
3 26 76 75 
3 26 27 76 
3 27 77 76 
3 27 28 77 
3 28 78 77 
3 28 29 78 
3 29 79 78 
3 29 30 79 
3 30 80 79 
3 30 31 80 
3 31 81 80 
3 31 32 81 
3 32 82 81 
3 32 33 82 
3 33 83 82 
3 33 34 83 
3 34 84 83 
3 34 35 84 
3 35 85 84 
3 35 36 85 
3 36 86 85 
3 36 37 86 
3 37 87 86 
3 37 38 87 
3 38 88 87 
3 38 39 88 
3 39 89 88 
3 39 40 89 
3 40 90 89 
3 40 41 90 
3 41 91 90 
3 41 42 91 
3 42 92 91 
3 42 43 92 
3 43 93 92 
3 43 44 93 
3 44 94 93 
3 44 45 94 
3 45 95 94 
3 45 46 95 
3 46 96 95 
3 46 47 96 
3 47 97 96 
3 47 48 97 
3 48 98 97 
3 48 49 98 
3 49 99 98 
3 49 0 99 
3 0 50 99 
3 0 25 1 
3 1 26 2 
3 2 27 3 
3 3 28 4 
3 4 29 5 
3 5 30 6 
3 6 31 7 
3 7 32 8 
3 8 33 9 
3 9 34 10 
3 10 35 11 
3 11 36 12 
3 12 37 13 
3 13 38 14 
3 14 39 15 
3 15 40 16 
3 16 41 17 
3 17 42 18 
3 18 43 19 
3 19 44 20 
3 20 45 21 
3 21 46 22 
3 22 47 23 
3 23 48 24 
3 24 49 25 
3 25 0 26 
3 26 1 27 
3 27 2 28 
3 28 3 29 
3 29 4 30 
3 30 5 31 
3 31 6 32 
3 32 7 33 
3 33 8 34 
3 34 9 35 
3 35 10 36 
3 36 11 37 
3 37 12 38 
3 38 13 39 
3 39 14 40 
3 40 15 41 
3 41 16 42 
3 42 17 43 
3 43 18 44 
3 44 19 45 
3 45 20 46 
3 46 21 47 
3 47 22 48 
3 48 23 49 
3 49 24 0 
3 51 75 50 
3 52 76 51 
3 53 77 52 
3 54 78 53 
3 55 79 54 
3 56 80 55 
3 57 81 56 
3 58 82 57 
3 59 83 58 
3 60 84 59 
3 61 85 60 
3 62 86 61 
3 63 87 62 
3 64 88 63 
3 65 89 64 
3 66 90 65 
3 67 91 66 
3 68 92 67 
3 69 93 68 
3 70 94 69 
3 71 95 70 
3 72 96 71 
3 73 97 72 
3 74 98 73 
3 75 99 74 
3 76 50 75 
3 77 51 76 
3 78 52 77 
3 79 53 78 
3 80 54 79 
3 81 55 80 
3 82 56 81 
3 83 57 82 
3 84 58 83 
3 85 59 84 
3 86 60 85 
3 87 61 86 
3 88 62 87 
3 89 63 88 
3 90 64 89 
3 91 65 90 
3 92 66 91 
3 93 67 92 
3 94 68 93 
3 95 69 94 
3 96 70 95 
3 97 71 96 
3 98 72 97 
3 99 73 98 
3 50 74 99 
