ply
format ascii 1.0
element vertex 530
property float x
property float y
property float z
element face 0
property list uchar int vertex_index
end_header
0.0000 1927.0000 0.0000
0.0000 1928.0000 0.0000
0.0000 1929.0000 0.0000
0.0000 1930.0000 0.0000
0.0000 1931.0000 0.0000
0.0000 1932.0000 0.0000
0.0000 1940.0000 0.0000
0.0000 1941.0000 0.0000
0.0000 1942.0000 0.0000
0.0000 1943.0000 0.0000
-1.0000 1944.0000 0.0000
0.0000 1944.0000 0.0000
-2.0000 1945.0000 0.0000
-1.0000 1945.0000 0.0000
0.0000 1945.0000 0.0000
-2.0000 1946.0000 0.0000
-1.0000 1946.0000 0.0000
0.0000 1946.0000 0.0000
-4.0000 1947.0000 0.0000
-3.0000 1947.0000 0.0000
-2.0000 1947.0000 0.0000
-1.0000 1947.0000 0.0000
-5.0000 1948.0000 0.0000
-4.0000 1948.0000 0.0000
-3.0000 1948.0000 0.0000
-2.0000 1948.0000 0.0000
-6.0000 1949.0000 0.0000
-5.0000 1949.0000 0.0000
-4.0000 1949.0000 0.0000
-3.0000 1949.0000 0.0000
-6.0000 1950.0000 0.0000
-5.0000 1950.0000 0.0000
-4.0000 1950.0000 0.0000
-7.0000 1951.0000 0.0000
-6.0000 1951.0000 0.0000
-5.0000 1951.0000 0.0000
-7.0000 1952.0000 0.0000
-6.0000 1952.0000 0.0000
-5.0000 1952.0000 0.0000
-7.0000 1953.0000 0.0000
-6.0000 1953.0000 0.0000
-8.0000 1954.0000 0.0000
-7.0000 1954.0000 0.0000
-9.0000 1955.0000 0.0000
-8.0000 1955.0000 0.0000
-10.0000 1956.0000 0.0000
-9.0000 1956.0000 0.0000
-8.0000 1956.0000 0.0000
-10.0000 1957.0000 0.0000
-9.0000 1957.0000 0.0000
-11.0000 1958.0000 0.0000
-10.0000 1958.0000 0.0000
-13.0000 1959.0000 0.0000
-12.0000 1959.0000 0.0000
-11.0000 1959.0000 0.0000
-14.0000 1960.0000 0.0000
-13.0000 1960.0000 0.0000
-12.0000 1960.0000 0.0000
-11.0000 1960.0000 0.0000
-15.0000 1961.0000 0.0000
-14.0000 1961.0000 0.0000
-13.0000 1961.0000 0.0000
-12.0000 1961.0000 0.0000
-16.0000 1962.0000 0.0000
-15.0000 1962.0000 0.0000
-14.0000 1962.0000 0.0000
-17.0000 1963.0000 0.0000
-16.0000 1963.0000 0.0000
-15.0000 1963.0000 0.0000
-18.0000 1964.0000 0.0000
-17.0000 1964.0000 0.0000
-16.0000 1964.0000 0.0000
-20.0000 1965.0000 0.0000
-19.0000 1965.0000 0.0000
-18.0000 1965.0000 0.0000
-17.0000 1965.0000 0.0000
-21.0000 1966.0000 0.0000
-20.0000 1966.0000 0.0000
-19.0000 1966.0000 0.0000
-18.0000 1966.0000 0.0000
-23.0000 1967.0000 0.0000
-22.0000 1967.0000 0.0000
-21.0000 1967.0000 0.0000
-20.0000 1967.0000 0.0000
-19.0000 1967.0000 0.0000
-24.0000 1968.0000 0.0000
-23.0000 1968.0000 0.0000
-22.0000 1968.0000 0.0000
-21.0000 1968.0000 0.0000
-27.0000 1969.0000 0.0000
-26.0000 1969.0000 0.0000
-25.0000 1969.0000 0.0000
-24.0000 1969.0000 0.0000
-23.0000 1969.0000 0.0000
-22.0000 1969.0000 0.0000
-29.0000 1970.0000 0.0000
-28.0000 1970.0000 0.0000
-27.0000 1970.0000 0.0000
-26.0000 1970.0000 0.0000
-25.0000 1970.0000 0.0000
-24.0000 1970.0000 0.0000
-23.0000 1970.0000 0.0000
-30.0000 1971.0000 0.0000
-29.0000 1971.0000 0.0000
-28.0000 1971.0000 0.0000
-27.0000 1971.0000 0.0000
-26.0000 1971.0000 0.0000
-25.0000 1971.0000 0.0000
-24.0000 1971.0000 0.0000
-31.0000 1972.0000 0.0000
-30.0000 1972.0000 0.0000
-29.0000 1972.0000 0.0000
-28.0000 1972.0000 0.0000
-27.0000 1972.0000 0.0000
-26.0000 1972.0000 0.0000
-25.0000 1972.0000 0.0000
-15.0000 1972.0000 0.0000
-14.0000 1972.0000 0.0000
-13.0000 1972.0000 0.0000
-12.0000 1972.0000 0.0000
-11.0000 1972.0000 0.0000
-32.0000 1973.0000 0.0000
-31.0000 1973.0000 0.0000
-30.0000 1973.0000 0.0000
-29.0000 1973.0000 0.0000
-28.0000 1973.0000 0.0000
-27.0000 1973.0000 0.0000
-26.0000 1973.0000 0.0000
-32.0000 1974.0000 0.0000
-31.0000 1974.0000 0.0000
-30.0000 1974.0000 0.0000
-29.0000 1974.0000 0.0000
-28.0000 1974.0000 0.0000
-27.0000 1974.0000 0.0000
-19.0000 1974.0000 0.0000
-9.0000 1974.0000 0.0000
-48.0000 1975.0000 0.0000
-33.0000 1975.0000 0.0000
-32.0000 1975.0000 0.0000
-31.0000 1975.0000 0.0000
-30.0000 1975.0000 0.0000
-29.0000 1975.0000 0.0000
-52.0000 1976.0000 0.0000
-51.0000 1976.0000 0.0000
-50.0000 1976.0000 0.0000
-49.0000 1976.0000 0.0000
-48.0000 1976.0000 0.0000
-47.0000 1976.0000 0.0000
-46.0000 1976.0000 0.0000
-40.0000 1976.0000 0.0000
-39.0000 1976.0000 0.0000
-38.0000 1976.0000 0.0000
-33.0000 1976.0000 0.0000
-32.0000 1976.0000 0.0000
-31.0000 1976.0000 0.0000
-7.0000 1976.0000 0.0000
-54.0000 1977.0000 0.0000
-53.0000 1977.0000 0.0000
-52.0000 1977.0000 0.0000
-51.0000 1977.0000 0.0000
-50.0000 1977.0000 0.0000
-49.0000 1977.0000 0.0000
-48.0000 1977.0000 0.0000
-47.0000 1977.0000 0.0000
-46.0000 1977.0000 0.0000
-45.0000 1977.0000 0.0000
-44.0000 1977.0000 0.0000
-43.0000 1977.0000 0.0000
-42.0000 1977.0000 0.0000
-41.0000 1977.0000 0.0000
-40.0000 1977.0000 0.0000
-39.0000 1977.0000 0.0000
-38.0000 1977.0000 0.0000
-37.0000 1977.0000 0.0000
-36.0000 1977.0000 0.0000
-33.0000 1977.0000 0.0000
-8.0000 1977.0000 0.0000
-7.0000 1977.0000 0.0000
-6.0000 1977.0000 0.0000
-1.0000 1977.0000 0.0000
-55.0000 1978.0000 0.0000
-54.0000 1978.0000 0.0000
-53.0000 1978.0000 0.0000
-52.0000 1978.0000 0.0000
-51.0000 1978.0000 0.0000
-50.0000 1978.0000 0.0000
-49.0000 1978.0000 0.0000
-48.0000 1978.0000 0.0000
-47.0000 1978.0000 0.0000
-46.0000 1978.0000 0.0000
-45.0000 1978.0000 0.0000
-44.0000 1978.0000 0.0000
-43.0000 1978.0000 0.0000
-42.0000 1978.0000 0.0000
-41.0000 1978.0000 0.0000
-40.0000 1978.0000 0.0000
-39.0000 1978.0000 0.0000
-38.0000 1978.0000 0.0000
-37.0000 1978.0000 0.0000
-36.0000 1978.0000 0.0000
-35.0000 1978.0000 0.0000
-34.0000 1978.0000 0.0000
-8.0000 1978.0000 0.0000
-7.0000 1978.0000 0.0000
-6.0000 1978.0000 0.0000
-2.0000 1978.0000 0.0000
-1.0000 1978.0000 0.0000
0.0000 1978.0000 0.0000
-56.0000 1979.0000 0.0000
-55.0000 1979.0000 0.0000
-54.0000 1979.0000 0.0000
-53.0000 1979.0000 0.0000
-52.0000 1979.0000 0.0000
-51.0000 1979.0000 0.0000
-50.0000 1979.0000 0.0000
-49.0000 1979.0000 0.0000
-48.0000 1979.0000 0.0000
-47.0000 1979.0000 0.0000
-46.0000 1979.0000 0.0000
-45.0000 1979.0000 0.0000
-44.0000 1979.0000 0.0000
-43.0000 1979.0000 0.0000
-36.0000 1979.0000 0.0000
-35.0000 1979.0000 0.0000
-9.0000 1979.0000 0.0000
-8.0000 1979.0000 0.0000
-2.0000 1979.0000 0.0000
-1.0000 1979.0000 0.0000
0.0000 1979.0000 0.0000
-56.0000 1980.0000 0.0000
-55.0000 1980.0000 0.0000
-54.0000 1980.0000 0.0000
-53.0000 1980.0000 0.0000
-48.0000 1980.0000 0.0000
-47.0000 1980.0000 0.0000
-46.0000 1980.0000 0.0000
-45.0000 1980.0000 0.0000
-44.0000 1980.0000 0.0000
-36.0000 1980.0000 0.0000
-35.0000 1980.0000 0.0000
-24.0000 1980.0000 0.0000
-23.0000 1980.0000 0.0000
0.0000 1980.0000 0.0000
-57.0000 1981.0000 0.0000
-56.0000 1981.0000 0.0000
-55.0000 1981.0000 0.0000
-54.0000 1981.0000 0.0000
-53.0000 1981.0000 0.0000
-48.0000 1981.0000 0.0000
-47.0000 1981.0000 0.0000
-46.0000 1981.0000 0.0000
-45.0000 1981.0000 0.0000
-37.0000 1981.0000 0.0000
-36.0000 1981.0000 0.0000
-35.0000 1981.0000 0.0000
-25.0000 1981.0000 0.0000
-24.0000 1981.0000 0.0000
-23.0000 1981.0000 0.0000
-22.0000 1981.0000 0.0000
-21.0000 1981.0000 0.0000
-57.0000 1982.0000 0.0000
-56.0000 1982.0000 0.0000
-55.0000 1982.0000 0.0000
-54.0000 1982.0000 0.0000
-48.0000 1982.0000 0.0000
-47.0000 1982.0000 0.0000
-46.0000 1982.0000 0.0000
-39.0000 1982.0000 0.0000
-38.0000 1982.0000 0.0000
-37.0000 1982.0000 0.0000
-36.0000 1982.0000 0.0000
-35.0000 1982.0000 0.0000
-34.0000 1982.0000 0.0000
-58.0000 1983.0000 0.0000
-57.0000 1983.0000 0.0000
-56.0000 1983.0000 0.0000
-55.0000 1983.0000 0.0000
-54.0000 1983.0000 0.0000
-49.0000 1983.0000 0.0000
-48.0000 1983.0000 0.0000
-40.0000 1983.0000 0.0000
-39.0000 1983.0000 0.0000
-36.0000 1983.0000 0.0000
-35.0000 1983.0000 0.0000
-34.0000 1983.0000 0.0000
-33.0000 1983.0000 0.0000
-32.0000 1983.0000 0.0000
-13.0000 1983.0000 0.0000
-58.0000 1984.0000 0.0000
-57.0000 1984.0000 0.0000
-56.0000 1984.0000 0.0000
-55.0000 1984.0000 0.0000
-50.0000 1984.0000 0.0000
-49.0000 1984.0000 0.0000
-42.0000 1984.0000 0.0000
-41.0000 1984.0000 0.0000
-40.0000 1984.0000 0.0000
-35.0000 1984.0000 0.0000
-34.0000 1984.0000 0.0000
-33.0000 1984.0000 0.0000
-32.0000 1984.0000 0.0000
-31.0000 1984.0000 0.0000
-25.0000 1984.0000 0.0000
-24.0000 1984.0000 0.0000
-23.0000 1984.0000 0.0000
-22.0000 1984.0000 0.0000
-21.0000 1984.0000 0.0000
-20.0000 1984.0000 0.0000
-13.0000 1984.0000 0.0000
-58.0000 1985.0000 0.0000
-57.0000 1985.0000 0.0000
-56.0000 1985.0000 0.0000
-55.0000 1985.0000 0.0000
-51.0000 1985.0000 0.0000
-50.0000 1985.0000 0.0000
-49.0000 1985.0000 0.0000
-33.0000 1985.0000 0.0000
-32.0000 1985.0000 0.0000
-31.0000 1985.0000 0.0000
-24.0000 1985.0000 0.0000
-23.0000 1985.0000 0.0000
-22.0000 1985.0000 0.0000
-21.0000 1985.0000 0.0000
-20.0000 1985.0000 0.0000
-13.0000 1985.0000 0.0000
-58.0000 1986.0000 0.0000
-57.0000 1986.0000 0.0000
-56.0000 1986.0000 0.0000
-55.0000 1986.0000 0.0000
-51.0000 1986.0000 0.0000
-50.0000 1986.0000 0.0000
-43.0000 1986.0000 0.0000
-22.0000 1986.0000 0.0000
-21.0000 1986.0000 0.0000
-14.0000 1986.0000 0.0000
-13.0000 1986.0000 0.0000
-58.0000 1987.0000 0.0000
-57.0000 1987.0000 0.0000
-56.0000 1987.0000 0.0000
-55.0000 1987.0000 0.0000
-51.0000 1987.0000 0.0000
-44.0000 1987.0000 0.0000
-13.0000 1987.0000 0.0000
-57.0000 1988.0000 0.0000
-56.0000 1988.0000 0.0000
-55.0000 1988.0000 0.0000
-51.0000 1988.0000 0.0000
-44.0000 1988.0000 0.0000
-13.0000 1988.0000 0.0000
-57.0000 1989.0000 0.0000
-56.0000 1989.0000 0.0000
-55.0000 1989.0000 0.0000
-54.0000 1989.0000 0.0000
-52.0000 1989.0000 0.0000
-51.0000 1989.0000 0.0000
-50.0000 1989.0000 0.0000
-44.0000 1989.0000 0.0000
-13.0000 1989.0000 0.0000
-57.0000 1990.0000 0.0000
-56.0000 1990.0000 0.0000
-55.0000 1990.0000 0.0000
-54.0000 1990.0000 0.0000
-53.0000 1990.0000 0.0000
-52.0000 1990.0000 0.0000
-51.0000 1990.0000 0.0000
-50.0000 1990.0000 0.0000
-45.0000 1990.0000 0.0000
-44.0000 1990.0000 0.0000
-33.0000 1990.0000 0.0000
-14.0000 1990.0000 0.0000
-13.0000 1990.0000 0.0000
-12.0000 1990.0000 0.0000
-56.0000 1991.0000 0.0000
-55.0000 1991.0000 0.0000
-54.0000 1991.0000 0.0000
-53.0000 1991.0000 0.0000
-52.0000 1991.0000 0.0000
-51.0000 1991.0000 0.0000
-50.0000 1991.0000 0.0000
-49.0000 1991.0000 0.0000
-44.0000 1991.0000 0.0000
-33.0000 1991.0000 0.0000
-15.0000 1991.0000 0.0000
-14.0000 1991.0000 0.0000
-13.0000 1991.0000 0.0000
-12.0000 1991.0000 0.0000
-11.0000 1991.0000 0.0000
-55.0000 1992.0000 0.0000
-54.0000 1992.0000 0.0000
-53.0000 1992.0000 0.0000
-52.0000 1992.0000 0.0000
-51.0000 1992.0000 0.0000
-50.0000 1992.0000 0.0000
-49.0000 1992.0000 0.0000
-44.0000 1992.0000 0.0000
-33.0000 1992.0000 0.0000
-16.0000 1992.0000 0.0000
-15.0000 1992.0000 0.0000
-14.0000 1992.0000 0.0000
-13.0000 1992.0000 0.0000
-12.0000 1992.0000 0.0000
-11.0000 1992.0000 0.0000
-54.0000 1993.0000 0.0000
-53.0000 1993.0000 0.0000
-52.0000 1993.0000 0.0000
-51.0000 1993.0000 0.0000
-50.0000 1993.0000 0.0000
-49.0000 1993.0000 0.0000
-48.0000 1993.0000 0.0000
-45.0000 1993.0000 0.0000
-44.0000 1993.0000 0.0000
-43.0000 1993.0000 0.0000
-33.0000 1993.0000 0.0000
-32.0000 1993.0000 0.0000
-17.0000 1993.0000 0.0000
-16.0000 1993.0000 0.0000
-15.0000 1993.0000 0.0000
-14.0000 1993.0000 0.0000
-13.0000 1993.0000 0.0000
-12.0000 1993.0000 0.0000
-11.0000 1993.0000 0.0000
-10.0000 1993.0000 0.0000
-9.0000 1993.0000 0.0000
-50.0000 1994.0000 0.0000
-49.0000 1994.0000 0.0000
-48.0000 1994.0000 0.0000
-47.0000 1994.0000 0.0000
-46.0000 1994.0000 0.0000
-45.0000 1994.0000 0.0000
-44.0000 1994.0000 0.0000
-43.0000 1994.0000 0.0000
-33.0000 1994.0000 0.0000
-32.0000 1994.0000 0.0000
-31.0000 1994.0000 0.0000
-18.0000 1994.0000 0.0000
-17.0000 1994.0000 0.0000
-16.0000 1994.0000 0.0000
-15.0000 1994.0000 0.0000
-14.0000 1994.0000 0.0000
-13.0000 1994.0000 0.0000
-12.0000 1994.0000 0.0000
-11.0000 1994.0000 0.0000
-10.0000 1994.0000 0.0000
-9.0000 1994.0000 0.0000
-8.0000 1994.0000 0.0000
-49.0000 1995.0000 0.0000
-48.0000 1995.0000 0.0000
-47.0000 1995.0000 0.0000
-46.0000 1995.0000 0.0000
-45.0000 1995.0000 0.0000
-44.0000 1995.0000 0.0000
-43.0000 1995.0000 0.0000
-42.0000 1995.0000 0.0000
-34.0000 1995.0000 0.0000
-33.0000 1995.0000 0.0000
-32.0000 1995.0000 0.0000
-31.0000 1995.0000 0.0000
-30.0000 1995.0000 0.0000
-28.0000 1995.0000 0.0000
-27.0000 1995.0000 0.0000
-20.0000 1995.0000 0.0000
-19.0000 1995.0000 0.0000
-18.0000 1995.0000 0.0000
-17.0000 1995.0000 0.0000
-16.0000 1995.0000 0.0000
-10.0000 1995.0000 0.0000
-9.0000 1995.0000 0.0000
-8.0000 1995.0000 0.0000
-7.0000 1995.0000 0.0000
-6.0000 1995.0000 0.0000
-48.0000 1996.0000 0.0000
-47.0000 1996.0000 0.0000
-46.0000 1996.0000 0.0000
-45.0000 1996.0000 0.0000
-44.0000 1996.0000 0.0000
-43.0000 1996.0000 0.0000
-42.0000 1996.0000 0.0000
-41.0000 1996.0000 0.0000
-36.0000 1996.0000 0.0000
-35.0000 1996.0000 0.0000
-34.0000 1996.0000 0.0000
-33.0000 1996.0000 0.0000
-32.0000 1996.0000 0.0000
-31.0000 1996.0000 0.0000
-30.0000 1996.0000 0.0000
-29.0000 1996.0000 0.0000
-28.0000 1996.0000 0.0000
-27.0000 1996.0000 0.0000
-26.0000 1996.0000 0.0000
-23.0000 1996.0000 0.0000
-22.0000 1996.0000 0.0000
-21.0000 1996.0000 0.0000
-20.0000 1996.0000 0.0000
-19.0000 1996.0000 0.0000
-18.0000 1996.0000 0.0000
-9.0000 1996.0000 0.0000
-8.0000 1996.0000 0.0000
-7.0000 1996.0000 0.0000
-6.0000 1996.0000 0.0000
-5.0000 1996.0000 0.0000
-4.0000 1996.0000 0.0000
-3.0000 1996.0000 0.0000
-2.0000 1996.0000 0.0000
-1.0000 1996.0000 0.0000
0.0000 1996.0000 0.0000
-37.0000 1997.0000 0.0000
-36.0000 1997.0000 0.0000
-35.0000 1997.0000 0.0000
-34.0000 1997.0000 0.0000
-26.0000 1997.0000 0.0000
-25.0000 1997.0000 0.0000
-24.0000 1997.0000 0.0000
-23.0000 1997.0000 0.0000
-22.0000 1997.0000 0.0000
-21.0000 1997.0000 0.0000
-20.0000 1997.0000 0.0000
-7.0000 1997.0000 0.0000
-6.0000 1997.0000 0.0000
-5.0000 1997.0000 0.0000
-4.0000 1997.0000 0.0000
-3.0000 1997.0000 0.0000
-2.0000 1997.0000 0.0000
-1.0000 1997.0000 0.0000
0.0000 1997.0000 0.0000
-38.0000 1998.0000 0.0000
-37.0000 1998.0000 0.0000
-36.0000 1998.0000 0.0000
-2.0000 1998.0000 0.0000
-1.0000 1998.0000 0.0000
0.0000 1998.0000 0.0000
