ply
format ascii 1.0           
element vertex 144
property float x           
property float y           
property float z           
element face 96
property list uchar int vertex_index 
end_header    
1.500000	0.000000	0.000000
2.000000	1.000000	0.000000
1.500000	3.000000	0.000000
1.299000	0.000000	0.750000
1.732000	1.000000	1.000000
1.299000	3.000000	0.750000
0.749934	0.000000	1.299000
0.999912	1.000000	1.732000
0.749934	3.000000	1.299000
-0.000057	0.000000	1.499901
-0.000076	1.000000	1.999868
-0.000057	3.000000	1.499901
-0.750000	0.000000	1.298886
-1.000000	1.000000	1.731848
-0.750000	3.000000	1.298886
-1.298943	0.000000	0.749835
-1.731924	1.000000	0.999780
-1.298943	3.000000	0.749835
-1.499802	0.000000	-0.000114
-1.999736	1.000000	-0.000152
-1.499802	3.000000	-0.000114
-1.298771	0.000000	-0.750000
-1.731695	1.000000	-1.000000
-1.298771	3.000000	-0.750000
-0.749736	0.000000	-1.298886
-0.999648	1.000000	-1.731848
-0.749736	3.000000	-1.298886
0.000171	0.000000	-1.499703
0.000229	1.000000	-1.999604
0.000171	3.000000	-1.499703
0.750000	0.000000	-1.298657
1.000000	1.000000	-1.731543
0.750000	3.000000	-1.298657
1.298828	0.000000	-0.749637
1.731771	1.000000	-0.999516
1.298828	3.000000	-0.749637
1.627413	0.212375	0.000000
1.927309	1.623076	0.000000
1.441352	3.099495	0.000000
1.409340	0.212375	0.813706
1.669050	1.623076	0.963655
1.248211	3.099495	0.720676
0.813635	0.212375	1.409340
0.963570	1.623076	1.669050
0.720613	3.099495	1.248211
-0.000062	0.212375	1.627306
-0.000073	1.623076	1.927182
-0.000055	3.099495	1.441257
-0.813706	0.212375	1.409216
-0.963655	1.623076	1.668903
-0.720676	3.099495	1.248101
-1.409278	0.212375	0.813527
-1.668976	1.623076	0.963443
-1.248156	3.099495	0.720518
-1.627198	0.212375	-0.000124
-1.927055	1.623076	-0.000147
-1.441162	3.099495	-0.000110
-1.409092	0.212375	-0.813706
-1.668756	1.623076	-0.963655
-1.247991	3.099495	-0.720676
-0.813420	0.212375	-1.409216
-0.963315	1.623076	-1.668903
-0.720423	3.099495	-1.248101
0.000186	0.212375	-1.627091
0.000220	1.623076	-1.926928
0.000165	3.099495	-1.441067
0.813706	0.212375	-1.408968
0.963655	1.623076	-1.668609
0.720676	3.099495	-1.247882
1.409154	0.212375	-0.813313
1.668829	1.623076	-0.963188
1.248046	3.099495	-0.720327
1.865904	0.510998	0.000000
1.745174	2.289930	0.000000
1.393159	3.100980	0.000000
1.615873	0.510998	0.932952
1.511321	2.289930	0.872587
1.206476	3.100980	0.696580
0.932870	0.510998	1.615873
0.872510	2.289930	1.511321
0.696518	3.100980	1.206476
-0.000071	0.510998	1.865781
-0.000067	2.289930	1.745059
-0.000053	3.100980	1.393067
-0.932952	0.510998	1.615731
-0.872587	2.289930	1.511188
-0.696580	3.100980	1.206370
-1.615802	0.510998	0.932747
-1.511254	2.289930	0.872395
-1.206423	3.100980	0.696426
-1.865658	0.510998	-0.000142
-1.744943	2.289930	-0.000133
-1.392975	3.100980	-0.000106
-1.615588	0.510998	-0.932952
-1.511055	2.289930	-0.872587
-1.206263	3.100980	-0.696580
-0.932624	0.510998	-1.615731
-0.872280	2.289930	-1.511188
-0.696334	3.100980	-1.206370
0.000213	0.510998	-1.865534
0.000199	2.289930	-1.744828
0.000159	3.100980	-1.392883
0.932952	0.510998	-1.615446
0.872587	2.289930	-1.510922
0.696579	3.100980	-1.206157
1.615659	0.510998	-0.932500
1.511121	2.289930	-0.872165
1.206316	3.100980	-0.696242
2.000000	1.000000	0.000000
1.500000	3.000000	0.000000
1.400000	3.000000	0.000000
1.732000	1.000000	1.000000
1.299000	3.000000	0.750000
1.212400	3.000000	0.700000
0.999912	1.000000	1.732000
0.749934	3.000000	1.299000
0.699938	3.000000	1.212400
-0.000076	1.000000	1.999868
-0.000057	3.000000	1.499901
-0.000053	3.000000	1.399908
-1.000000	1.000000	1.731848
-0.750000	3.000000	1.298886
-0.700000	3.000000	1.212293
-1.731924	1.000000	0.999780
-1.298943	3.000000	0.749835
-1.212347	3.000000	0.699846
-1.999736	1.000000	-0.000152
-1.499802	3.000000	-0.000114
-1.399815	3.000000	-0.000107
-1.731695	1.000000	-1.000000
-1.298771	3.000000	-0.750000
-1.212187	3.000000	-0.700000
-0.999648	1.000000	-1.731848
-0.749736	3.000000	-1.298886
-0.699754	3.000000	-1.212293
0.000229	1.000000	-1.999604
0.000171	3.000000	-1.499703
0.000160	3.000000	-1.399723
1.000000	1.000000	-1.731543
0.750000	3.000000	-1.298657
0.700000	3.000000	-1.212080
1.731771	1.000000	-0.999516
1.298828	3.000000	-0.749637
1.212240	3.000000	-0.699661
4 0 1 4 3
4 1 2 5 4
4 3 4 7 6
4 4 5 8 7
4 6 7 10 9
4 7 8 11 10
4 9 10 13 12
4 10 11 14 13
4 12 13 16 15
4 13 14 17 16
4 15 16 19 18
4 16 17 20 19
4 18 19 22 21
4 19 20 23 22
4 21 22 25 24
4 22 23 26 25
4 24 25 28 27
4 25 26 29 28
4 27 28 31 30
4 28 29 32 31
4 30 31 34 33
4 31 32 35 34
4 36 37 40 39
4 37 38 41 40
4 39 40 43 42
4 40 41 44 43
4 42 43 46 45
4 43 44 47 46
4 45 46 49 48
4 46 47 50 49
4 48 49 52 51
4 49 50 53 52
4 51 52 55 54
4 52 53 56 55
4 54 55 58 57
4 55 56 59 58
4 57 58 61 60
4 58 59 62 61
4 60 61 64 63
4 61 62 65 64
4 63 64 67 66
4 64 65 68 67
4 66 67 70 69
4 67 68 71 70
4 72 73 76 75
4 73 74 77 76
4 75 76 79 78
4 76 77 80 79
4 78 79 82 81
4 79 80 83 82
4 81 82 85 84
4 82 83 86 85
4 84 85 88 87
4 85 86 89 88
4 87 88 91 90
4 88 89 92 91
4 90 91 94 93
4 91 92 95 94
4 93 94 97 96
4 94 95 98 97
4 96 97 100 99
4 97 98 101 100
4 99 100 103 102
4 100 101 104 103
4 102 103 106 105
4 103 104 107 106
4 108 109 112 111
4 109 110 113 112
4 111 112 115 114
4 112 113 116 115
4 114 115 118 117
4 115 116 119 118
4 117 118 121 120
4 118 119 122 121
4 120 121 124 123
4 121 122 125 124
4 123 124 127 126
4 124 125 128 127
4 126 127 130 129
4 127 128 131 130
4 129 130 133 132
4 130 131 134 133
4 132 133 136 135
4 133 134 137 136
4 135 136 139 138
4 136 137 140 139
4 138 139 142 141
4 139 140 143 142
4	33	34	1	0
4	34	35	2	1
4	69	70  37	36	
4	70	71	38 	37
4	105	106	73	72
4	106	107	74	73
4	141	142	109	108
4	142	143	110	109