ply
format ascii 1.0
element vertex 100
property float x
property float y
property float z
element face 200
property list uchar int vertex_indices
end_header
5.0 0.0 -50.0
4.9605735065723895 0.6266661678215213 -50.0
4.842915805643155 1.243449435824274 -50.0
4.648882429441257 1.8406227634233896 -50.0
4.381533400219318 2.4087683705085765 -50.0
4.045084971874737 2.938926261462366 -50.0
3.644843137107058 3.422735529643443 -50.0
3.1871199487434487 3.852566213878946 -50.0
2.6791339748949827 4.221639627510076 -50.0
2.1288964578253635 4.524135262330098 -50.0
1.5450849718747373 4.755282581475767 -50.0
0.9369065729286237 4.911436253643443 -50.0
0.31395259764656763 4.990133642141358 -50.0
-0.313952597646567 4.990133642141358 -50.0
-0.936906572928623 4.911436253643443 -50.0
-1.5450849718747355 4.755282581475768 -50.0
-2.1288964578253635 4.524135262330097 -50.0
-2.6791339748949845 4.221639627510075 -50.0
-3.1871199487434487 3.852566213878946 -50.0
-3.6448431371070567 3.422735529643444 -50.0
-4.045084971874736 2.9389262614623664 -50.0
-4.381533400219318 2.408768370508576 -50.0
-4.648882429441256 1.8406227634233907 -50.0
-4.8429158056431545 1.2434494358242763 -50.0
-4.960573506572389 0.6266661678215226 -50.0
-5.0 6.123233995736766e-16 -50.0
-4.9605735065723895 -0.6266661678215214 -50.0
-4.842915805643156 -1.243449435824273 -50.0
-4.648882429441257 -1.8406227634233896 -50.0
-4.381533400219318 -2.408768370508577 -50.0
-4.045084971874739 -2.9389262614623632 -50.0
-3.6448431371070593 -3.422735529643442 -50.0
-3.1871199487434474 -3.852566213878947 -50.0
-2.679133974894982 -4.2216396275100765 -50.0
-2.128896457825361 -4.524135262330099 -50.0
-1.5450849718747377 -4.755282581475767 -50.0
-0.9369065729286231 -4.911436253643443 -50.0
-0.313952597646566 -4.990133642141358 -50.0
0.31395259764656414 -4.990133642141358 -50.0
0.9369065729286213 -4.911436253643443 -50.0
1.5450849718747361 -4.755282581475768 -50.0
2.128896457825359 -4.524135262330099 -50.0
2.6791339748949836 -4.221639627510075 -50.0
3.1871199487434465 -3.852566213878948 -50.0
3.644843137107056 -3.422735529643445 -50.0
4.045084971874736 -2.938926261462367 -50.0
4.381533400219316 -2.4087683705085805 -50.0
4.648882429441257 -1.8406227634233894 -50.0
4.8429158056431545 -1.2434494358242767 -50.0
4.960573506572389 -0.6266661678215233 -50.0
5.0 0.0 50.0
4.9605735065723895 0.6266661678215213 50.0
4.842915805643155 1.243449435824274 50.0
4.648882429441257 1.8406227634233896 50.0
4.381533400219318 2.4087683705085765 50.0
4.045084971874737 2.938926261462366 50.0
3.644843137107058 3.422735529643443 50.0
3.1871199487434487 3.852566213878946 50.0
2.6791339748949827 4.221639627510076 50.0
2.1288964578253635 4.524135262330098 50.0
1.5450849718747373 4.755282581475767 50.0
0.9369065729286237 4.911436253643443 50.0
0.31395259764656763 4.990133642141358 50.0
-0.313952597646567 4.990133642141358 50.0
-0.936906572928623 4.911436253643443 50.0
-1.5450849718747355 4.755282581475768 50.0
-2.1288964578253635 4.524135262330097 50.0
-2.6791339748949845 4.221639627510075 50.0
-3.1871199487434487 3.852566213878946 50.0
-3.6448431371070567 3.422735529643444 50.0
-4.045084971874736 2.9389262614623664 50.0
-4.381533400219318 2.408768370508576 50.0
-4.648882429441256 1.8406227634233907 50.0
-4.8429158056431545 1.2434494358242763 50.0
-4.960573506572389 0.6266661678215226 50.0
-5.0 6.123233995736766e-16 50.0
-4.9605735065723895 -0.6266661678215214 50.0
-4.842915805643156 -1.243449435824273 50.0
-4.648882429441257 -1.8406227634233896 50.0
-4.381533400219318 -2.408768370508577 50.0
-4.045084971874739 -2.9389262614623632 50.0
-3.6448431371070593 -3.422735529643442 50.0
-3.1871199487434474 -3.852566213878947 50.0
-2.679133974894982 -4.2216396275100765 50.0
-2.128896457825361 -4.524135262330099 50.0
-1.5450849718747377 -4.755282581475767 50.0
-0.9369065729286231 -4.911436253643443 50.0
-0.313952597646566 -4.990133642141358 50.0
0.31395259764656414 -4.990133642141358 50.0
0.9369065729286213 -4.911436253643443 50.0
1.5450849718747361 -4.755282581475768 50.0
2.128896457825359 -4.524135262330099 50.0
2.6791339748949836 -4.221639627510075 50.0
3.1871199487434465 -3.852566213878948 50.0
3.644843137107056 -3.422735529643445 50.0
4.045084971874736 -2.938926261462367 50.0
4.381533400219316 -2.4087683705085805 50.0
4.648882429441257 -1.8406227634233894 50.0
4.8429158056431545 -1.2434494358242767 50.0
4.960573506572389 -0.6266661678215233 50.0
3 0 1 50
3 1 51 50
3 1 2 51
3 2 52 51
3 2 3 52
3 3 53 52
3 3 4 53
3 4 54 53
3 4 5 54
3 5 55 54
3 5 6 55
3 6 56 55
3 6 7 56
3 7 57 56
3 7 8 57
3 8 58 57
3 8 9 58
3 9 59 58
3 9 10 59
3 10 60 59
3 10 11 60
3 11 61 60
3 11 12 61
3 12 62 61
3 12 13 62
3 13 63 62
3 13 14 63
3 14 64 63
3 14 15 64
3 15 65 64
3 15 16 65
3 16 66 65
3 16 17 66
3 17 67 66
3 17 18 67
3 18 68 67
3 18 19 68
3 19 69 68
3 19 20 69
3 20 70 69
3 20 21 70
3 21 71 70
3 21 22 71
3 22 72 71
3 22 23 72
3 23 73 72
3 23 24 73
3 24 74 73
3 24 25 74
3 25 75 74
3 25 26 75
3 26 76 75
3 26 27 76
3 27 77 76
3 27 28 77
3 28 78 77
3 28 29 78
3 29 79 78
3 29 30 79
3 30 80 79
3 30 31 80
3 31 81 80
3 31 32 81
3 32 82 81
3 32 33 82
3 33 83 82
3 33 34 83
3 34 84 83
3 34 35 84
3 35 85 84
3 35 36 85
3 36 86 85
3 36 37 86
3 37 87 86
3 37 38 87
3 38 88 87
3 38 39 88
3 39 89 88
3 39 40 89
3 40 90 89
3 40 41 90
3 41 91 90
3 41 42 91
3 42 92 91
3 42 43 92
3 43 93 92
3 43 44 93
3 44 94 93
3 44 45 94
3 45 95 94
3 45 46 95
3 46 96 95
3 46 47 96
3 47 97 96
3 47 48 97
3 48 98 97
3 48 49 98
3 49 99 98
3 49 0 99
3 0 50 99
3 0 25 1
3 1 26 2
3 2 27 3
3 3 28 4
3 4 29 5
3 5 30 6
3 6 31 7
3 7 32 8
3 8 33 9
3 9 34 10
3 10 35 11
3 11 36 12
3 12 37 13
3 13 38 14
3 14 39 15
3 15 40 16
3 16 41 17
3 17 42 18
3 18 43 19
3 19 44 20
3 20 45 21
3 21 46 22
3 22 47 23
3 23 48 24
3 24 49 25
3 25 0 26
3 26 1 27
3 27 2 28
3 28 3 29
3 29 4 30
3 30 5 31
3 31 6 32
3 32 7 33
3 33 8 34
3 34 9 35
3 35 10 36
3 36 11 37
3 37 12 38
3 38 13 39
3 39 14 40
3 40 15 41
3 41 16 42
3 42 17 43
3 43 18 44
3 44 19 45
3 45 20 46
3 46 21 47
3 47 22 48
3 48 23 49
3 49 24 0
3 51 75 50
3 52 76 51
3 53 77 52
3 54 78 53
3 55 79 54
3 56 80 55
3 57 81 56
3 58 82 57
3 59 83 58
3 60 84 59
3 61 85 60
3 62 86 61
3 63 87 62
3 64 88 63
3 65 89 64
3 66 90 65
3 67 91 66
3 68 92 67
3 69 93 68
3 70 94 69
3 71 95 70
3 72 96 71
3 73 97 72
3 74 98 73
3 75 99 74
3 76 50 75
3 77 51 76
3 78 52 77
3 79 53 78
3 80 54 79
3 81 55 80
3 82 56 81
3 83 57 82
3 84 58 83
3 85 59 84
3 86 60 85
3 87 61 86
3 88 62 87
3 89 63 88
3 90 64 89
3 91 65 90
3 92 66 91
3 93 67 92
3 94 68 93
3 95 69 94
3 96 70 95
3 97 71 96
3 98 72 97
3 99 73 98
3 50 74 99
