ply
format ascii 1.0
comment VCGLIB generated
element vertex 653
property float x
property float y
property float z
property float nx
property float ny
property float nz
element face 0
property list uchar int vertex_indices
end_header
750 1175 -24 0 0 0 
750 1176 -24 0 0 0 
750 1177 -24 0 0 0 
750 1191 -24 0 0 0 
750 1192 -24 0 0 0 
750 1193 -24 0 0 0 
750 1194 -24 0 0 0 
750 1195 -24 0 0 0 
750 1196 -24 0 0 0 
750 1197 -24 0 0 0 
750 1198 -24 0 0 0 
750 1199 -24 0 0 0 
750 1200 -24 0 0 0 
750 1201 -24 0 0 0 
750 1170 -23 0 0 0 
750 1171 -23 0 0 0 
750 1172 -23 0 0 0 
750 1173 -23 0 0 0 
750 1174 -23 0 0 0 
750 1175 -23 0 0 0 
750 1176 -23 0 0 0 
750 1177 -23 0 0 0 
750 1178 -23 0 0 0 
750 1179 -23 0 0 0 
750 1180 -23 0 0 0 
750 1181 -23 0 0 0 
750 1182 -23 0 0 0 
750 1185 -23 0 0 0 
750 1186 -23 0 0 0 
750 1187 -23 0 0 0 
750 1188 -23 0 0 0 
750 1189 -23 0 0 0 
750 1190 -23 0 0 0 
750 1191 -23 0 0 0 
750 1192 -23 0 0 0 
750 1193 -23 0 0 0 
750 1194 -23 0 0 0 
750 1195 -23 0 0 0 
750 1196 -23 0 0 0 
750 1197 -23 0 0 0 
750 1198 -23 0 0 0 
750 1199 -23 0 0 0 
750 1200 -23 0 0 0 
750 1201 -23 0 0 0 
750 1202 -23 0 0 0 
750 1203 -23 0 0 0 
750 1204 -23 0 0 0 
750 1205 -23 0 0 0 
750 1165 -22 0 0 0 
750 1166 -22 0 0 0 
750 1167 -22 0 0 0 
750 1168 -22 0 0 0 
750 1169 -22 0 0 0 
750 1170 -22 0 0 0 
750 1171 -22 0 0 0 
750 1172 -22 0 0 0 
750 1173 -22 0 0 0 
750 1174 -22 0 0 0 
750 1178 -22 0 0 0 
750 1179 -22 0 0 0 
750 1180 -22 0 0 0 
750 1181 -22 0 0 0 
750 1182 -22 0 0 0 
750 1183 -22 0 0 0 
750 1184 -22 0 0 0 
750 1185 -22 0 0 0 
750 1186 -22 0 0 0 
750 1187 -22 0 0 0 
750 1188 -22 0 0 0 
750 1189 -22 0 0 0 
750 1190 -22 0 0 0 
750 1191 -22 0 0 0 
750 1192 -22 0 0 0 
750 1193 -22 0 0 0 
750 1194 -22 0 0 0 
750 1195 -22 0 0 0 
750 1196 -22 0 0 0 
750 1197 -22 0 0 0 
750 1198 -22 0 0 0 
750 1199 -22 0 0 0 
750 1200 -22 0 0 0 
750 1201 -22 0 0 0 
750 1202 -22 0 0 0 
750 1203 -22 0 0 0 
750 1204 -22 0 0 0 
750 1205 -22 0 0 0 
750 1206 -22 0 0 0 
750 1207 -22 0 0 0 
750 1208 -22 0 0 0 
750 1209 -22 0 0 0 
750 1210 -22 0 0 0 
750 1211 -22 0 0 0 
750 1212 -22 0 0 0 
750 1213 -22 0 0 0 
750 1214 -22 0 0 0 
750 1215 -22 0 0 0 
750 1216 -22 0 0 0 
750 1163 -21 0 0 0 
750 1164 -21 0 0 0 
750 1165 -21 0 0 0 
750 1166 -21 0 0 0 
750 1167 -21 0 0 0 
750 1168 -21 0 0 0 
750 1169 -21 0 0 0 
750 1170 -21 0 0 0 
750 1171 -21 0 0 0 
750 1180 -21 0 0 0 
750 1181 -21 0 0 0 
750 1182 -21 0 0 0 
750 1183 -21 0 0 0 
750 1184 -21 0 0 0 
750 1185 -21 0 0 0 
750 1186 -21 0 0 0 
750 1187 -21 0 0 0 
750 1188 -21 0 0 0 
750 1204 -21 0 0 0 
750 1205 -21 0 0 0 
750 1206 -21 0 0 0 
750 1207 -21 0 0 0 
750 1208 -21 0 0 0 
750 1209 -21 0 0 0 
750 1210 -21 0 0 0 
750 1211 -21 0 0 0 
750 1212 -21 0 0 0 
750 1213 -21 0 0 0 
750 1214 -21 0 0 0 
750 1215 -21 0 0 0 
750 1216 -21 0 0 0 
750 1217 -21 0 0 0 
750 1219 -21 0 0 0 
750 1220 -21 0 0 0 
750 1221 -21 0 0 0 
750 1222 -21 0 0 0 
750 1223 -21 0 0 0 
750 1224 -21 0 0 0 
750 1225 -21 0 0 0 
750 1226 -21 0 0 0 
750 1227 -21 0 0 0 
750 1228 -21 0 0 0 
750 1161 -20 0 0 0 
750 1162 -20 0 0 0 
750 1163 -20 0 0 0 
750 1164 -20 0 0 0 
750 1165 -20 0 0 0 
750 1166 -20 0 0 0 
750 1167 -20 0 0 0 
750 1183 -20 0 0 0 
750 1184 -20 0 0 0 
750 1185 -20 0 0 0 
750 1206 -20 0 0 0 
750 1207 -20 0 0 0 
750 1208 -20 0 0 0 
750 1209 -20 0 0 0 
750 1210 -20 0 0 0 
750 1214 -20 0 0 0 
750 1215 -20 0 0 0 
750 1216 -20 0 0 0 
750 1220 -20 0 0 0 
750 1221 -20 0 0 0 
750 1222 -20 0 0 0 
750 1223 -20 0 0 0 
750 1224 -20 0 0 0 
750 1225 -20 0 0 0 
750 1226 -20 0 0 0 
750 1227 -20 0 0 0 
750 1228 -20 0 0 0 
750 1229 -20 0 0 0 
750 1230 -20 0 0 0 
750 1257 -20 0 0 0 
750 1258 -20 0 0 0 
750 1259 -20 0 0 0 
750 1260 -20 0 0 0 
750 1261 -20 0 0 0 
750 1262 -20 0 0 0 
750 1263 -20 0 0 0 
750 1264 -20 0 0 0 
750 1160 -19 0 0 0 
750 1161 -19 0 0 0 
750 1162 -19 0 0 0 
750 1163 -19 0 0 0 
750 1164 -19 0 0 0 
750 1220 -19 0 0 0 
750 1221 -19 0 0 0 
750 1222 -19 0 0 0 
750 1223 -19 0 0 0 
750 1224 -19 0 0 0 
750 1225 -19 0 0 0 
750 1226 -19 0 0 0 
750 1227 -19 0 0 0 
750 1228 -19 0 0 0 
750 1229 -19 0 0 0 
750 1230 -19 0 0 0 
750 1231 -19 0 0 0 
750 1232 -19 0 0 0 
750 1253 -19 0 0 0 
750 1254 -19 0 0 0 
750 1255 -19 0 0 0 
750 1256 -19 0 0 0 
750 1257 -19 0 0 0 
750 1258 -19 0 0 0 
750 1259 -19 0 0 0 
750 1260 -19 0 0 0 
750 1261 -19 0 0 0 
750 1262 -19 0 0 0 
750 1268 -19 0 0 0 
750 1269 -19 0 0 0 
750 1145 -18 0 0 0 
750 1158 -18 0 0 0 
750 1159 -18 0 0 0 
750 1160 -18 0 0 0 
750 1161 -18 0 0 0 
750 1162 -18 0 0 0 
750 1228 -18 0 0 0 
750 1229 -18 0 0 0 
750 1230 -18 0 0 0 
750 1231 -18 0 0 0 
750 1232 -18 0 0 0 
750 1233 -18 0 0 0 
750 1234 -18 0 0 0 
750 1249 -18 0 0 0 
750 1250 -18 0 0 0 
750 1251 -18 0 0 0 
750 1252 -18 0 0 0 
750 1253 -18 0 0 0 
750 1254 -18 0 0 0 
750 1255 -18 0 0 0 
750 1256 -18 0 0 0 
750 1257 -18 0 0 0 
750 1258 -18 0 0 0 
750 1259 -18 0 0 0 
750 1260 -18 0 0 0 
750 1271 -18 0 0 0 
750 1272 -18 0 0 0 
750 1145 -17 0 0 0 
750 1146 -17 0 0 0 
750 1147 -17 0 0 0 
750 1157 -17 0 0 0 
750 1158 -17 0 0 0 
750 1159 -17 0 0 0 
750 1160 -17 0 0 0 
750 1161 -17 0 0 0 
750 1230 -17 0 0 0 
750 1231 -17 0 0 0 
750 1232 -17 0 0 0 
750 1233 -17 0 0 0 
750 1234 -17 0 0 0 
750 1235 -17 0 0 0 
750 1236 -17 0 0 0 
750 1237 -17 0 0 0 
750 1238 -17 0 0 0 
750 1239 -17 0 0 0 
750 1240 -17 0 0 0 
750 1241 -17 0 0 0 
750 1247 -17 0 0 0 
750 1248 -17 0 0 0 
750 1249 -17 0 0 0 
750 1250 -17 0 0 0 
750 1251 -17 0 0 0 
750 1252 -17 0 0 0 
750 1253 -17 0 0 0 
750 1254 -17 0 0 0 
750 1271 -17 0 0 0 
750 1272 -17 0 0 0 
750 1273 -17 0 0 0 
750 1145 -16 0 0 0 
750 1146 -16 0 0 0 
750 1147 -16 0 0 0 
750 1148 -16 0 0 0 
750 1149 -16 0 0 0 
750 1150 -16 0 0 0 
750 1151 -16 0 0 0 
750 1152 -16 0 0 0 
750 1153 -16 0 0 0 
750 1154 -16 0 0 0 
750 1155 -16 0 0 0 
750 1156 -16 0 0 0 
750 1157 -16 0 0 0 
750 1158 -16 0 0 0 
750 1159 -16 0 0 0 
750 1231 -16 0 0 0 
750 1232 -16 0 0 0 
750 1233 -16 0 0 0 
750 1234 -16 0 0 0 
750 1235 -16 0 0 0 
750 1236 -16 0 0 0 
750 1237 -16 0 0 0 
750 1238 -16 0 0 0 
750 1239 -16 0 0 0 
750 1240 -16 0 0 0 
750 1241 -16 0 0 0 
750 1242 -16 0 0 0 
750 1243 -16 0 0 0 
750 1244 -16 0 0 0 
750 1245 -16 0 0 0 
750 1246 -16 0 0 0 
750 1247 -16 0 0 0 
750 1248 -16 0 0 0 
750 1249 -16 0 0 0 
750 1271 -16 0 0 0 
750 1272 -16 0 0 0 
750 1273 -16 0 0 0 
750 1274 -16 0 0 0 
750 1280 -16 0 0 0 
750 1281 -16 0 0 0 
750 1282 -16 0 0 0 
750 1283 -16 0 0 0 
750 1284 -16 0 0 0 
750 1285 -16 0 0 0 
750 1286 -16 0 0 0 
750 1287 -16 0 0 0 
750 1288 -16 0 0 0 
750 1289 -16 0 0 0 
750 1290 -16 0 0 0 
750 1147 -15 0 0 0 
750 1148 -15 0 0 0 
750 1149 -15 0 0 0 
750 1150 -15 0 0 0 
750 1151 -15 0 0 0 
750 1152 -15 0 0 0 
750 1153 -15 0 0 0 
750 1154 -15 0 0 0 
750 1155 -15 0 0 0 
750 1156 -15 0 0 0 
750 1157 -15 0 0 0 
750 1158 -15 0 0 0 
750 1232 -15 0 0 0 
750 1233 -15 0 0 0 
750 1234 -15 0 0 0 
750 1235 -15 0 0 0 
750 1236 -15 0 0 0 
750 1237 -15 0 0 0 
750 1238 -15 0 0 0 
750 1239 -15 0 0 0 
750 1240 -15 0 0 0 
750 1241 -15 0 0 0 
750 1242 -15 0 0 0 
750 1243 -15 0 0 0 
750 1244 -15 0 0 0 
750 1245 -15 0 0 0 
750 1246 -15 0 0 0 
750 1247 -15 0 0 0 
750 1248 -15 0 0 0 
750 1268 -15 0 0 0 
750 1272 -15 0 0 0 
750 1273 -15 0 0 0 
750 1274 -15 0 0 0 
750 1275 -15 0 0 0 
750 1276 -15 0 0 0 
750 1277 -15 0 0 0 
750 1278 -15 0 0 0 
750 1279 -15 0 0 0 
750 1280 -15 0 0 0 
750 1281 -15 0 0 0 
750 1282 -15 0 0 0 
750 1283 -15 0 0 0 
750 1284 -15 0 0 0 
750 1285 -15 0 0 0 
750 1286 -15 0 0 0 
750 1287 -15 0 0 0 
750 1288 -15 0 0 0 
750 1289 -15 0 0 0 
750 1290 -15 0 0 0 
750 1291 -15 0 0 0 
750 1292 -15 0 0 0 
750 1293 -15 0 0 0 
750 1294 -15 0 0 0 
750 1295 -15 0 0 0 
750 1149 -14 0 0 0 
750 1150 -14 0 0 0 
750 1151 -14 0 0 0 
750 1152 -14 0 0 0 
750 1153 -14 0 0 0 
750 1154 -14 0 0 0 
750 1155 -14 0 0 0 
750 1156 -14 0 0 0 
750 1157 -14 0 0 0 
750 1240 -14 0 0 0 
750 1241 -14 0 0 0 
750 1242 -14 0 0 0 
750 1243 -14 0 0 0 
750 1244 -14 0 0 0 
750 1245 -14 0 0 0 
750 1246 -14 0 0 0 
750 1247 -14 0 0 0 
750 1268 -14 0 0 0 
750 1269 -14 0 0 0 
750 1271 -14 0 0 0 
750 1272 -14 0 0 0 
750 1273 -14 0 0 0 
750 1274 -14 0 0 0 
750 1275 -14 0 0 0 
750 1276 -14 0 0 0 
750 1277 -14 0 0 0 
750 1278 -14 0 0 0 
750 1279 -14 0 0 0 
750 1293 -14 0 0 0 
750 1294 -14 0 0 0 
750 1295 -14 0 0 0 
750 1296 -14 0 0 0 
750 1153 -13 0 0 0 
750 1154 -13 0 0 0 
750 1244 -13 0 0 0 
750 1245 -13 0 0 0 
750 1246 -13 0 0 0 
750 1267 -13 0 0 0 
750 1268 -13 0 0 0 
750 1269 -13 0 0 0 
750 1270 -13 0 0 0 
750 1271 -13 0 0 0 
750 1272 -13 0 0 0 
750 1273 -13 0 0 0 
750 1274 -13 0 0 0 
750 1275 -13 0 0 0 
750 1276 -13 0 0 0 
750 1277 -13 0 0 0 
750 1295 -13 0 0 0 
750 1296 -13 0 0 0 
750 1297 -13 0 0 0 
750 1266 -12 0 0 0 
750 1267 -12 0 0 0 
750 1268 -12 0 0 0 
750 1269 -12 0 0 0 
750 1270 -12 0 0 0 
750 1271 -12 0 0 0 
750 1296 -12 0 0 0 
750 1297 -12 0 0 0 
750 1298 -12 0 0 0 
750 1259 -11 0 0 0 
750 1260 -11 0 0 0 
750 1261 -11 0 0 0 
750 1264 -11 0 0 0 
750 1265 -11 0 0 0 
750 1266 -11 0 0 0 
750 1267 -11 0 0 0 
750 1297 -11 0 0 0 
750 1298 -11 0 0 0 
750 1258 -10 0 0 0 
750 1259 -10 0 0 0 
750 1260 -10 0 0 0 
750 1261 -10 0 0 0 
750 1262 -10 0 0 0 
750 1263 -10 0 0 0 
750 1264 -10 0 0 0 
750 1297 -10 0 0 0 
750 1298 -10 0 0 0 
750 1299 -10 0 0 0 
750 1223 -9 0 0 0 
750 1224 -9 0 0 0 
750 1257 -9 0 0 0 
750 1258 -9 0 0 0 
750 1259 -9 0 0 0 
750 1260 -9 0 0 0 
750 1261 -9 0 0 0 
750 1262 -9 0 0 0 
750 1298 -9 0 0 0 
750 1299 -9 0 0 0 
750 1222 -8 0 0 0 
750 1223 -8 0 0 0 
750 1224 -8 0 0 0 
750 1225 -8 0 0 0 
750 1254 -8 0 0 0 
750 1255 -8 0 0 0 
750 1256 -8 0 0 0 
750 1257 -8 0 0 0 
750 1258 -8 0 0 0 
750 1259 -8 0 0 0 
750 1297 -8 0 0 0 
750 1298 -8 0 0 0 
750 1223 -7 0 0 0 
750 1224 -7 0 0 0 
750 1225 -7 0 0 0 
750 1226 -7 0 0 0 
750 1250 -7 0 0 0 
750 1251 -7 0 0 0 
750 1252 -7 0 0 0 
750 1253 -7 0 0 0 
750 1254 -7 0 0 0 
750 1255 -7 0 0 0 
750 1289 -7 0 0 0 
750 1290 -7 0 0 0 
750 1295 -7 0 0 0 
750 1296 -7 0 0 0 
750 1297 -7 0 0 0 
750 1298 -7 0 0 0 
750 1299 -7 0 0 0 
750 1224 -6 0 0 0 
750 1225 -6 0 0 0 
750 1226 -6 0 0 0 
750 1227 -6 0 0 0 
750 1228 -6 0 0 0 
750 1248 -6 0 0 0 
750 1249 -6 0 0 0 
750 1250 -6 0 0 0 
750 1251 -6 0 0 0 
750 1252 -6 0 0 0 
750 1253 -6 0 0 0 
750 1283 -6 0 0 0 
750 1284 -6 0 0 0 
750 1285 -6 0 0 0 
750 1286 -6 0 0 0 
750 1287 -6 0 0 0 
750 1288 -6 0 0 0 
750 1289 -6 0 0 0 
750 1290 -6 0 0 0 
750 1291 -6 0 0 0 
750 1292 -6 0 0 0 
750 1293 -6 0 0 0 
750 1294 -6 0 0 0 
750 1295 -6 0 0 0 
750 1296 -6 0 0 0 
750 1297 -6 0 0 0 
750 1298 -6 0 0 0 
750 1299 -6 0 0 0 
750 1300 -6 0 0 0 
750 1225 -5 0 0 0 
750 1226 -5 0 0 0 
750 1227 -5 0 0 0 
750 1228 -5 0 0 0 
750 1229 -5 0 0 0 
750 1230 -5 0 0 0 
750 1247 -5 0 0 0 
750 1248 -5 0 0 0 
750 1249 -5 0 0 0 
750 1250 -5 0 0 0 
750 1251 -5 0 0 0 
750 1280 -5 0 0 0 
750 1281 -5 0 0 0 
750 1282 -5 0 0 0 
750 1283 -5 0 0 0 
750 1284 -5 0 0 0 
750 1285 -5 0 0 0 
750 1286 -5 0 0 0 
750 1287 -5 0 0 0 
750 1288 -5 0 0 0 
750 1289 -5 0 0 0 
750 1292 -5 0 0 0 
750 1293 -5 0 0 0 
750 1294 -5 0 0 0 
750 1295 -5 0 0 0 
750 1301 -5 0 0 0 
750 1302 -5 0 0 0 
750 1303 -5 0 0 0 
750 1304 -5 0 0 0 
750 1305 -5 0 0 0 
750 1306 -5 0 0 0 
750 1307 -5 0 0 0 
750 1308 -5 0 0 0 
750 1309 -5 0 0 0 
750 1310 -5 0 0 0 
750 1311 -5 0 0 0 
750 1226 -4 0 0 0 
750 1227 -4 0 0 0 
750 1228 -4 0 0 0 
750 1229 -4 0 0 0 
750 1230 -4 0 0 0 
750 1231 -4 0 0 0 
750 1232 -4 0 0 0 
750 1233 -4 0 0 0 
750 1234 -4 0 0 0 
750 1245 -4 0 0 0 
750 1246 -4 0 0 0 
750 1247 -4 0 0 0 
750 1248 -4 0 0 0 
750 1249 -4 0 0 0 
750 1250 -4 0 0 0 
750 1277 -4 0 0 0 
750 1278 -4 0 0 0 
750 1279 -4 0 0 0 
750 1280 -4 0 0 0 
750 1281 -4 0 0 0 
750 1282 -4 0 0 0 
750 1283 -4 0 0 0 
750 1284 -4 0 0 0 
750 1285 -4 0 0 0 
750 1286 -4 0 0 0 
750 1287 -4 0 0 0 
750 1288 -4 0 0 0 
750 1305 -4 0 0 0 
750 1306 -4 0 0 0 
750 1307 -4 0 0 0 
750 1308 -4 0 0 0 
750 1309 -4 0 0 0 
750 1310 -4 0 0 0 
750 1311 -4 0 0 0 
750 1312 -4 0 0 0 
750 1230 -3 0 0 0 
750 1231 -3 0 0 0 
750 1232 -3 0 0 0 
750 1233 -3 0 0 0 
750 1234 -3 0 0 0 
750 1235 -3 0 0 0 
750 1236 -3 0 0 0 
750 1237 -3 0 0 0 
750 1238 -3 0 0 0 
750 1239 -3 0 0 0 
750 1240 -3 0 0 0 
750 1241 -3 0 0 0 
750 1242 -3 0 0 0 
750 1243 -3 0 0 0 
750 1244 -3 0 0 0 
750 1245 -3 0 0 0 
750 1246 -3 0 0 0 
750 1247 -3 0 0 0 
750 1248 -3 0 0 0 
750 1249 -3 0 0 0 
750 1275 -3 0 0 0 
750 1276 -3 0 0 0 
750 1277 -3 0 0 0 
750 1278 -3 0 0 0 
750 1279 -3 0 0 0 
750 1280 -3 0 0 0 
750 1281 -3 0 0 0 
750 1282 -3 0 0 0 
750 1283 -3 0 0 0 
750 1284 -3 0 0 0 
750 1285 -3 0 0 0 
750 1310 -3 0 0 0 
750 1311 -3 0 0 0 
750 1312 -3 0 0 0 
750 1313 -3 0 0 0 
750 1236 -2 0 0 0 
750 1237 -2 0 0 0 
750 1238 -2 0 0 0 
750 1239 -2 0 0 0 
750 1240 -2 0 0 0 
750 1241 -2 0 0 0 
750 1242 -2 0 0 0 
750 1243 -2 0 0 0 
750 1244 -2 0 0 0 
750 1245 -2 0 0 0 
750 1246 -2 0 0 0 
750 1272 -2 0 0 0 
750 1273 -2 0 0 0 
750 1274 -2 0 0 0 
750 1275 -2 0 0 0 
750 1276 -2 0 0 0 
750 1310 -2 0 0 0 
750 1311 -2 0 0 0 
750 1312 -2 0 0 0 
750 1313 -2 0 0 0 
750 1241 -1 0 0 0 
750 1242 -1 0 0 0 
750 1269 -1 0 0 0 
750 1270 -1 0 0 0 
750 1271 -1 0 0 0 
750 1272 -1 0 0 0 
750 1273 -1 0 0 0 
750 1309 -1 0 0 0 
750 1310 -1 0 0 0 
750 1311 -1 0 0 0 
750 1312 -1 0 0 0 
750 1313 -1 0 0 0 
750 1314 -1 0 0 0 
