ply
format ascii 1.0
comment VCGLIB generated
element vertex 886
property float x
property float y
property float z
property float nx
property float ny
property float nz
element face 0
property list uchar int vertex_indices
end_header
750 1265 1 0 0 0 
750 1266 1 0 0 0 
750 1267 1 0 0 0 
750 1268 1 0 0 0 
750 1269 1 0 0 0 
750 1308 1 0 0 0 
750 1309 1 0 0 0 
750 1310 1 0 0 0 
750 1311 1 0 0 0 
750 1312 1 0 0 0 
750 1313 1 0 0 0 
750 1314 1 0 0 0 
750 1263 2 0 0 0 
750 1264 2 0 0 0 
750 1265 2 0 0 0 
750 1266 2 0 0 0 
750 1267 2 0 0 0 
750 1308 2 0 0 0 
750 1309 2 0 0 0 
750 1310 2 0 0 0 
750 1311 2 0 0 0 
750 1312 2 0 0 0 
750 1313 2 0 0 0 
750 1260 3 0 0 0 
750 1261 3 0 0 0 
750 1262 3 0 0 0 
750 1263 3 0 0 0 
750 1298 3 0 0 0 
750 1302 3 0 0 0 
750 1303 3 0 0 0 
750 1304 3 0 0 0 
750 1305 3 0 0 0 
750 1306 3 0 0 0 
750 1307 3 0 0 0 
750 1308 3 0 0 0 
750 1309 3 0 0 0 
750 1310 3 0 0 0 
750 1311 3 0 0 0 
750 1312 3 0 0 0 
750 1313 3 0 0 0 
750 1258 4 0 0 0 
750 1259 4 0 0 0 
750 1260 4 0 0 0 
750 1261 4 0 0 0 
750 1296 4 0 0 0 
750 1297 4 0 0 0 
750 1298 4 0 0 0 
750 1299 4 0 0 0 
750 1300 4 0 0 0 
750 1301 4 0 0 0 
750 1302 4 0 0 0 
750 1303 4 0 0 0 
750 1304 4 0 0 0 
750 1305 4 0 0 0 
750 1306 4 0 0 0 
750 1307 4 0 0 0 
750 1308 4 0 0 0 
750 1309 4 0 0 0 
750 1310 4 0 0 0 
750 1311 4 0 0 0 
750 1312 4 0 0 0 
750 1256 5 0 0 0 
750 1257 5 0 0 0 
750 1258 5 0 0 0 
750 1293 5 0 0 0 
750 1294 5 0 0 0 
750 1295 5 0 0 0 
750 1296 5 0 0 0 
750 1297 5 0 0 0 
750 1304 5 0 0 0 
750 1305 5 0 0 0 
750 1306 5 0 0 0 
750 1307 5 0 0 0 
750 1308 5 0 0 0 
750 1309 5 0 0 0 
750 1310 5 0 0 0 
750 1254 6 0 0 0 
750 1255 6 0 0 0 
750 1256 6 0 0 0 
750 1257 6 0 0 0 
750 1282 6 0 0 0 
750 1283 6 0 0 0 
750 1284 6 0 0 0 
750 1285 6 0 0 0 
750 1287 6 0 0 0 
750 1288 6 0 0 0 
750 1289 6 0 0 0 
750 1290 6 0 0 0 
750 1291 6 0 0 0 
750 1292 6 0 0 0 
750 1250 7 0 0 0 
750 1251 7 0 0 0 
750 1252 7 0 0 0 
750 1253 7 0 0 0 
750 1254 7 0 0 0 
750 1255 7 0 0 0 
750 1280 7 0 0 0 
750 1281 7 0 0 0 
750 1282 7 0 0 0 
750 1283 7 0 0 0 
750 1284 7 0 0 0 
750 1285 7 0 0 0 
750 1243 8 0 0 0 
750 1244 8 0 0 0 
750 1245 8 0 0 0 
750 1246 8 0 0 0 
750 1247 8 0 0 0 
750 1248 8 0 0 0 
750 1249 8 0 0 0 
750 1250 8 0 0 0 
750 1251 8 0 0 0 
750 1252 8 0 0 0 
750 1278 8 0 0 0 
750 1279 8 0 0 0 
750 1280 8 0 0 0 
750 1281 8 0 0 0 
750 1282 8 0 0 0 
750 1283 8 0 0 0 
750 1240 9 0 0 0 
750 1241 9 0 0 0 
750 1242 9 0 0 0 
750 1243 9 0 0 0 
750 1244 9 0 0 0 
750 1245 9 0 0 0 
750 1246 9 0 0 0 
750 1247 9 0 0 0 
750 1275 9 0 0 0 
750 1276 9 0 0 0 
750 1277 9 0 0 0 
750 1278 9 0 0 0 
750 1279 9 0 0 0 
750 1233 10 0 0 0 
750 1235 10 0 0 0 
750 1236 10 0 0 0 
750 1237 10 0 0 0 
750 1238 10 0 0 0 
750 1239 10 0 0 0 
750 1240 10 0 0 0 
750 1241 10 0 0 0 
750 1242 10 0 0 0 
750 1243 10 0 0 0 
750 1244 10 0 0 0 
750 1269 10 0 0 0 
750 1270 10 0 0 0 
750 1271 10 0 0 0 
750 1272 10 0 0 0 
750 1273 10 0 0 0 
750 1274 10 0 0 0 
750 1275 10 0 0 0 
750 1276 10 0 0 0 
750 1277 10 0 0 0 
750 1278 10 0 0 0 
750 1230 11 0 0 0 
750 1231 11 0 0 0 
750 1232 11 0 0 0 
750 1233 11 0 0 0 
750 1234 11 0 0 0 
750 1235 11 0 0 0 
750 1236 11 0 0 0 
750 1237 11 0 0 0 
750 1238 11 0 0 0 
750 1239 11 0 0 0 
750 1240 11 0 0 0 
750 1241 11 0 0 0 
750 1242 11 0 0 0 
750 1268 11 0 0 0 
750 1269 11 0 0 0 
750 1270 11 0 0 0 
750 1271 11 0 0 0 
750 1272 11 0 0 0 
750 1273 11 0 0 0 
750 1274 11 0 0 0 
750 1275 11 0 0 0 
750 1276 11 0 0 0 
750 1277 11 0 0 0 
750 1278 11 0 0 0 
750 1279 11 0 0 0 
750 1280 11 0 0 0 
750 1281 11 0 0 0 
750 1282 11 0 0 0 
750 1283 11 0 0 0 
750 1284 11 0 0 0 
750 1290 11 0 0 0 
750 1291 11 0 0 0 
750 1292 11 0 0 0 
750 1293 11 0 0 0 
750 1294 11 0 0 0 
750 1229 12 0 0 0 
750 1230 12 0 0 0 
750 1231 12 0 0 0 
750 1232 12 0 0 0 
750 1233 12 0 0 0 
750 1266 12 0 0 0 
750 1267 12 0 0 0 
750 1268 12 0 0 0 
750 1269 12 0 0 0 
750 1270 12 0 0 0 
750 1271 12 0 0 0 
750 1272 12 0 0 0 
750 1273 12 0 0 0 
750 1274 12 0 0 0 
750 1275 12 0 0 0 
750 1276 12 0 0 0 
750 1277 12 0 0 0 
750 1278 12 0 0 0 
750 1279 12 0 0 0 
750 1280 12 0 0 0 
750 1281 12 0 0 0 
750 1282 12 0 0 0 
750 1283 12 0 0 0 
750 1294 12 0 0 0 
750 1295 12 0 0 0 
750 1296 12 0 0 0 
750 1263 13 0 0 0 
750 1264 13 0 0 0 
750 1265 13 0 0 0 
750 1266 13 0 0 0 
750 1267 13 0 0 0 
750 1268 13 0 0 0 
750 1269 13 0 0 0 
750 1296 13 0 0 0 
750 1297 13 0 0 0 
750 1298 13 0 0 0 
750 1299 13 0 0 0 
750 1300 13 0 0 0 
750 1259 14 0 0 0 
750 1260 14 0 0 0 
750 1261 14 0 0 0 
750 1262 14 0 0 0 
750 1263 14 0 0 0 
750 1264 14 0 0 0 
750 1265 14 0 0 0 
750 1297 14 0 0 0 
750 1298 14 0 0 0 
750 1299 14 0 0 0 
750 1300 14 0 0 0 
750 1301 14 0 0 0 
750 1254 15 0 0 0 
750 1255 15 0 0 0 
750 1256 15 0 0 0 
750 1257 15 0 0 0 
750 1258 15 0 0 0 
750 1259 15 0 0 0 
750 1260 15 0 0 0 
750 1261 15 0 0 0 
750 1298 15 0 0 0 
750 1299 15 0 0 0 
750 1300 15 0 0 0 
750 1301 15 0 0 0 
750 1302 15 0 0 0 
750 1248 16 0 0 0 
750 1249 16 0 0 0 
750 1250 16 0 0 0 
750 1251 16 0 0 0 
750 1252 16 0 0 0 
750 1253 16 0 0 0 
750 1254 16 0 0 0 
750 1255 16 0 0 0 
750 1256 16 0 0 0 
750 1257 16 0 0 0 
750 1258 16 0 0 0 
750 1299 16 0 0 0 
750 1300 16 0 0 0 
750 1301 16 0 0 0 
750 1302 16 0 0 0 
750 1244 17 0 0 0 
750 1245 17 0 0 0 
750 1246 17 0 0 0 
750 1247 17 0 0 0 
750 1248 17 0 0 0 
750 1249 17 0 0 0 
750 1250 17 0 0 0 
750 1251 17 0 0 0 
750 1252 17 0 0 0 
750 1253 17 0 0 0 
750 1254 17 0 0 0 
750 1255 17 0 0 0 
750 1256 17 0 0 0 
750 1288 17 0 0 0 
750 1299 17 0 0 0 
750 1300 17 0 0 0 
750 1301 17 0 0 0 
750 1302 17 0 0 0 
750 1239 18 0 0 0 
750 1240 18 0 0 0 
750 1241 18 0 0 0 
750 1242 18 0 0 0 
750 1243 18 0 0 0 
750 1244 18 0 0 0 
750 1245 18 0 0 0 
750 1246 18 0 0 0 
750 1247 18 0 0 0 
750 1248 18 0 0 0 
750 1249 18 0 0 0 
750 1250 18 0 0 0 
750 1251 18 0 0 0 
750 1252 18 0 0 0 
750 1287 18 0 0 0 
750 1288 18 0 0 0 
750 1299 18 0 0 0 
750 1300 18 0 0 0 
750 1301 18 0 0 0 
750 1302 18 0 0 0 
750 1236 19 0 0 0 
750 1237 19 0 0 0 
750 1238 19 0 0 0 
750 1239 19 0 0 0 
750 1240 19 0 0 0 
750 1241 19 0 0 0 
750 1242 19 0 0 0 
750 1243 19 0 0 0 
750 1244 19 0 0 0 
750 1245 19 0 0 0 
750 1246 19 0 0 0 
750 1247 19 0 0 0 
750 1278 19 0 0 0 
750 1279 19 0 0 0 
750 1280 19 0 0 0 
750 1281 19 0 0 0 
750 1282 19 0 0 0 
750 1283 19 0 0 0 
750 1284 19 0 0 0 
750 1285 19 0 0 0 
750 1286 19 0 0 0 
750 1287 19 0 0 0 
750 1288 19 0 0 0 
750 1298 19 0 0 0 
750 1299 19 0 0 0 
750 1300 19 0 0 0 
750 1301 19 0 0 0 
750 1302 19 0 0 0 
750 1229 20 0 0 0 
750 1230 20 0 0 0 
750 1231 20 0 0 0 
750 1232 20 0 0 0 
750 1233 20 0 0 0 
750 1234 20 0 0 0 
750 1235 20 0 0 0 
750 1236 20 0 0 0 
750 1237 20 0 0 0 
750 1238 20 0 0 0 
750 1239 20 0 0 0 
750 1240 20 0 0 0 
750 1275 20 0 0 0 
750 1276 20 0 0 0 
750 1277 20 0 0 0 
750 1278 20 0 0 0 
750 1279 20 0 0 0 
750 1280 20 0 0 0 
750 1281 20 0 0 0 
750 1282 20 0 0 0 
750 1283 20 0 0 0 
750 1284 20 0 0 0 
750 1285 20 0 0 0 
750 1286 20 0 0 0 
750 1287 20 0 0 0 
750 1288 20 0 0 0 
750 1289 20 0 0 0 
750 1290 20 0 0 0 
750 1291 20 0 0 0 
750 1292 20 0 0 0 
750 1295 20 0 0 0 
750 1296 20 0 0 0 
750 1297 20 0 0 0 
750 1298 20 0 0 0 
750 1299 20 0 0 0 
750 1300 20 0 0 0 
750 1301 20 0 0 0 
750 1302 20 0 0 0 
750 1228 21 0 0 0 
750 1229 21 0 0 0 
750 1230 21 0 0 0 
750 1231 21 0 0 0 
750 1232 21 0 0 0 
750 1233 21 0 0 0 
750 1234 21 0 0 0 
750 1235 21 0 0 0 
750 1266 21 0 0 0 
750 1267 21 0 0 0 
750 1268 21 0 0 0 
750 1271 21 0 0 0 
750 1272 21 0 0 0 
750 1273 21 0 0 0 
750 1274 21 0 0 0 
750 1275 21 0 0 0 
750 1276 21 0 0 0 
750 1277 21 0 0 0 
750 1278 21 0 0 0 
750 1279 21 0 0 0 
750 1280 21 0 0 0 
750 1281 21 0 0 0 
750 1282 21 0 0 0 
750 1283 21 0 0 0 
750 1284 21 0 0 0 
750 1285 21 0 0 0 
750 1286 21 0 0 0 
750 1287 21 0 0 0 
750 1288 21 0 0 0 
750 1289 21 0 0 0 
750 1290 21 0 0 0 
750 1291 21 0 0 0 
750 1292 21 0 0 0 
750 1293 21 0 0 0 
750 1294 21 0 0 0 
750 1295 21 0 0 0 
750 1296 21 0 0 0 
750 1297 21 0 0 0 
750 1298 21 0 0 0 
750 1299 21 0 0 0 
750 1300 21 0 0 0 
750 1301 21 0 0 0 
750 1302 21 0 0 0 
750 1229 22 0 0 0 
750 1230 22 0 0 0 
750 1231 22 0 0 0 
750 1262 22 0 0 0 
750 1263 22 0 0 0 
750 1264 22 0 0 0 
750 1265 22 0 0 0 
750 1266 22 0 0 0 
750 1267 22 0 0 0 
750 1268 22 0 0 0 
750 1269 22 0 0 0 
750 1270 22 0 0 0 
750 1271 22 0 0 0 
750 1272 22 0 0 0 
750 1273 22 0 0 0 
750 1274 22 0 0 0 
750 1275 22 0 0 0 
750 1276 22 0 0 0 
750 1277 22 0 0 0 
750 1278 22 0 0 0 
750 1279 22 0 0 0 
750 1280 22 0 0 0 
750 1289 22 0 0 0 
750 1290 22 0 0 0 
750 1291 22 0 0 0 
750 1292 22 0 0 0 
750 1293 22 0 0 0 
750 1294 22 0 0 0 
750 1295 22 0 0 0 
750 1296 22 0 0 0 
750 1297 22 0 0 0 
750 1298 22 0 0 0 
750 1299 22 0 0 0 
750 1300 22 0 0 0 
750 1301 22 0 0 0 
750 1258 23 0 0 0 
750 1259 23 0 0 0 
750 1260 23 0 0 0 
750 1261 23 0 0 0 
750 1262 23 0 0 0 
750 1263 23 0 0 0 
750 1264 23 0 0 0 
750 1265 23 0 0 0 
750 1266 23 0 0 0 
750 1267 23 0 0 0 
750 1268 23 0 0 0 
750 1269 23 0 0 0 
750 1270 23 0 0 0 
750 1271 23 0 0 0 
750 1272 23 0 0 0 
750 1273 23 0 0 0 
750 1274 23 0 0 0 
750 1275 23 0 0 0 
750 1276 23 0 0 0 
750 1277 23 0 0 0 
750 1278 23 0 0 0 
750 1296 23 0 0 0 
750 1297 23 0 0 0 
750 1298 23 0 0 0 
750 1299 23 0 0 0 
750 1300 23 0 0 0 
750 1145 24 0 0 0 
750 1223 24 0 0 0 
750 1224 24 0 0 0 
750 1225 24 0 0 0 
750 1226 24 0 0 0 
750 1227 24 0 0 0 
750 1228 24 0 0 0 
750 1229 24 0 0 0 
750 1230 24 0 0 0 
750 1231 24 0 0 0 
750 1232 24 0 0 0 
750 1233 24 0 0 0 
750 1244 24 0 0 0 
750 1245 24 0 0 0 
750 1246 24 0 0 0 
750 1247 24 0 0 0 
750 1248 24 0 0 0 
750 1249 24 0 0 0 
750 1250 24 0 0 0 
750 1251 24 0 0 0 
750 1252 24 0 0 0 
750 1253 24 0 0 0 
750 1254 24 0 0 0 
750 1255 24 0 0 0 
750 1256 24 0 0 0 
750 1257 24 0 0 0 
750 1258 24 0 0 0 
750 1259 24 0 0 0 
750 1260 24 0 0 0 
750 1261 24 0 0 0 
750 1262 24 0 0 0 
750 1263 24 0 0 0 
750 1264 24 0 0 0 
750 1265 24 0 0 0 
750 1266 24 0 0 0 
750 1267 24 0 0 0 
750 1268 24 0 0 0 
750 1269 24 0 0 0 
750 1270 24 0 0 0 
750 1271 24 0 0 0 
750 1145 25 0 0 0 
750 1146 25 0 0 0 
750 1147 25 0 0 0 
750 1148 25 0 0 0 
750 1149 25 0 0 0 
750 1150 25 0 0 0 
750 1151 25 0 0 0 
750 1152 25 0 0 0 
750 1153 25 0 0 0 
750 1154 25 0 0 0 
750 1155 25 0 0 0 
750 1156 25 0 0 0 
750 1157 25 0 0 0 
750 1158 25 0 0 0 
750 1167 25 0 0 0 
750 1168 25 0 0 0 
750 1213 25 0 0 0 
750 1214 25 0 0 0 
750 1215 25 0 0 0 
750 1216 25 0 0 0 
750 1217 25 0 0 0 
750 1218 25 0 0 0 
750 1219 25 0 0 0 
750 1220 25 0 0 0 
750 1221 25 0 0 0 
750 1222 25 0 0 0 
750 1223 25 0 0 0 
750 1224 25 0 0 0 
750 1225 25 0 0 0 
750 1226 25 0 0 0 
750 1227 25 0 0 0 
750 1228 25 0 0 0 
750 1229 25 0 0 0 
750 1230 25 0 0 0 
750 1231 25 0 0 0 
750 1232 25 0 0 0 
750 1233 25 0 0 0 
750 1234 25 0 0 0 
750 1235 25 0 0 0 
750 1236 25 0 0 0 
750 1237 25 0 0 0 
750 1238 25 0 0 0 
750 1239 25 0 0 0 
750 1240 25 0 0 0 
750 1241 25 0 0 0 
750 1242 25 0 0 0 
750 1243 25 0 0 0 
750 1244 25 0 0 0 
750 1245 25 0 0 0 
750 1246 25 0 0 0 
750 1247 25 0 0 0 
750 1248 25 0 0 0 
750 1249 25 0 0 0 
750 1250 25 0 0 0 
750 1251 25 0 0 0 
750 1252 25 0 0 0 
750 1253 25 0 0 0 
750 1254 25 0 0 0 
750 1255 25 0 0 0 
750 1256 25 0 0 0 
750 1257 25 0 0 0 
750 1258 25 0 0 0 
750 1259 25 0 0 0 
750 1260 25 0 0 0 
750 1261 25 0 0 0 
750 1262 25 0 0 0 
750 1263 25 0 0 0 
750 1264 25 0 0 0 
750 1265 25 0 0 0 
750 1145 26 0 0 0 
750 1146 26 0 0 0 
750 1147 26 0 0 0 
750 1148 26 0 0 0 
750 1149 26 0 0 0 
750 1150 26 0 0 0 
750 1151 26 0 0 0 
750 1152 26 0 0 0 
750 1153 26 0 0 0 
750 1154 26 0 0 0 
750 1155 26 0 0 0 
750 1156 26 0 0 0 
750 1157 26 0 0 0 
750 1158 26 0 0 0 
750 1159 26 0 0 0 
750 1160 26 0 0 0 
750 1161 26 0 0 0 
750 1162 26 0 0 0 
750 1163 26 0 0 0 
750 1164 26 0 0 0 
750 1165 26 0 0 0 
750 1166 26 0 0 0 
750 1167 26 0 0 0 
750 1168 26 0 0 0 
750 1169 26 0 0 0 
750 1170 26 0 0 0 
750 1171 26 0 0 0 
750 1172 26 0 0 0 
750 1173 26 0 0 0 
750 1174 26 0 0 0 
750 1175 26 0 0 0 
750 1176 26 0 0 0 
750 1177 26 0 0 0 
750 1178 26 0 0 0 
750 1179 26 0 0 0 
750 1180 26 0 0 0 
750 1181 26 0 0 0 
750 1194 26 0 0 0 
750 1195 26 0 0 0 
750 1196 26 0 0 0 
750 1197 26 0 0 0 
750 1198 26 0 0 0 
750 1199 26 0 0 0 
750 1200 26 0 0 0 
750 1201 26 0 0 0 
750 1202 26 0 0 0 
750 1203 26 0 0 0 
750 1204 26 0 0 0 
750 1205 26 0 0 0 
750 1206 26 0 0 0 
750 1207 26 0 0 0 
750 1208 26 0 0 0 
750 1209 26 0 0 0 
750 1210 26 0 0 0 
750 1211 26 0 0 0 
750 1212 26 0 0 0 
750 1213 26 0 0 0 
750 1214 26 0 0 0 
750 1215 26 0 0 0 
750 1216 26 0 0 0 
750 1217 26 0 0 0 
750 1218 26 0 0 0 
750 1219 26 0 0 0 
750 1220 26 0 0 0 
750 1221 26 0 0 0 
750 1222 26 0 0 0 
750 1223 26 0 0 0 
750 1224 26 0 0 0 
750 1225 26 0 0 0 
750 1226 26 0 0 0 
750 1227 26 0 0 0 
750 1228 26 0 0 0 
750 1229 26 0 0 0 
750 1230 26 0 0 0 
750 1231 26 0 0 0 
750 1232 26 0 0 0 
750 1233 26 0 0 0 
750 1234 26 0 0 0 
750 1235 26 0 0 0 
750 1236 26 0 0 0 
750 1237 26 0 0 0 
750 1238 26 0 0 0 
750 1239 26 0 0 0 
750 1240 26 0 0 0 
750 1241 26 0 0 0 
750 1242 26 0 0 0 
750 1243 26 0 0 0 
750 1244 26 0 0 0 
750 1245 26 0 0 0 
750 1246 26 0 0 0 
750 1247 26 0 0 0 
750 1248 26 0 0 0 
750 1249 26 0 0 0 
750 1250 26 0 0 0 
750 1251 26 0 0 0 
750 1252 26 0 0 0 
750 1253 26 0 0 0 
750 1254 26 0 0 0 
750 1255 26 0 0 0 
750 1256 26 0 0 0 
750 1257 26 0 0 0 
750 1258 26 0 0 0 
750 1259 26 0 0 0 
750 1145 27 0 0 0 
750 1146 27 0 0 0 
750 1147 27 0 0 0 
750 1148 27 0 0 0 
750 1149 27 0 0 0 
750 1150 27 0 0 0 
750 1151 27 0 0 0 
750 1152 27 0 0 0 
750 1153 27 0 0 0 
750 1154 27 0 0 0 
750 1155 27 0 0 0 
750 1156 27 0 0 0 
750 1157 27 0 0 0 
750 1158 27 0 0 0 
750 1159 27 0 0 0 
750 1160 27 0 0 0 
750 1161 27 0 0 0 
750 1162 27 0 0 0 
750 1163 27 0 0 0 
750 1164 27 0 0 0 
750 1165 27 0 0 0 
750 1166 27 0 0 0 
750 1167 27 0 0 0 
750 1168 27 0 0 0 
750 1169 27 0 0 0 
750 1170 27 0 0 0 
750 1171 27 0 0 0 
750 1172 27 0 0 0 
750 1173 27 0 0 0 
750 1174 27 0 0 0 
750 1175 27 0 0 0 
750 1176 27 0 0 0 
750 1177 27 0 0 0 
750 1178 27 0 0 0 
750 1179 27 0 0 0 
750 1180 27 0 0 0 
750 1181 27 0 0 0 
750 1182 27 0 0 0 
750 1183 27 0 0 0 
750 1184 27 0 0 0 
750 1185 27 0 0 0 
750 1186 27 0 0 0 
750 1187 27 0 0 0 
750 1188 27 0 0 0 
750 1189 27 0 0 0 
750 1190 27 0 0 0 
750 1191 27 0 0 0 
750 1192 27 0 0 0 
750 1193 27 0 0 0 
750 1194 27 0 0 0 
750 1195 27 0 0 0 
750 1196 27 0 0 0 
750 1197 27 0 0 0 
750 1198 27 0 0 0 
750 1199 27 0 0 0 
750 1200 27 0 0 0 
750 1201 27 0 0 0 
750 1202 27 0 0 0 
750 1203 27 0 0 0 
750 1204 27 0 0 0 
750 1205 27 0 0 0 
750 1206 27 0 0 0 
750 1207 27 0 0 0 
750 1208 27 0 0 0 
750 1209 27 0 0 0 
750 1210 27 0 0 0 
750 1211 27 0 0 0 
750 1212 27 0 0 0 
750 1213 27 0 0 0 
750 1214 27 0 0 0 
750 1215 27 0 0 0 
750 1216 27 0 0 0 
750 1217 27 0 0 0 
750 1218 27 0 0 0 
750 1219 27 0 0 0 
750 1220 27 0 0 0 
750 1221 27 0 0 0 
750 1222 27 0 0 0 
750 1223 27 0 0 0 
750 1224 27 0 0 0 
750 1225 27 0 0 0 
750 1237 27 0 0 0 
750 1238 27 0 0 0 
750 1239 27 0 0 0 
750 1240 27 0 0 0 
750 1241 27 0 0 0 
750 1242 27 0 0 0 
750 1243 27 0 0 0 
750 1244 27 0 0 0 
750 1245 27 0 0 0 
750 1246 27 0 0 0 
750 1247 27 0 0 0 
750 1248 27 0 0 0 
750 1249 27 0 0 0 
750 1250 27 0 0 0 
750 1149 28 0 0 0 
750 1150 28 0 0 0 
750 1159 28 0 0 0 
750 1160 28 0 0 0 
750 1161 28 0 0 0 
750 1162 28 0 0 0 
750 1163 28 0 0 0 
750 1164 28 0 0 0 
750 1165 28 0 0 0 
750 1166 28 0 0 0 
750 1167 28 0 0 0 
750 1168 28 0 0 0 
750 1169 28 0 0 0 
750 1170 28 0 0 0 
750 1171 28 0 0 0 
750 1172 28 0 0 0 
750 1173 28 0 0 0 
750 1174 28 0 0 0 
750 1175 28 0 0 0 
750 1176 28 0 0 0 
750 1177 28 0 0 0 
750 1178 28 0 0 0 
750 1179 28 0 0 0 
750 1180 28 0 0 0 
750 1181 28 0 0 0 
750 1182 28 0 0 0 
750 1183 28 0 0 0 
750 1184 28 0 0 0 
750 1185 28 0 0 0 
750 1186 28 0 0 0 
750 1187 28 0 0 0 
750 1188 28 0 0 0 
750 1189 28 0 0 0 
750 1190 28 0 0 0 
750 1191 28 0 0 0 
750 1192 28 0 0 0 
750 1193 28 0 0 0 
750 1194 28 0 0 0 
750 1195 28 0 0 0 
750 1196 28 0 0 0 
750 1197 28 0 0 0 
750 1198 28 0 0 0 
750 1199 28 0 0 0 
750 1200 28 0 0 0 
750 1201 28 0 0 0 
750 1202 28 0 0 0 
750 1203 28 0 0 0 
750 1204 28 0 0 0 
750 1205 28 0 0 0 
750 1206 28 0 0 0 
750 1207 28 0 0 0 
750 1208 28 0 0 0 
750 1209 28 0 0 0 
750 1210 28 0 0 0 
750 1211 28 0 0 0 
750 1212 28 0 0 0 
750 1213 28 0 0 0 
750 1214 28 0 0 0 
750 1215 28 0 0 0 
750 1216 28 0 0 0 
750 1217 28 0 0 0 
750 1218 28 0 0 0 
750 1219 28 0 0 0 
750 1220 28 0 0 0 
750 1169 29 0 0 0 
750 1170 29 0 0 0 
750 1171 29 0 0 0 
750 1172 29 0 0 0 
750 1173 29 0 0 0 
750 1174 29 0 0 0 
750 1175 29 0 0 0 
750 1176 29 0 0 0 
750 1177 29 0 0 0 
750 1178 29 0 0 0 
750 1179 29 0 0 0 
750 1180 29 0 0 0 
750 1181 29 0 0 0 
750 1182 29 0 0 0 
750 1183 29 0 0 0 
750 1184 29 0 0 0 
750 1185 29 0 0 0 
750 1186 29 0 0 0 
750 1187 29 0 0 0 
750 1188 29 0 0 0 
750 1189 29 0 0 0 
750 1190 29 0 0 0 
750 1191 29 0 0 0 
750 1192 29 0 0 0 
750 1193 29 0 0 0 
750 1194 29 0 0 0 
750 1195 29 0 0 0 
750 1196 29 0 0 0 
750 1197 29 0 0 0 
750 1198 29 0 0 0 
750 1199 29 0 0 0 
750 1200 29 0 0 0 
750 1201 29 0 0 0 
750 1202 29 0 0 0 
750 1203 29 0 0 0 
750 1204 29 0 0 0 
750 1205 29 0 0 0 
750 1206 29 0 0 0 
750 1207 29 0 0 0 
750 1179 30 0 0 0 
750 1180 30 0 0 0 
750 1181 30 0 0 0 
