ply
format ascii 1.0
element vertex 728
property float x
property float y
property float z
element face 0
property list uchar int vertex_index
end_header
953	368	0
953	369	0
953	371	0
953	372	0
953	373	0
953	374	0
953	375	0
953	376	0
953	377	0
953	378	0
953	379	0
953	381	0
953	382	0
953	383	0
953	384	0
953	385	0
953	386	0
953	387	0
953	388	0
953	389	0
953	390	0
953	391	0
953	392	0
954	365	0
954	366	0
954	367	0
954	368	0
954	369	0
954	370	0
954	371	0
954	372	0
954	373	0
954	374	0
954	375	0
954	376	0
954	377	0
954	378	0
954	379	0
954	380	0
954	381	0
954	382	0
954	383	0
954	384	0
954	385	0
954	386	0
954	387	0
954	388	0
954	389	0
954	390	0
954	391	0
954	392	0
954	393	0
954	394	0
954	395	0
954	396	0
954	397	0
955	362	0
955	363	0
955	364	0
955	365	0
955	366	0
955	367	0
955	368	0
955	369	0
955	370	0
955	371	0
955	372	0
955	373	0
955	374	0
955	375	0
955	376	0
955	377	0
955	378	0
955	379	0
955	380	0
955	381	0
955	382	0
955	383	0
955	384	0
955	385	0
955	386	0
955	387	0
955	388	0
955	389	0
955	390	0
955	391	0
955	392	0
955	393	0
955	394	0
955	395	0
955	396	0
955	397	0
955	398	0
955	399	0
956	359	0
956	360	0
956	361	0
956	362	0
956	363	0
956	364	0
956	365	0
956	366	0
956	367	0
956	368	0
956	394	0
956	395	0
956	396	0
956	397	0
956	398	0
956	399	0
956	400	0
956	401	0
956	402	0
956	403	0
957	355	0
957	356	0
957	357	0
957	358	0
957	359	0
957	360	0
957	361	0
957	362	0
957	363	0
957	364	0
957	397	0
957	398	0
957	399	0
957	400	0
957	401	0
957	402	0
957	403	0
957	404	0
957	405	0
957	406	0
957	407	0
958	351	0
958	352	0
958	353	0
958	354	0
958	355	0
958	356	0
958	357	0
958	358	0
958	359	0
958	402	0
958	403	0
958	404	0
958	405	0
958	406	0
958	407	0
958	408	0
958	409	0
959	350	0
959	351	0
959	352	0
959	353	0
959	354	0
959	355	0
959	356	0
959	405	0
959	406	0
959	407	0
959	408	0
959	409	0
959	410	0
960	348	0
960	349	0
960	350	0
960	351	0
960	352	0
960	353	0
960	354	0
960	407	0
960	408	0
960	409	0
960	410	0
960	411	0
960	412	0
960	413	0
960	414	0
960	415	0
960	416	0
961	346	0
961	347	0
961	348	0
961	349	0
961	350	0
961	351	0
961	411	0
961	412	0
961	413	0
961	414	0
961	415	0
961	416	0
961	417	0
961	418	0
962	344	0
962	345	0
962	346	0
962	347	0
962	348	0
962	349	0
962	412	0
962	413	0
962	414	0
962	415	0
962	416	0
962	417	0
962	418	0
962	419	0
962	420	0
962	421	0
962	430	0
962	431	0
962	432	0
962	433	0
963	343	0
963	344	0
963	345	0
963	346	0
963	347	0
963	415	0
963	416	0
963	417	0
963	418	0
963	419	0
963	420	0
963	421	0
963	422	0
963	423	0
963	424	0
963	425	0
963	426	0
963	427	0
963	428	0
963	429	0
963	430	0
963	431	0
963	432	0
963	433	0
963	434	0
963	435	0
963	436	0
963	437	0
963	438	0
964	341	0
964	342	0
964	343	0
964	344	0
964	345	0
964	432	0
964	433	0
964	434	0
964	435	0
964	436	0
964	437	0
964	438	0
964	439	0
964	440	0
964	441	0
964	442	0
965	340	0
965	341	0
965	342	0
965	343	0
965	344	0
965	441	0
965	442	0
965	443	0
965	444	0
966	339	0
966	340	0
966	341	0
966	342	0
966	442	0
966	443	0
966	444	0
966	445	0
966	446	0
966	447	0
967	338	0
967	339	0
967	340	0
967	444	0
967	445	0
967	446	0
967	447	0
967	448	0
967	449	0
967	450	0
967	451	0
967	452	0
967	453	0
968	336	0
968	337	0
968	338	0
968	339	0
968	449	0
968	450	0
968	451	0
968	452	0
968	453	0
968	454	0
968	455	0
968	456	0
969	335	0
969	336	0
969	337	0
969	452	0
969	453	0
969	454	0
969	455	0
969	456	0
969	457	0
969	458	0
970	333	0
970	334	0
970	335	0
970	336	0
970	454	0
970	455	0
970	456	0
970	457	0
970	458	0
970	459	0
970	460	0
970	461	0
970	462	0
971	332	0
971	333	0
971	334	0
971	335	0
971	458	0
971	459	0
971	460	0
971	461	0
971	462	0
971	463	0
971	464	0
972	331	0
972	332	0
972	333	0
972	334	0
972	460	0
972	461	0
972	462	0
972	463	0
972	464	0
972	465	0
972	466	0
972	467	0
973	330	0
973	331	0
973	332	0
973	465	0
973	466	0
973	467	0
973	468	0
973	469	0
973	470	0
973	471	0
974	329	0
974	330	0
974	331	0
974	468	0
974	469	0
974	470	0
974	471	0
974	472	0
974	473	0
975	328	0
975	329	0
975	330	0
975	470	0
975	471	0
975	472	0
975	473	0
975	474	0
975	475	0
975	476	0
976	327	0
976	328	0
976	474	0
976	475	0
976	476	0
976	477	0
976	478	0
977	326	0
977	327	0
977	328	0
977	475	0
977	476	0
977	477	0
977	478	0
977	479	0
977	480	0
977	481	0
978	325	0
978	326	0
978	327	0
978	477	0
978	478	0
978	479	0
978	480	0
978	481	0
978	482	0
978	483	0
979	325	0
979	326	0
979	479	0
979	480	0
979	481	0
979	482	0
979	483	0
979	484	0
979	485	0
979	486	0
980	324	0
980	325	0
980	326	0
980	482	0
980	483	0
980	484	0
980	485	0
980	486	0
980	487	0
981	323	0
981	324	0
981	325	0
981	484	0
981	485	0
981	486	0
981	487	0
981	488	0
981	489	0
981	490	0
982	322	0
982	323	0
982	324	0
982	325	0
982	487	0
982	488	0
982	489	0
982	490	0
982	491	0
982	492	0
983	321	0
983	322	0
983	323	0
983	324	0
983	489	0
983	490	0
983	491	0
983	492	0
983	493	0
983	494	0
983	495	0
984	321	0
984	322	0
984	323	0
984	324	0
984	491	0
984	492	0
984	493	0
984	494	0
984	495	0
984	496	0
984	497	0
985	320	0
985	321	0
985	322	0
985	323	0
985	492	0
985	493	0
985	494	0
985	495	0
985	496	0
985	497	0
985	498	0
985	499	0
986	320	0
986	321	0
986	322	0
986	495	0
986	496	0
986	497	0
986	498	0
986	499	0
986	500	0
986	501	0
987	319	0
987	320	0
987	321	0
987	497	0
987	498	0
987	499	0
987	500	0
987	501	0
987	502	0
988	319	0
988	320	0
988	498	0
988	499	0
988	500	0
988	501	0
988	502	0
988	503	0
988	504	0
989	318	0
989	319	0
989	320	0
989	499	0
989	500	0
989	501	0
989	502	0
989	503	0
989	504	0
989	505	0
989	506	0
989	533	0
989	534	0
990	317	0
990	318	0
990	319	0
990	320	0
990	500	0
990	501	0
990	502	0
990	503	0
990	504	0
990	505	0
990	506	0
990	507	0
990	508	0
990	509	0
990	527	0
990	528	0
990	529	0
990	530	0
990	531	0
990	532	0
990	533	0
990	534	0
991	317	0
991	318	0
991	319	0
991	501	0
991	502	0
991	503	0
991	504	0
991	505	0
991	506	0
991	507	0
991	508	0
991	509	0
991	510	0
991	511	0
991	512	0
991	513	0
991	518	0
991	519	0
991	520	0
991	521	0
991	522	0
991	523	0
991	524	0
991	525	0
991	526	0
991	527	0
991	528	0
991	529	0
991	530	0
991	531	0
991	532	0
991	533	0
991	534	0
992	316	0
992	317	0
992	318	0
992	319	0
992	504	0
992	505	0
992	506	0
992	507	0
992	508	0
992	509	0
992	511	0
992	512	0
992	513	0
992	514	0
992	515	0
992	516	0
992	517	0
992	518	0
992	519	0
992	520	0
992	521	0
992	522	0
992	523	0
992	524	0
992	525	0
992	526	0
992	527	0
992	528	0
992	529	0
992	530	0
993	316	0
993	317	0
993	318	0
993	505	0
993	506	0
994	316	0
994	317	0
994	318	0
995	316	0
995	317	0
996	315	0
996	316	0
996	317	0
997	315	0
997	316	0
998	314	0
998	315	0
999	314	0
999	315	0
1000	313	0
1000	314	0
1000	315	0
1001	313	0
1001	314	0
1001	315	0
1002	313	0
1002	314	0
1003	312	0
1003	313	0
1003	314	0
1004	312	0
1004	313	0
1004	314	0
1005	311	0
1005	312	0
1005	313	0
1006	311	0
1006	312	0
1006	313	0
1007	311	0
1007	312	0
1008	310	0
1008	311	0
1008	312	0
1009	310	0
1009	311	0
1009	312	0
1010	310	0
1010	311	0
1011	310	0
1011	311	0
1012	310	0
1012	311	0
1013	310	0
1013	311	0
1014	310	0
1014	311	0
1015	309	0
1015	310	0
1015	311	0
1016	309	0
1016	310	0
1017	309	0
1017	310	0
1018	309	0
1018	310	0
1018	311	0
1019	309	0
1019	310	0
1019	311	0
1020	308	0
1020	309	0
1020	310	0
1021	308	0
1021	309	0
1021	310	0
1022	308	0
1022	309	0
1022	310	0
1023	308	0
1023	309	0
1023	310	0
1024	308	0
1024	309	0
1024	310	0
1025	308	0
1025	309	0
1026	308	0
1026	309	0
1027	308	0
1027	309	0
1028	307	0
1028	308	0
1028	309	0
1029	307	0
1029	308	0
1029	309	0
1030	307	0
1030	308	0
1030	309	0
1031	307	0
1031	308	0
1031	309	0
1032	307	0
1032	308	0
1032	309	0
1033	307	0
1033	308	0
1033	309	0
1034	307	0
1034	308	0
1034	309	0
1035	307	0
1035	308	0
1036	307	0
1036	308	0
1037	307	0
1037	308	0
1038	307	0
1038	308	0
1039	307	0
1039	308	0
