ply
format ascii 1.0
comment VCGLIB generated
element vertex 956
property float x
property float y
property float z
property float nx
property float ny
property float nz
element face 0
property list uchar int vertex_indices
end_header
1040 374 -100 0 0 0 
1040 375 -100 0 0 0 
1040 376 -100 0 0 0 
1040 377 -100 0 0 0 
1040 378 -100 0 0 0 
1040 379 -100 0 0 0 
1040 380 -100 0 0 0 
1040 381 -100 0 0 0 
1040 382 -100 0 0 0 
1040 383 -100 0 0 0 
1040 384 -100 0 0 0 
1040 385 -100 0 0 0 
1040 386 -100 0 0 0 
1040 387 -100 0 0 0 
1040 388 -100 0 0 0 
1040 389 -100 0 0 0 
1040 390 -100 0 0 0 
1040 391 -100 0 0 0 
1040 392 -100 0 0 0 
1040 393 -100 0 0 0 
1040 394 -100 0 0 0 
1040 395 -100 0 0 0 
1040 396 -100 0 0 0 
1040 397 -100 0 0 0 
1040 398 -100 0 0 0 
1040 368 -99 0 0 0 
1040 369 -99 0 0 0 
1040 370 -99 0 0 0 
1040 371 -99 0 0 0 
1040 372 -99 0 0 0 
1040 373 -99 0 0 0 
1040 374 -99 0 0 0 
1040 375 -99 0 0 0 
1040 376 -99 0 0 0 
1040 377 -99 0 0 0 
1040 378 -99 0 0 0 
1040 379 -99 0 0 0 
1040 380 -99 0 0 0 
1040 381 -99 0 0 0 
1040 382 -99 0 0 0 
1040 383 -99 0 0 0 
1040 384 -99 0 0 0 
1040 385 -99 0 0 0 
1040 386 -99 0 0 0 
1040 387 -99 0 0 0 
1040 388 -99 0 0 0 
1040 389 -99 0 0 0 
1040 390 -99 0 0 0 
1040 391 -99 0 0 0 
1040 392 -99 0 0 0 
1040 393 -99 0 0 0 
1040 394 -99 0 0 0 
1040 395 -99 0 0 0 
1040 396 -99 0 0 0 
1040 397 -99 0 0 0 
1040 398 -99 0 0 0 
1040 399 -99 0 0 0 
1040 400 -99 0 0 0 
1040 401 -99 0 0 0 
1040 402 -99 0 0 0 
1040 403 -99 0 0 0 
1040 365 -98 0 0 0 
1040 366 -98 0 0 0 
1040 367 -98 0 0 0 
1040 368 -98 0 0 0 
1040 369 -98 0 0 0 
1040 370 -98 0 0 0 
1040 371 -98 0 0 0 
1040 372 -98 0 0 0 
1040 373 -98 0 0 0 
1040 374 -98 0 0 0 
1040 375 -98 0 0 0 
1040 376 -98 0 0 0 
1040 377 -98 0 0 0 
1040 378 -98 0 0 0 
1040 379 -98 0 0 0 
1040 380 -98 0 0 0 
1040 381 -98 0 0 0 
1040 382 -98 0 0 0 
1040 383 -98 0 0 0 
1040 384 -98 0 0 0 
1040 385 -98 0 0 0 
1040 386 -98 0 0 0 
1040 387 -98 0 0 0 
1040 388 -98 0 0 0 
1040 389 -98 0 0 0 
1040 390 -98 0 0 0 
1040 391 -98 0 0 0 
1040 392 -98 0 0 0 
1040 393 -98 0 0 0 
1040 394 -98 0 0 0 
1040 395 -98 0 0 0 
1040 396 -98 0 0 0 
1040 397 -98 0 0 0 
1040 398 -98 0 0 0 
1040 399 -98 0 0 0 
1040 400 -98 0 0 0 
1040 401 -98 0 0 0 
1040 402 -98 0 0 0 
1040 403 -98 0 0 0 
1040 404 -98 0 0 0 
1040 405 -98 0 0 0 
1040 406 -98 0 0 0 
1040 407 -98 0 0 0 
1040 408 -98 0 0 0 
1040 409 -98 0 0 0 
1040 410 -98 0 0 0 
1040 411 -98 0 0 0 
1040 412 -98 0 0 0 
1040 361 -97 0 0 0 
1040 362 -97 0 0 0 
1040 363 -97 0 0 0 
1040 364 -97 0 0 0 
1040 365 -97 0 0 0 
1040 366 -97 0 0 0 
1040 367 -97 0 0 0 
1040 368 -97 0 0 0 
1040 369 -97 0 0 0 
1040 370 -97 0 0 0 
1040 371 -97 0 0 0 
1040 372 -97 0 0 0 
1040 373 -97 0 0 0 
1040 374 -97 0 0 0 
1040 375 -97 0 0 0 
1040 376 -97 0 0 0 
1040 377 -97 0 0 0 
1040 378 -97 0 0 0 
1040 379 -97 0 0 0 
1040 380 -97 0 0 0 
1040 381 -97 0 0 0 
1040 399 -97 0 0 0 
1040 400 -97 0 0 0 
1040 401 -97 0 0 0 
1040 402 -97 0 0 0 
1040 403 -97 0 0 0 
1040 404 -97 0 0 0 
1040 405 -97 0 0 0 
1040 406 -97 0 0 0 
1040 407 -97 0 0 0 
1040 408 -97 0 0 0 
1040 409 -97 0 0 0 
1040 410 -97 0 0 0 
1040 411 -97 0 0 0 
1040 412 -97 0 0 0 
1040 413 -97 0 0 0 
1040 414 -97 0 0 0 
1040 415 -97 0 0 0 
1040 416 -97 0 0 0 
1040 359 -96 0 0 0 
1040 360 -96 0 0 0 
1040 361 -96 0 0 0 
1040 362 -96 0 0 0 
1040 363 -96 0 0 0 
1040 364 -96 0 0 0 
1040 365 -96 0 0 0 
1040 366 -96 0 0 0 
1040 367 -96 0 0 0 
1040 368 -96 0 0 0 
1040 369 -96 0 0 0 
1040 370 -96 0 0 0 
1040 371 -96 0 0 0 
1040 401 -96 0 0 0 
1040 402 -96 0 0 0 
1040 403 -96 0 0 0 
1040 404 -96 0 0 0 
1040 405 -96 0 0 0 
1040 406 -96 0 0 0 
1040 407 -96 0 0 0 
1040 408 -96 0 0 0 
1040 409 -96 0 0 0 
1040 410 -96 0 0 0 
1040 411 -96 0 0 0 
1040 412 -96 0 0 0 
1040 413 -96 0 0 0 
1040 414 -96 0 0 0 
1040 415 -96 0 0 0 
1040 416 -96 0 0 0 
1040 417 -96 0 0 0 
1040 418 -96 0 0 0 
1040 356 -95 0 0 0 
1040 357 -95 0 0 0 
1040 358 -95 0 0 0 
1040 359 -95 0 0 0 
1040 360 -95 0 0 0 
1040 361 -95 0 0 0 
1040 362 -95 0 0 0 
1040 363 -95 0 0 0 
1040 364 -95 0 0 0 
1040 365 -95 0 0 0 
1040 366 -95 0 0 0 
1040 367 -95 0 0 0 
1040 405 -95 0 0 0 
1040 406 -95 0 0 0 
1040 407 -95 0 0 0 
1040 408 -95 0 0 0 
1040 409 -95 0 0 0 
1040 410 -95 0 0 0 
1040 411 -95 0 0 0 
1040 412 -95 0 0 0 
1040 413 -95 0 0 0 
1040 414 -95 0 0 0 
1040 415 -95 0 0 0 
1040 416 -95 0 0 0 
1040 417 -95 0 0 0 
1040 418 -95 0 0 0 
1040 419 -95 0 0 0 
1040 420 -95 0 0 0 
1040 355 -94 0 0 0 
1040 356 -94 0 0 0 
1040 357 -94 0 0 0 
1040 358 -94 0 0 0 
1040 359 -94 0 0 0 
1040 360 -94 0 0 0 
1040 361 -94 0 0 0 
1040 362 -94 0 0 0 
1040 410 -94 0 0 0 
1040 411 -94 0 0 0 
1040 412 -94 0 0 0 
1040 413 -94 0 0 0 
1040 414 -94 0 0 0 
1040 415 -94 0 0 0 
1040 416 -94 0 0 0 
1040 417 -94 0 0 0 
1040 418 -94 0 0 0 
1040 419 -94 0 0 0 
1040 420 -94 0 0 0 
1040 421 -94 0 0 0 
1040 422 -94 0 0 0 
1040 353 -93 0 0 0 
1040 354 -93 0 0 0 
1040 355 -93 0 0 0 
1040 356 -93 0 0 0 
1040 357 -93 0 0 0 
1040 358 -93 0 0 0 
1040 359 -93 0 0 0 
1040 415 -93 0 0 0 
1040 416 -93 0 0 0 
1040 417 -93 0 0 0 
1040 418 -93 0 0 0 
1040 419 -93 0 0 0 
1040 420 -93 0 0 0 
1040 421 -93 0 0 0 
1040 422 -93 0 0 0 
1040 423 -93 0 0 0 
1040 424 -93 0 0 0 
1040 425 -93 0 0 0 
1040 351 -92 0 0 0 
1040 352 -92 0 0 0 
1040 353 -92 0 0 0 
1040 354 -92 0 0 0 
1040 355 -92 0 0 0 
1040 356 -92 0 0 0 
1040 419 -92 0 0 0 
1040 420 -92 0 0 0 
1040 421 -92 0 0 0 
1040 422 -92 0 0 0 
1040 423 -92 0 0 0 
1040 424 -92 0 0 0 
1040 425 -92 0 0 0 
1040 426 -92 0 0 0 
1040 427 -92 0 0 0 
1040 348 -91 0 0 0 
1040 349 -91 0 0 0 
1040 350 -91 0 0 0 
1040 351 -91 0 0 0 
1040 352 -91 0 0 0 
1040 353 -91 0 0 0 
1040 354 -91 0 0 0 
1040 422 -91 0 0 0 
1040 423 -91 0 0 0 
1040 424 -91 0 0 0 
1040 425 -91 0 0 0 
1040 426 -91 0 0 0 
1040 427 -91 0 0 0 
1040 428 -91 0 0 0 
1040 429 -91 0 0 0 
1040 347 -90 0 0 0 
1040 348 -90 0 0 0 
1040 349 -90 0 0 0 
1040 350 -90 0 0 0 
1040 351 -90 0 0 0 
1040 425 -90 0 0 0 
1040 426 -90 0 0 0 
1040 427 -90 0 0 0 
1040 428 -90 0 0 0 
1040 429 -90 0 0 0 
1040 430 -90 0 0 0 
1040 431 -90 0 0 0 
1040 346 -89 0 0 0 
1040 347 -89 0 0 0 
1040 348 -89 0 0 0 
1040 349 -89 0 0 0 
1040 427 -89 0 0 0 
1040 428 -89 0 0 0 
1040 429 -89 0 0 0 
1040 430 -89 0 0 0 
1040 431 -89 0 0 0 
1040 432 -89 0 0 0 
1040 345 -88 0 0 0 
1040 346 -88 0 0 0 
1040 347 -88 0 0 0 
1040 348 -88 0 0 0 
1040 429 -88 0 0 0 
1040 430 -88 0 0 0 
1040 431 -88 0 0 0 
1040 432 -88 0 0 0 
1040 433 -88 0 0 0 
1040 434 -88 0 0 0 
1040 344 -87 0 0 0 
1040 345 -87 0 0 0 
1040 346 -87 0 0 0 
1040 432 -87 0 0 0 
1040 433 -87 0 0 0 
1040 434 -87 0 0 0 
1040 435 -87 0 0 0 
1040 436 -87 0 0 0 
1040 437 -87 0 0 0 
1040 343 -86 0 0 0 
1040 344 -86 0 0 0 
1040 345 -86 0 0 0 
1040 434 -86 0 0 0 
1040 435 -86 0 0 0 
1040 436 -86 0 0 0 
1040 437 -86 0 0 0 
1040 438 -86 0 0 0 
1040 439 -86 0 0 0 
1040 342 -85 0 0 0 
1040 343 -85 0 0 0 
1040 435 -85 0 0 0 
1040 436 -85 0 0 0 
1040 437 -85 0 0 0 
1040 438 -85 0 0 0 
1040 439 -85 0 0 0 
1040 440 -85 0 0 0 
1040 341 -84 0 0 0 
1040 342 -84 0 0 0 
1040 437 -84 0 0 0 
1040 438 -84 0 0 0 
1040 439 -84 0 0 0 
1040 440 -84 0 0 0 
1040 441 -84 0 0 0 
1040 442 -84 0 0 0 
1040 340 -83 0 0 0 
1040 341 -83 0 0 0 
1040 438 -83 0 0 0 
1040 439 -83 0 0 0 
1040 440 -83 0 0 0 
1040 441 -83 0 0 0 
1040 442 -83 0 0 0 
1040 443 -83 0 0 0 
1040 339 -82 0 0 0 
1040 340 -82 0 0 0 
1040 439 -82 0 0 0 
1040 440 -82 0 0 0 
1040 441 -82 0 0 0 
1040 442 -82 0 0 0 
1040 443 -82 0 0 0 
1040 444 -82 0 0 0 
1040 338 -81 0 0 0 
1040 440 -81 0 0 0 
1040 441 -81 0 0 0 
1040 442 -81 0 0 0 
1040 443 -81 0 0 0 
1040 444 -81 0 0 0 
1040 445 -81 0 0 0 
1040 446 -81 0 0 0 
1040 337 -80 0 0 0 
1040 338 -80 0 0 0 
1040 442 -80 0 0 0 
1040 443 -80 0 0 0 
1040 444 -80 0 0 0 
1040 445 -80 0 0 0 
1040 446 -80 0 0 0 
1040 447 -80 0 0 0 
1040 337 -79 0 0 0 
1040 443 -79 0 0 0 
1040 444 -79 0 0 0 
1040 445 -79 0 0 0 
1040 446 -79 0 0 0 
1040 447 -79 0 0 0 
1040 448 -79 0 0 0 
1040 335 -78 0 0 0 
1040 444 -78 0 0 0 
1040 445 -78 0 0 0 
1040 446 -78 0 0 0 
1040 447 -78 0 0 0 
1040 448 -78 0 0 0 
1040 449 -78 0 0 0 
1040 446 -77 0 0 0 
1040 447 -77 0 0 0 
1040 448 -77 0 0 0 
1040 449 -77 0 0 0 
1040 450 -77 0 0 0 
1040 447 -76 0 0 0 
1040 448 -76 0 0 0 
1040 449 -76 0 0 0 
1040 450 -76 0 0 0 
1040 451 -76 0 0 0 
1040 452 -76 0 0 0 
1040 449 -75 0 0 0 
1040 450 -75 0 0 0 
1040 451 -75 0 0 0 
1040 452 -75 0 0 0 
1040 453 -75 0 0 0 
1040 332 -74 0 0 0 
1040 450 -74 0 0 0 
1040 451 -74 0 0 0 
1040 452 -74 0 0 0 
1040 453 -74 0 0 0 
1040 454 -74 0 0 0 
1040 329 -73 0 0 0 
1040 330 -73 0 0 0 
1040 450 -73 0 0 0 
1040 451 -73 0 0 0 
1040 452 -73 0 0 0 
1040 453 -73 0 0 0 
1040 454 -73 0 0 0 
1040 455 -73 0 0 0 
1040 328 -72 0 0 0 
1040 329 -72 0 0 0 
1040 330 -72 0 0 0 
1040 451 -72 0 0 0 
1040 452 -72 0 0 0 
1040 453 -72 0 0 0 
1040 454 -72 0 0 0 
1040 455 -72 0 0 0 
1040 456 -72 0 0 0 
1040 328 -71 0 0 0 
1040 329 -71 0 0 0 
1040 330 -71 0 0 0 
1040 452 -71 0 0 0 
1040 453 -71 0 0 0 
1040 454 -71 0 0 0 
1040 455 -71 0 0 0 
1040 456 -71 0 0 0 
1040 457 -71 0 0 0 
1040 328 -70 0 0 0 
1040 329 -70 0 0 0 
1040 453 -70 0 0 0 
1040 454 -70 0 0 0 
1040 455 -70 0 0 0 
1040 456 -70 0 0 0 
1040 457 -70 0 0 0 
1040 458 -70 0 0 0 
1040 327 -69 0 0 0 
1040 328 -69 0 0 0 
1040 329 -69 0 0 0 
1040 454 -69 0 0 0 
1040 455 -69 0 0 0 
1040 456 -69 0 0 0 
1040 457 -69 0 0 0 
1040 458 -69 0 0 0 
1040 459 -69 0 0 0 
1040 326 -68 0 0 0 
1040 327 -68 0 0 0 
1040 328 -68 0 0 0 
1040 455 -68 0 0 0 
1040 456 -68 0 0 0 
1040 457 -68 0 0 0 
1040 458 -68 0 0 0 
1040 459 -68 0 0 0 
1040 460 -68 0 0 0 
1040 325 -67 0 0 0 
1040 326 -67 0 0 0 
1040 327 -67 0 0 0 
1040 328 -67 0 0 0 
1040 456 -67 0 0 0 
1040 457 -67 0 0 0 
1040 458 -67 0 0 0 
1040 459 -67 0 0 0 
1040 460 -67 0 0 0 
1040 461 -67 0 0 0 
1040 324 -66 0 0 0 
1040 325 -66 0 0 0 
1040 326 -66 0 0 0 
1040 327 -66 0 0 0 
1040 457 -66 0 0 0 
1040 458 -66 0 0 0 
1040 459 -66 0 0 0 
1040 460 -66 0 0 0 
1040 461 -66 0 0 0 
1040 324 -65 0 0 0 
1040 325 -65 0 0 0 
1040 326 -65 0 0 0 
1040 458 -65 0 0 0 
1040 459 -65 0 0 0 
1040 460 -65 0 0 0 
1040 461 -65 0 0 0 
1040 462 -65 0 0 0 
1040 323 -64 0 0 0 
1040 324 -64 0 0 0 
1040 325 -64 0 0 0 
1040 458 -64 0 0 0 
1040 459 -64 0 0 0 
1040 460 -64 0 0 0 
1040 461 -64 0 0 0 
1040 462 -64 0 0 0 
1040 322 -63 0 0 0 
1040 323 -63 0 0 0 
1040 324 -63 0 0 0 
1040 459 -63 0 0 0 
1040 460 -63 0 0 0 
1040 461 -63 0 0 0 
1040 462 -63 0 0 0 
1040 463 -63 0 0 0 
1040 322 -62 0 0 0 
1040 323 -62 0 0 0 
1040 324 -62 0 0 0 
1040 460 -62 0 0 0 
1040 461 -62 0 0 0 
1040 462 -62 0 0 0 
1040 463 -62 0 0 0 
1040 464 -62 0 0 0 
1040 322 -61 0 0 0 
1040 323 -61 0 0 0 
1040 461 -61 0 0 0 
1040 462 -61 0 0 0 
1040 463 -61 0 0 0 
1040 464 -61 0 0 0 
1040 465 -61 0 0 0 
1040 321 -60 0 0 0 
1040 322 -60 0 0 0 
1040 323 -60 0 0 0 
1040 462 -60 0 0 0 
1040 463 -60 0 0 0 
1040 464 -60 0 0 0 
1040 465 -60 0 0 0 
1040 466 -60 0 0 0 
1040 534 -60 0 0 0 
1040 320 -59 0 0 0 
1040 321 -59 0 0 0 
1040 322 -59 0 0 0 
1040 463 -59 0 0 0 
1040 464 -59 0 0 0 
1040 465 -59 0 0 0 
1040 466 -59 0 0 0 
1040 531 -59 0 0 0 
1040 532 -59 0 0 0 
1040 533 -59 0 0 0 
1040 534 -59 0 0 0 
1040 320 -58 0 0 0 
1040 321 -58 0 0 0 
1040 322 -58 0 0 0 
1040 464 -58 0 0 0 
1040 465 -58 0 0 0 
1040 466 -58 0 0 0 
1040 467 -58 0 0 0 
1040 529 -58 0 0 0 
1040 530 -58 0 0 0 
1040 531 -58 0 0 0 
1040 532 -58 0 0 0 
1040 533 -58 0 0 0 
1040 534 -58 0 0 0 
1040 319 -57 0 0 0 
1040 320 -57 0 0 0 
1040 321 -57 0 0 0 
1040 464 -57 0 0 0 
1040 465 -57 0 0 0 
1040 466 -57 0 0 0 
1040 467 -57 0 0 0 
1040 468 -57 0 0 0 
1040 469 -57 0 0 0 
1040 527 -57 0 0 0 
1040 528 -57 0 0 0 
1040 529 -57 0 0 0 
1040 530 -57 0 0 0 
1040 531 -57 0 0 0 
1040 532 -57 0 0 0 
1040 533 -57 0 0 0 
1040 534 -57 0 0 0 
1040 319 -56 0 0 0 
1040 320 -56 0 0 0 
1040 321 -56 0 0 0 
1040 465 -56 0 0 0 
1040 466 -56 0 0 0 
1040 467 -56 0 0 0 
1040 468 -56 0 0 0 
1040 469 -56 0 0 0 
1040 470 -56 0 0 0 
1040 471 -56 0 0 0 
1040 525 -56 0 0 0 
1040 526 -56 0 0 0 
1040 527 -56 0 0 0 
1040 528 -56 0 0 0 
1040 529 -56 0 0 0 
1040 530 -56 0 0 0 
1040 531 -56 0 0 0 
1040 318 -55 0 0 0 
1040 319 -55 0 0 0 
1040 320 -55 0 0 0 
1040 466 -55 0 0 0 
1040 467 -55 0 0 0 
1040 468 -55 0 0 0 
1040 469 -55 0 0 0 
1040 470 -55 0 0 0 
1040 471 -55 0 0 0 
1040 472 -55 0 0 0 
1040 473 -55 0 0 0 
1040 474 -55 0 0 0 
1040 475 -55 0 0 0 
1040 523 -55 0 0 0 
1040 524 -55 0 0 0 
1040 525 -55 0 0 0 
1040 526 -55 0 0 0 
1040 527 -55 0 0 0 
1040 528 -55 0 0 0 
1040 529 -55 0 0 0 
1040 530 -55 0 0 0 
1040 317 -54 0 0 0 
1040 318 -54 0 0 0 
1040 319 -54 0 0 0 
1040 467 -54 0 0 0 
1040 468 -54 0 0 0 
1040 469 -54 0 0 0 
1040 470 -54 0 0 0 
1040 471 -54 0 0 0 
1040 472 -54 0 0 0 
1040 473 -54 0 0 0 
1040 474 -54 0 0 0 
1040 475 -54 0 0 0 
1040 476 -54 0 0 0 
1040 477 -54 0 0 0 
1040 478 -54 0 0 0 
1040 520 -54 0 0 0 
1040 521 -54 0 0 0 
1040 522 -54 0 0 0 
1040 523 -54 0 0 0 
1040 524 -54 0 0 0 
1040 525 -54 0 0 0 
1040 526 -54 0 0 0 
1040 527 -54 0 0 0 
1040 528 -54 0 0 0 
1040 317 -53 0 0 0 
1040 318 -53 0 0 0 
1040 319 -53 0 0 0 
1040 472 -53 0 0 0 
1040 473 -53 0 0 0 
1040 474 -53 0 0 0 
1040 475 -53 0 0 0 
1040 476 -53 0 0 0 
1040 477 -53 0 0 0 
1040 478 -53 0 0 0 
1040 479 -53 0 0 0 
1040 518 -53 0 0 0 
1040 519 -53 0 0 0 
1040 520 -53 0 0 0 
1040 521 -53 0 0 0 
1040 522 -53 0 0 0 
1040 523 -53 0 0 0 
1040 524 -53 0 0 0 
1040 525 -53 0 0 0 
1040 317 -52 0 0 0 
1040 318 -52 0 0 0 
1040 474 -52 0 0 0 
1040 475 -52 0 0 0 
1040 476 -52 0 0 0 
1040 477 -52 0 0 0 
1040 478 -52 0 0 0 
1040 479 -52 0 0 0 
1040 480 -52 0 0 0 
1040 481 -52 0 0 0 
1040 515 -52 0 0 0 
1040 516 -52 0 0 0 
1040 517 -52 0 0 0 
1040 518 -52 0 0 0 
1040 519 -52 0 0 0 
1040 520 -52 0 0 0 
1040 521 -52 0 0 0 
1040 522 -52 0 0 0 
1040 523 -52 0 0 0 
1040 316 -51 0 0 0 
1040 317 -51 0 0 0 
1040 318 -51 0 0 0 
1040 476 -51 0 0 0 
1040 477 -51 0 0 0 
1040 478 -51 0 0 0 
1040 479 -51 0 0 0 
1040 480 -51 0 0 0 
1040 481 -51 0 0 0 
1040 482 -51 0 0 0 
1040 483 -51 0 0 0 
1040 484 -51 0 0 0 
1040 513 -51 0 0 0 
1040 514 -51 0 0 0 
1040 515 -51 0 0 0 
1040 516 -51 0 0 0 
1040 517 -51 0 0 0 
1040 518 -51 0 0 0 
1040 519 -51 0 0 0 
1040 520 -51 0 0 0 
1040 521 -51 0 0 0 
1040 315 -50 0 0 0 
1040 316 -50 0 0 0 
1040 317 -50 0 0 0 
1040 318 -50 0 0 0 
1040 479 -50 0 0 0 
1040 480 -50 0 0 0 
1040 481 -50 0 0 0 
1040 482 -50 0 0 0 
1040 483 -50 0 0 0 
1040 484 -50 0 0 0 
1040 485 -50 0 0 0 
1040 486 -50 0 0 0 
1040 487 -50 0 0 0 
1040 488 -50 0 0 0 
1040 489 -50 0 0 0 
1040 490 -50 0 0 0 
1040 491 -50 0 0 0 
1040 492 -50 0 0 0 
1040 493 -50 0 0 0 
1040 494 -50 0 0 0 
1040 495 -50 0 0 0 
1040 496 -50 0 0 0 
1040 497 -50 0 0 0 
1040 498 -50 0 0 0 
1040 499 -50 0 0 0 
1040 500 -50 0 0 0 
1040 501 -50 0 0 0 
1040 502 -50 0 0 0 
1040 503 -50 0 0 0 
1040 504 -50 0 0 0 
1040 507 -50 0 0 0 
1040 508 -50 0 0 0 
1040 509 -50 0 0 0 
1040 510 -50 0 0 0 
1040 511 -50 0 0 0 
1040 512 -50 0 0 0 
1040 513 -50 0 0 0 
1040 514 -50 0 0 0 
1040 515 -50 0 0 0 
1040 516 -50 0 0 0 
1040 517 -50 0 0 0 
1040 518 -50 0 0 0 
1040 519 -50 0 0 0 
1040 315 -49 0 0 0 
1040 316 -49 0 0 0 
1040 317 -49 0 0 0 
1040 481 -49 0 0 0 
1040 482 -49 0 0 0 
1040 483 -49 0 0 0 
1040 484 -49 0 0 0 
1040 485 -49 0 0 0 
1040 486 -49 0 0 0 
1040 487 -49 0 0 0 
1040 488 -49 0 0 0 
1040 489 -49 0 0 0 
1040 490 -49 0 0 0 
1040 491 -49 0 0 0 
1040 492 -49 0 0 0 
1040 493 -49 0 0 0 
1040 494 -49 0 0 0 
1040 495 -49 0 0 0 
1040 496 -49 0 0 0 
1040 497 -49 0 0 0 
1040 498 -49 0 0 0 
1040 499 -49 0 0 0 
1040 500 -49 0 0 0 
1040 501 -49 0 0 0 
1040 502 -49 0 0 0 
1040 503 -49 0 0 0 
1040 504 -49 0 0 0 
1040 505 -49 0 0 0 
1040 506 -49 0 0 0 
1040 507 -49 0 0 0 
1040 508 -49 0 0 0 
1040 509 -49 0 0 0 
1040 510 -49 0 0 0 
1040 511 -49 0 0 0 
1040 512 -49 0 0 0 
1040 513 -49 0 0 0 
1040 514 -49 0 0 0 
1040 515 -49 0 0 0 
1040 516 -49 0 0 0 
1040 314 -48 0 0 0 
1040 315 -48 0 0 0 
1040 316 -48 0 0 0 
1040 317 -48 0 0 0 
1040 483 -48 0 0 0 
1040 487 -48 0 0 0 
1040 488 -48 0 0 0 
1040 489 -48 0 0 0 
1040 490 -48 0 0 0 
1040 491 -48 0 0 0 
1040 492 -48 0 0 0 
1040 493 -48 0 0 0 
1040 494 -48 0 0 0 
1040 495 -48 0 0 0 
1040 496 -48 0 0 0 
1040 497 -48 0 0 0 
1040 498 -48 0 0 0 
1040 499 -48 0 0 0 
1040 500 -48 0 0 0 
1040 501 -48 0 0 0 
1040 502 -48 0 0 0 
1040 503 -48 0 0 0 
1040 504 -48 0 0 0 
1040 505 -48 0 0 0 
1040 506 -48 0 0 0 
1040 507 -48 0 0 0 
1040 508 -48 0 0 0 
1040 509 -48 0 0 0 
1040 510 -48 0 0 0 
1040 511 -48 0 0 0 
1040 512 -48 0 0 0 
1040 314 -47 0 0 0 
1040 315 -47 0 0 0 
1040 316 -47 0 0 0 
1040 508 -47 0 0 0 
1040 313 -46 0 0 0 
1040 314 -46 0 0 0 
1040 315 -46 0 0 0 
1040 313 -45 0 0 0 
1040 314 -45 0 0 0 
1040 315 -45 0 0 0 
1040 312 -44 0 0 0 
1040 313 -44 0 0 0 
1040 314 -44 0 0 0 
1040 315 -44 0 0 0 
1040 312 -43 0 0 0 
1040 313 -43 0 0 0 
1040 314 -43 0 0 0 
1040 311 -42 0 0 0 
1040 312 -42 0 0 0 
1040 313 -42 0 0 0 
1040 314 -42 0 0 0 
1040 311 -41 0 0 0 
1040 312 -41 0 0 0 
1040 313 -41 0 0 0 
1040 314 -41 0 0 0 
1040 310 -40 0 0 0 
1040 311 -40 0 0 0 
1040 312 -40 0 0 0 
1040 313 -40 0 0 0 
1040 310 -39 0 0 0 
1040 311 -39 0 0 0 
1040 312 -39 0 0 0 
1040 313 -39 0 0 0 
1040 310 -38 0 0 0 
1040 311 -38 0 0 0 
1040 312 -38 0 0 0 
1040 310 -37 0 0 0 
1040 311 -37 0 0 0 
1040 312 -37 0 0 0 
1040 309 -36 0 0 0 
1040 310 -36 0 0 0 
1040 311 -36 0 0 0 
1040 312 -36 0 0 0 
1040 309 -35 0 0 0 
1040 310 -35 0 0 0 
1040 311 -35 0 0 0 
1040 309 -34 0 0 0 
1040 310 -34 0 0 0 
1040 311 -34 0 0 0 
1040 309 -33 0 0 0 
1040 310 -33 0 0 0 
1040 311 -33 0 0 0 
1040 309 -32 0 0 0 
1040 310 -32 0 0 0 
1040 311 -32 0 0 0 
1040 308 -31 0 0 0 
1040 309 -31 0 0 0 
1040 310 -31 0 0 0 
1040 311 -31 0 0 0 
1040 308 -30 0 0 0 
1040 309 -30 0 0 0 
1040 310 -30 0 0 0 
1040 308 -29 0 0 0 
1040 309 -29 0 0 0 
1040 310 -29 0 0 0 
1040 308 -28 0 0 0 
1040 309 -28 0 0 0 
1040 310 -28 0 0 0 
1040 308 -27 0 0 0 
1040 309 -27 0 0 0 
1040 310 -27 0 0 0 
1040 308 -26 0 0 0 
1040 309 -26 0 0 0 
1040 310 -26 0 0 0 
1040 308 -25 0 0 0 
1040 309 -25 0 0 0 
1040 308 -24 0 0 0 
1040 309 -24 0 0 0 
1040 307 -23 0 0 0 
1040 308 -23 0 0 0 
1040 309 -23 0 0 0 
1040 307 -22 0 0 0 
1040 308 -22 0 0 0 
1040 309 -22 0 0 0 
1040 307 -21 0 0 0 
1040 308 -21 0 0 0 
1040 309 -21 0 0 0 
1040 307 -20 0 0 0 
1040 308 -20 0 0 0 
1040 309 -20 0 0 0 
1040 306 -19 0 0 0 
1040 307 -19 0 0 0 
1040 308 -19 0 0 0 
1040 309 -19 0 0 0 
1040 306 -18 0 0 0 
1040 307 -18 0 0 0 
1040 308 -18 0 0 0 
1040 306 -17 0 0 0 
1040 307 -17 0 0 0 
1040 308 -17 0 0 0 
1040 306 -16 0 0 0 
1040 307 -16 0 0 0 
1040 308 -16 0 0 0 
1040 306 -15 0 0 0 
1040 307 -15 0 0 0 
1040 308 -15 0 0 0 
1040 306 -14 0 0 0 
1040 307 -14 0 0 0 
1040 308 -14 0 0 0 
1040 305 -13 0 0 0 
1040 306 -13 0 0 0 
1040 307 -13 0 0 0 
1040 308 -13 0 0 0 
1040 305 -12 0 0 0 
1040 306 -12 0 0 0 
1040 307 -12 0 0 0 
1040 305 -11 0 0 0 
1040 306 -11 0 0 0 
1040 307 -11 0 0 0 
1040 305 -10 0 0 0 
1040 306 -10 0 0 0 
1040 307 -10 0 0 0 
1040 304 -9 0 0 0 
1040 305 -9 0 0 0 
1040 306 -9 0 0 0 
1040 307 -9 0 0 0 
1040 304 -8 0 0 0 
1040 305 -8 0 0 0 
1040 306 -8 0 0 0 
1040 307 -8 0 0 0 
1040 304 -7 0 0 0 
1040 305 -7 0 0 0 
1040 306 -7 0 0 0 
1040 307 -7 0 0 0 
1040 304 -6 0 0 0 
1040 305 -6 0 0 0 
1040 306 -6 0 0 0 
1040 304 -5 0 0 0 
1040 305 -5 0 0 0 
1040 306 -5 0 0 0 
1040 304 -4 0 0 0 
1040 305 -4 0 0 0 
1040 306 -4 0 0 0 
1040 304 -3 0 0 0 
1040 305 -3 0 0 0 
1040 306 -3 0 0 0 
1040 304 -2 0 0 0 
1040 305 -2 0 0 0 
1040 306 -2 0 0 0 
1040 304 -1 0 0 0 
1040 305 -1 0 0 0 
1040 306 -1 0 0 0 
