ply
format ascii 1.0
comment VCGLIB generated
element vertex 981
property float x
property float y
property float z
property float nx
property float ny
property float nz
element face 0
property list uchar int vertex_indices
end_header
1040 303 1 0 0 0 
1040 304 1 0 0 0 
1040 305 1 0 0 0 
1040 306 1 0 0 0 
1040 303 2 0 0 0 
1040 304 2 0 0 0 
1040 305 2 0 0 0 
1040 306 2 0 0 0 
1040 303 3 0 0 0 
1040 304 3 0 0 0 
1040 305 3 0 0 0 
1040 306 3 0 0 0 
1040 303 4 0 0 0 
1040 304 4 0 0 0 
1040 305 4 0 0 0 
1040 306 4 0 0 0 
1040 303 5 0 0 0 
1040 304 5 0 0 0 
1040 305 5 0 0 0 
1040 306 5 0 0 0 
1040 303 6 0 0 0 
1040 304 6 0 0 0 
1040 305 6 0 0 0 
1040 306 6 0 0 0 
1040 303 7 0 0 0 
1040 304 7 0 0 0 
1040 305 7 0 0 0 
1040 306 7 0 0 0 
1040 303 8 0 0 0 
1040 304 8 0 0 0 
1040 305 8 0 0 0 
1040 306 8 0 0 0 
1040 303 9 0 0 0 
1040 304 9 0 0 0 
1040 305 9 0 0 0 
1040 306 9 0 0 0 
1040 303 10 0 0 0 
1040 304 10 0 0 0 
1040 305 10 0 0 0 
1040 306 10 0 0 0 
1040 303 11 0 0 0 
1040 304 11 0 0 0 
1040 305 11 0 0 0 
1040 306 11 0 0 0 
1040 303 12 0 0 0 
1040 304 12 0 0 0 
1040 305 12 0 0 0 
1040 306 12 0 0 0 
1040 303 13 0 0 0 
1040 304 13 0 0 0 
1040 305 13 0 0 0 
1040 306 13 0 0 0 
1040 303 14 0 0 0 
1040 304 14 0 0 0 
1040 305 14 0 0 0 
1040 306 14 0 0 0 
1040 303 15 0 0 0 
1040 304 15 0 0 0 
1040 305 15 0 0 0 
1040 306 15 0 0 0 
1040 303 16 0 0 0 
1040 304 16 0 0 0 
1040 305 16 0 0 0 
1040 306 16 0 0 0 
1040 303 17 0 0 0 
1040 304 17 0 0 0 
1040 305 17 0 0 0 
1040 306 17 0 0 0 
1040 304 18 0 0 0 
1040 305 18 0 0 0 
1040 306 18 0 0 0 
1040 304 19 0 0 0 
1040 305 19 0 0 0 
1040 306 19 0 0 0 
1040 304 20 0 0 0 
1040 305 20 0 0 0 
1040 306 20 0 0 0 
1040 304 21 0 0 0 
1040 305 21 0 0 0 
1040 306 21 0 0 0 
1040 304 22 0 0 0 
1040 305 22 0 0 0 
1040 306 22 0 0 0 
1040 304 23 0 0 0 
1040 305 23 0 0 0 
1040 306 23 0 0 0 
1040 307 23 0 0 0 
1040 304 24 0 0 0 
1040 305 24 0 0 0 
1040 306 24 0 0 0 
1040 307 24 0 0 0 
1040 304 25 0 0 0 
1040 305 25 0 0 0 
1040 306 25 0 0 0 
1040 307 25 0 0 0 
1040 305 26 0 0 0 
1040 306 26 0 0 0 
1040 307 26 0 0 0 
1040 305 27 0 0 0 
1040 306 27 0 0 0 
1040 307 27 0 0 0 
1040 305 28 0 0 0 
1040 306 28 0 0 0 
1040 307 28 0 0 0 
1040 308 28 0 0 0 
1040 305 29 0 0 0 
1040 306 29 0 0 0 
1040 307 29 0 0 0 
1040 308 29 0 0 0 
1040 305 30 0 0 0 
1040 306 30 0 0 0 
1040 307 30 0 0 0 
1040 308 30 0 0 0 
1040 305 31 0 0 0 
1040 306 31 0 0 0 
1040 307 31 0 0 0 
1040 308 31 0 0 0 
1040 305 32 0 0 0 
1040 306 32 0 0 0 
1040 307 32 0 0 0 
1040 308 32 0 0 0 
1040 306 33 0 0 0 
1040 307 33 0 0 0 
1040 308 33 0 0 0 
1040 306 34 0 0 0 
1040 307 34 0 0 0 
1040 308 34 0 0 0 
1040 306 35 0 0 0 
1040 307 35 0 0 0 
1040 308 35 0 0 0 
1040 309 35 0 0 0 
1040 306 36 0 0 0 
1040 307 36 0 0 0 
1040 308 36 0 0 0 
1040 309 36 0 0 0 
1040 306 37 0 0 0 
1040 307 37 0 0 0 
1040 308 37 0 0 0 
1040 309 37 0 0 0 
1040 307 38 0 0 0 
1040 308 38 0 0 0 
1040 309 38 0 0 0 
1040 307 39 0 0 0 
1040 308 39 0 0 0 
1040 309 39 0 0 0 
1040 310 39 0 0 0 
1040 308 40 0 0 0 
1040 309 40 0 0 0 
1040 310 40 0 0 0 
1040 308 41 0 0 0 
1040 309 41 0 0 0 
1040 310 41 0 0 0 
1040 308 42 0 0 0 
1040 309 42 0 0 0 
1040 310 42 0 0 0 
1040 308 43 0 0 0 
1040 309 43 0 0 0 
1040 310 43 0 0 0 
1040 311 43 0 0 0 
1040 309 44 0 0 0 
1040 310 44 0 0 0 
1040 311 44 0 0 0 
1040 312 44 0 0 0 
1040 309 45 0 0 0 
1040 310 45 0 0 0 
1040 311 45 0 0 0 
1040 312 45 0 0 0 
1040 310 46 0 0 0 
1040 311 46 0 0 0 
1040 312 46 0 0 0 
1040 522 46 0 0 0 
1040 523 46 0 0 0 
1040 310 47 0 0 0 
1040 311 47 0 0 0 
1040 312 47 0 0 0 
1040 520 47 0 0 0 
1040 521 47 0 0 0 
1040 522 47 0 0 0 
1040 523 47 0 0 0 
1040 524 47 0 0 0 
1040 525 47 0 0 0 
1040 526 47 0 0 0 
1040 527 47 0 0 0 
1040 528 47 0 0 0 
1040 529 47 0 0 0 
1040 530 47 0 0 0 
1040 531 47 0 0 0 
1040 532 47 0 0 0 
1040 533 47 0 0 0 
1040 534 47 0 0 0 
1040 310 48 0 0 0 
1040 311 48 0 0 0 
1040 312 48 0 0 0 
1040 313 48 0 0 0 
1040 519 48 0 0 0 
1040 520 48 0 0 0 
1040 521 48 0 0 0 
1040 522 48 0 0 0 
1040 523 48 0 0 0 
1040 524 48 0 0 0 
1040 525 48 0 0 0 
1040 526 48 0 0 0 
1040 527 48 0 0 0 
1040 528 48 0 0 0 
1040 529 48 0 0 0 
1040 530 48 0 0 0 
1040 531 48 0 0 0 
1040 532 48 0 0 0 
1040 533 48 0 0 0 
1040 534 48 0 0 0 
1040 311 49 0 0 0 
1040 312 49 0 0 0 
1040 313 49 0 0 0 
1040 518 49 0 0 0 
1040 519 49 0 0 0 
1040 520 49 0 0 0 
1040 521 49 0 0 0 
1040 522 49 0 0 0 
1040 523 49 0 0 0 
1040 524 49 0 0 0 
1040 525 49 0 0 0 
1040 526 49 0 0 0 
1040 527 49 0 0 0 
1040 528 49 0 0 0 
1040 529 49 0 0 0 
1040 530 49 0 0 0 
1040 531 49 0 0 0 
1040 532 49 0 0 0 
1040 533 49 0 0 0 
1040 534 49 0 0 0 
1040 312 50 0 0 0 
1040 313 50 0 0 0 
1040 517 50 0 0 0 
1040 518 50 0 0 0 
1040 519 50 0 0 0 
1040 520 50 0 0 0 
1040 521 50 0 0 0 
1040 312 51 0 0 0 
1040 313 51 0 0 0 
1040 314 51 0 0 0 
1040 516 51 0 0 0 
1040 517 51 0 0 0 
1040 518 51 0 0 0 
1040 519 51 0 0 0 
1040 312 52 0 0 0 
1040 313 52 0 0 0 
1040 314 52 0 0 0 
1040 515 52 0 0 0 
1040 516 52 0 0 0 
1040 517 52 0 0 0 
1040 518 52 0 0 0 
1040 313 53 0 0 0 
1040 314 53 0 0 0 
1040 315 53 0 0 0 
1040 516 53 0 0 0 
1040 517 53 0 0 0 
1040 518 53 0 0 0 
1040 313 54 0 0 0 
1040 314 54 0 0 0 
1040 315 54 0 0 0 
1040 316 54 0 0 0 
1040 516 54 0 0 0 
1040 517 54 0 0 0 
1040 518 54 0 0 0 
1040 519 54 0 0 0 
1040 314 55 0 0 0 
1040 315 55 0 0 0 
1040 316 55 0 0 0 
1040 516 55 0 0 0 
1040 517 55 0 0 0 
1040 518 55 0 0 0 
1040 519 55 0 0 0 
1040 314 56 0 0 0 
1040 315 56 0 0 0 
1040 316 56 0 0 0 
1040 516 56 0 0 0 
1040 517 56 0 0 0 
1040 518 56 0 0 0 
1040 519 56 0 0 0 
1040 314 57 0 0 0 
1040 315 57 0 0 0 
1040 316 57 0 0 0 
1040 517 57 0 0 0 
1040 518 57 0 0 0 
1040 519 57 0 0 0 
1040 314 58 0 0 0 
1040 315 58 0 0 0 
1040 316 58 0 0 0 
1040 317 58 0 0 0 
1040 517 58 0 0 0 
1040 518 58 0 0 0 
1040 519 58 0 0 0 
1040 315 59 0 0 0 
1040 316 59 0 0 0 
1040 317 59 0 0 0 
1040 318 59 0 0 0 
1040 517 59 0 0 0 
1040 518 59 0 0 0 
1040 519 59 0 0 0 
1040 316 60 0 0 0 
1040 317 60 0 0 0 
1040 318 60 0 0 0 
1040 517 60 0 0 0 
1040 518 60 0 0 0 
1040 519 60 0 0 0 
1040 317 61 0 0 0 
1040 318 61 0 0 0 
1040 319 61 0 0 0 
1040 517 61 0 0 0 
1040 518 61 0 0 0 
1040 519 61 0 0 0 
1040 318 62 0 0 0 
1040 319 62 0 0 0 
1040 320 62 0 0 0 
1040 517 62 0 0 0 
1040 518 62 0 0 0 
1040 519 62 0 0 0 
1040 319 63 0 0 0 
1040 320 63 0 0 0 
1040 517 63 0 0 0 
1040 518 63 0 0 0 
1040 519 63 0 0 0 
1040 319 64 0 0 0 
1040 320 64 0 0 0 
1040 321 64 0 0 0 
1040 517 64 0 0 0 
1040 518 64 0 0 0 
1040 519 64 0 0 0 
1040 320 65 0 0 0 
1040 321 65 0 0 0 
1040 322 65 0 0 0 
1040 518 65 0 0 0 
1040 519 65 0 0 0 
1040 520 65 0 0 0 
1040 321 66 0 0 0 
1040 322 66 0 0 0 
1040 323 66 0 0 0 
1040 518 66 0 0 0 
1040 519 66 0 0 0 
1040 520 66 0 0 0 
1040 322 67 0 0 0 
1040 323 67 0 0 0 
1040 324 67 0 0 0 
1040 518 67 0 0 0 
1040 519 67 0 0 0 
1040 520 67 0 0 0 
1040 322 68 0 0 0 
1040 323 68 0 0 0 
1040 324 68 0 0 0 
1040 518 68 0 0 0 
1040 519 68 0 0 0 
1040 520 68 0 0 0 
1040 323 69 0 0 0 
1040 324 69 0 0 0 
1040 325 69 0 0 0 
1040 518 69 0 0 0 
1040 519 69 0 0 0 
1040 520 69 0 0 0 
1040 324 70 0 0 0 
1040 325 70 0 0 0 
1040 326 70 0 0 0 
1040 517 70 0 0 0 
1040 518 70 0 0 0 
1040 519 70 0 0 0 
1040 520 70 0 0 0 
1040 325 71 0 0 0 
1040 326 71 0 0 0 
1040 327 71 0 0 0 
1040 517 71 0 0 0 
1040 518 71 0 0 0 
1040 519 71 0 0 0 
1040 520 71 0 0 0 
1040 326 72 0 0 0 
1040 327 72 0 0 0 
1040 517 72 0 0 0 
1040 518 72 0 0 0 
1040 519 72 0 0 0 
1040 520 72 0 0 0 
1040 327 73 0 0 0 
1040 328 73 0 0 0 
1040 517 73 0 0 0 
1040 518 73 0 0 0 
1040 519 73 0 0 0 
1040 328 74 0 0 0 
1040 329 74 0 0 0 
1040 330 74 0 0 0 
1040 516 74 0 0 0 
1040 517 74 0 0 0 
1040 518 74 0 0 0 
1040 519 74 0 0 0 
1040 329 75 0 0 0 
1040 330 75 0 0 0 
1040 331 75 0 0 0 
1040 516 75 0 0 0 
1040 517 75 0 0 0 
1040 518 75 0 0 0 
1040 519 75 0 0 0 
1040 330 76 0 0 0 
1040 331 76 0 0 0 
1040 332 76 0 0 0 
1040 516 76 0 0 0 
1040 517 76 0 0 0 
1040 518 76 0 0 0 
1040 331 77 0 0 0 
1040 332 77 0 0 0 
1040 333 77 0 0 0 
1040 515 77 0 0 0 
1040 516 77 0 0 0 
1040 517 77 0 0 0 
1040 518 77 0 0 0 
1040 332 78 0 0 0 
1040 333 78 0 0 0 
1040 334 78 0 0 0 
1040 514 78 0 0 0 
1040 515 78 0 0 0 
1040 516 78 0 0 0 
1040 517 78 0 0 0 
1040 332 79 0 0 0 
1040 333 79 0 0 0 
1040 334 79 0 0 0 
1040 335 79 0 0 0 
1040 336 79 0 0 0 
1040 514 79 0 0 0 
1040 515 79 0 0 0 
1040 516 79 0 0 0 
1040 517 79 0 0 0 
1040 334 80 0 0 0 
1040 335 80 0 0 0 
1040 336 80 0 0 0 
1040 337 80 0 0 0 
1040 513 80 0 0 0 
1040 514 80 0 0 0 
1040 515 80 0 0 0 
1040 516 80 0 0 0 
1040 335 81 0 0 0 
1040 336 81 0 0 0 
1040 337 81 0 0 0 
1040 338 81 0 0 0 
1040 513 81 0 0 0 
1040 514 81 0 0 0 
1040 515 81 0 0 0 
1040 516 81 0 0 0 
1040 336 82 0 0 0 
1040 337 82 0 0 0 
1040 338 82 0 0 0 
1040 339 82 0 0 0 
1040 514 82 0 0 0 
1040 515 82 0 0 0 
1040 516 82 0 0 0 
1040 338 83 0 0 0 
1040 339 83 0 0 0 
1040 340 83 0 0 0 
1040 341 83 0 0 0 
1040 514 83 0 0 0 
1040 515 83 0 0 0 
1040 516 83 0 0 0 
1040 517 83 0 0 0 
1040 340 84 0 0 0 
1040 341 84 0 0 0 
1040 342 84 0 0 0 
1040 514 84 0 0 0 
1040 515 84 0 0 0 
1040 516 84 0 0 0 
1040 517 84 0 0 0 
1040 341 85 0 0 0 
1040 342 85 0 0 0 
1040 343 85 0 0 0 
1040 344 85 0 0 0 
1040 346 85 0 0 0 
1040 347 85 0 0 0 
1040 348 85 0 0 0 
1040 514 85 0 0 0 
1040 515 85 0 0 0 
1040 516 85 0 0 0 
1040 517 85 0 0 0 
1040 344 86 0 0 0 
1040 345 86 0 0 0 
1040 346 86 0 0 0 
1040 347 86 0 0 0 
1040 348 86 0 0 0 
1040 514 86 0 0 0 
1040 515 86 0 0 0 
1040 516 86 0 0 0 
1040 517 86 0 0 0 
1040 347 87 0 0 0 
1040 348 87 0 0 0 
1040 514 87 0 0 0 
1040 515 87 0 0 0 
1040 516 87 0 0 0 
1040 517 87 0 0 0 
1040 347 88 0 0 0 
1040 348 88 0 0 0 
1040 350 88 0 0 0 
1040 514 88 0 0 0 
1040 515 88 0 0 0 
1040 516 88 0 0 0 
1040 517 88 0 0 0 
1040 347 89 0 0 0 
1040 348 89 0 0 0 
1040 349 89 0 0 0 
1040 350 89 0 0 0 
1040 351 89 0 0 0 
1040 513 89 0 0 0 
1040 514 89 0 0 0 
1040 515 89 0 0 0 
1040 516 89 0 0 0 
1040 349 90 0 0 0 
1040 350 90 0 0 0 
1040 351 90 0 0 0 
1040 352 90 0 0 0 
1040 353 90 0 0 0 
1040 513 90 0 0 0 
1040 514 90 0 0 0 
1040 515 90 0 0 0 
1040 516 90 0 0 0 
1040 350 91 0 0 0 
1040 351 91 0 0 0 
1040 352 91 0 0 0 
1040 353 91 0 0 0 
1040 354 91 0 0 0 
1040 485 91 0 0 0 
1040 486 91 0 0 0 
1040 512 91 0 0 0 
1040 513 91 0 0 0 
1040 514 91 0 0 0 
1040 515 91 0 0 0 
1040 352 92 0 0 0 
1040 353 92 0 0 0 
1040 354 92 0 0 0 
1040 355 92 0 0 0 
1040 356 92 0 0 0 
1040 357 92 0 0 0 
1040 484 92 0 0 0 
1040 485 92 0 0 0 
1040 486 92 0 0 0 
1040 487 92 0 0 0 
1040 488 92 0 0 0 
1040 511 92 0 0 0 
1040 512 92 0 0 0 
1040 513 92 0 0 0 
1040 514 92 0 0 0 
1040 353 93 0 0 0 
1040 354 93 0 0 0 
1040 355 93 0 0 0 
1040 356 93 0 0 0 
1040 357 93 0 0 0 
1040 358 93 0 0 0 
1040 484 93 0 0 0 
1040 485 93 0 0 0 
1040 486 93 0 0 0 
1040 487 93 0 0 0 
1040 488 93 0 0 0 
1040 510 93 0 0 0 
1040 511 93 0 0 0 
1040 512 93 0 0 0 
1040 513 93 0 0 0 
1040 355 94 0 0 0 
1040 356 94 0 0 0 
1040 357 94 0 0 0 
1040 358 94 0 0 0 
1040 359 94 0 0 0 
1040 360 94 0 0 0 
1040 484 94 0 0 0 
1040 485 94 0 0 0 
1040 486 94 0 0 0 
1040 487 94 0 0 0 
1040 488 94 0 0 0 
1040 489 94 0 0 0 
1040 508 94 0 0 0 
1040 509 94 0 0 0 
1040 510 94 0 0 0 
1040 511 94 0 0 0 
1040 512 94 0 0 0 
1040 357 95 0 0 0 
1040 358 95 0 0 0 
1040 359 95 0 0 0 
1040 360 95 0 0 0 
1040 361 95 0 0 0 
1040 362 95 0 0 0 
1040 363 95 0 0 0 
1040 364 95 0 0 0 
1040 483 95 0 0 0 
1040 484 95 0 0 0 
1040 487 95 0 0 0 
1040 488 95 0 0 0 
1040 489 95 0 0 0 
1040 490 95 0 0 0 
1040 506 95 0 0 0 
1040 507 95 0 0 0 
1040 508 95 0 0 0 
1040 509 95 0 0 0 
1040 510 95 0 0 0 
1040 360 96 0 0 0 
1040 361 96 0 0 0 
1040 362 96 0 0 0 
1040 363 96 0 0 0 
1040 364 96 0 0 0 
1040 365 96 0 0 0 
1040 482 96 0 0 0 
1040 483 96 0 0 0 
1040 488 96 0 0 0 
1040 489 96 0 0 0 
1040 490 96 0 0 0 
1040 491 96 0 0 0 
1040 492 96 0 0 0 
1040 504 96 0 0 0 
1040 505 96 0 0 0 
1040 506 96 0 0 0 
1040 507 96 0 0 0 
1040 508 96 0 0 0 
1040 509 96 0 0 0 
1040 363 97 0 0 0 
1040 364 97 0 0 0 
1040 365 97 0 0 0 
1040 366 97 0 0 0 
1040 367 97 0 0 0 
1040 368 97 0 0 0 
1040 369 97 0 0 0 
1040 479 97 0 0 0 
1040 481 97 0 0 0 
1040 482 97 0 0 0 
1040 490 97 0 0 0 
1040 491 97 0 0 0 
1040 492 97 0 0 0 
1040 493 97 0 0 0 
1040 494 97 0 0 0 
1040 495 97 0 0 0 
1040 496 97 0 0 0 
1040 497 97 0 0 0 
1040 498 97 0 0 0 
1040 499 97 0 0 0 
1040 500 97 0 0 0 
1040 501 97 0 0 0 
1040 502 97 0 0 0 
1040 503 97 0 0 0 
1040 504 97 0 0 0 
1040 505 97 0 0 0 
1040 506 97 0 0 0 
1040 507 97 0 0 0 
1040 508 97 0 0 0 
1040 365 98 0 0 0 
1040 366 98 0 0 0 
1040 367 98 0 0 0 
1040 368 98 0 0 0 
1040 369 98 0 0 0 
1040 370 98 0 0 0 
1040 478 98 0 0 0 
1040 479 98 0 0 0 
1040 480 98 0 0 0 
1040 481 98 0 0 0 
1040 482 98 0 0 0 
1040 492 98 0 0 0 
1040 493 98 0 0 0 
1040 494 98 0 0 0 
1040 495 98 0 0 0 
1040 496 98 0 0 0 
1040 497 98 0 0 0 
1040 498 98 0 0 0 
1040 499 98 0 0 0 
1040 500 98 0 0 0 
1040 501 98 0 0 0 
1040 502 98 0 0 0 
1040 503 98 0 0 0 
1040 504 98 0 0 0 
1040 505 98 0 0 0 
1040 506 98 0 0 0 
1040 367 99 0 0 0 
1040 368 99 0 0 0 
1040 369 99 0 0 0 
1040 370 99 0 0 0 
1040 371 99 0 0 0 
1040 372 99 0 0 0 
1040 373 99 0 0 0 
1040 374 99 0 0 0 
1040 464 99 0 0 0 
1040 465 99 0 0 0 
1040 466 99 0 0 0 
1040 476 99 0 0 0 
1040 477 99 0 0 0 
1040 478 99 0 0 0 
1040 479 99 0 0 0 
1040 480 99 0 0 0 
1040 481 99 0 0 0 
1040 496 99 0 0 0 
1040 497 99 0 0 0 
1040 498 99 0 0 0 
1040 373 100 0 0 0 
1040 374 100 0 0 0 
1040 375 100 0 0 0 
1040 376 100 0 0 0 
1040 377 100 0 0 0 
1040 378 100 0 0 0 
1040 379 100 0 0 0 
1040 463 100 0 0 0 
1040 464 100 0 0 0 
1040 465 100 0 0 0 
1040 476 100 0 0 0 
1040 477 100 0 0 0 
1040 478 100 0 0 0 
1040 376 101 0 0 0 
1040 377 101 0 0 0 
1040 378 101 0 0 0 
1040 379 101 0 0 0 
1040 380 101 0 0 0 
1040 381 101 0 0 0 
1040 382 101 0 0 0 
1040 383 101 0 0 0 
1040 384 101 0 0 0 
1040 385 101 0 0 0 
1040 406 101 0 0 0 
1040 407 101 0 0 0 
1040 408 101 0 0 0 
1040 462 101 0 0 0 
1040 469 101 0 0 0 
1040 470 101 0 0 0 
1040 475 101 0 0 0 
1040 476 101 0 0 0 
1040 477 101 0 0 0 
1040 478 101 0 0 0 
1040 380 102 0 0 0 
1040 381 102 0 0 0 
1040 382 102 0 0 0 
1040 383 102 0 0 0 
1040 384 102 0 0 0 
1040 385 102 0 0 0 
1040 386 102 0 0 0 
1040 387 102 0 0 0 
1040 388 102 0 0 0 
1040 389 102 0 0 0 
1040 390 102 0 0 0 
1040 391 102 0 0 0 
1040 392 102 0 0 0 
1040 393 102 0 0 0 
1040 394 102 0 0 0 
1040 395 102 0 0 0 
1040 396 102 0 0 0 
1040 397 102 0 0 0 
1040 398 102 0 0 0 
1040 399 102 0 0 0 
1040 400 102 0 0 0 
1040 401 102 0 0 0 
1040 402 102 0 0 0 
1040 403 102 0 0 0 
1040 404 102 0 0 0 
1040 405 102 0 0 0 
1040 406 102 0 0 0 
1040 407 102 0 0 0 
1040 408 102 0 0 0 
1040 409 102 0 0 0 
1040 410 102 0 0 0 
1040 461 102 0 0 0 
1040 462 102 0 0 0 
1040 465 102 0 0 0 
1040 466 102 0 0 0 
1040 467 102 0 0 0 
1040 468 102 0 0 0 
1040 469 102 0 0 0 
1040 470 102 0 0 0 
1040 471 102 0 0 0 
1040 474 102 0 0 0 
1040 475 102 0 0 0 
1040 476 102 0 0 0 
1040 477 102 0 0 0 
1040 386 103 0 0 0 
1040 387 103 0 0 0 
1040 388 103 0 0 0 
1040 389 103 0 0 0 
1040 390 103 0 0 0 
1040 391 103 0 0 0 
1040 392 103 0 0 0 
1040 393 103 0 0 0 
1040 394 103 0 0 0 
1040 395 103 0 0 0 
1040 396 103 0 0 0 
1040 397 103 0 0 0 
1040 398 103 0 0 0 
1040 399 103 0 0 0 
1040 400 103 0 0 0 
1040 401 103 0 0 0 
1040 402 103 0 0 0 
1040 403 103 0 0 0 
1040 406 103 0 0 0 
1040 407 103 0 0 0 
1040 408 103 0 0 0 
1040 409 103 0 0 0 
1040 410 103 0 0 0 
1040 411 103 0 0 0 
1040 412 103 0 0 0 
1040 413 103 0 0 0 
1040 414 103 0 0 0 
1040 461 103 0 0 0 
1040 462 103 0 0 0 
1040 463 103 0 0 0 
1040 464 103 0 0 0 
1040 465 103 0 0 0 
1040 466 103 0 0 0 
1040 467 103 0 0 0 
1040 468 103 0 0 0 
1040 469 103 0 0 0 
1040 470 103 0 0 0 
1040 471 103 0 0 0 
1040 472 103 0 0 0 
1040 473 103 0 0 0 
1040 474 103 0 0 0 
1040 475 103 0 0 0 
1040 476 103 0 0 0 
1040 390 104 0 0 0 
1040 391 104 0 0 0 
1040 392 104 0 0 0 
1040 393 104 0 0 0 
1040 394 104 0 0 0 
1040 395 104 0 0 0 
1040 396 104 0 0 0 
1040 397 104 0 0 0 
1040 398 104 0 0 0 
1040 399 104 0 0 0 
1040 410 104 0 0 0 
1040 411 104 0 0 0 
1040 412 104 0 0 0 
1040 413 104 0 0 0 
1040 414 104 0 0 0 
1040 415 104 0 0 0 
1040 416 104 0 0 0 
1040 417 104 0 0 0 
1040 418 104 0 0 0 
1040 419 104 0 0 0 
1040 420 104 0 0 0 
1040 460 104 0 0 0 
1040 461 104 0 0 0 
1040 462 104 0 0 0 
1040 463 104 0 0 0 
1040 464 104 0 0 0 
1040 469 104 0 0 0 
1040 470 104 0 0 0 
1040 471 104 0 0 0 
1040 472 104 0 0 0 
1040 473 104 0 0 0 
1040 474 104 0 0 0 
1040 475 104 0 0 0 
1040 414 105 0 0 0 
1040 415 105 0 0 0 
1040 416 105 0 0 0 
1040 417 105 0 0 0 
1040 418 105 0 0 0 
1040 419 105 0 0 0 
1040 420 105 0 0 0 
1040 421 105 0 0 0 
1040 422 105 0 0 0 
1040 423 105 0 0 0 
1040 424 105 0 0 0 
1040 425 105 0 0 0 
1040 426 105 0 0 0 
1040 427 105 0 0 0 
1040 428 105 0 0 0 
1040 429 105 0 0 0 
1040 460 105 0 0 0 
1040 461 105 0 0 0 
1040 462 105 0 0 0 
1040 472 105 0 0 0 
1040 473 105 0 0 0 
1040 474 105 0 0 0 
1040 416 106 0 0 0 
1040 417 106 0 0 0 
1040 418 106 0 0 0 
1040 419 106 0 0 0 
1040 420 106 0 0 0 
1040 421 106 0 0 0 
1040 422 106 0 0 0 
1040 423 106 0 0 0 
1040 424 106 0 0 0 
1040 425 106 0 0 0 
1040 426 106 0 0 0 
1040 427 106 0 0 0 
1040 428 106 0 0 0 
1040 429 106 0 0 0 
1040 430 106 0 0 0 
1040 431 106 0 0 0 
1040 432 106 0 0 0 
1040 433 106 0 0 0 
1040 459 106 0 0 0 
1040 460 106 0 0 0 
1040 461 106 0 0 0 
1040 424 107 0 0 0 
1040 425 107 0 0 0 
1040 426 107 0 0 0 
1040 427 107 0 0 0 
1040 428 107 0 0 0 
1040 429 107 0 0 0 
1040 430 107 0 0 0 
1040 431 107 0 0 0 
1040 432 107 0 0 0 
1040 433 107 0 0 0 
1040 434 107 0 0 0 
1040 435 107 0 0 0 
1040 436 107 0 0 0 
1040 437 107 0 0 0 
1040 438 107 0 0 0 
1040 459 107 0 0 0 
1040 460 107 0 0 0 
1040 461 107 0 0 0 
1040 428 108 0 0 0 
1040 429 108 0 0 0 
1040 430 108 0 0 0 
1040 431 108 0 0 0 
1040 432 108 0 0 0 
1040 433 108 0 0 0 
1040 434 108 0 0 0 
1040 435 108 0 0 0 
1040 436 108 0 0 0 
1040 437 108 0 0 0 
1040 438 108 0 0 0 
1040 439 108 0 0 0 
1040 440 108 0 0 0 
1040 441 108 0 0 0 
1040 442 108 0 0 0 
1040 443 108 0 0 0 
1040 444 108 0 0 0 
1040 459 108 0 0 0 
1040 460 108 0 0 0 
1040 461 108 0 0 0 
1040 437 109 0 0 0 
1040 438 109 0 0 0 
1040 439 109 0 0 0 
1040 440 109 0 0 0 
1040 441 109 0 0 0 
1040 442 109 0 0 0 
1040 443 109 0 0 0 
1040 444 109 0 0 0 
1040 445 109 0 0 0 
1040 446 109 0 0 0 
1040 459 109 0 0 0 
1040 460 109 0 0 0 
1040 461 109 0 0 0 
1040 440 110 0 0 0 
1040 441 110 0 0 0 
1040 442 110 0 0 0 
1040 443 110 0 0 0 
1040 444 110 0 0 0 
1040 445 110 0 0 0 
1040 446 110 0 0 0 
1040 447 110 0 0 0 
1040 448 110 0 0 0 
1040 449 110 0 0 0 
1040 459 110 0 0 0 
1040 460 110 0 0 0 
1040 445 111 0 0 0 
1040 446 111 0 0 0 
1040 447 111 0 0 0 
1040 448 111 0 0 0 
1040 449 111 0 0 0 
1040 450 111 0 0 0 
1040 451 111 0 0 0 
1040 452 111 0 0 0 
1040 453 111 0 0 0 
1040 454 111 0 0 0 
1040 457 111 0 0 0 
1040 458 111 0 0 0 
1040 459 111 0 0 0 
1040 460 111 0 0 0 
1040 447 112 0 0 0 
1040 448 112 0 0 0 
1040 449 112 0 0 0 
1040 450 112 0 0 0 
1040 451 112 0 0 0 
1040 452 112 0 0 0 
1040 453 112 0 0 0 
1040 454 112 0 0 0 
1040 455 112 0 0 0 
1040 456 112 0 0 0 
1040 457 112 0 0 0 
1040 458 112 0 0 0 
1040 459 112 0 0 0 
1040 460 112 0 0 0 
1040 450 113 0 0 0 
1040 451 113 0 0 0 
1040 452 113 0 0 0 
1040 453 113 0 0 0 
1040 454 113 0 0 0 
1040 455 113 0 0 0 
1040 456 113 0 0 0 
1040 457 113 0 0 0 
