ply
format ascii 1.0
comment VCGLIB generated
element vertex 475
property float x
property float y
property float z
property float nx
property float ny
property float nz
element face 0
property list uchar int vertex_indices
end_header
1000 1963 -96 0 0 0 
1000 1964 -96 0 0 0 
1000 1957 -95 0 0 0 
1000 1958 -95 0 0 0 
1000 1959 -95 0 0 0 
1000 1960 -95 0 0 0 
1000 1961 -95 0 0 0 
1000 1962 -95 0 0 0 
1000 1963 -95 0 0 0 
1000 1964 -95 0 0 0 
1000 1965 -95 0 0 0 
1000 1966 -95 0 0 0 
1000 1967 -95 0 0 0 
1000 1968 -95 0 0 0 
1000 1969 -95 0 0 0 
1000 1970 -95 0 0 0 
1000 1971 -95 0 0 0 
1000 1972 -95 0 0 0 
1000 1973 -95 0 0 0 
1000 1974 -95 0 0 0 
1000 1975 -95 0 0 0 
1000 1976 -95 0 0 0 
1000 1955 -94 0 0 0 
1000 1956 -94 0 0 0 
1000 1957 -94 0 0 0 
1000 1958 -94 0 0 0 
1000 1959 -94 0 0 0 
1000 1960 -94 0 0 0 
1000 1961 -94 0 0 0 
1000 1962 -94 0 0 0 
1000 1963 -94 0 0 0 
1000 1964 -94 0 0 0 
1000 1965 -94 0 0 0 
1000 1966 -94 0 0 0 
1000 1967 -94 0 0 0 
1000 1968 -94 0 0 0 
1000 1969 -94 0 0 0 
1000 1970 -94 0 0 0 
1000 1971 -94 0 0 0 
1000 1972 -94 0 0 0 
1000 1973 -94 0 0 0 
1000 1974 -94 0 0 0 
1000 1975 -94 0 0 0 
1000 1976 -94 0 0 0 
1000 1977 -94 0 0 0 
1000 1978 -94 0 0 0 
1000 1979 -94 0 0 0 
1000 1980 -94 0 0 0 
1000 1981 -94 0 0 0 
1000 1950 -93 0 0 0 
1000 1951 -93 0 0 0 
1000 1952 -93 0 0 0 
1000 1953 -93 0 0 0 
1000 1954 -93 0 0 0 
1000 1955 -93 0 0 0 
1000 1956 -93 0 0 0 
1000 1957 -93 0 0 0 
1000 1958 -93 0 0 0 
1000 1959 -93 0 0 0 
1000 1960 -93 0 0 0 
1000 1961 -93 0 0 0 
1000 1962 -93 0 0 0 
1000 1963 -93 0 0 0 
1000 1972 -93 0 0 0 
1000 1973 -93 0 0 0 
1000 1974 -93 0 0 0 
1000 1975 -93 0 0 0 
1000 1976 -93 0 0 0 
1000 1977 -93 0 0 0 
1000 1978 -93 0 0 0 
1000 1979 -93 0 0 0 
1000 1980 -93 0 0 0 
1000 1981 -93 0 0 0 
1000 1982 -93 0 0 0 
1000 1983 -93 0 0 0 
1000 1947 -92 0 0 0 
1000 1948 -92 0 0 0 
1000 1949 -92 0 0 0 
1000 1950 -92 0 0 0 
1000 1951 -92 0 0 0 
1000 1952 -92 0 0 0 
1000 1953 -92 0 0 0 
1000 1954 -92 0 0 0 
1000 1977 -92 0 0 0 
1000 1978 -92 0 0 0 
1000 1979 -92 0 0 0 
1000 1980 -92 0 0 0 
1000 1981 -92 0 0 0 
1000 1982 -92 0 0 0 
1000 1983 -92 0 0 0 
1000 1984 -92 0 0 0 
1000 1945 -91 0 0 0 
1000 1946 -91 0 0 0 
1000 1947 -91 0 0 0 
1000 1948 -91 0 0 0 
1000 1949 -91 0 0 0 
1000 1950 -91 0 0 0 
1000 1951 -91 0 0 0 
1000 1980 -91 0 0 0 
1000 1981 -91 0 0 0 
1000 1982 -91 0 0 0 
1000 1983 -91 0 0 0 
1000 1984 -91 0 0 0 
1000 1944 -90 0 0 0 
1000 1945 -90 0 0 0 
1000 1946 -90 0 0 0 
1000 1947 -90 0 0 0 
1000 1948 -90 0 0 0 
1000 1983 -90 0 0 0 
1000 1984 -90 0 0 0 
1000 1985 -90 0 0 0 
1000 1942 -89 0 0 0 
1000 1943 -89 0 0 0 
1000 1944 -89 0 0 0 
1000 1945 -89 0 0 0 
1000 1946 -89 0 0 0 
1000 1947 -89 0 0 0 
1000 1941 -88 0 0 0 
1000 1942 -88 0 0 0 
1000 1943 -88 0 0 0 
1000 1944 -88 0 0 0 
1000 1945 -88 0 0 0 
1000 1986 -88 0 0 0 
1000 1941 -87 0 0 0 
1000 1942 -87 0 0 0 
1000 1986 -87 0 0 0 
1000 1987 -87 0 0 0 
1000 1937 -86 0 0 0 
1000 1938 -86 0 0 0 
1000 1939 -86 0 0 0 
1000 1986 -86 0 0 0 
1000 1987 -86 0 0 0 
1000 1988 -86 0 0 0 
1000 1936 -85 0 0 0 
1000 1937 -85 0 0 0 
1000 1938 -85 0 0 0 
1000 1939 -85 0 0 0 
1000 1986 -85 0 0 0 
1000 1987 -85 0 0 0 
1000 1988 -85 0 0 0 
1000 1934 -84 0 0 0 
1000 1935 -84 0 0 0 
1000 1936 -84 0 0 0 
1000 1937 -84 0 0 0 
1000 1938 -84 0 0 0 
1000 1986 -84 0 0 0 
1000 1987 -84 0 0 0 
1000 1988 -84 0 0 0 
1000 1930 -83 0 0 0 
1000 1931 -83 0 0 0 
1000 1932 -83 0 0 0 
1000 1933 -83 0 0 0 
1000 1934 -83 0 0 0 
1000 1935 -83 0 0 0 
1000 1936 -83 0 0 0 
1000 1937 -83 0 0 0 
1000 1987 -83 0 0 0 
1000 1988 -83 0 0 0 
1000 1892 -82 0 0 0 
1000 1893 -82 0 0 0 
1000 1894 -82 0 0 0 
1000 1895 -82 0 0 0 
1000 1896 -82 0 0 0 
1000 1897 -82 0 0 0 
1000 1898 -82 0 0 0 
1000 1899 -82 0 0 0 
1000 1900 -82 0 0 0 
1000 1926 -82 0 0 0 
1000 1927 -82 0 0 0 
1000 1928 -82 0 0 0 
1000 1929 -82 0 0 0 
1000 1930 -82 0 0 0 
1000 1931 -82 0 0 0 
1000 1932 -82 0 0 0 
1000 1933 -82 0 0 0 
1000 1934 -82 0 0 0 
1000 1988 -82 0 0 0 
1000 1892 -81 0 0 0 
1000 1893 -81 0 0 0 
1000 1894 -81 0 0 0 
1000 1895 -81 0 0 0 
1000 1896 -81 0 0 0 
1000 1897 -81 0 0 0 
1000 1898 -81 0 0 0 
1000 1899 -81 0 0 0 
1000 1900 -81 0 0 0 
1000 1901 -81 0 0 0 
1000 1902 -81 0 0 0 
1000 1903 -81 0 0 0 
1000 1904 -81 0 0 0 
1000 1905 -81 0 0 0 
1000 1906 -81 0 0 0 
1000 1907 -81 0 0 0 
1000 1908 -81 0 0 0 
1000 1909 -81 0 0 0 
1000 1910 -81 0 0 0 
1000 1911 -81 0 0 0 
1000 1912 -81 0 0 0 
1000 1913 -81 0 0 0 
1000 1920 -81 0 0 0 
1000 1921 -81 0 0 0 
1000 1922 -81 0 0 0 
1000 1923 -81 0 0 0 
1000 1924 -81 0 0 0 
1000 1925 -81 0 0 0 
1000 1926 -81 0 0 0 
1000 1927 -81 0 0 0 
1000 1928 -81 0 0 0 
1000 1929 -81 0 0 0 
1000 1930 -81 0 0 0 
1000 1931 -81 0 0 0 
1000 1932 -81 0 0 0 
1000 1988 -81 0 0 0 
1000 1895 -80 0 0 0 
1000 1896 -80 0 0 0 
1000 1897 -80 0 0 0 
1000 1898 -80 0 0 0 
1000 1899 -80 0 0 0 
1000 1900 -80 0 0 0 
1000 1901 -80 0 0 0 
1000 1902 -80 0 0 0 
1000 1903 -80 0 0 0 
1000 1904 -80 0 0 0 
1000 1905 -80 0 0 0 
1000 1906 -80 0 0 0 
1000 1907 -80 0 0 0 
1000 1908 -80 0 0 0 
1000 1909 -80 0 0 0 
1000 1910 -80 0 0 0 
1000 1911 -80 0 0 0 
1000 1912 -80 0 0 0 
1000 1913 -80 0 0 0 
1000 1914 -80 0 0 0 
1000 1915 -80 0 0 0 
1000 1916 -80 0 0 0 
1000 1917 -80 0 0 0 
1000 1918 -80 0 0 0 
1000 1919 -80 0 0 0 
1000 1920 -80 0 0 0 
1000 1921 -80 0 0 0 
1000 1922 -80 0 0 0 
1000 1923 -80 0 0 0 
1000 1924 -80 0 0 0 
1000 1925 -80 0 0 0 
1000 1926 -80 0 0 0 
1000 1927 -80 0 0 0 
1000 1988 -80 0 0 0 
1000 1987 -79 0 0 0 
1000 1988 -79 0 0 0 
1000 1987 -78 0 0 0 
1000 1988 -78 0 0 0 
1000 1987 -77 0 0 0 
1000 1988 -77 0 0 0 
1000 1988 -76 0 0 0 
1000 1988 -75 0 0 0 
1000 1988 -74 0 0 0 
1000 1988 -73 0 0 0 
1000 1989 -73 0 0 0 
1000 1988 -72 0 0 0 
1000 1989 -72 0 0 0 
1000 1988 -71 0 0 0 
1000 1989 -71 0 0 0 
1000 1988 -70 0 0 0 
1000 1989 -70 0 0 0 
1000 1989 -69 0 0 0 
1000 1989 -68 0 0 0 
1000 1989 -67 0 0 0 
1000 1990 -67 0 0 0 
1000 1989 -66 0 0 0 
1000 1990 -66 0 0 0 
1000 1989 -65 0 0 0 
1000 1990 -65 0 0 0 
1000 1989 -64 0 0 0 
1000 1990 -64 0 0 0 
1000 1989 -63 0 0 0 
1000 1988 -62 0 0 0 
1000 1989 -62 0 0 0 
1000 1988 -61 0 0 0 
1000 1989 -61 0 0 0 
1000 1989 -60 0 0 0 
1000 1989 -59 0 0 0 
1000 1989 -58 0 0 0 
1000 1989 -57 0 0 0 
1000 1989 -56 0 0 0 
1000 1990 -56 0 0 0 
1000 1989 -55 0 0 0 
1000 1990 -55 0 0 0 
1000 1989 -54 0 0 0 
1000 1990 -54 0 0 0 
1000 1989 -53 0 0 0 
1000 1990 -53 0 0 0 
1000 1989 -52 0 0 0 
1000 1990 -52 0 0 0 
1000 1989 -51 0 0 0 
1000 1990 -51 0 0 0 
1000 1989 -50 0 0 0 
1000 1989 -49 0 0 0 
1000 1989 -48 0 0 0 
1000 1989 -47 0 0 0 
1000 1989 -46 0 0 0 
1000 1989 -45 0 0 0 
1000 1989 -44 0 0 0 
1000 1988 -43 0 0 0 
1000 1989 -43 0 0 0 
1000 1988 -42 0 0 0 
1000 1989 -42 0 0 0 
1000 1988 -41 0 0 0 
1000 1989 -41 0 0 0 
1000 1988 -40 0 0 0 
1000 1989 -40 0 0 0 
1000 1988 -39 0 0 0 
1000 1988 -38 0 0 0 
1000 1988 -37 0 0 0 
1000 1987 -35 0 0 0 
1000 1988 -35 0 0 0 
1000 1986 -34 0 0 0 
1000 1987 -34 0 0 0 
1000 1988 -34 0 0 0 
1000 1986 -33 0 0 0 
1000 1987 -33 0 0 0 
1000 1988 -33 0 0 0 
1000 1986 -32 0 0 0 
1000 1987 -32 0 0 0 
1000 1988 -32 0 0 0 
1000 1986 -31 0 0 0 
1000 1987 -31 0 0 0 
1000 1988 -31 0 0 0 
1000 1986 -30 0 0 0 
1000 1987 -30 0 0 0 
1000 1988 -30 0 0 0 
1000 1986 -29 0 0 0 
1000 1987 -29 0 0 0 
1000 1988 -29 0 0 0 
1000 1986 -28 0 0 0 
1000 1987 -28 0 0 0 
1000 1988 -28 0 0 0 
1000 1986 -27 0 0 0 
1000 1987 -27 0 0 0 
1000 1988 -27 0 0 0 
1000 1987 -26 0 0 0 
1000 1988 -26 0 0 0 
1000 1987 -25 0 0 0 
1000 1988 -25 0 0 0 
1000 1987 -24 0 0 0 
1000 1988 -24 0 0 0 
1000 1987 -23 0 0 0 
1000 1988 -23 0 0 0 
1000 1987 -22 0 0 0 
1000 1988 -22 0 0 0 
1000 1987 -21 0 0 0 
1000 1988 -21 0 0 0 
1000 1987 -20 0 0 0 
1000 1988 -20 0 0 0 
1000 1987 -19 0 0 0 
1000 1988 -19 0 0 0 
1000 1987 -18 0 0 0 
1000 1988 -18 0 0 0 
1000 1987 -17 0 0 0 
1000 1988 -17 0 0 0 
1000 1987 -16 0 0 0 
1000 1988 -16 0 0 0 
1000 1892 -15 0 0 0 
1000 1893 -15 0 0 0 
1000 1987 -15 0 0 0 
1000 1988 -15 0 0 0 
1000 1892 -14 0 0 0 
1000 1893 -14 0 0 0 
1000 1894 -14 0 0 0 
1000 1895 -14 0 0 0 
1000 1896 -14 0 0 0 
1000 1897 -14 0 0 0 
1000 1898 -14 0 0 0 
1000 1987 -14 0 0 0 
1000 1988 -14 0 0 0 
1000 1892 -13 0 0 0 
1000 1893 -13 0 0 0 
1000 1894 -13 0 0 0 
1000 1895 -13 0 0 0 
1000 1896 -13 0 0 0 
1000 1897 -13 0 0 0 
1000 1898 -13 0 0 0 
1000 1899 -13 0 0 0 
1000 1900 -13 0 0 0 
1000 1901 -13 0 0 0 
1000 1902 -13 0 0 0 
1000 1987 -13 0 0 0 
1000 1988 -13 0 0 0 
1000 1898 -12 0 0 0 
1000 1899 -12 0 0 0 
1000 1900 -12 0 0 0 
1000 1901 -12 0 0 0 
1000 1902 -12 0 0 0 
1000 1903 -12 0 0 0 
1000 1904 -12 0 0 0 
1000 1987 -12 0 0 0 
1000 1988 -12 0 0 0 
1000 1900 -11 0 0 0 
1000 1901 -11 0 0 0 
1000 1902 -11 0 0 0 
1000 1903 -11 0 0 0 
1000 1904 -11 0 0 0 
1000 1905 -11 0 0 0 
1000 1906 -11 0 0 0 
1000 1907 -11 0 0 0 
1000 1987 -11 0 0 0 
1000 1988 -11 0 0 0 
1000 1903 -10 0 0 0 
1000 1904 -10 0 0 0 
1000 1905 -10 0 0 0 
1000 1906 -10 0 0 0 
1000 1907 -10 0 0 0 
1000 1908 -10 0 0 0 
1000 1909 -10 0 0 0 
1000 1910 -10 0 0 0 
1000 1987 -10 0 0 0 
1000 1988 -10 0 0 0 
1000 1906 -9 0 0 0 
1000 1907 -9 0 0 0 
1000 1908 -9 0 0 0 
1000 1909 -9 0 0 0 
1000 1910 -9 0 0 0 
1000 1911 -9 0 0 0 
1000 1987 -9 0 0 0 
1000 1988 -9 0 0 0 
1000 1909 -8 0 0 0 
1000 1910 -8 0 0 0 
1000 1911 -8 0 0 0 
1000 1912 -8 0 0 0 
1000 1987 -8 0 0 0 
1000 1988 -8 0 0 0 
1000 1911 -7 0 0 0 
1000 1912 -7 0 0 0 
1000 1913 -7 0 0 0 
1000 1987 -7 0 0 0 
1000 1988 -7 0 0 0 
1000 1912 -6 0 0 0 
1000 1913 -6 0 0 0 
1000 1914 -6 0 0 0 
1000 1915 -6 0 0 0 
1000 1987 -6 0 0 0 
1000 1988 -6 0 0 0 
1000 1914 -5 0 0 0 
1000 1915 -5 0 0 0 
1000 1916 -5 0 0 0 
1000 1987 -5 0 0 0 
1000 1988 -5 0 0 0 
1000 1989 -5 0 0 0 
1000 1915 -4 0 0 0 
1000 1916 -4 0 0 0 
1000 1917 -4 0 0 0 
1000 1987 -4 0 0 0 
1000 1988 -4 0 0 0 
1000 1989 -4 0 0 0 
1000 1917 -3 0 0 0 
1000 1918 -3 0 0 0 
1000 1919 -3 0 0 0 
1000 1987 -3 0 0 0 
1000 1988 -3 0 0 0 
1000 1989 -3 0 0 0 
1000 1918 -2 0 0 0 
1000 1919 -2 0 0 0 
1000 1920 -2 0 0 0 
1000 1921 -2 0 0 0 
1000 1987 -2 0 0 0 
1000 1988 -2 0 0 0 
1000 1989 -2 0 0 0 
1000 1918 -1 0 0 0 
1000 1919 -1 0 0 0 
1000 1920 -1 0 0 0 
1000 1921 -1 0 0 0 
1000 1922 -1 0 0 0 
1000 1986 -1 0 0 0 
1000 1987 -1 0 0 0 
1000 1988 -1 0 0 0 
1000 1989 -1 0 0 0 
