ply
format ascii 1.0
comment VCGLIB generated
element vertex 1270
property float x
property float y
property float z
property float nx
property float ny
property float nz
element face 0
property list uchar int vertex_indices
end_header
1000 1920 1 0 0 0 
1000 1921 1 0 0 0 
1000 1922 1 0 0 0 
1000 1923 1 0 0 0 
1000 1924 1 0 0 0 
1000 1987 1 0 0 0 
1000 1988 1 0 0 0 
1000 1989 1 0 0 0 
1000 1990 1 0 0 0 
1000 1921 2 0 0 0 
1000 1922 2 0 0 0 
1000 1923 2 0 0 0 
1000 1924 2 0 0 0 
1000 1925 2 0 0 0 
1000 1988 2 0 0 0 
1000 1989 2 0 0 0 
1000 1990 2 0 0 0 
1000 1922 3 0 0 0 
1000 1923 3 0 0 0 
1000 1924 3 0 0 0 
1000 1925 3 0 0 0 
1000 1926 3 0 0 0 
1000 1987 3 0 0 0 
1000 1988 3 0 0 0 
1000 1989 3 0 0 0 
1000 1990 3 0 0 0 
1000 1923 4 0 0 0 
1000 1924 4 0 0 0 
1000 1925 4 0 0 0 
1000 1926 4 0 0 0 
1000 1927 4 0 0 0 
1000 1987 4 0 0 0 
1000 1989 4 0 0 0 
1000 1990 4 0 0 0 
1000 1924 5 0 0 0 
1000 1925 5 0 0 0 
1000 1926 5 0 0 0 
1000 1927 5 0 0 0 
1000 1928 5 0 0 0 
1000 1986 5 0 0 0 
1000 1987 5 0 0 0 
1000 1988 5 0 0 0 
1000 1989 5 0 0 0 
1000 1990 5 0 0 0 
1000 1925 6 0 0 0 
1000 1926 6 0 0 0 
1000 1927 6 0 0 0 
1000 1928 6 0 0 0 
1000 1929 6 0 0 0 
1000 1986 6 0 0 0 
1000 1987 6 0 0 0 
1000 1988 6 0 0 0 
1000 1989 6 0 0 0 
1000 1925 7 0 0 0 
1000 1926 7 0 0 0 
1000 1927 7 0 0 0 
1000 1928 7 0 0 0 
1000 1929 7 0 0 0 
1000 1930 7 0 0 0 
1000 1987 7 0 0 0 
1000 1926 8 0 0 0 
1000 1927 8 0 0 0 
1000 1928 8 0 0 0 
1000 1929 8 0 0 0 
1000 1930 8 0 0 0 
1000 1987 8 0 0 0 
1000 1928 9 0 0 0 
1000 1929 9 0 0 0 
1000 1930 9 0 0 0 
1000 1931 9 0 0 0 
1000 1987 9 0 0 0 
1000 1929 10 0 0 0 
1000 1930 10 0 0 0 
1000 1931 10 0 0 0 
1000 1932 10 0 0 0 
1000 1987 10 0 0 0 
1000 1929 11 0 0 0 
1000 1930 11 0 0 0 
1000 1931 11 0 0 0 
1000 1932 11 0 0 0 
1000 1987 11 0 0 0 
1000 1930 12 0 0 0 
1000 1931 12 0 0 0 
1000 1932 12 0 0 0 
1000 1933 12 0 0 0 
1000 1987 12 0 0 0 
1000 1931 13 0 0 0 
1000 1932 13 0 0 0 
1000 1933 13 0 0 0 
1000 1934 13 0 0 0 
1000 1987 13 0 0 0 
1000 1931 14 0 0 0 
1000 1932 14 0 0 0 
1000 1933 14 0 0 0 
1000 1934 14 0 0 0 
1000 1987 14 0 0 0 
1000 1988 14 0 0 0 
1000 1932 15 0 0 0 
1000 1933 15 0 0 0 
1000 1934 15 0 0 0 
1000 1935 15 0 0 0 
1000 1987 15 0 0 0 
1000 1988 15 0 0 0 
1000 1933 16 0 0 0 
1000 1934 16 0 0 0 
1000 1935 16 0 0 0 
1000 1936 16 0 0 0 
1000 1987 16 0 0 0 
1000 1934 17 0 0 0 
1000 1935 17 0 0 0 
1000 1936 17 0 0 0 
1000 1937 17 0 0 0 
1000 1987 17 0 0 0 
1000 1934 18 0 0 0 
1000 1935 18 0 0 0 
1000 1936 18 0 0 0 
1000 1937 18 0 0 0 
1000 1987 18 0 0 0 
1000 1935 19 0 0 0 
1000 1936 19 0 0 0 
1000 1937 19 0 0 0 
1000 1938 19 0 0 0 
1000 1987 19 0 0 0 
1000 1937 20 0 0 0 
1000 1938 20 0 0 0 
1000 1939 20 0 0 0 
1000 1987 20 0 0 0 
1000 1988 20 0 0 0 
1000 1937 21 0 0 0 
1000 1938 21 0 0 0 
1000 1939 21 0 0 0 
1000 1940 21 0 0 0 
1000 1987 21 0 0 0 
1000 1988 21 0 0 0 
1000 1938 22 0 0 0 
1000 1939 22 0 0 0 
1000 1940 22 0 0 0 
1000 1941 22 0 0 0 
1000 1987 22 0 0 0 
1000 1988 22 0 0 0 
1000 1939 23 0 0 0 
1000 1940 23 0 0 0 
1000 1941 23 0 0 0 
1000 1987 23 0 0 0 
1000 1988 23 0 0 0 
1000 1940 24 0 0 0 
1000 1941 24 0 0 0 
1000 1942 24 0 0 0 
1000 1987 24 0 0 0 
1000 1988 24 0 0 0 
1000 1940 25 0 0 0 
1000 1941 25 0 0 0 
1000 1942 25 0 0 0 
1000 1943 25 0 0 0 
1000 1987 25 0 0 0 
1000 1988 25 0 0 0 
1000 1941 26 0 0 0 
1000 1942 26 0 0 0 
1000 1943 26 0 0 0 
1000 1944 26 0 0 0 
1000 1987 26 0 0 0 
1000 1988 26 0 0 0 
1000 1942 27 0 0 0 
1000 1943 27 0 0 0 
1000 1944 27 0 0 0 
1000 1945 27 0 0 0 
1000 1987 27 0 0 0 
1000 1988 27 0 0 0 
1000 1942 28 0 0 0 
1000 1943 28 0 0 0 
1000 1944 28 0 0 0 
1000 1945 28 0 0 0 
1000 1946 28 0 0 0 
1000 1987 28 0 0 0 
1000 1988 28 0 0 0 
1000 1943 29 0 0 0 
1000 1944 29 0 0 0 
1000 1945 29 0 0 0 
1000 1946 29 0 0 0 
1000 1947 29 0 0 0 
1000 1988 29 0 0 0 
1000 1945 30 0 0 0 
1000 1946 30 0 0 0 
1000 1947 30 0 0 0 
1000 1948 30 0 0 0 
1000 1988 30 0 0 0 
1000 1946 31 0 0 0 
1000 1947 31 0 0 0 
1000 1948 31 0 0 0 
1000 1988 31 0 0 0 
1000 1989 31 0 0 0 
1000 1990 31 0 0 0 
1000 1947 32 0 0 0 
1000 1948 32 0 0 0 
1000 1949 32 0 0 0 
1000 1987 32 0 0 0 
1000 1988 32 0 0 0 
1000 1989 32 0 0 0 
1000 1990 32 0 0 0 
1000 1947 33 0 0 0 
1000 1948 33 0 0 0 
1000 1949 33 0 0 0 
1000 1988 33 0 0 0 
1000 1989 33 0 0 0 
1000 1990 33 0 0 0 
1000 1948 34 0 0 0 
1000 1949 34 0 0 0 
1000 1950 34 0 0 0 
1000 1988 34 0 0 0 
1000 1949 35 0 0 0 
1000 1950 35 0 0 0 
1000 1951 35 0 0 0 
1000 1988 35 0 0 0 
1000 1989 35 0 0 0 
1000 1990 35 0 0 0 
1000 1991 35 0 0 0 
1000 1949 36 0 0 0 
1000 1950 36 0 0 0 
1000 1951 36 0 0 0 
1000 1988 36 0 0 0 
1000 1989 36 0 0 0 
1000 1990 36 0 0 0 
1000 1991 36 0 0 0 
1000 1950 37 0 0 0 
1000 1951 37 0 0 0 
1000 1952 37 0 0 0 
1000 1988 37 0 0 0 
1000 1989 37 0 0 0 
1000 1990 37 0 0 0 
1000 1991 37 0 0 0 
1000 1951 38 0 0 0 
1000 1952 38 0 0 0 
1000 1988 38 0 0 0 
1000 1989 38 0 0 0 
1000 1990 38 0 0 0 
1000 1991 38 0 0 0 
1000 1951 39 0 0 0 
1000 1952 39 0 0 0 
1000 1953 39 0 0 0 
1000 1988 39 0 0 0 
1000 1989 39 0 0 0 
1000 1990 39 0 0 0 
1000 1951 40 0 0 0 
1000 1952 40 0 0 0 
1000 1953 40 0 0 0 
1000 1954 40 0 0 0 
1000 1988 40 0 0 0 
1000 1989 40 0 0 0 
1000 1990 40 0 0 0 
1000 1952 41 0 0 0 
1000 1953 41 0 0 0 
1000 1954 41 0 0 0 
1000 1988 41 0 0 0 
1000 1989 41 0 0 0 
1000 1990 41 0 0 0 
1000 1952 42 0 0 0 
1000 1953 42 0 0 0 
1000 1954 42 0 0 0 
1000 1988 42 0 0 0 
1000 1989 42 0 0 0 
1000 1990 42 0 0 0 
1000 1953 43 0 0 0 
1000 1954 43 0 0 0 
1000 1955 43 0 0 0 
1000 1988 43 0 0 0 
1000 1989 43 0 0 0 
1000 1990 43 0 0 0 
1000 1953 44 0 0 0 
1000 1954 44 0 0 0 
1000 1955 44 0 0 0 
1000 1988 44 0 0 0 
1000 1989 44 0 0 0 
1000 1990 44 0 0 0 
1000 1954 45 0 0 0 
1000 1955 45 0 0 0 
1000 1988 45 0 0 0 
1000 1989 45 0 0 0 
1000 1990 45 0 0 0 
1000 1954 46 0 0 0 
1000 1955 46 0 0 0 
1000 1956 46 0 0 0 
1000 1987 46 0 0 0 
1000 1988 46 0 0 0 
1000 1989 46 0 0 0 
1000 1990 46 0 0 0 
1000 1954 47 0 0 0 
1000 1955 47 0 0 0 
1000 1956 47 0 0 0 
1000 1987 47 0 0 0 
1000 1988 47 0 0 0 
1000 1989 47 0 0 0 
1000 1990 47 0 0 0 
1000 1955 48 0 0 0 
1000 1956 48 0 0 0 
1000 1987 48 0 0 0 
1000 1988 48 0 0 0 
1000 1989 48 0 0 0 
1000 1990 48 0 0 0 
1000 1955 49 0 0 0 
1000 1956 49 0 0 0 
1000 1957 49 0 0 0 
1000 1987 49 0 0 0 
1000 1988 49 0 0 0 
1000 1989 49 0 0 0 
1000 1990 49 0 0 0 
1000 1955 50 0 0 0 
1000 1956 50 0 0 0 
1000 1957 50 0 0 0 
1000 1987 50 0 0 0 
1000 1988 50 0 0 0 
1000 1989 50 0 0 0 
1000 1990 50 0 0 0 
1000 1956 51 0 0 0 
1000 1957 51 0 0 0 
1000 1988 51 0 0 0 
1000 1989 51 0 0 0 
1000 1990 51 0 0 0 
1000 1956 52 0 0 0 
1000 1957 52 0 0 0 
1000 1988 52 0 0 0 
1000 1989 52 0 0 0 
1000 1990 52 0 0 0 
1000 1956 53 0 0 0 
1000 1957 53 0 0 0 
1000 1988 53 0 0 0 
1000 1989 53 0 0 0 
1000 1990 53 0 0 0 
1000 1956 54 0 0 0 
1000 1957 54 0 0 0 
1000 1988 54 0 0 0 
1000 1989 54 0 0 0 
1000 1990 54 0 0 0 
1000 1956 55 0 0 0 
1000 1957 55 0 0 0 
1000 1988 55 0 0 0 
1000 1989 55 0 0 0 
1000 1990 55 0 0 0 
1000 1956 56 0 0 0 
1000 1957 56 0 0 0 
1000 1988 56 0 0 0 
1000 1989 56 0 0 0 
1000 1990 56 0 0 0 
1000 1956 57 0 0 0 
1000 1957 57 0 0 0 
1000 1988 57 0 0 0 
1000 1989 57 0 0 0 
1000 1990 57 0 0 0 
1000 1956 58 0 0 0 
1000 1957 58 0 0 0 
1000 1958 58 0 0 0 
1000 1988 58 0 0 0 
1000 1989 58 0 0 0 
1000 1990 58 0 0 0 
1000 1956 59 0 0 0 
1000 1957 59 0 0 0 
1000 1958 59 0 0 0 
1000 1988 59 0 0 0 
1000 1989 59 0 0 0 
1000 1990 59 0 0 0 
1000 1956 60 0 0 0 
1000 1957 60 0 0 0 
1000 1958 60 0 0 0 
1000 1988 60 0 0 0 
1000 1989 60 0 0 0 
1000 1990 60 0 0 0 
1000 1991 60 0 0 0 
1000 1956 61 0 0 0 
1000 1957 61 0 0 0 
1000 1958 61 0 0 0 
1000 1989 61 0 0 0 
1000 1990 61 0 0 0 
1000 1991 61 0 0 0 
1000 1956 62 0 0 0 
1000 1957 62 0 0 0 
1000 1958 62 0 0 0 
1000 1989 62 0 0 0 
1000 1990 62 0 0 0 
1000 1991 62 0 0 0 
1000 1956 63 0 0 0 
1000 1957 63 0 0 0 
1000 1958 63 0 0 0 
1000 1989 63 0 0 0 
1000 1990 63 0 0 0 
1000 1991 63 0 0 0 
1000 1956 64 0 0 0 
1000 1957 64 0 0 0 
1000 1958 64 0 0 0 
1000 1989 64 0 0 0 
1000 1990 64 0 0 0 
1000 1991 64 0 0 0 
1000 1957 65 0 0 0 
1000 1958 65 0 0 0 
1000 1989 65 0 0 0 
1000 1990 65 0 0 0 
1000 1991 65 0 0 0 
1000 1957 66 0 0 0 
1000 1958 66 0 0 0 
1000 1990 66 0 0 0 
1000 1958 67 0 0 0 
1000 1990 67 0 0 0 
1000 1991 67 0 0 0 
1000 1958 68 0 0 0 
1000 1990 68 0 0 0 
1000 1991 68 0 0 0 
1000 1958 69 0 0 0 
1000 1990 69 0 0 0 
1000 1991 69 0 0 0 
1000 1957 70 0 0 0 
1000 1958 70 0 0 0 
1000 1959 70 0 0 0 
1000 1990 70 0 0 0 
1000 1991 70 0 0 0 
1000 1958 71 0 0 0 
1000 1959 71 0 0 0 
1000 1990 71 0 0 0 
1000 1991 71 0 0 0 
1000 1958 72 0 0 0 
1000 1959 72 0 0 0 
1000 1990 72 0 0 0 
1000 1991 72 0 0 0 
1000 1958 73 0 0 0 
1000 1959 73 0 0 0 
1000 1960 73 0 0 0 
1000 1990 73 0 0 0 
1000 1991 73 0 0 0 
1000 1958 74 0 0 0 
1000 1959 74 0 0 0 
1000 1960 74 0 0 0 
1000 1967 74 0 0 0 
1000 1990 74 0 0 0 
1000 1991 74 0 0 0 
1000 1958 75 0 0 0 
1000 1959 75 0 0 0 
1000 1960 75 0 0 0 
1000 1967 75 0 0 0 
1000 1990 75 0 0 0 
1000 1991 75 0 0 0 
1000 1958 76 0 0 0 
1000 1959 76 0 0 0 
1000 1960 76 0 0 0 
1000 1967 76 0 0 0 
1000 1968 76 0 0 0 
1000 1990 76 0 0 0 
1000 1991 76 0 0 0 
1000 1958 77 0 0 0 
1000 1959 77 0 0 0 
1000 1960 77 0 0 0 
1000 1967 77 0 0 0 
1000 1968 77 0 0 0 
1000 1989 77 0 0 0 
1000 1990 77 0 0 0 
1000 1991 77 0 0 0 
1000 1958 78 0 0 0 
1000 1959 78 0 0 0 
1000 1967 78 0 0 0 
1000 1968 78 0 0 0 
1000 1989 78 0 0 0 
1000 1990 78 0 0 0 
1000 1991 78 0 0 0 
1000 1958 79 0 0 0 
1000 1959 79 0 0 0 
1000 1960 79 0 0 0 
1000 1967 79 0 0 0 
1000 1968 79 0 0 0 
1000 1988 79 0 0 0 
1000 1989 79 0 0 0 
1000 1990 79 0 0 0 
1000 1958 80 0 0 0 
1000 1959 80 0 0 0 
1000 1960 80 0 0 0 
1000 1967 80 0 0 0 
1000 1968 80 0 0 0 
1000 1969 80 0 0 0 
1000 1988 80 0 0 0 
1000 1989 80 0 0 0 
1000 1990 80 0 0 0 
1000 1958 81 0 0 0 
1000 1959 81 0 0 0 
1000 1960 81 0 0 0 
1000 1967 81 0 0 0 
1000 1968 81 0 0 0 
1000 1969 81 0 0 0 
1000 1985 81 0 0 0 
1000 1986 81 0 0 0 
1000 1987 81 0 0 0 
1000 1988 81 0 0 0 
1000 1989 81 0 0 0 
1000 1990 81 0 0 0 
1000 1958 82 0 0 0 
1000 1959 82 0 0 0 
1000 1960 82 0 0 0 
1000 1967 82 0 0 0 
1000 1968 82 0 0 0 
1000 1969 82 0 0 0 
1000 1986 82 0 0 0 
1000 1987 82 0 0 0 
1000 1988 82 0 0 0 
1000 1989 82 0 0 0 
1000 1990 82 0 0 0 
1000 1958 83 0 0 0 
1000 1959 83 0 0 0 
1000 1960 83 0 0 0 
1000 1967 83 0 0 0 
1000 1968 83 0 0 0 
1000 1969 83 0 0 0 
1000 1987 83 0 0 0 
1000 1988 83 0 0 0 
1000 1989 83 0 0 0 
1000 1990 83 0 0 0 
1000 1991 83 0 0 0 
1000 1958 84 0 0 0 
1000 1959 84 0 0 0 
1000 1960 84 0 0 0 
1000 1968 84 0 0 0 
1000 1969 84 0 0 0 
1000 1988 84 0 0 0 
1000 1989 84 0 0 0 
1000 1990 84 0 0 0 
1000 1991 84 0 0 0 
1000 1959 85 0 0 0 
1000 1960 85 0 0 0 
1000 1968 85 0 0 0 
1000 1969 85 0 0 0 
1000 1970 85 0 0 0 
1000 1988 85 0 0 0 
1000 1989 85 0 0 0 
1000 1990 85 0 0 0 
1000 1991 85 0 0 0 
1000 1959 86 0 0 0 
1000 1960 86 0 0 0 
1000 1969 86 0 0 0 
1000 1970 86 0 0 0 
1000 1971 86 0 0 0 
1000 1989 86 0 0 0 
1000 1990 86 0 0 0 
1000 1991 86 0 0 0 
1000 1959 87 0 0 0 
1000 1960 87 0 0 0 
1000 1961 87 0 0 0 
1000 1970 87 0 0 0 
1000 1971 87 0 0 0 
1000 1972 87 0 0 0 
1000 1989 87 0 0 0 
1000 1990 87 0 0 0 
1000 1991 87 0 0 0 
1000 1959 88 0 0 0 
1000 1960 88 0 0 0 
1000 1961 88 0 0 0 
1000 1972 88 0 0 0 
1000 1973 88 0 0 0 
1000 1989 88 0 0 0 
1000 1990 88 0 0 0 
1000 1959 89 0 0 0 
1000 1960 89 0 0 0 
1000 1961 89 0 0 0 
1000 1973 89 0 0 0 
1000 1974 89 0 0 0 
1000 1975 89 0 0 0 
1000 1989 89 0 0 0 
1000 1990 89 0 0 0 
1000 1959 90 0 0 0 
1000 1960 90 0 0 0 
1000 1961 90 0 0 0 
1000 1976 90 0 0 0 
1000 1977 90 0 0 0 
1000 1978 90 0 0 0 
1000 1979 90 0 0 0 
1000 1980 90 0 0 0 
1000 1981 90 0 0 0 
1000 1989 90 0 0 0 
1000 1990 90 0 0 0 
1000 1959 91 0 0 0 
1000 1960 91 0 0 0 
1000 1961 91 0 0 0 
1000 1965 91 0 0 0 
1000 1977 91 0 0 0 
1000 1978 91 0 0 0 
1000 1979 91 0 0 0 
1000 1980 91 0 0 0 
1000 1989 91 0 0 0 
1000 1990 91 0 0 0 
1000 1959 92 0 0 0 
1000 1960 92 0 0 0 
1000 1961 92 0 0 0 
1000 1965 92 0 0 0 
1000 1977 92 0 0 0 
1000 1978 92 0 0 0 
1000 1979 92 0 0 0 
1000 1988 92 0 0 0 
1000 1989 92 0 0 0 
1000 1959 93 0 0 0 
1000 1960 93 0 0 0 
1000 1961 93 0 0 0 
1000 1966 93 0 0 0 
1000 1978 93 0 0 0 
1000 1979 93 0 0 0 
1000 1980 93 0 0 0 
1000 1983 93 0 0 0 
1000 1988 93 0 0 0 
1000 1989 93 0 0 0 
1000 1960 94 0 0 0 
1000 1961 94 0 0 0 
1000 1962 94 0 0 0 
1000 1966 94 0 0 0 
1000 1979 94 0 0 0 
1000 1980 94 0 0 0 
1000 1983 94 0 0 0 
1000 1987 94 0 0 0 
1000 1988 94 0 0 0 
1000 1989 94 0 0 0 
1000 1960 95 0 0 0 
1000 1961 95 0 0 0 
1000 1962 95 0 0 0 
1000 1966 95 0 0 0 
1000 1967 95 0 0 0 
1000 1979 95 0 0 0 
1000 1980 95 0 0 0 
1000 1983 95 0 0 0 
1000 1987 95 0 0 0 
1000 1988 95 0 0 0 
1000 1989 95 0 0 0 
1000 1960 96 0 0 0 
1000 1961 96 0 0 0 
1000 1962 96 0 0 0 
1000 1966 96 0 0 0 
1000 1967 96 0 0 0 
1000 1980 96 0 0 0 
1000 1981 96 0 0 0 
1000 1982 96 0 0 0 
1000 1983 96 0 0 0 
1000 1985 96 0 0 0 
1000 1989 96 0 0 0 
1000 1960 97 0 0 0 
1000 1961 97 0 0 0 
1000 1962 97 0 0 0 
1000 1963 97 0 0 0 
1000 1967 97 0 0 0 
1000 1982 97 0 0 0 
1000 1983 97 0 0 0 
1000 1984 97 0 0 0 
1000 1985 97 0 0 0 
1000 1989 97 0 0 0 
1000 1961 98 0 0 0 
1000 1962 98 0 0 0 
1000 1963 98 0 0 0 
1000 1967 98 0 0 0 
1000 1968 98 0 0 0 
1000 1982 98 0 0 0 
1000 1983 98 0 0 0 
1000 1984 98 0 0 0 
1000 1988 98 0 0 0 
1000 1989 98 0 0 0 
1000 1961 99 0 0 0 
1000 1962 99 0 0 0 
1000 1963 99 0 0 0 
1000 1964 99 0 0 0 
1000 1967 99 0 0 0 
1000 1968 99 0 0 0 
1000 1982 99 0 0 0 
1000 1983 99 0 0 0 
1000 1988 99 0 0 0 
1000 1989 99 0 0 0 
1000 1961 100 0 0 0 
1000 1962 100 0 0 0 
1000 1963 100 0 0 0 
1000 1964 100 0 0 0 
1000 1967 100 0 0 0 
1000 1968 100 0 0 0 
1000 1969 100 0 0 0 
1000 1983 100 0 0 0 
1000 1984 100 0 0 0 
1000 1988 100 0 0 0 
1000 1989 100 0 0 0 
1000 1961 101 0 0 0 
1000 1962 101 0 0 0 
1000 1963 101 0 0 0 
1000 1964 101 0 0 0 
1000 1965 101 0 0 0 
1000 1968 101 0 0 0 
1000 1969 101 0 0 0 
1000 1983 101 0 0 0 
1000 1984 101 0 0 0 
1000 1985 101 0 0 0 
1000 1988 101 0 0 0 
1000 1989 101 0 0 0 
1000 1962 102 0 0 0 
1000 1963 102 0 0 0 
1000 1964 102 0 0 0 
1000 1965 102 0 0 0 
1000 1968 102 0 0 0 
1000 1969 102 0 0 0 
1000 1970 102 0 0 0 
1000 1984 102 0 0 0 
1000 1985 102 0 0 0 
1000 1986 102 0 0 0 
1000 1987 102 0 0 0 
1000 1988 102 0 0 0 
1000 1989 102 0 0 0 
1000 1963 103 0 0 0 
1000 1964 103 0 0 0 
1000 1965 103 0 0 0 
1000 1968 103 0 0 0 
1000 1969 103 0 0 0 
1000 1970 103 0 0 0 
1000 1985 103 0 0 0 
1000 1986 103 0 0 0 
1000 1987 103 0 0 0 
1000 1988 103 0 0 0 
1000 1989 103 0 0 0 
1000 1963 104 0 0 0 
1000 1964 104 0 0 0 
1000 1965 104 0 0 0 
1000 1969 104 0 0 0 
1000 1970 104 0 0 0 
1000 1986 104 0 0 0 
1000 1987 104 0 0 0 
1000 1988 104 0 0 0 
1000 1989 104 0 0 0 
1000 1963 105 0 0 0 
1000 1964 105 0 0 0 
1000 1965 105 0 0 0 
1000 1966 105 0 0 0 
1000 1970 105 0 0 0 
1000 1986 105 0 0 0 
1000 1987 105 0 0 0 
1000 1988 105 0 0 0 
1000 1989 105 0 0 0 
1000 1962 106 0 0 0 
1000 1963 106 0 0 0 
1000 1964 106 0 0 0 
1000 1965 106 0 0 0 
1000 1966 106 0 0 0 
1000 1970 106 0 0 0 
1000 1971 106 0 0 0 
1000 1987 106 0 0 0 
1000 1988 106 0 0 0 
1000 1989 106 0 0 0 
1000 1963 107 0 0 0 
1000 1964 107 0 0 0 
1000 1965 107 0 0 0 
1000 1966 107 0 0 0 
1000 1970 107 0 0 0 
1000 1971 107 0 0 0 
1000 1972 107 0 0 0 
1000 1987 107 0 0 0 
1000 1988 107 0 0 0 
1000 1989 107 0 0 0 
1000 1990 107 0 0 0 
1000 1963 108 0 0 0 
1000 1964 108 0 0 0 
1000 1965 108 0 0 0 
1000 1966 108 0 0 0 
1000 1967 108 0 0 0 
1000 1971 108 0 0 0 
1000 1972 108 0 0 0 
1000 1973 108 0 0 0 
1000 1987 108 0 0 0 
1000 1988 108 0 0 0 
1000 1989 108 0 0 0 
1000 1990 108 0 0 0 
1000 1963 109 0 0 0 
1000 1964 109 0 0 0 
1000 1965 109 0 0 0 
1000 1966 109 0 0 0 
1000 1967 109 0 0 0 
1000 1971 109 0 0 0 
1000 1972 109 0 0 0 
1000 1973 109 0 0 0 
1000 1987 109 0 0 0 
1000 1988 109 0 0 0 
1000 1989 109 0 0 0 
1000 1990 109 0 0 0 
1000 1963 110 0 0 0 
1000 1964 110 0 0 0 
1000 1967 110 0 0 0 
1000 1968 110 0 0 0 
1000 1974 110 0 0 0 
1000 1988 110 0 0 0 
1000 1989 110 0 0 0 
1000 1990 110 0 0 0 
1000 1963 111 0 0 0 
1000 1964 111 0 0 0 
1000 1967 111 0 0 0 
1000 1968 111 0 0 0 
1000 1969 111 0 0 0 
1000 1974 111 0 0 0 
1000 1988 111 0 0 0 
1000 1989 111 0 0 0 
1000 1990 111 0 0 0 
1000 1963 112 0 0 0 
1000 1964 112 0 0 0 
1000 1965 112 0 0 0 
1000 1967 112 0 0 0 
1000 1968 112 0 0 0 
1000 1969 112 0 0 0 
1000 1973 112 0 0 0 
1000 1975 112 0 0 0 
1000 1988 112 0 0 0 
1000 1989 112 0 0 0 
1000 1990 112 0 0 0 
1000 1963 113 0 0 0 
1000 1964 113 0 0 0 
1000 1965 113 0 0 0 
1000 1968 113 0 0 0 
1000 1969 113 0 0 0 
1000 1973 113 0 0 0 
1000 1974 113 0 0 0 
1000 1988 113 0 0 0 
1000 1989 113 0 0 0 
1000 1990 113 0 0 0 
1000 1963 114 0 0 0 
1000 1964 114 0 0 0 
1000 1965 114 0 0 0 
1000 1968 114 0 0 0 
1000 1969 114 0 0 0 
1000 1973 114 0 0 0 
1000 1974 114 0 0 0 
1000 1988 114 0 0 0 
1000 1989 114 0 0 0 
1000 1963 115 0 0 0 
1000 1964 115 0 0 0 
1000 1965 115 0 0 0 
1000 1968 115 0 0 0 
1000 1969 115 0 0 0 
1000 1973 115 0 0 0 
1000 1987 115 0 0 0 
1000 1988 115 0 0 0 
1000 1989 115 0 0 0 
1000 1963 116 0 0 0 
1000 1964 116 0 0 0 
1000 1965 116 0 0 0 
1000 1968 116 0 0 0 
1000 1969 116 0 0 0 
1000 1986 116 0 0 0 
1000 1987 116 0 0 0 
1000 1988 116 0 0 0 
1000 1989 116 0 0 0 
1000 1964 117 0 0 0 
1000 1965 117 0 0 0 
1000 1968 117 0 0 0 
1000 1969 117 0 0 0 
1000 1970 117 0 0 0 
1000 1986 117 0 0 0 
1000 1987 117 0 0 0 
1000 1988 117 0 0 0 
1000 1989 117 0 0 0 
1000 1990 117 0 0 0 
1000 1964 118 0 0 0 
1000 1965 118 0 0 0 
1000 1966 118 0 0 0 
1000 1968 118 0 0 0 
1000 1969 118 0 0 0 
1000 1970 118 0 0 0 
1000 1985 118 0 0 0 
1000 1986 118 0 0 0 
1000 1987 118 0 0 0 
1000 1988 118 0 0 0 
1000 1989 118 0 0 0 
1000 1990 118 0 0 0 
1000 1964 119 0 0 0 
1000 1965 119 0 0 0 
1000 1966 119 0 0 0 
1000 1969 119 0 0 0 
1000 1970 119 0 0 0 
1000 1983 119 0 0 0 
1000 1984 119 0 0 0 
1000 1985 119 0 0 0 
1000 1986 119 0 0 0 
1000 1987 119 0 0 0 
1000 1988 119 0 0 0 
1000 1989 119 0 0 0 
1000 1990 119 0 0 0 
1000 1964 120 0 0 0 
1000 1965 120 0 0 0 
1000 1966 120 0 0 0 
1000 1969 120 0 0 0 
1000 1974 120 0 0 0 
1000 1983 120 0 0 0 
1000 1984 120 0 0 0 
1000 1985 120 0 0 0 
1000 1989 120 0 0 0 
1000 1990 120 0 0 0 
1000 1965 121 0 0 0 
1000 1966 121 0 0 0 
1000 1969 121 0 0 0 
1000 1974 121 0 0 0 
1000 1975 121 0 0 0 
1000 1976 121 0 0 0 
1000 1983 121 0 0 0 
1000 1990 121 0 0 0 
1000 1965 122 0 0 0 
1000 1966 122 0 0 0 
1000 1967 122 0 0 0 
1000 1970 122 0 0 0 
1000 1974 122 0 0 0 
1000 1975 122 0 0 0 
1000 1976 122 0 0 0 
1000 1977 122 0 0 0 
1000 1990 122 0 0 0 
1000 1965 123 0 0 0 
1000 1966 123 0 0 0 
1000 1967 123 0 0 0 
1000 1970 123 0 0 0 
1000 1971 123 0 0 0 
1000 1972 123 0 0 0 
1000 1973 123 0 0 0 
1000 1974 123 0 0 0 
1000 1975 123 0 0 0 
1000 1976 123 0 0 0 
1000 1990 123 0 0 0 
1000 1991 123 0 0 0 
1000 1965 124 0 0 0 
1000 1966 124 0 0 0 
1000 1967 124 0 0 0 
1000 1970 124 0 0 0 
1000 1971 124 0 0 0 
1000 1972 124 0 0 0 
1000 1973 124 0 0 0 
1000 1990 124 0 0 0 
1000 1991 124 0 0 0 
1000 1966 125 0 0 0 
1000 1967 125 0 0 0 
1000 1971 125 0 0 0 
1000 1972 125 0 0 0 
1000 1973 125 0 0 0 
1000 1989 125 0 0 0 
1000 1990 125 0 0 0 
1000 1991 125 0 0 0 
1000 1966 126 0 0 0 
1000 1967 126 0 0 0 
1000 1968 126 0 0 0 
1000 1971 126 0 0 0 
1000 1972 126 0 0 0 
1000 1973 126 0 0 0 
1000 1988 126 0 0 0 
1000 1989 126 0 0 0 
1000 1990 126 0 0 0 
1000 1991 126 0 0 0 
1000 1966 127 0 0 0 
1000 1967 127 0 0 0 
1000 1968 127 0 0 0 
1000 1972 127 0 0 0 
1000 1973 127 0 0 0 
1000 1974 127 0 0 0 
1000 1987 127 0 0 0 
1000 1988 127 0 0 0 
1000 1989 127 0 0 0 
1000 1990 127 0 0 0 
1000 1991 127 0 0 0 
1000 1966 128 0 0 0 
1000 1967 128 0 0 0 
1000 1968 128 0 0 0 
1000 1969 128 0 0 0 
1000 1972 128 0 0 0 
1000 1973 128 0 0 0 
1000 1974 128 0 0 0 
1000 1987 128 0 0 0 
1000 1988 128 0 0 0 
1000 1989 128 0 0 0 
1000 1990 128 0 0 0 
1000 1991 128 0 0 0 
1000 1966 129 0 0 0 
1000 1967 129 0 0 0 
1000 1968 129 0 0 0 
1000 1969 129 0 0 0 
1000 1973 129 0 0 0 
1000 1974 129 0 0 0 
1000 1986 129 0 0 0 
1000 1987 129 0 0 0 
1000 1988 129 0 0 0 
1000 1989 129 0 0 0 
1000 1990 129 0 0 0 
1000 1991 129 0 0 0 
1000 1992 129 0 0 0 
1000 1967 130 0 0 0 
1000 1968 130 0 0 0 
1000 1969 130 0 0 0 
1000 1973 130 0 0 0 
1000 1974 130 0 0 0 
1000 1976 130 0 0 0 
1000 1986 130 0 0 0 
1000 1987 130 0 0 0 
1000 1988 130 0 0 0 
1000 1990 130 0 0 0 
1000 1991 130 0 0 0 
1000 1992 130 0 0 0 
1000 1967 131 0 0 0 
1000 1968 131 0 0 0 
1000 1969 131 0 0 0 
1000 1973 131 0 0 0 
1000 1974 131 0 0 0 
1000 1975 131 0 0 0 
1000 1976 131 0 0 0 
1000 1985 131 0 0 0 
1000 1986 131 0 0 0 
1000 1987 131 0 0 0 
1000 1990 131 0 0 0 
1000 1991 131 0 0 0 
1000 1992 131 0 0 0 
1000 1967 132 0 0 0 
1000 1968 132 0 0 0 
1000 1969 132 0 0 0 
1000 1970 132 0 0 0 
1000 1973 132 0 0 0 
1000 1974 132 0 0 0 
1000 1975 132 0 0 0 
1000 1976 132 0 0 0 
1000 1983 132 0 0 0 
1000 1984 132 0 0 0 
1000 1985 132 0 0 0 
1000 1990 132 0 0 0 
1000 1991 132 0 0 0 
1000 1992 132 0 0 0 
1000 1967 133 0 0 0 
1000 1968 133 0 0 0 
1000 1969 133 0 0 0 
1000 1970 133 0 0 0 
1000 1971 133 0 0 0 
1000 1973 133 0 0 0 
1000 1974 133 0 0 0 
1000 1975 133 0 0 0 
1000 1976 133 0 0 0 
1000 1977 133 0 0 0 
1000 1978 133 0 0 0 
1000 1979 133 0 0 0 
1000 1980 133 0 0 0 
1000 1981 133 0 0 0 
1000 1982 133 0 0 0 
1000 1983 133 0 0 0 
1000 1984 133 0 0 0 
1000 1990 133 0 0 0 
1000 1991 133 0 0 0 
1000 1992 133 0 0 0 
1000 1967 134 0 0 0 
1000 1968 134 0 0 0 
1000 1969 134 0 0 0 
1000 1970 134 0 0 0 
1000 1971 134 0 0 0 
1000 1979 134 0 0 0 
1000 1980 134 0 0 0 
1000 1981 134 0 0 0 
1000 1982 134 0 0 0 
1000 1989 134 0 0 0 
1000 1990 134 0 0 0 
1000 1991 134 0 0 0 
1000 1992 134 0 0 0 
1000 1967 135 0 0 0 
1000 1968 135 0 0 0 
1000 1969 135 0 0 0 
1000 1970 135 0 0 0 
1000 1971 135 0 0 0 
1000 1972 135 0 0 0 
1000 1988 135 0 0 0 
1000 1989 135 0 0 0 
1000 1990 135 0 0 0 
1000 1991 135 0 0 0 
1000 1992 135 0 0 0 
1000 1967 136 0 0 0 
1000 1968 136 0 0 0 
1000 1969 136 0 0 0 
1000 1970 136 0 0 0 
1000 1971 136 0 0 0 
1000 1972 136 0 0 0 
1000 1988 136 0 0 0 
1000 1989 136 0 0 0 
1000 1990 136 0 0 0 
1000 1991 136 0 0 0 
1000 1967 137 0 0 0 
1000 1968 137 0 0 0 
1000 1969 137 0 0 0 
1000 1970 137 0 0 0 
1000 1971 137 0 0 0 
1000 1972 137 0 0 0 
1000 1987 137 0 0 0 
1000 1988 137 0 0 0 
1000 1989 137 0 0 0 
1000 1990 137 0 0 0 
1000 1991 137 0 0 0 
1000 1967 138 0 0 0 
1000 1968 138 0 0 0 
1000 1969 138 0 0 0 
1000 1970 138 0 0 0 
1000 1971 138 0 0 0 
1000 1972 138 0 0 0 
1000 1987 138 0 0 0 
1000 1988 138 0 0 0 
1000 1989 138 0 0 0 
1000 1990 138 0 0 0 
1000 1991 138 0 0 0 
1000 1967 139 0 0 0 
1000 1968 139 0 0 0 
1000 1969 139 0 0 0 
1000 1971 139 0 0 0 
1000 1972 139 0 0 0 
1000 1987 139 0 0 0 
1000 1988 139 0 0 0 
1000 1989 139 0 0 0 
1000 1990 139 0 0 0 
1000 1991 139 0 0 0 
1000 1967 140 0 0 0 
1000 1968 140 0 0 0 
1000 1969 140 0 0 0 
1000 1971 140 0 0 0 
1000 1972 140 0 0 0 
1000 1986 140 0 0 0 
1000 1987 140 0 0 0 
1000 1988 140 0 0 0 
1000 1989 140 0 0 0 
1000 1990 140 0 0 0 
1000 1991 140 0 0 0 
1000 1967 141 0 0 0 
1000 1968 141 0 0 0 
1000 1969 141 0 0 0 
1000 1972 141 0 0 0 
1000 1973 141 0 0 0 
1000 1984 141 0 0 0 
1000 1985 141 0 0 0 
1000 1986 141 0 0 0 
1000 1987 141 0 0 0 
1000 1988 141 0 0 0 
1000 1989 141 0 0 0 
1000 1990 141 0 0 0 
1000 1967 142 0 0 0 
1000 1968 142 0 0 0 
1000 1969 142 0 0 0 
1000 1972 142 0 0 0 
1000 1973 142 0 0 0 
1000 1974 142 0 0 0 
1000 1983 142 0 0 0 
1000 1984 142 0 0 0 
1000 1985 142 0 0 0 
1000 1986 142 0 0 0 
1000 1987 142 0 0 0 
1000 1988 142 0 0 0 
1000 1989 142 0 0 0 
1000 1990 142 0 0 0 
1000 1967 143 0 0 0 
1000 1968 143 0 0 0 
1000 1969 143 0 0 0 
1000 1973 143 0 0 0 
1000 1974 143 0 0 0 
1000 1975 143 0 0 0 
1000 1976 143 0 0 0 
1000 1977 143 0 0 0 
1000 1978 143 0 0 0 
1000 1979 143 0 0 0 
1000 1982 143 0 0 0 
1000 1983 143 0 0 0 
1000 1984 143 0 0 0 
1000 1985 143 0 0 0 
1000 1987 143 0 0 0 
1000 1988 143 0 0 0 
1000 1989 143 0 0 0 
1000 1990 143 0 0 0 
1000 1966 144 0 0 0 
1000 1967 144 0 0 0 
1000 1968 144 0 0 0 
1000 1969 144 0 0 0 
1000 1975 144 0 0 0 
1000 1976 144 0 0 0 
1000 1977 144 0 0 0 
1000 1978 144 0 0 0 
1000 1979 144 0 0 0 
1000 1980 144 0 0 0 
1000 1981 144 0 0 0 
1000 1982 144 0 0 0 
1000 1983 144 0 0 0 
1000 1987 144 0 0 0 
1000 1988 144 0 0 0 
1000 1989 144 0 0 0 
1000 1990 144 0 0 0 
1000 1966 145 0 0 0 
1000 1967 145 0 0 0 
1000 1968 145 0 0 0 
1000 1969 145 0 0 0 
1000 1978 145 0 0 0 
1000 1979 145 0 0 0 
1000 1986 145 0 0 0 
1000 1987 145 0 0 0 
1000 1988 145 0 0 0 
1000 1989 145 0 0 0 
1000 1990 145 0 0 0 
1000 1966 146 0 0 0 
1000 1967 146 0 0 0 
1000 1968 146 0 0 0 
1000 1969 146 0 0 0 
1000 1986 146 0 0 0 
1000 1987 146 0 0 0 
1000 1988 146 0 0 0 
1000 1989 146 0 0 0 
1000 1967 147 0 0 0 
1000 1968 147 0 0 0 
1000 1969 147 0 0 0 
1000 1970 147 0 0 0 
1000 1985 147 0 0 0 
1000 1986 147 0 0 0 
1000 1987 147 0 0 0 
1000 1988 147 0 0 0 
1000 1967 148 0 0 0 
1000 1968 148 0 0 0 
1000 1969 148 0 0 0 
1000 1970 148 0 0 0 
1000 1971 148 0 0 0 
1000 1982 148 0 0 0 
1000 1983 148 0 0 0 
1000 1984 148 0 0 0 
1000 1985 148 0 0 0 
1000 1986 148 0 0 0 
1000 1987 148 0 0 0 
1000 1968 149 0 0 0 
1000 1969 149 0 0 0 
1000 1970 149 0 0 0 
1000 1971 149 0 0 0 
1000 1972 149 0 0 0 
1000 1973 149 0 0 0 
1000 1974 149 0 0 0 
1000 1978 149 0 0 0 
1000 1979 149 0 0 0 
1000 1980 149 0 0 0 
1000 1981 149 0 0 0 
1000 1982 149 0 0 0 
1000 1983 149 0 0 0 
1000 1984 149 0 0 0 
1000 1985 149 0 0 0 
1000 1986 149 0 0 0 
1000 1968 150 0 0 0 
1000 1969 150 0 0 0 
1000 1970 150 0 0 0 
1000 1971 150 0 0 0 
1000 1972 150 0 0 0 
1000 1973 150 0 0 0 
1000 1974 150 0 0 0 
1000 1975 150 0 0 0 
1000 1976 150 0 0 0 
1000 1977 150 0 0 0 
1000 1978 150 0 0 0 
1000 1979 150 0 0 0 
1000 1980 150 0 0 0 
1000 1981 150 0 0 0 
1000 1982 150 0 0 0 
1000 1983 150 0 0 0 
1000 1984 150 0 0 0 
1000 1968 151 0 0 0 
1000 1969 151 0 0 0 
1000 1970 151 0 0 0 
1000 1971 151 0 0 0 
1000 1972 151 0 0 0 
1000 1973 151 0 0 0 
1000 1974 151 0 0 0 
1000 1975 151 0 0 0 
1000 1976 151 0 0 0 
1000 1977 151 0 0 0 
1000 1978 151 0 0 0 
1000 1979 151 0 0 0 
1000 1980 151 0 0 0 
1000 1981 151 0 0 0 
1000 1982 151 0 0 0 
1000 1983 151 0 0 0 
1000 1970 152 0 0 0 
1000 1971 152 0 0 0 
1000 1972 152 0 0 0 
1000 1973 152 0 0 0 
1000 1974 152 0 0 0 
1000 1975 152 0 0 0 
1000 1976 152 0 0 0 
1000 1977 152 0 0 0 
1000 1978 152 0 0 0 
1000 1979 152 0 0 0 
1000 1980 152 0 0 0 
1000 1981 152 0 0 0 
