ply
format ascii 1.0
element vertex 325
property float x
property float y
property float z
element face 0
property list uchar int vertex_index
end_header
1011	1995	0
1011	1996	0
1012	1995	0
1012	1996	0
1013	1995	0
1013	1996	0
1014	1995	0
1014	1996	0
1014	1997	0
1015	1995	0
1015	1996	0
1015	1997	0
1016	1995	0
1016	1996	0
1016	1997	0
1017	1995	0
1017	1996	0
1017	1997	0
1018	1995	0
1018	1996	0
1019	1995	0
1019	1996	0
1020	1995	0
1020	1996	0
1020	1997	0
1021	1995	0
1021	1996	0
1022	1995	0
1022	1996	0
1023	1995	0
1023	1996	0
1024	1994	0
1024	1995	0
1024	1996	0
1025	1994	0
1025	1995	0
1025	1996	0
1026	1993	0
1026	1994	0
1026	1995	0
1026	1996	0
1027	1992	0
1027	1993	0
1027	1994	0
1027	1995	0
1028	1992	0
1028	1993	0
1028	1994	0
1029	1992	0
1029	1993	0
1029	1994	0
1030	1992	0
1030	1993	0
1030	1994	0
1031	1994	0
1031	1995	0
1032	1995	0
1033	1995	0
1034	1995	0
1034	1996	0
1035	1994	0
1035	1995	0
1035	1996	0
1036	1994	0
1036	1995	0
1036	1996	0
1037	1994	0
1037	1995	0
1037	1996	0
1038	1995	0
1038	1996	0
1039	1995	0
1039	1996	0
1040	1994	0
1040	1995	0
1040	1996	0
1041	1994	0
1041	1995	0
1041	1996	0
1041	1997	0
1042	1959	0
1042	1960	0
1042	1961	0
1042	1994	0
1042	1995	0
1042	1996	0
1042	1997	0
1043	1954	0
1043	1955	0
1043	1956	0
1043	1957	0
1043	1958	0
1043	1959	0
1043	1960	0
1043	1961	0
1043	1994	0
1043	1995	0
1043	1996	0
1043	1997	0
1044	1945	0
1044	1946	0
1044	1947	0
1044	1948	0
1044	1949	0
1044	1950	0
1044	1951	0
1044	1952	0
1044	1953	0
1044	1954	0
1044	1955	0
1044	1956	0
1044	1957	0
1044	1958	0
1044	1959	0
1044	1960	0
1044	1961	0
1044	1962	0
1044	1993	0
1044	1994	0
1044	1995	0
1044	1996	0
1044	1997	0
1045	1892	0
1045	1893	0
1045	1894	0
1045	1895	0
1045	1896	0
1045	1897	0
1045	1898	0
1045	1899	0
1045	1900	0
1045	1942	0
1045	1943	0
1045	1944	0
1045	1945	0
1045	1946	0
1045	1947	0
1045	1948	0
1045	1949	0
1045	1950	0
1045	1951	0
1045	1952	0
1045	1953	0
1045	1954	0
1045	1955	0
1045	1956	0
1045	1957	0
1045	1958	0
1045	1959	0
1045	1960	0
1045	1961	0
1045	1962	0
1045	1963	0
1045	1992	0
1045	1993	0
1045	1994	0
1045	1995	0
1045	1996	0
1046	1892	0
1046	1893	0
1046	1894	0
1046	1895	0
1046	1896	0
1046	1897	0
1046	1898	0
1046	1899	0
1046	1900	0
1046	1901	0
1046	1902	0
1046	1903	0
1046	1904	0
1046	1905	0
1046	1906	0
1046	1907	0
1046	1908	0
1046	1909	0
1046	1939	0
1046	1940	0
1046	1941	0
1046	1942	0
1046	1943	0
1046	1944	0
1046	1945	0
1046	1946	0
1046	1947	0
1046	1954	0
1046	1959	0
1046	1960	0
1046	1961	0
1046	1962	0
1046	1963	0
1046	1964	0
1046	1965	0
1046	1966	0
1046	1967	0
1046	1991	0
1046	1992	0
1046	1993	0
1046	1994	0
1047	1892	0
1047	1896	0
1047	1897	0
1047	1898	0
1047	1903	0
1047	1904	0
1047	1905	0
1047	1906	0
1047	1907	0
1047	1908	0
1047	1909	0
1047	1910	0
1047	1911	0
1047	1912	0
1047	1913	0
1047	1914	0
1047	1915	0
1047	1938	0
1047	1939	0
1047	1940	0
1047	1941	0
1047	1942	0
1047	1965	0
1047	1966	0
1047	1967	0
1047	1968	0
1047	1969	0
1047	1970	0
1047	1971	0
1047	1988	0
1047	1989	0
1047	1990	0
1047	1991	0
1047	1992	0
1047	1993	0
1048	1908	0
1048	1909	0
1048	1910	0
1048	1911	0
1048	1912	0
1048	1913	0
1048	1914	0
1048	1915	0
1048	1916	0
1048	1917	0
1048	1918	0
1048	1919	0
1048	1920	0
1048	1921	0
1048	1922	0
1048	1923	0
1048	1924	0
1048	1925	0
1048	1926	0
1048	1927	0
1048	1928	0
1048	1929	0
1048	1930	0
1048	1931	0
1048	1932	0
1048	1933	0
1048	1934	0
1048	1935	0
1048	1969	0
1048	1970	0
1048	1971	0
1048	1972	0
1048	1973	0
1048	1974	0
1048	1975	0
1048	1976	0
1048	1982	0
1048	1983	0
1048	1984	0
1048	1985	0
1048	1986	0
1048	1987	0
1048	1988	0
1048	1989	0
1048	1990	0
1048	1991	0
1048	1992	0
1049	1914	0
1049	1915	0
1049	1916	0
1049	1919	0
1049	1920	0
1049	1921	0
1049	1922	0
1049	1923	0
1049	1924	0
1049	1925	0
1049	1927	0
1049	1928	0
1049	1929	0
1049	1930	0
1049	1931	0
1049	1932	0
1049	1933	0
1049	1934	0
1049	1973	0
1049	1974	0
1049	1975	0
1049	1976	0
1049	1977	0
1049	1978	0
1049	1979	0
1049	1980	0
1049	1981	0
1049	1982	0
1049	1983	0
1049	1984	0
1049	1985	0
1049	1987	0
1049	1988	0
1049	1989	0
1050	1929	0
1050	1930	0
1050	1931	0
1050	1977	0
1050	1978	0
1050	1979	0
1050	1980	0
1050	1981	0
1050	1982	0
1050	1983	0
