ply
format ascii 1.0           
element vertex 18
property float x           
property float y           
property float z           
element face 4
property list uchar int vertex_index 
end_header 
1.000000	0.000000	0.000000
0.000000	1.000000	0.000000
0.000000	0.000000	1.000000
0.707107	0.707107	0.000000
0.000000	0.707107	0.707107
0.707107	0.000000	0.707107
0.923880	0.382683	0.000000
0.816497	0.408248	0.408248
0.923880	0.000000	0.382683
0.382683	0.923880	0.000000
0.000000	0.923880	0.382683
0.408248	0.816497	0.408248
0.000000	0.382683	0.923880
0.382683	0.000000	0.923880
0.408248	0.408248	0.816497
0.408248	0.816497	0.408248
0.408248	0.408248	0.816497
0.816497	0.408248	0.408248
3	0	3	5
3	3	1	4
3	4	2	5
3	3	4	5