ply
format ascii 1.0           
element vertex 72
property float x           
property float y           
property float z           
element face 64
property list uchar int vertex_index 
end_header 
1.000000	0.000000	0.000000
0.000000	1.000000	0.000000
0.000000	0.000000	1.000000
0.707107	0.707107	0.000000
0.000000	0.707107	0.707107
0.707107	0.000000	0.707107
0.923880	0.382683	0.000000
0.816497	0.408248	0.408248
0.923880	0.000000	0.382683
0.382683	0.923880	0.000000
0.000000	0.923880	0.382683
0.408248	0.816497	0.408248
0.000000	0.382683	0.923880
0.382683	0.000000	0.923880
0.408248	0.408248	0.816497
0.408248	0.816497	0.408248
0.408248	0.408248	0.816497
0.816497	0.408248	0.408248
0.000000	0.000000	-1.000000
0.000000	1.000000	0.000000
1.000000	0.000000	0.000000
0.000000	0.707107	-0.707107
0.707107	0.707107	0.000000
0.707107	0.000000	-0.707107
0.000000	0.382683	-0.923880
0.408248	0.408248	-0.816497
0.382683	0.000000	-0.923880
0.000000	0.923880	-0.382683
0.382683	0.923880	0.000000
0.408248	0.816497	-0.408248
0.923880	0.382683	0.000000
0.923880	0.000000	-0.382683
0.816497	0.408248	-0.408248
0.408248	0.816497	-0.408248
0.816497	0.408248	-0.408248
0.408248	0.408248	-0.816497
-1.000000	0.000000	-0.000000
0.000000	1.000000	0.000000
0.000000	0.000000	-1.000000
-0.707107	0.707107	-0.000000
0.000000	0.707107	-0.707107
-0.707107	0.000000	-0.707107
-0.923880	0.382683	-0.000000
-0.816497	0.408248	-0.408248
-0.923880	0.000000	-0.382683
-0.382683	0.923880	-0.000000
0.000000	0.923880	-0.382683
-0.408248	0.816497	-0.408248
0.000000	0.382683	-0.923880
-0.382683	0.000000	-0.923880
-0.408248	0.408248	-0.816497
-0.408248	0.816497	-0.408248
-0.408248	0.408248	-0.816497
-0.816497	0.408248	-0.408248
-0.000000	0.000000	1.000000
0.000000	1.000000	0.000000
-1.000000	0.000000	-0.000000
-0.000000	0.707107	0.707107
-0.707107	0.707107	-0.000000
-0.707107	0.000000	0.707107
-0.000000	0.382683	0.923880
-0.408248	0.408248	0.816497
-0.382683	0.000000	0.923880
-0.000000	0.923880	0.382683
-0.382683	0.923880	-0.000000
-0.408248	0.816497	0.408248
-0.923880	0.382683	-0.000000
-0.923880	0.000000	0.382683
-0.816497	0.408248	0.408248
-0.408248	0.816497	0.408248
-0.816497	0.408248	0.408248
-0.408248	0.408248	0.816497
3	0	6	8
3	6	3	7
3	6	7	8
3	8	7	5
3	3	9	11
3	3	11	7
3	7	11	16
3	7	16	5
3	5	16	13
3	9	1	10
3	9	10	11
3	11	10	4
3	4	12	14
3	11	4	16
3	12	13	14
3	13	12	2
3	18	24	26
3	24	21	25
3	24	25	26
3	26	25	23
3	21	27	29
3	21	29	25
3	25	29	34
3	25	34	23
3	23	34	31
3	27	19	28
3	27	28	29
3	29	28	22
3	29	22	34
3	22	30	32
3	30	31	32
3	31	30	20
3	36	42	44
3	42	39	43
3	42	43	44
3	44	43	41
3	39	45	47
3	39	47	43
3	43	47	52
3	43	52	41
3	41	52	49
3	45	37	46
3	45	46	47
3	47	46	40
3	47	40	52
3	40	48	50
3	48	49	50
3	49	48	38
3	54	60	62
3	60	57	61
3	60	61	62
3	62	61	59
3	57	63	65
3	57	65	61
3	61	65	70
3	61	70	59
3	59	70	67
3	63	55	64
3	63	64	65
3	65	64	58
3	65	58	70
3	58	66	68
3	66	67	68
3	67	66	56