ply
format ascii 1.0           
element vertex 150
property float x           
property float y           
property float z           
element face 0
property list uchar int vertex_index 
end_header                 
1.5400	 9.0200	 0.0000
1.5294	 9.0465	 0.0000
1.5177	 9.0739	 0.0000
1.5053	 9.1022	 0.0000
1.4926	 9.1314	 0.0000
1.4800	 9.1613	 0.0000
1.4678	 9.1918	 0.0000
1.4563	 9.2231	 0.0000
1.4459	 9.2549	 0.0000
1.4370	 9.2872	 0.0000
1.4300	 9.3200	 0.0000
1.4243	 9.3542	 0.0000
1.4194	 9.3904	 0.0000
1.4152	 9.4280	 0.0000
1.4121	 9.4664	 0.0000
1.4100	 9.5050	 0.0000
1.4091	 9.5432	 0.0000
1.4096	 9.5804	 0.0000
1.4114	 9.6160	 0.0000
1.4149	 9.6494	 0.0000
1.4200	 9.6800	 0.0000
1.4272	 9.7083	 0.0000
1.4364	 9.7352	 0.0000
1.4474	 9.7607	 0.0000
1.4600	 9.7848	 0.0000
1.4737	 9.8075	 0.0000
1.4884	 9.8288	 0.0000
1.5036	 9.8487	 0.0000
1.5192	 9.8672	 0.0000
1.5347	 9.8843	 0.0000
1.5500	 9.9000	 0.0000
1.5652	 9.9139	 0.0000
1.5808	 9.9259	 0.0000
1.5968	 9.9362	 0.0000
1.6132	 9.9450	 0.0000
1.6300	 9.9525	 0.0000
1.6472	 9.9590	 0.0000
1.6648	 9.9648	 0.0000
1.6828	 9.9701	 0.0000
1.7012	 9.9751	 0.0000
1.7200	 9.9800	 0.0000
1.7396	 9.9847	 0.0000
1.7601	 9.9886	 0.0000
1.7813	 9.9920	 0.0000
1.8030	 9.9947	 0.0000
1.8250	 9.9969	 0.0000
1.8470	 9.9985	 0.0000
1.8687	 9.9996	 0.0000
1.8899	 10.0002	 0.0000
1.9104	 10.0003	 0.0000
1.9300	 10.0000	 0.0000
1.9488	 9.9993	 0.0000
1.9670	 9.9982	 0.0000
1.9849	 9.9966	 0.0000
2.0023	 9.9945	 0.0000
2.0194	 9.9919	 0.0000
2.0361	 9.9887	 0.0000
2.0525	 9.9850	 0.0000
2.0686	 9.9806	 0.0000
2.0844	 9.9757	 0.0000
2.1000	 9.9700	 0.0000
2.1153	 9.9636	 0.0000
2.1304	 9.9565	 0.0000
2.1451	 9.9487	 0.0000
2.1596	 9.9402	 0.0000
2.1737	 9.9312	 0.0000
2.1876	 9.9218	 0.0000
2.2012	 9.9118	 0.0000
2.2144	 9.9015	 0.0000
2.2273	 9.8909	 0.0000
2.2400	 9.8800	 0.0000
2.2526	 9.8688	 0.0000
2.2652	 9.8574	 0.0000
2.2777	 9.8455	 0.0000
2.2900	 9.8333	 0.0000
2.3019	 9.8206	 0.0000
2.3132	 9.8075	 0.0000
2.3238	 9.7939	 0.0000
2.3336	 9.7798	 0.0000
2.3424	 9.7652	 0.0000
2.3500	 9.7500	 0.0000
2.3565	 9.7339	 0.0000
2.3621	 9.7169	 0.0000
2.3668	 9.6990	 0.0000
2.3706	 9.6806	 0.0000
2.3738	 9.6619	 0.0000
2.3762	 9.6430	 0.0000
2.3779	 9.6241	 0.0000
2.3791	 9.6055	 0.0000
2.3798	 9.5874	 0.0000
2.3800	 9.5700	 0.0000
2.3793	 9.5534	 0.0000
2.3775	 9.5374	 0.0000
2.3748	 9.5218	 0.0000
2.3714	 9.5065	 0.0000
2.3675	 9.4913	 0.0000
2.3634	 9.4759	 0.0000
2.3594	 9.4603	 0.0000
2.3557	 9.4442	 0.0000
2.3525	 9.4275	 0.0000
2.3500	 9.4100	 0.0000
2.3484	 9.3914	 0.0000
2.3475	 9.3719	 0.0000
2.3471	 9.3517	 0.0000
2.3470	 9.3310	 0.0000
2.3469	 9.3100	 0.0000
2.3466	 9.2890	 0.0000
2.3460	 9.2683	 0.0000
2.3449	 9.2481	 0.0000
2.3429	 9.2286	 0.0000
2.3400	 9.2100	 0.0000
2.3361	 9.1923	 0.0000
2.3314	 9.1751	 0.0000
2.3260	 9.1584	 0.0000
2.3201	 9.1422	 0.0000
2.3138	 9.1262	 0.0000
2.3071	 9.1106	 0.0000
2.3003	 9.0953	 0.0000
2.2934	 9.0801	 0.0000
2.2866	 9.0650	 0.0000
2.2800	 9.0500	 0.0000
2.2757	 9.0351	 0.0000
2.2748	 9.0202	 0.0000
2.2758	 9.0056	 0.0000
2.2772	 8.9911	 0.0000
2.2775	 8.9769	 0.0000
2.2752	 8.9629	 0.0000
2.2688	 8.9492	 0.0000
2.2568	 8.9358	 0.0000
2.2377	 8.9227	 0.0000
2.2100	 8.9100	 0.0000
2.1704	 8.8963	 0.0000
2.1188	 8.8808	 0.0000
2.0580	 8.8644	 0.0000
1.9912	 8.8480	 0.0000
1.9212	 8.8325	 0.0000
1.8512	 8.8188	 0.0000
1.7840	 8.8078	 0.0000
1.7228	 8.8004	 0.0000
1.6704	 8.7975	 0.0000
1.6300	 8.8000	 0.0000
1.6012	 8.8083	 0.0000
1.5810	 8.8216	 0.0000
1.5676	 8.8392	 0.0000
1.5597	 8.8604	 0.0000
1.5556	 8.8844	 0.0000
1.5539	 8.9104	 0.0000
1.5530	 8.9377	 0.0000
1.5514	 8.9656	 0.0000
1.5476	 8.9933	 0.0000