ply
format ascii 1.0           
element vertex 270
property float x           
property float y           
property float z           
element face 0
property list uchar int vertex_index 
end_header                 
1.0100	 4.2000	 0.0000
1.0165	 4.1710	 0.0000
1.0232	 4.1462	 0.0000
1.0299	 4.1245	 0.0000
1.0368	 4.1049	 0.0000
1.0438	 4.0862	 0.0000
1.0508	 4.0675	 0.0000
1.0580	 4.0476	 0.0000
1.0652	 4.0254	 0.0000
1.0726	 3.9999	 0.0000
1.0800	 3.9700	 0.0000
1.0874	 3.9357	 0.0000
1.0947	 3.8982	 0.0000
1.1020	 3.8580	 0.0000
1.1094	 3.8157	 0.0000
1.1169	 3.7719	 0.0000
1.1246	 3.7271	 0.0000
1.1327	 3.6820	 0.0000
1.1413	 3.6370	 0.0000
1.1503	 3.5929	 0.0000
1.1600	 3.5500	 0.0000
1.1706	 3.5076	 0.0000
1.1822	 3.4647	 0.0000
1.1946	 3.4215	 0.0000
1.2075	 3.3782	 0.0000
1.2206	 3.3350	 0.0000
1.2337	 3.2922	 0.0000
1.2464	 3.2501	 0.0000
1.2586	 3.2089	 0.0000
1.2698	 3.1688	 0.0000
1.2800	 3.1300	 0.0000
1.2893	 3.0931	 0.0000
1.2982	 3.0580	 0.0000
1.3066	 3.0243	 0.0000
1.3145	 2.9916	 0.0000
1.3219	 2.9594	 0.0000
1.3287	 2.9272	 0.0000
1.3350	 2.8946	 0.0000
1.3406	 2.8612	 0.0000
1.3457	 2.8265	 0.0000
1.3500	 2.7900	 0.0000
1.3536	 2.7517	 0.0000
1.3565	 2.7122	 0.0000
1.3587	 2.6715	 0.0000
1.3602	 2.6301	 0.0000
1.3613	 2.5881	 0.0000
1.3618	 2.5459	 0.0000
1.3618	 2.5037	 0.0000
1.3615	 2.4618	 0.0000
1.3609	 2.4205	 0.0000
1.3600	 2.3800	 0.0000
1.3581	 2.3401	 0.0000
1.3548	 2.3006	 0.0000
1.3505	 2.2612	 0.0000
1.3456	 2.2221	 0.0000
1.3406	 2.1831	 0.0000
1.3360	 2.1443	 0.0000
1.3322	 2.1056	 0.0000
1.3296	 2.0670	 0.0000
1.3287	 2.0285	 0.0000
1.3300	 1.9900	 0.0000
1.3335	 1.9513	 0.0000
1.3388	 1.9124	 0.0000
1.3456	 1.8734	 0.0000
1.3536	 1.8344	 0.0000
1.3625	 1.7956	 0.0000
1.3720	 1.7572	 0.0000
1.3818	 1.7193	 0.0000
1.3916	 1.6820	 0.0000
1.4011	 1.6455	 0.0000
1.4100	 1.6100	 0.0000
1.4188	 1.5757	 0.0000
1.4282	 1.5426	 0.0000
1.4378	 1.5105	 0.0000
1.4477	 1.4791	 0.0000
1.4575	 1.4481	 0.0000
1.4671	 1.4173	 0.0000
1.4764	 1.3863	 0.0000
1.4850	 1.3550	 0.0000
1.4930	 1.3229	 0.0000
1.5000	 1.2900	 0.0000
1.5058	 1.2566	 0.0000
1.5106	 1.2232	 0.0000
1.5144	 1.1897	 0.0000
1.5177	 1.1560	 0.0000
1.5206	 1.1219	 0.0000
1.5235	 1.0872	 0.0000
1.5266	 1.0518	 0.0000
1.5302	 1.0156	 0.0000
1.5346	 0.9784	 0.0000
1.5400	 0.9400	 0.0000
1.5468	 0.8993	 0.0000
1.5549	 0.8559	 0.0000
1.5639	 0.8106	 0.0000
1.5734	 0.7642	 0.0000
1.5831	 0.7175	 0.0000
1.5926	 0.6714	 0.0000
1.6014	 0.6268	 0.0000
1.6091	 0.5845	 0.0000
1.6155	 0.5453	 0.0000
1.6200	 0.5100	 0.0000
1.6237	 0.4786	 0.0000
1.6274	 0.4501	 0.0000
1.6309	 0.4241	 0.0000
1.6335	 0.4002	 0.0000
1.6350	 0.3781	 0.0000
1.6349	 0.3574	 0.0000
1.6327	 0.3376	 0.0000
1.6282	 0.3183	 0.0000
1.6207	 0.2993	 0.0000
1.6100	 0.2800	 0.0000
1.5939	 0.2610	 0.0000
1.5718	 0.2429	 0.0000
1.5451	 0.2256	 0.0000
1.5157	 0.2090	 0.0000
1.4850	 0.1931	 0.0000
1.4547	 0.1778	 0.0000
1.4265	 0.1629	 0.0000
1.4018	 0.1483	 0.0000
1.3825	 0.1341	 0.0000
1.3700	 0.1200	 0.0000
1.3633	 0.1058	 0.0000
1.3602	 0.0915	 0.0000
1.3603	 0.0773	 0.0000
1.3637	 0.0634	 0.0000
1.3700	 0.0500	 0.0000
1.3791	 0.0374	 0.0000
1.3909	 0.0259	 0.0000
1.4050	 0.0157	 0.0000
1.4215	 0.0070	 0.0000
1.4400	 0.0000	 0.0000
1.4626	 -0.0049	 0.0000
1.4906	 -0.0077	 0.0000
1.5227	 -0.0088	 0.0000
1.5577	 -0.0086	 0.0000
1.5944	 -0.0075	 0.0000
1.6315	 -0.0058	 0.0000
1.6679	 -0.0038	 0.0000
1.7022	 -0.0019	 0.0000
1.7334	 -0.0005	 0.0000
1.7600	 0.0000	 0.0000
1.7833	 -0.0015	 0.0000
1.8051	 -0.0053	 0.0000
1.8254	 -0.0104	 0.0000
1.8442	 -0.0158	 0.0000
1.8612	 -0.0206	 0.0000
1.8766	 -0.0238	 0.0000
1.8903	 -0.0243	 0.0000
1.9021	 -0.0211	 0.0000
1.9120	 -0.0134	 0.0000
1.9200	 0.0000	 0.0000
1.9251	 0.0197	 0.0000
1.9269	 0.0450	 0.0000
1.9260	 0.0751	 0.0000
1.9230	 0.1087	 0.0000
1.9187	 0.1450	 0.0000
1.9138	 0.1829	 0.0000
1.9087	 0.2213	 0.0000
1.9043	 0.2594	 0.0000
1.9012	 0.2959	 0.0000
1.9000	 0.3300	 0.0000
1.9004	 0.3619	 0.0000
1.9016	 0.3929	 0.0000
1.9034	 0.4233	 0.0000
1.9056	 0.4534	 0.0000
1.9081	 0.4837	 0.0000
1.9108	 0.5146	 0.0000
1.9135	 0.5462	 0.0000
1.9160	 0.5791	 0.0000
1.9182	 0.6136	 0.0000
1.9200	 0.6500	 0.0000
1.9214	 0.6887	 0.0000
1.9226	 0.7294	 0.0000
1.9237	 0.7719	 0.0000
1.9247	 0.8155	 0.0000
1.9256	 0.8600	 0.0000
1.9265	 0.9049	 0.0000
1.9273	 0.9497	 0.0000
1.9282	 0.9942	 0.0000
1.9290	 1.0377	 0.0000
1.9300	 1.0800	 0.0000
1.9313	 1.1215	 0.0000
1.9330	 1.1629	 0.0000
1.9349	 1.2041	 0.0000
1.9369	 1.2450	 0.0000
1.9388	 1.2856	 0.0000
1.9403	 1.3258	 0.0000
1.9414	 1.3654	 0.0000
1.9418	 1.4043	 0.0000
1.9414	 1.4426	 0.0000
1.9400	 1.4800	 0.0000
1.9373	 1.5156	 0.0000
1.9335	 1.5490	 0.0000
1.9288	 1.5807	 0.0000
1.9234	 1.6117	 0.0000
1.9175	 1.6425	 0.0000
1.9114	 1.6739	 0.0000
1.9054	 1.7067	 0.0000
1.8997	 1.7414	 0.0000
1.8945	 1.7790	 0.0000
1.8900	 1.8200	 0.0000
1.8859	 1.8655	 0.0000
1.8816	 1.9152	 0.0000
1.8773	 1.9681	 0.0000
1.8732	 2.0232	 0.0000
1.8694	 2.0794	 0.0000
1.8660	 2.1356	 0.0000
1.8632	 2.1908	 0.0000
1.8612	 2.2440	 0.0000
1.8601	 2.2941	 0.0000
1.8600	 2.3400	 0.0000
1.8615	 2.3812	 0.0000
1.8646	 2.4185	 0.0000
1.8691	 2.4528	 0.0000
1.8743	 2.4850	 0.0000
1.8800	 2.5163	 0.0000
1.8857	 2.5474	 0.0000
1.8909	 2.5793	 0.0000
1.8954	 2.6131	 0.0000
1.8985	 2.6497	 0.0000
1.9000	 2.6900	 0.0000
1.8996	 2.7336	 0.0000
1.8977	 2.7793	 0.0000
1.8946	 2.8268	 0.0000
1.8906	 2.8758	 0.0000
1.8863	 2.9263	 0.0000
1.8818	 2.9778	 0.0000
1.8775	 3.0301	 0.0000
1.8739	 3.0831	 0.0000
1.8713	 3.1365	 0.0000
1.8700	 3.1900	 0.0000
1.8701	 3.2449	 0.0000
1.8711	 3.3021	 0.0000
1.8730	 3.3609	 0.0000
1.8754	 3.4206	 0.0000
1.8781	 3.4806	 0.0000
1.8810	 3.5402	 0.0000
1.8839	 3.5986	 0.0000
1.8865	 3.6551	 0.0000
1.8886	 3.7092	 0.0000
1.8900	 3.7600	 0.0000
1.8950	 3.8074	 0.0000
1.9063	 3.8519	 0.0000
1.9211	 3.8941	 0.0000
1.9366	 3.9346	 0.0000
1.9500	 3.9738	 0.0000
1.9586	 4.0122	 0.0000
1.9597	 4.0506	 0.0000
1.9505	 4.0893	 0.0000
1.9282	 4.1289	 0.0000
1.8900	 4.1700	 0.0000
1.8296	 4.2159	 0.0000
1.7462	 4.2680	 0.0000
1.6456	 4.3237	 0.0000
1.5337	 4.3804	 0.0000
1.4162	 4.4356	 0.0000
1.2991	 4.4868	 0.0000
1.1881	 4.5314	 0.0000
1.0890	 4.5668	 0.0000
1.0077	 4.5905	 0.0000
0.9500	 4.6000	 0.0000
0.9155	 4.5928	 0.0000
0.8978	 4.5704	 0.0000
0.8942	 4.5357	 0.0000
0.9015	 4.4916	 0.0000
0.9169	 4.4412	 0.0000
0.9373	 4.3876	 0.0000
0.9598	 4.3336	 0.0000
0.9814	 4.2824	 0.0000
0.9991	 4.2368	 0.0000